%TF.GenerationSoftware,KiCad,Pcbnew,7.0.5*%
%TF.CreationDate,2023-07-28T21:19:53-04:00*%
%TF.ProjectId,proyecto de cuatrinestre,70726f79-6563-4746-9f20-646520637561,rev?*%
%TF.SameCoordinates,Original*%
%TF.FileFunction,Copper,L2,Inr*%
%TF.FilePolarity,Positive*%
%FSLAX46Y46*%
G04 Gerber Fmt 4.6, Leading zero omitted, Abs format (unit mm)*
G04 Created by KiCad (PCBNEW 7.0.5) date 2023-07-28 21:19:53*
%MOMM*%
%LPD*%
G01*
G04 APERTURE LIST*
%TA.AperFunction,ComponentPad*%
%ADD10R,1.508000X1.508000*%
%TD*%
%TA.AperFunction,ComponentPad*%
%ADD11C,1.508000*%
%TD*%
%TA.AperFunction,ComponentPad*%
%ADD12C,3.000000*%
%TD*%
%TA.AperFunction,HeatsinkPad*%
%ADD13C,0.600000*%
%TD*%
%TA.AperFunction,ComponentPad*%
%ADD14R,2.550000X2.550000*%
%TD*%
%TA.AperFunction,ComponentPad*%
%ADD15C,2.550000*%
%TD*%
%TA.AperFunction,ComponentPad*%
%ADD16R,2.000000X2.300000*%
%TD*%
%TA.AperFunction,ComponentPad*%
%ADD17C,2.300000*%
%TD*%
%TA.AperFunction,ComponentPad*%
%ADD18C,1.500000*%
%TD*%
%TA.AperFunction,ComponentPad*%
%ADD19C,1.750000*%
%TD*%
%TA.AperFunction,ComponentPad*%
%ADD20R,1.700000X1.700000*%
%TD*%
%TA.AperFunction,ComponentPad*%
%ADD21O,1.700000X1.700000*%
%TD*%
%TA.AperFunction,ComponentPad*%
%ADD22C,1.400000*%
%TD*%
%TA.AperFunction,ViaPad*%
%ADD23C,0.700000*%
%TD*%
%TA.AperFunction,ViaPad*%
%ADD24C,0.800000*%
%TD*%
G04 APERTURE END LIST*
D10*
%TO.N,GND*%
%TO.C,U16*%
X260302500Y-180600000D03*
D11*
%TO.N,VDD*%
X257762500Y-180600000D03*
%TO.N,GNDA*%
X255222500Y-180600000D03*
%TO.N,+3V3*%
X252682500Y-180600000D03*
%TD*%
D12*
%TO.N,Net-(PS1-AC{slash}N)*%
%TO.C,F3*%
X168710000Y-147100000D03*
%TO.N,/ROOMLINK/CON-L1*%
X168710000Y-169600000D03*
%TD*%
D13*
%TO.N,GND*%
%TO.C,U17*%
X247552500Y-147465000D03*
X246027500Y-147465000D03*
X248315000Y-148227500D03*
X246790000Y-148227500D03*
X245265000Y-148227500D03*
X247552500Y-148990000D03*
X246027500Y-148990000D03*
X248315000Y-149752500D03*
X246790000Y-149752500D03*
X245265000Y-149752500D03*
X247552500Y-150515000D03*
X246027500Y-150515000D03*
%TD*%
D14*
%TO.N,/ROOMLINK/RGND*%
%TO.C,J4*%
X206408000Y-188468000D03*
D15*
%TO.N,/ROOMLINK/CON-B+*%
X211408000Y-188468000D03*
%TO.N,/ROOMLINK/CON-A-*%
X216408000Y-188468000D03*
%TD*%
D16*
%TO.N,/ROOMLINK/CON-NEUT*%
%TO.C,PS1*%
X181900000Y-171550000D03*
D17*
%TO.N,Net-(PS1-AC{slash}N)*%
X186900000Y-171550000D03*
%TO.N,GND*%
X176700000Y-142150000D03*
%TO.N,+12V*%
X192100000Y-142150000D03*
%TD*%
D14*
%TO.N,/ROOMLINK/CON-L1*%
%TO.C,J1*%
X165040000Y-188380000D03*
D15*
%TO.N,/ROOMLINK/CON-NEUT*%
X170040000Y-188380000D03*
%TD*%
D18*
%TO.N,+12V*%
%TO.C,U8*%
X251180000Y-131810000D03*
%TO.N,Net-(D5-K)*%
X251180000Y-129270000D03*
%TO.N,/ROOMLINK/CON-OUT2A*%
X251180000Y-119110000D03*
%TO.N,/ROOMLINK/CON-OUT2B*%
X251180000Y-114030000D03*
%TD*%
D14*
%TO.N,/ROOMLINK/CON-DC+*%
%TO.C,J2*%
X170030000Y-110087500D03*
D15*
%TO.N,/ROOMLINK/CON-DC-*%
X165030000Y-110087500D03*
%TD*%
D19*
%TO.N,VDD*%
%TO.C,U1*%
X203747000Y-183618000D03*
%TO.N,GND*%
X203747000Y-181078000D03*
%TO.N,/ROOMLINK/CONTROL/Tx_RS485_eXT*%
X203747000Y-178538000D03*
%TO.N,/ROOMLINK/CONTROL/Rx_RS485_eXT*%
X203747000Y-175998000D03*
%TO.N,/ROOMLINK/CONTROL/CON_RS485_eXT*%
X203747000Y-173458000D03*
%TO.N,Net-(U1-Vo)*%
X218987000Y-175998000D03*
%TO.N,Net-(D11-A1)*%
X218987000Y-178538000D03*
%TO.N,Net-(D11-A2)*%
X218987000Y-181078000D03*
%TO.N,/ROOMLINK/RGND*%
X218987000Y-183618000D03*
%TD*%
D18*
%TO.N,+12V*%
%TO.C,U11*%
X239970000Y-131810000D03*
%TO.N,Net-(D7-K)*%
X239970000Y-129270000D03*
%TO.N,/ROOMLINK/CON-FAN-C*%
X239970000Y-119110000D03*
%TO.N,/ROOMLINK/CON-FAN3*%
X239970000Y-114030000D03*
%TD*%
D20*
%TO.N,Net-(J8-VTRef)*%
%TO.C,J8*%
X203962000Y-146507200D03*
D21*
%TO.N,TMS*%
X206502000Y-146507200D03*
%TO.N,GND*%
X203962000Y-149047200D03*
%TO.N,TCK*%
X206502000Y-149047200D03*
%TO.N,unconnected-(J8-Pad5)*%
X203962000Y-151587200D03*
%TO.N,TDO*%
X206502000Y-151587200D03*
%TO.N,unconnected-(J8-Pad7)*%
X203962000Y-154127200D03*
%TO.N,TDI*%
X206502000Y-154127200D03*
%TO.N,GND*%
X203962000Y-156667200D03*
%TO.N,nRESET*%
X206502000Y-156667200D03*
%TD*%
D18*
%TO.N,+12V*%
%TO.C,U7*%
X245575000Y-131810000D03*
%TO.N,Net-(D6-K)*%
X245575000Y-129270000D03*
%TO.N,/ROOMLINK/CON-OUT1A*%
X245575000Y-119110000D03*
%TO.N,/ROOMLINK/CON-OUT1B*%
X245575000Y-114030000D03*
%TD*%
D14*
%TO.N,/ROOMLINK/CON-OUT2A*%
%TO.C,J5*%
X260150000Y-110087500D03*
D15*
%TO.N,/ROOMLINK/CON-OUT2B*%
X255150000Y-110087500D03*
%TO.N,/ROOMLINK/CON-OUT1A*%
X250150000Y-110087500D03*
%TO.N,/ROOMLINK/CON-OUT1B*%
X245150000Y-110087500D03*
%TO.N,/ROOMLINK/CON-FAN3*%
X240150000Y-110087500D03*
%TO.N,/ROOMLINK/CON-FAN2*%
X235150000Y-110087500D03*
%TO.N,/ROOMLINK/CON-FAN1*%
X230150000Y-110087500D03*
%TO.N,/ROOMLINK/CON-FAN-C*%
X225150000Y-110087500D03*
%TD*%
D18*
%TO.N,+12V*%
%TO.C,U9*%
X228760000Y-131810000D03*
%TO.N,Net-(D9-K)*%
X228760000Y-129270000D03*
%TO.N,/ROOMLINK/CON-FAN-C*%
X228760000Y-119110000D03*
%TO.N,/ROOMLINK/CON-FAN1*%
X228760000Y-114030000D03*
%TD*%
D20*
%TO.N,VDD*%
%TO.C,J7*%
X245922800Y-164388800D03*
D21*
%TO.N,Net-(J7-Pin_2)*%
X245922800Y-161848800D03*
%TO.N,Net-(J7-Pin_3)*%
X248462800Y-164388800D03*
%TO.N,Net-(J7-Pin_4)*%
X248462800Y-161848800D03*
%TO.N,GND*%
X251002800Y-164388800D03*
%TO.N,Net-(J7-Pin_6)*%
X251002800Y-161848800D03*
%TD*%
D14*
%TO.N,/ROOMLINK/CON-IN4-*%
%TO.C,J6*%
X225150000Y-188380000D03*
D15*
%TO.N,/ROOMLINK/CON-IN4+*%
X230150000Y-188380000D03*
%TO.N,/ROOMLINK/CON-IN3-*%
X235150000Y-188380000D03*
%TO.N,/ROOMLINK/CON-IN3+*%
X240150000Y-188380000D03*
%TO.N,/ROOMLINK/CON-IN2-*%
X245150000Y-188380000D03*
%TO.N,/ROOMLINK/CON-IN2+*%
X250150000Y-188380000D03*
%TO.N,/ROOMLINK/CON-IN1-*%
X255150000Y-188380000D03*
%TO.N,/ROOMLINK/CON-IN1+*%
X260150000Y-188380000D03*
%TD*%
D22*
%TO.N,/ROOMLINK/CON-NEUT*%
%TO.C,RV1*%
X180250000Y-178700000D03*
%TO.N,Net-(PS1-AC{slash}N)*%
X187750000Y-180200000D03*
%TD*%
D14*
%TO.N,/ROOMLINK/CON-LCDA-*%
%TO.C,J3*%
X182000000Y-110087500D03*
D15*
%TO.N,/ROOMLINK/CON-LCDB+*%
X177000000Y-110087500D03*
%TD*%
D18*
%TO.N,+12V*%
%TO.C,U10*%
X234365000Y-131810000D03*
%TO.N,Net-(D8-K)*%
X234365000Y-129270000D03*
%TO.N,/ROOMLINK/CON-FAN-C*%
X234365000Y-119110000D03*
%TO.N,/ROOMLINK/CON-FAN2*%
X234365000Y-114030000D03*
%TD*%
D23*
%TO.N,GND*%
X184500000Y-123500000D03*
X187250000Y-121070500D03*
X242000000Y-174250000D03*
X173250000Y-134500000D03*
X228750000Y-174750000D03*
X259250000Y-174250000D03*
X191750000Y-119500000D03*
X254750000Y-134750000D03*
X235250000Y-174500000D03*
X248250000Y-174500000D03*
X238750000Y-144750000D03*
X188750000Y-125500000D03*
X189250000Y-133500000D03*
X183250000Y-134250000D03*
X181500000Y-113750000D03*
X254250000Y-142500000D03*
X201250000Y-149000000D03*
X166750000Y-116500000D03*
X179750000Y-135250000D03*
X254000000Y-156250000D03*
%TO.N,nRESET*%
X219456000Y-154736800D03*
X251561600Y-142494000D03*
%TO.N,+12V*%
X221030800Y-126492000D03*
X219760800Y-121767600D03*
X220675200Y-131419600D03*
X219862400Y-117195600D03*
X219913200Y-136652000D03*
X195326000Y-131826000D03*
%TO.N,/ROOMLINK/CONTROL/INPUT_4_MICRO*%
X228803200Y-158038800D03*
X234492800Y-155397200D03*
%TO.N,Net-(D5-K)*%
X213918800Y-121056400D03*
X220100800Y-115148000D03*
%TO.N,Net-(D6-K)*%
X220151600Y-119720000D03*
X213918800Y-122326400D03*
%TO.N,Net-(D7-K)*%
X213918800Y-123596400D03*
X220558000Y-124292000D03*
%TO.N,Net-(D8-K)*%
X213918800Y-124917200D03*
X222332000Y-129204000D03*
%TO.N,Net-(D9-K)*%
X213918800Y-126136400D03*
X221960800Y-134452000D03*
%TO.N,Net-(D11-A2)*%
X212250000Y-178450000D03*
D24*
%TO.N,Net-(D13-A1)*%
X195580000Y-121920000D03*
X179079000Y-121539000D03*
%TO.N,Net-(D13-A2)*%
X195580000Y-120396000D03*
X183388000Y-119888000D03*
D23*
%TO.N,VDD*%
X193700400Y-124155200D03*
X213156800Y-141224000D03*
X213207600Y-148082000D03*
X214579200Y-155041600D03*
X213258400Y-151587200D03*
X252882400Y-142392400D03*
X186283600Y-123494800D03*
X189026800Y-124053600D03*
X179730400Y-124764800D03*
X213156800Y-144678400D03*
X223164400Y-171907200D03*
X173126400Y-125984000D03*
X223062800Y-169773600D03*
X195275200Y-127304800D03*
X252933200Y-134874000D03*
X231190800Y-170535600D03*
X251307600Y-134924800D03*
X244398800Y-170637200D03*
X237896400Y-170637200D03*
X213360000Y-158750000D03*
X263042400Y-175666400D03*
X246329200Y-139293600D03*
X191262000Y-124053600D03*
%TO.N,GNDA*%
X237896400Y-178409600D03*
X244398800Y-178358800D03*
X231394000Y-178460400D03*
X224790000Y-178663600D03*
%TO.N,TDI*%
X234594400Y-140919200D03*
X217932000Y-154635200D03*
%TO.N,+3V3*%
X241808000Y-183997600D03*
X228600000Y-183997600D03*
X248208800Y-183997600D03*
X235407200Y-183997600D03*
%TO.N,/ROOMLINK/CONTROL/RLY_OUT2_MICRO*%
X240030000Y-153212800D03*
X204927200Y-122326400D03*
%TO.N,/ROOMLINK/CONTROL/RLY_OUT1_MICRO*%
X207162400Y-119735600D03*
X242214400Y-154228800D03*
%TO.N,/ROOMLINK/CONTROL/RLY_FAN3_MICRO*%
X210718400Y-139395200D03*
X239674400Y-139395200D03*
%TO.N,/ROOMLINK/CONTROL/CON_RS485_eXT*%
X219913200Y-157319500D03*
X246510000Y-143293500D03*
%TO.N,/ROOMLINK/CONTROL/COM_RS485_LCD*%
X208280000Y-138480800D03*
X247802400Y-139344400D03*
%TO.N,/ROOMLINK/CONTROL/Tx_RS485_LCD*%
X212191600Y-161848800D03*
X241401600Y-161188400D03*
%TO.N,/ROOMLINK/CONTROL/Rx_RS485_lcd*%
X240131600Y-160070800D03*
X196799200Y-119380000D03*
%TO.N,Net-(J7-Pin_3)*%
X243535200Y-144932400D03*
%TD*%
%TA.AperFunction,Conductor*%
%TO.N,GND*%
G36*
X215693039Y-112519685D02*
G01*
X215738794Y-112572489D01*
X215750000Y-112624000D01*
X215750000Y-125500000D01*
X253941028Y-125500000D01*
X254008067Y-125519685D01*
X254021560Y-125529710D01*
X254100961Y-125597525D01*
X254100963Y-125597526D01*
X254100964Y-125597527D01*
X254146083Y-125625176D01*
X254323818Y-125734092D01*
X254323821Y-125734094D01*
X254565282Y-125834110D01*
X254565284Y-125834110D01*
X254565290Y-125834113D01*
X254819437Y-125895128D01*
X255080000Y-125915635D01*
X255340563Y-125895128D01*
X255347047Y-125893571D01*
X255416829Y-125897058D01*
X255473649Y-125937718D01*
X255499466Y-126002643D01*
X255500000Y-126014142D01*
X255500000Y-173750000D01*
X263376000Y-173750000D01*
X263443039Y-173769685D01*
X263488794Y-173822489D01*
X263500000Y-173874000D01*
X263500000Y-175020388D01*
X263480315Y-175087427D01*
X263427511Y-175133182D01*
X263358353Y-175143126D01*
X263328548Y-175134949D01*
X263199165Y-175081357D01*
X263199160Y-175081355D01*
X263042401Y-175060718D01*
X263042399Y-175060718D01*
X262885639Y-175081355D01*
X262885637Y-175081356D01*
X262739560Y-175141863D01*
X262614118Y-175238118D01*
X262517863Y-175363560D01*
X262457356Y-175509637D01*
X262457355Y-175509639D01*
X262436718Y-175666398D01*
X262436718Y-175666401D01*
X262457355Y-175823160D01*
X262457356Y-175823162D01*
X262512793Y-175957000D01*
X262517864Y-175969241D01*
X262614118Y-176094682D01*
X262739559Y-176190936D01*
X262885638Y-176251444D01*
X262897922Y-176253061D01*
X262961818Y-176281328D01*
X263000289Y-176339652D01*
X263001120Y-176409517D01*
X262964048Y-176468740D01*
X262900842Y-176498519D01*
X262881736Y-176500000D01*
X220178542Y-176500000D01*
X220111503Y-176480315D01*
X220065748Y-176427511D01*
X220055804Y-176358353D01*
X220059276Y-176342066D01*
X220083472Y-176257023D01*
X220098076Y-176205696D01*
X220117322Y-175998000D01*
X220098076Y-175790304D01*
X220040994Y-175589681D01*
X219948019Y-175402962D01*
X219822318Y-175236507D01*
X219668171Y-175095984D01*
X219490828Y-174986177D01*
X219490827Y-174986176D01*
X219348609Y-174931081D01*
X219296327Y-174910827D01*
X219091293Y-174872500D01*
X218882707Y-174872500D01*
X218677673Y-174910827D01*
X218677670Y-174910827D01*
X218677670Y-174910828D01*
X218483172Y-174986176D01*
X218483171Y-174986177D01*
X218305827Y-175095985D01*
X218151683Y-175236505D01*
X218025981Y-175402961D01*
X217933007Y-175589677D01*
X217875923Y-175790308D01*
X217856678Y-175997999D01*
X217856678Y-175998000D01*
X217875923Y-176205695D01*
X217875924Y-176205698D01*
X217914724Y-176342066D01*
X217914137Y-176411933D01*
X217875870Y-176470392D01*
X217812073Y-176498882D01*
X217795458Y-176500000D01*
X217750000Y-176500000D01*
X217750000Y-186376000D01*
X217730315Y-186443039D01*
X217677511Y-186488794D01*
X217626000Y-186500000D01*
X199374000Y-186500000D01*
X199306961Y-186480315D01*
X199261206Y-186427511D01*
X199250000Y-186376000D01*
X199250000Y-181078006D01*
X202367288Y-181078006D01*
X202386103Y-181305085D01*
X202386105Y-181305093D01*
X202442045Y-181525993D01*
X202533577Y-181734664D01*
X202533579Y-181734668D01*
X202613874Y-181857570D01*
X203184226Y-181287218D01*
X203222901Y-181380588D01*
X203319075Y-181505925D01*
X203444412Y-181602099D01*
X203537779Y-181640772D01*
X202966015Y-182212536D01*
X202966016Y-182212537D01*
X202992366Y-182233046D01*
X202992372Y-182233050D01*
X203192769Y-182341499D01*
X203192779Y-182341504D01*
X203260565Y-182364775D01*
X203317580Y-182405160D01*
X203343711Y-182469960D01*
X203330660Y-182538600D01*
X203282571Y-182589287D01*
X203265098Y-182597682D01*
X203243175Y-182606175D01*
X203243171Y-182606177D01*
X203065827Y-182715985D01*
X202911683Y-182856505D01*
X202785981Y-183022961D01*
X202693007Y-183209677D01*
X202635923Y-183410308D01*
X202616678Y-183617999D01*
X202616678Y-183618000D01*
X202635923Y-183825691D01*
X202635923Y-183825693D01*
X202635924Y-183825696D01*
X202693006Y-184026319D01*
X202785981Y-184213038D01*
X202911682Y-184379493D01*
X203065829Y-184520016D01*
X203243172Y-184629823D01*
X203437673Y-184705173D01*
X203642707Y-184743500D01*
X203642710Y-184743500D01*
X203851290Y-184743500D01*
X203851293Y-184743500D01*
X204056327Y-184705173D01*
X204250828Y-184629823D01*
X204428171Y-184520016D01*
X204582318Y-184379493D01*
X204708019Y-184213038D01*
X204800994Y-184026319D01*
X204858076Y-183825696D01*
X204877322Y-183618000D01*
X204858076Y-183410304D01*
X204800994Y-183209681D01*
X204708019Y-183022962D01*
X204582318Y-182856507D01*
X204428171Y-182715984D01*
X204250828Y-182606177D01*
X204250821Y-182606173D01*
X204228902Y-182597682D01*
X204173501Y-182555109D01*
X204149911Y-182489342D01*
X204165623Y-182421262D01*
X204215647Y-182372483D01*
X204233435Y-182364774D01*
X204301227Y-182341501D01*
X204301230Y-182341499D01*
X204501633Y-182233047D01*
X204527982Y-182212537D01*
X204527982Y-182212536D01*
X203956220Y-181640772D01*
X204049588Y-181602099D01*
X204174925Y-181505925D01*
X204271099Y-181380589D01*
X204309773Y-181287219D01*
X204880125Y-181857571D01*
X204960420Y-181734669D01*
X205051954Y-181525993D01*
X205107894Y-181305093D01*
X205107896Y-181305085D01*
X205126712Y-181078006D01*
X205126712Y-181077993D01*
X205107896Y-180850914D01*
X205107894Y-180850906D01*
X205051954Y-180630006D01*
X204960420Y-180421330D01*
X204880124Y-180298427D01*
X204309772Y-180868779D01*
X204271099Y-180775412D01*
X204174925Y-180650075D01*
X204049588Y-180553901D01*
X203956219Y-180515226D01*
X204527983Y-179943462D01*
X204527983Y-179943461D01*
X204501632Y-179922952D01*
X204501627Y-179922949D01*
X204301230Y-179814500D01*
X204301223Y-179814497D01*
X204233433Y-179791224D01*
X204176418Y-179750838D01*
X204150288Y-179686038D01*
X204163340Y-179617398D01*
X204211429Y-179566711D01*
X204228899Y-179558318D01*
X204250828Y-179549823D01*
X204428171Y-179440016D01*
X204582318Y-179299493D01*
X204708019Y-179133038D01*
X204800994Y-178946319D01*
X204858076Y-178745696D01*
X204877322Y-178538000D01*
X204869168Y-178450001D01*
X211644318Y-178450001D01*
X211664955Y-178606760D01*
X211664956Y-178606762D01*
X211703576Y-178700000D01*
X211725464Y-178752841D01*
X211821718Y-178878282D01*
X211947159Y-178974536D01*
X212093238Y-179035044D01*
X212171618Y-179045362D01*
X212249999Y-179055682D01*
X212250000Y-179055682D01*
X212250001Y-179055682D01*
X212302253Y-179048802D01*
X212406762Y-179035044D01*
X212552841Y-178974536D01*
X212678282Y-178878282D01*
X212774536Y-178752841D01*
X212835044Y-178606762D01*
X212855682Y-178450000D01*
X212835044Y-178293238D01*
X212774536Y-178147159D01*
X212678282Y-178021718D01*
X212552841Y-177925464D01*
X212505522Y-177905864D01*
X212406762Y-177864956D01*
X212406760Y-177864955D01*
X212250001Y-177844318D01*
X212249999Y-177844318D01*
X212093239Y-177864955D01*
X212093237Y-177864956D01*
X211947160Y-177925463D01*
X211821718Y-178021718D01*
X211725463Y-178147160D01*
X211664956Y-178293237D01*
X211664955Y-178293239D01*
X211644318Y-178449998D01*
X211644318Y-178450001D01*
X204869168Y-178450001D01*
X204858076Y-178330304D01*
X204800994Y-178129681D01*
X204708019Y-177942962D01*
X204582318Y-177776507D01*
X204556661Y-177753118D01*
X204428172Y-177635985D01*
X204428171Y-177635984D01*
X204250828Y-177526177D01*
X204250827Y-177526176D01*
X204108609Y-177471081D01*
X204056327Y-177450827D01*
X203851293Y-177412500D01*
X203642707Y-177412500D01*
X203437673Y-177450827D01*
X203437670Y-177450827D01*
X203437670Y-177450828D01*
X203243172Y-177526176D01*
X203243171Y-177526177D01*
X203065827Y-177635985D01*
X202911683Y-177776505D01*
X202785981Y-177942961D01*
X202693007Y-178129677D01*
X202693005Y-178129681D01*
X202693006Y-178129681D01*
X202646471Y-178293237D01*
X202635923Y-178330308D01*
X202616678Y-178537999D01*
X202616678Y-178538000D01*
X202635923Y-178745691D01*
X202635923Y-178745693D01*
X202635924Y-178745696D01*
X202662153Y-178837882D01*
X202693007Y-178946322D01*
X202752641Y-179066082D01*
X202785981Y-179133038D01*
X202911682Y-179299493D01*
X203065829Y-179440016D01*
X203243172Y-179549823D01*
X203243174Y-179549823D01*
X203243178Y-179549826D01*
X203265094Y-179558316D01*
X203320496Y-179600888D01*
X203344088Y-179666654D01*
X203328378Y-179734735D01*
X203278354Y-179783514D01*
X203260566Y-179791224D01*
X203192777Y-179814496D01*
X203192769Y-179814500D01*
X202992373Y-179922948D01*
X202966016Y-179943462D01*
X203537780Y-180515226D01*
X203444412Y-180553901D01*
X203319075Y-180650075D01*
X203222901Y-180775411D01*
X203184226Y-180868780D01*
X202613874Y-180298428D01*
X202533578Y-180421333D01*
X202533577Y-180421335D01*
X202442045Y-180630006D01*
X202386105Y-180850906D01*
X202386103Y-180850914D01*
X202367288Y-181077993D01*
X202367288Y-181078006D01*
X199250000Y-181078006D01*
X199250000Y-175998000D01*
X202616678Y-175998000D01*
X202635923Y-176205691D01*
X202635923Y-176205693D01*
X202635924Y-176205696D01*
X202679359Y-176358353D01*
X202693007Y-176406322D01*
X202785981Y-176593038D01*
X202911682Y-176759493D01*
X203065829Y-176900016D01*
X203243172Y-177009823D01*
X203437673Y-177085173D01*
X203642707Y-177123500D01*
X203642710Y-177123500D01*
X203851290Y-177123500D01*
X203851293Y-177123500D01*
X204056327Y-177085173D01*
X204250828Y-177009823D01*
X204428171Y-176900016D01*
X204582318Y-176759493D01*
X204708019Y-176593038D01*
X204800994Y-176406319D01*
X204858076Y-176205696D01*
X204877322Y-175998000D01*
X204858076Y-175790304D01*
X204800994Y-175589681D01*
X204708019Y-175402962D01*
X204582318Y-175236507D01*
X204428171Y-175095984D01*
X204250828Y-174986177D01*
X204250827Y-174986176D01*
X204108609Y-174931081D01*
X204056327Y-174910827D01*
X203851293Y-174872500D01*
X203642707Y-174872500D01*
X203437673Y-174910827D01*
X203437670Y-174910827D01*
X203437670Y-174910828D01*
X203243172Y-174986176D01*
X203243171Y-174986177D01*
X203065827Y-175095985D01*
X202911683Y-175236505D01*
X202785981Y-175402961D01*
X202693007Y-175589677D01*
X202635923Y-175790308D01*
X202616678Y-175997999D01*
X202616678Y-175998000D01*
X199250000Y-175998000D01*
X199250000Y-173458000D01*
X202616678Y-173458000D01*
X202635923Y-173665691D01*
X202635923Y-173665693D01*
X202635924Y-173665696D01*
X202693006Y-173866319D01*
X202693007Y-173866322D01*
X202777964Y-174036937D01*
X202785981Y-174053038D01*
X202911682Y-174219493D01*
X203065829Y-174360016D01*
X203243172Y-174469823D01*
X203437673Y-174545173D01*
X203642707Y-174583500D01*
X203642710Y-174583500D01*
X203851290Y-174583500D01*
X203851293Y-174583500D01*
X204056327Y-174545173D01*
X204250828Y-174469823D01*
X204428171Y-174360016D01*
X204582318Y-174219493D01*
X204708019Y-174053038D01*
X204800994Y-173866319D01*
X204858076Y-173665696D01*
X204877322Y-173458000D01*
X204858076Y-173250304D01*
X204800994Y-173049681D01*
X204708019Y-172862962D01*
X204582318Y-172696507D01*
X204540550Y-172658431D01*
X204428172Y-172555985D01*
X204428171Y-172555984D01*
X204250828Y-172446177D01*
X204250827Y-172446176D01*
X204108609Y-172391081D01*
X204056327Y-172370827D01*
X203851293Y-172332500D01*
X203642707Y-172332500D01*
X203437673Y-172370827D01*
X203437670Y-172370827D01*
X203437670Y-172370828D01*
X203243172Y-172446176D01*
X203243171Y-172446177D01*
X203065827Y-172555985D01*
X202911683Y-172696505D01*
X202785981Y-172862961D01*
X202693007Y-173049677D01*
X202635923Y-173250308D01*
X202616678Y-173457999D01*
X202616678Y-173458000D01*
X199250000Y-173458000D01*
X199250000Y-171907201D01*
X222558718Y-171907201D01*
X222579355Y-172063960D01*
X222579356Y-172063962D01*
X222639864Y-172210041D01*
X222736118Y-172335482D01*
X222861559Y-172431736D01*
X223007638Y-172492244D01*
X223086018Y-172502562D01*
X223164399Y-172512882D01*
X223164400Y-172512882D01*
X223164401Y-172512882D01*
X223216653Y-172506002D01*
X223321162Y-172492244D01*
X223467241Y-172431736D01*
X223592682Y-172335482D01*
X223688936Y-172210041D01*
X223749444Y-172063962D01*
X223770082Y-171907200D01*
X223749444Y-171750438D01*
X223688936Y-171604359D01*
X223592682Y-171478918D01*
X223467241Y-171382664D01*
X223389590Y-171350500D01*
X223321162Y-171322156D01*
X223321160Y-171322155D01*
X223164401Y-171301518D01*
X223164399Y-171301518D01*
X223007639Y-171322155D01*
X223007637Y-171322156D01*
X222861560Y-171382663D01*
X222736118Y-171478918D01*
X222639863Y-171604360D01*
X222579356Y-171750437D01*
X222579355Y-171750439D01*
X222558718Y-171907198D01*
X222558718Y-171907201D01*
X199250000Y-171907201D01*
X199250000Y-170535601D01*
X230585118Y-170535601D01*
X230605755Y-170692360D01*
X230605756Y-170692362D01*
X230666264Y-170838441D01*
X230762518Y-170963882D01*
X230887959Y-171060136D01*
X231034038Y-171120644D01*
X231112418Y-171130962D01*
X231190799Y-171141282D01*
X231190800Y-171141282D01*
X231190801Y-171141282D01*
X231243054Y-171134402D01*
X231347562Y-171120644D01*
X231493641Y-171060136D01*
X231619082Y-170963882D01*
X231715336Y-170838441D01*
X231775844Y-170692362D01*
X231783106Y-170637201D01*
X237290718Y-170637201D01*
X237311355Y-170793960D01*
X237311356Y-170793962D01*
X237371864Y-170940041D01*
X237468118Y-171065482D01*
X237593559Y-171161736D01*
X237739638Y-171222244D01*
X237818018Y-171232562D01*
X237896399Y-171242882D01*
X237896400Y-171242882D01*
X237896401Y-171242882D01*
X237963387Y-171234063D01*
X238053162Y-171222244D01*
X238199241Y-171161736D01*
X238324682Y-171065482D01*
X238420936Y-170940041D01*
X238481444Y-170793962D01*
X238502082Y-170637201D01*
X243793118Y-170637201D01*
X243813755Y-170793960D01*
X243813756Y-170793962D01*
X243874264Y-170940041D01*
X243970518Y-171065482D01*
X244095959Y-171161736D01*
X244242038Y-171222244D01*
X244320418Y-171232562D01*
X244398799Y-171242882D01*
X244398800Y-171242882D01*
X244398801Y-171242882D01*
X244465787Y-171234063D01*
X244555562Y-171222244D01*
X244701641Y-171161736D01*
X244827082Y-171065482D01*
X244923336Y-170940041D01*
X244983844Y-170793962D01*
X245004482Y-170637200D01*
X244983844Y-170480438D01*
X244923336Y-170334359D01*
X244827082Y-170208918D01*
X244701641Y-170112664D01*
X244555562Y-170052156D01*
X244555560Y-170052155D01*
X244398801Y-170031518D01*
X244398799Y-170031518D01*
X244242039Y-170052155D01*
X244242037Y-170052156D01*
X244095960Y-170112663D01*
X243970518Y-170208918D01*
X243874263Y-170334360D01*
X243813756Y-170480437D01*
X243813755Y-170480439D01*
X243793118Y-170637198D01*
X243793118Y-170637201D01*
X238502082Y-170637201D01*
X238502082Y-170637200D01*
X238481444Y-170480438D01*
X238420936Y-170334359D01*
X238324682Y-170208918D01*
X238199241Y-170112664D01*
X238053162Y-170052156D01*
X238053160Y-170052155D01*
X237896401Y-170031518D01*
X237896399Y-170031518D01*
X237739639Y-170052155D01*
X237739637Y-170052156D01*
X237593560Y-170112663D01*
X237468118Y-170208918D01*
X237371863Y-170334360D01*
X237311356Y-170480437D01*
X237311355Y-170480439D01*
X237290718Y-170637198D01*
X237290718Y-170637201D01*
X231783106Y-170637201D01*
X231796482Y-170535600D01*
X231775844Y-170378838D01*
X231715336Y-170232759D01*
X231619082Y-170107318D01*
X231493641Y-170011064D01*
X231347562Y-169950556D01*
X231347560Y-169950555D01*
X231190801Y-169929918D01*
X231190799Y-169929918D01*
X231034039Y-169950555D01*
X231034037Y-169950556D01*
X230887960Y-170011063D01*
X230762518Y-170107318D01*
X230666263Y-170232760D01*
X230605756Y-170378837D01*
X230605755Y-170378839D01*
X230585118Y-170535598D01*
X230585118Y-170535601D01*
X199250000Y-170535601D01*
X199250000Y-169773601D01*
X222457118Y-169773601D01*
X222477755Y-169930360D01*
X222477756Y-169930362D01*
X222511183Y-170011063D01*
X222538264Y-170076441D01*
X222634518Y-170201882D01*
X222759959Y-170298136D01*
X222906038Y-170358644D01*
X222928818Y-170361643D01*
X223062799Y-170379282D01*
X223062800Y-170379282D01*
X223062801Y-170379282D01*
X223115054Y-170372402D01*
X223219562Y-170358644D01*
X223365641Y-170298136D01*
X223491082Y-170201882D01*
X223587336Y-170076441D01*
X223647844Y-169930362D01*
X223668482Y-169773600D01*
X223647844Y-169616838D01*
X223587336Y-169470759D01*
X223491082Y-169345318D01*
X223365641Y-169249064D01*
X223219562Y-169188556D01*
X223219560Y-169188555D01*
X223062801Y-169167918D01*
X223062799Y-169167918D01*
X222906039Y-169188555D01*
X222906037Y-169188556D01*
X222759960Y-169249063D01*
X222634518Y-169345318D01*
X222538263Y-169470760D01*
X222477756Y-169616837D01*
X222477755Y-169616839D01*
X222457118Y-169773598D01*
X222457118Y-169773601D01*
X199250000Y-169773601D01*
X199250000Y-165263476D01*
X244822299Y-165263476D01*
X244822300Y-165263478D01*
X244836832Y-165336535D01*
X244836833Y-165336539D01*
X244836834Y-165336540D01*
X244892199Y-165419401D01*
X244975060Y-165474766D01*
X244975064Y-165474767D01*
X245048121Y-165489299D01*
X245048124Y-165489300D01*
X245048126Y-165489300D01*
X246797476Y-165489300D01*
X246797477Y-165489299D01*
X246870540Y-165474766D01*
X246953401Y-165419401D01*
X247008766Y-165336540D01*
X247023300Y-165263474D01*
X247023300Y-164388800D01*
X247357585Y-164388800D01*
X247376402Y-164591882D01*
X247432217Y-164788047D01*
X247432222Y-164788060D01*
X247523127Y-164970621D01*
X247646037Y-165133381D01*
X247796758Y-165270780D01*
X247796760Y-165270782D01*
X247895941Y-165332192D01*
X247970163Y-165378148D01*
X248160344Y-165451824D01*
X248360824Y-165489300D01*
X248360826Y-165489300D01*
X248564774Y-165489300D01*
X248564776Y-165489300D01*
X248765256Y-165451824D01*
X248955437Y-165378148D01*
X249128841Y-165270781D01*
X249279564Y-165133379D01*
X249402473Y-164970621D01*
X249489616Y-164795612D01*
X249537119Y-164744375D01*
X249604782Y-164726953D01*
X249671123Y-164748878D01*
X249715078Y-164803189D01*
X249720392Y-164818789D01*
X249729367Y-164852285D01*
X249729370Y-164852292D01*
X249829199Y-165066378D01*
X249964694Y-165259882D01*
X250131717Y-165426905D01*
X250325221Y-165562400D01*
X250539307Y-165662229D01*
X250539316Y-165662233D01*
X250752800Y-165719434D01*
X250752800Y-164824301D01*
X250860485Y-164873480D01*
X250967037Y-164888800D01*
X251038563Y-164888800D01*
X251145115Y-164873480D01*
X251252799Y-164824301D01*
X251252799Y-165719433D01*
X251466283Y-165662233D01*
X251466292Y-165662229D01*
X251680378Y-165562400D01*
X251873882Y-165426905D01*
X252040905Y-165259882D01*
X252176400Y-165066378D01*
X252276229Y-164852292D01*
X252276232Y-164852286D01*
X252333436Y-164638800D01*
X251436486Y-164638800D01*
X251462293Y-164598644D01*
X251502800Y-164460689D01*
X251502800Y-164316911D01*
X251462293Y-164178956D01*
X251436486Y-164138800D01*
X252333436Y-164138800D01*
X252333435Y-164138799D01*
X252276232Y-163925313D01*
X252276229Y-163925307D01*
X252176400Y-163711222D01*
X252176399Y-163711220D01*
X252040913Y-163517726D01*
X252040908Y-163517720D01*
X251873882Y-163350694D01*
X251680378Y-163215199D01*
X251466292Y-163115370D01*
X251466277Y-163115364D01*
X251427214Y-163104897D01*
X251367554Y-163068532D01*
X251337026Y-163005685D01*
X251345321Y-162936309D01*
X251389807Y-162882432D01*
X251414510Y-162869498D01*
X251495437Y-162838148D01*
X251668841Y-162730781D01*
X251819564Y-162593379D01*
X251942473Y-162430621D01*
X252033382Y-162248050D01*
X252089197Y-162051883D01*
X252108015Y-161848800D01*
X252089197Y-161645717D01*
X252033382Y-161449550D01*
X251942473Y-161266979D01*
X251819564Y-161104221D01*
X251819562Y-161104218D01*
X251668841Y-160966819D01*
X251668839Y-160966817D01*
X251495442Y-160859455D01*
X251495435Y-160859451D01*
X251400346Y-160822614D01*
X251305256Y-160785776D01*
X251104776Y-160748300D01*
X250900824Y-160748300D01*
X250700344Y-160785776D01*
X250700341Y-160785776D01*
X250700341Y-160785777D01*
X250510164Y-160859451D01*
X250510157Y-160859455D01*
X250336760Y-160966817D01*
X250336758Y-160966819D01*
X250186037Y-161104218D01*
X250063127Y-161266978D01*
X249972222Y-161449539D01*
X249972217Y-161449552D01*
X249916402Y-161645717D01*
X249897585Y-161848799D01*
X249897585Y-161848800D01*
X249916402Y-162051882D01*
X249972217Y-162248047D01*
X249972222Y-162248060D01*
X250063127Y-162430621D01*
X250186037Y-162593381D01*
X250336758Y-162730780D01*
X250336760Y-162730782D01*
X250435941Y-162792192D01*
X250510163Y-162838148D01*
X250591083Y-162869496D01*
X250646485Y-162912069D01*
X250670076Y-162977835D01*
X250654365Y-163045916D01*
X250604342Y-163094695D01*
X250578386Y-163104897D01*
X250539319Y-163115365D01*
X250539307Y-163115370D01*
X250325222Y-163215199D01*
X250325220Y-163215200D01*
X250131726Y-163350686D01*
X250131720Y-163350691D01*
X249964691Y-163517720D01*
X249964686Y-163517726D01*
X249829200Y-163711220D01*
X249829199Y-163711222D01*
X249729370Y-163925307D01*
X249729368Y-163925311D01*
X249720392Y-163958811D01*
X249684026Y-164018471D01*
X249621179Y-164048999D01*
X249551803Y-164040704D01*
X249497926Y-163996218D01*
X249489617Y-163981988D01*
X249443215Y-163888800D01*
X249402473Y-163806979D01*
X249279564Y-163644221D01*
X249279562Y-163644218D01*
X249128841Y-163506819D01*
X249128839Y-163506817D01*
X248955442Y-163399455D01*
X248955435Y-163399451D01*
X248829569Y-163350691D01*
X248765256Y-163325776D01*
X248564776Y-163288300D01*
X248360824Y-163288300D01*
X248160344Y-163325776D01*
X248160341Y-163325776D01*
X248160341Y-163325777D01*
X247970164Y-163399451D01*
X247970157Y-163399455D01*
X247796760Y-163506817D01*
X247796758Y-163506819D01*
X247646037Y-163644218D01*
X247523127Y-163806978D01*
X247432222Y-163989539D01*
X247432217Y-163989552D01*
X247376402Y-164185717D01*
X247357585Y-164388799D01*
X247357585Y-164388800D01*
X247023300Y-164388800D01*
X247023300Y-163514126D01*
X247023300Y-163514123D01*
X247023299Y-163514121D01*
X247008767Y-163441064D01*
X247008766Y-163441060D01*
X247008765Y-163441060D01*
X246953401Y-163358199D01*
X246870540Y-163302834D01*
X246870539Y-163302833D01*
X246870535Y-163302832D01*
X246797477Y-163288300D01*
X246797474Y-163288300D01*
X245048126Y-163288300D01*
X245048123Y-163288300D01*
X244975064Y-163302832D01*
X244975060Y-163302833D01*
X244892199Y-163358199D01*
X244836833Y-163441060D01*
X244836832Y-163441064D01*
X244822300Y-163514121D01*
X244822299Y-163514123D01*
X244822299Y-165263476D01*
X199250000Y-165263476D01*
X199250000Y-161848801D01*
X211585918Y-161848801D01*
X211606555Y-162005560D01*
X211606556Y-162005562D01*
X211667064Y-162151641D01*
X211763318Y-162277082D01*
X211888759Y-162373336D01*
X212034838Y-162433844D01*
X212113218Y-162444162D01*
X212191599Y-162454482D01*
X212191600Y-162454482D01*
X212191601Y-162454482D01*
X212243853Y-162447602D01*
X212348362Y-162433844D01*
X212494441Y-162373336D01*
X212619882Y-162277082D01*
X212716136Y-162151641D01*
X212776644Y-162005562D01*
X212797282Y-161848800D01*
X244817585Y-161848800D01*
X244836402Y-162051882D01*
X244892217Y-162248047D01*
X244892222Y-162248060D01*
X244983127Y-162430621D01*
X245106037Y-162593381D01*
X245256758Y-162730780D01*
X245256760Y-162730782D01*
X245355941Y-162792192D01*
X245430163Y-162838148D01*
X245620344Y-162911824D01*
X245820824Y-162949300D01*
X245820826Y-162949300D01*
X246024774Y-162949300D01*
X246024776Y-162949300D01*
X246225256Y-162911824D01*
X246415437Y-162838148D01*
X246588841Y-162730781D01*
X246739564Y-162593379D01*
X246862473Y-162430621D01*
X246953382Y-162248050D01*
X247009197Y-162051883D01*
X247028015Y-161848800D01*
X247357585Y-161848800D01*
X247376402Y-162051882D01*
X247432217Y-162248047D01*
X247432222Y-162248060D01*
X247523127Y-162430621D01*
X247646037Y-162593381D01*
X247796758Y-162730780D01*
X247796760Y-162730782D01*
X247895941Y-162792192D01*
X247970163Y-162838148D01*
X248160344Y-162911824D01*
X248360824Y-162949300D01*
X248360826Y-162949300D01*
X248564774Y-162949300D01*
X248564776Y-162949300D01*
X248765256Y-162911824D01*
X248955437Y-162838148D01*
X249128841Y-162730781D01*
X249279564Y-162593379D01*
X249402473Y-162430621D01*
X249493382Y-162248050D01*
X249549197Y-162051883D01*
X249568015Y-161848800D01*
X249549197Y-161645717D01*
X249493382Y-161449550D01*
X249402473Y-161266979D01*
X249279564Y-161104221D01*
X249279562Y-161104218D01*
X249128841Y-160966819D01*
X249128839Y-160966817D01*
X248955442Y-160859455D01*
X248955435Y-160859451D01*
X248860346Y-160822614D01*
X248765256Y-160785776D01*
X248564776Y-160748300D01*
X248360824Y-160748300D01*
X248160344Y-160785776D01*
X248160341Y-160785776D01*
X248160341Y-160785777D01*
X247970164Y-160859451D01*
X247970157Y-160859455D01*
X247796760Y-160966817D01*
X247796758Y-160966819D01*
X247646037Y-161104218D01*
X247523127Y-161266978D01*
X247432222Y-161449539D01*
X247432217Y-161449552D01*
X247376402Y-161645717D01*
X247357585Y-161848799D01*
X247357585Y-161848800D01*
X247028015Y-161848800D01*
X247009197Y-161645717D01*
X246953382Y-161449550D01*
X246862473Y-161266979D01*
X246739564Y-161104221D01*
X246739562Y-161104218D01*
X246588841Y-160966819D01*
X246588839Y-160966817D01*
X246415442Y-160859455D01*
X246415435Y-160859451D01*
X246320346Y-160822614D01*
X246225256Y-160785776D01*
X246024776Y-160748300D01*
X245820824Y-160748300D01*
X245620344Y-160785776D01*
X245620341Y-160785776D01*
X245620341Y-160785777D01*
X245430164Y-160859451D01*
X245430157Y-160859455D01*
X245256760Y-160966817D01*
X245256758Y-160966819D01*
X245106037Y-161104218D01*
X244983127Y-161266978D01*
X244892222Y-161449539D01*
X244892217Y-161449552D01*
X244836402Y-161645717D01*
X244817585Y-161848799D01*
X244817585Y-161848800D01*
X212797282Y-161848800D01*
X212776644Y-161692038D01*
X212716136Y-161545959D01*
X212619882Y-161420518D01*
X212494441Y-161324264D01*
X212348362Y-161263756D01*
X212348360Y-161263755D01*
X212191601Y-161243118D01*
X212191599Y-161243118D01*
X212034839Y-161263755D01*
X212034837Y-161263756D01*
X211888760Y-161324263D01*
X211763318Y-161420518D01*
X211667063Y-161545960D01*
X211606556Y-161692037D01*
X211606555Y-161692039D01*
X211585918Y-161848798D01*
X211585918Y-161848801D01*
X199250000Y-161848801D01*
X199250000Y-161188401D01*
X240795918Y-161188401D01*
X240816555Y-161345160D01*
X240816556Y-161345162D01*
X240847769Y-161420518D01*
X240877064Y-161491241D01*
X240973318Y-161616682D01*
X241098759Y-161712936D01*
X241244838Y-161773444D01*
X241323218Y-161783762D01*
X241401599Y-161794082D01*
X241401600Y-161794082D01*
X241401601Y-161794082D01*
X241453854Y-161787202D01*
X241558362Y-161773444D01*
X241704441Y-161712936D01*
X241829882Y-161616682D01*
X241926136Y-161491241D01*
X241986644Y-161345162D01*
X242007282Y-161188400D01*
X241986644Y-161031638D01*
X241926136Y-160885559D01*
X241829882Y-160760118D01*
X241704441Y-160663864D01*
X241558362Y-160603356D01*
X241558360Y-160603355D01*
X241401601Y-160582718D01*
X241401599Y-160582718D01*
X241244839Y-160603355D01*
X241244837Y-160603356D01*
X241098760Y-160663863D01*
X240973318Y-160760118D01*
X240877063Y-160885560D01*
X240816556Y-161031637D01*
X240816555Y-161031639D01*
X240795918Y-161188398D01*
X240795918Y-161188401D01*
X199250000Y-161188401D01*
X199250000Y-160070801D01*
X239525918Y-160070801D01*
X239546555Y-160227560D01*
X239546556Y-160227562D01*
X239607064Y-160373641D01*
X239703318Y-160499082D01*
X239828759Y-160595336D01*
X239974838Y-160655844D01*
X240035749Y-160663863D01*
X240131599Y-160676482D01*
X240131600Y-160676482D01*
X240131601Y-160676482D01*
X240183853Y-160669602D01*
X240288362Y-160655844D01*
X240434441Y-160595336D01*
X240559882Y-160499082D01*
X240656136Y-160373641D01*
X240716644Y-160227562D01*
X240737282Y-160070800D01*
X240716644Y-159914038D01*
X240656136Y-159767959D01*
X240559882Y-159642518D01*
X240434441Y-159546264D01*
X240288362Y-159485756D01*
X240288360Y-159485755D01*
X240131601Y-159465118D01*
X240131599Y-159465118D01*
X239974839Y-159485755D01*
X239974837Y-159485756D01*
X239828760Y-159546263D01*
X239703318Y-159642518D01*
X239607063Y-159767960D01*
X239546556Y-159914037D01*
X239546555Y-159914039D01*
X239525918Y-160070798D01*
X239525918Y-160070801D01*
X199250000Y-160070801D01*
X199250000Y-159499999D01*
X198750001Y-158750001D01*
X212754318Y-158750001D01*
X212774955Y-158906760D01*
X212774956Y-158906762D01*
X212835464Y-159052841D01*
X212931718Y-159178282D01*
X213057159Y-159274536D01*
X213203238Y-159335044D01*
X213281618Y-159345362D01*
X213359999Y-159355682D01*
X213360000Y-159355682D01*
X213360001Y-159355682D01*
X213412254Y-159348802D01*
X213516762Y-159335044D01*
X213662841Y-159274536D01*
X213788282Y-159178282D01*
X213884536Y-159052841D01*
X213945044Y-158906762D01*
X213965682Y-158750000D01*
X213945044Y-158593238D01*
X213884536Y-158447159D01*
X213788282Y-158321718D01*
X213662841Y-158225464D01*
X213590651Y-158195562D01*
X213516762Y-158164956D01*
X213516760Y-158164955D01*
X213360001Y-158144318D01*
X213359999Y-158144318D01*
X213203239Y-158164955D01*
X213203237Y-158164956D01*
X213057160Y-158225463D01*
X212931718Y-158321718D01*
X212835463Y-158447160D01*
X212774956Y-158593237D01*
X212774955Y-158593239D01*
X212754318Y-158749998D01*
X212754318Y-158750001D01*
X198750001Y-158750001D01*
X198275868Y-158038801D01*
X228197518Y-158038801D01*
X228218155Y-158195560D01*
X228218156Y-158195562D01*
X228270411Y-158321718D01*
X228278664Y-158341641D01*
X228374918Y-158467082D01*
X228500359Y-158563336D01*
X228646438Y-158623844D01*
X228724818Y-158634162D01*
X228803199Y-158644482D01*
X228803200Y-158644482D01*
X228803201Y-158644482D01*
X228855453Y-158637602D01*
X228959962Y-158623844D01*
X229106041Y-158563336D01*
X229231482Y-158467082D01*
X229327736Y-158341641D01*
X229388244Y-158195562D01*
X229408882Y-158038800D01*
X229388244Y-157882038D01*
X229327736Y-157735959D01*
X229231482Y-157610518D01*
X229106041Y-157514264D01*
X229014291Y-157476260D01*
X228959962Y-157453756D01*
X228959960Y-157453755D01*
X228803201Y-157433118D01*
X228803199Y-157433118D01*
X228646439Y-157453755D01*
X228646437Y-157453756D01*
X228500360Y-157514263D01*
X228374918Y-157610518D01*
X228278663Y-157735960D01*
X228218156Y-157882037D01*
X228218155Y-157882039D01*
X228197518Y-158038798D01*
X228197518Y-158038801D01*
X198275868Y-158038801D01*
X197528134Y-156917200D01*
X202631364Y-156917200D01*
X202688567Y-157130686D01*
X202688570Y-157130692D01*
X202788399Y-157344778D01*
X202923894Y-157538282D01*
X203090917Y-157705305D01*
X203284421Y-157840800D01*
X203498507Y-157940629D01*
X203498516Y-157940633D01*
X203712000Y-157997834D01*
X203712000Y-157102701D01*
X203819685Y-157151880D01*
X203926237Y-157167200D01*
X203997763Y-157167200D01*
X204104315Y-157151880D01*
X204212000Y-157102701D01*
X204212000Y-157997833D01*
X204425483Y-157940633D01*
X204425492Y-157940629D01*
X204639578Y-157840800D01*
X204833082Y-157705305D01*
X205000105Y-157538282D01*
X205135600Y-157344778D01*
X205235429Y-157130692D01*
X205235431Y-157130689D01*
X205244406Y-157097192D01*
X205280770Y-157037531D01*
X205343616Y-157007000D01*
X205412992Y-157015294D01*
X205466871Y-157059778D01*
X205475182Y-157074011D01*
X205562327Y-157249021D01*
X205685237Y-157411781D01*
X205835958Y-157549180D01*
X205835960Y-157549182D01*
X205935022Y-157610518D01*
X206009363Y-157656548D01*
X206199544Y-157730224D01*
X206400024Y-157767700D01*
X206400026Y-157767700D01*
X206603974Y-157767700D01*
X206603976Y-157767700D01*
X206804456Y-157730224D01*
X206994637Y-157656548D01*
X207168041Y-157549181D01*
X207318764Y-157411779D01*
X207388449Y-157319501D01*
X219307518Y-157319501D01*
X219328155Y-157476260D01*
X219328156Y-157476262D01*
X219358360Y-157549182D01*
X219388664Y-157622341D01*
X219484918Y-157747782D01*
X219610359Y-157844036D01*
X219756438Y-157904544D01*
X219834819Y-157914862D01*
X219913199Y-157925182D01*
X219913200Y-157925182D01*
X219913201Y-157925182D01*
X219965454Y-157918302D01*
X220069962Y-157904544D01*
X220216041Y-157844036D01*
X220341482Y-157747782D01*
X220437736Y-157622341D01*
X220498244Y-157476262D01*
X220518882Y-157319500D01*
X220498244Y-157162738D01*
X220437736Y-157016659D01*
X220341482Y-156891218D01*
X220216041Y-156794964D01*
X220069962Y-156734456D01*
X220069960Y-156734455D01*
X219913201Y-156713818D01*
X219913199Y-156713818D01*
X219756439Y-156734455D01*
X219756437Y-156734456D01*
X219610360Y-156794963D01*
X219484918Y-156891218D01*
X219388663Y-157016660D01*
X219328156Y-157162737D01*
X219328155Y-157162739D01*
X219307518Y-157319498D01*
X219307518Y-157319501D01*
X207388449Y-157319501D01*
X207441673Y-157249021D01*
X207532582Y-157066450D01*
X207588397Y-156870283D01*
X207607215Y-156667200D01*
X207588397Y-156464117D01*
X207532582Y-156267950D01*
X207517274Y-156237208D01*
X207482415Y-156167200D01*
X207441673Y-156085379D01*
X207318764Y-155922621D01*
X207318762Y-155922618D01*
X207168041Y-155785219D01*
X207168039Y-155785217D01*
X206994642Y-155677855D01*
X206994635Y-155677851D01*
X206868769Y-155629091D01*
X206804456Y-155604176D01*
X206603976Y-155566700D01*
X206400024Y-155566700D01*
X206199544Y-155604176D01*
X206199541Y-155604176D01*
X206199541Y-155604177D01*
X206009364Y-155677851D01*
X206009357Y-155677855D01*
X205835960Y-155785217D01*
X205835958Y-155785219D01*
X205685237Y-155922618D01*
X205562327Y-156085378D01*
X205475182Y-156260388D01*
X205427679Y-156311625D01*
X205360016Y-156329046D01*
X205293676Y-156307120D01*
X205249721Y-156252809D01*
X205244407Y-156237208D01*
X205235434Y-156203718D01*
X205235429Y-156203707D01*
X205135600Y-155989622D01*
X205135599Y-155989620D01*
X205000113Y-155796126D01*
X205000108Y-155796120D01*
X204833082Y-155629094D01*
X204639578Y-155493599D01*
X204425492Y-155393770D01*
X204425477Y-155393764D01*
X204386414Y-155383297D01*
X204326754Y-155346932D01*
X204296226Y-155284085D01*
X204304521Y-155214709D01*
X204349007Y-155160832D01*
X204373710Y-155147898D01*
X204454637Y-155116548D01*
X204628041Y-155009181D01*
X204778764Y-154871779D01*
X204901673Y-154709021D01*
X204992582Y-154526450D01*
X205048397Y-154330283D01*
X205067215Y-154127200D01*
X205396785Y-154127200D01*
X205415602Y-154330282D01*
X205471417Y-154526447D01*
X205471422Y-154526460D01*
X205562327Y-154709021D01*
X205685237Y-154871781D01*
X205835958Y-155009180D01*
X205835960Y-155009182D01*
X205888319Y-155041601D01*
X206009363Y-155116548D01*
X206199544Y-155190224D01*
X206400024Y-155227700D01*
X206400026Y-155227700D01*
X206603974Y-155227700D01*
X206603976Y-155227700D01*
X206804456Y-155190224D01*
X206994637Y-155116548D01*
X207115681Y-155041601D01*
X213973518Y-155041601D01*
X213994155Y-155198360D01*
X213994156Y-155198362D01*
X214053852Y-155342482D01*
X214054664Y-155344441D01*
X214150918Y-155469882D01*
X214276359Y-155566136D01*
X214422438Y-155626644D01*
X214441048Y-155629094D01*
X214579199Y-155647282D01*
X214579200Y-155647282D01*
X214579201Y-155647282D01*
X214631453Y-155640402D01*
X214735962Y-155626644D01*
X214882041Y-155566136D01*
X215007482Y-155469882D01*
X215063252Y-155397201D01*
X233887118Y-155397201D01*
X233907755Y-155553960D01*
X233907756Y-155553962D01*
X233959072Y-155677851D01*
X233968264Y-155700041D01*
X234064518Y-155825482D01*
X234189959Y-155921736D01*
X234336038Y-155982244D01*
X234392065Y-155989620D01*
X234492799Y-156002882D01*
X234492800Y-156002882D01*
X234492801Y-156002882D01*
X234545053Y-155996002D01*
X234649562Y-155982244D01*
X234795641Y-155921736D01*
X234921082Y-155825482D01*
X235017336Y-155700041D01*
X235077844Y-155553962D01*
X235098482Y-155397200D01*
X235098030Y-155393770D01*
X235077844Y-155240439D01*
X235077844Y-155240438D01*
X235017336Y-155094359D01*
X234921082Y-154968918D01*
X234795641Y-154872664D01*
X234793509Y-154871781D01*
X234649562Y-154812156D01*
X234649560Y-154812155D01*
X234492801Y-154791518D01*
X234492799Y-154791518D01*
X234336039Y-154812155D01*
X234336037Y-154812156D01*
X234189960Y-154872663D01*
X234064518Y-154968918D01*
X233968263Y-155094360D01*
X233907756Y-155240437D01*
X233907755Y-155240439D01*
X233887118Y-155397198D01*
X233887118Y-155397201D01*
X215063252Y-155397201D01*
X215103736Y-155344441D01*
X215164244Y-155198362D01*
X215184882Y-155041600D01*
X215164244Y-154884838D01*
X215103736Y-154738759D01*
X215024273Y-154635201D01*
X217326318Y-154635201D01*
X217346955Y-154791960D01*
X217346956Y-154791962D01*
X217400819Y-154922000D01*
X217407464Y-154938041D01*
X217503718Y-155063482D01*
X217629159Y-155159736D01*
X217775238Y-155220244D01*
X217853618Y-155230562D01*
X217931999Y-155240882D01*
X217932000Y-155240882D01*
X217932001Y-155240882D01*
X217984253Y-155234002D01*
X218088762Y-155220244D01*
X218234841Y-155159736D01*
X218360282Y-155063482D01*
X218456536Y-154938041D01*
X218517044Y-154791962D01*
X218524306Y-154736801D01*
X218850318Y-154736801D01*
X218870955Y-154893560D01*
X218870956Y-154893562D01*
X218918846Y-155009180D01*
X218931464Y-155039641D01*
X219027718Y-155165082D01*
X219153159Y-155261336D01*
X219299238Y-155321844D01*
X219377618Y-155332162D01*
X219455999Y-155342482D01*
X219456000Y-155342482D01*
X219456001Y-155342482D01*
X219508254Y-155335602D01*
X219612762Y-155321844D01*
X219758841Y-155261336D01*
X219884282Y-155165082D01*
X219980536Y-155039641D01*
X220041044Y-154893562D01*
X220061682Y-154736800D01*
X220041044Y-154580038D01*
X219980536Y-154433959D01*
X219884282Y-154308518D01*
X219780392Y-154228801D01*
X241608718Y-154228801D01*
X241629355Y-154385560D01*
X241629356Y-154385562D01*
X241687712Y-154526447D01*
X241689864Y-154531641D01*
X241786118Y-154657082D01*
X241911559Y-154753336D01*
X242057638Y-154813844D01*
X242136018Y-154824162D01*
X242214399Y-154834482D01*
X242214400Y-154834482D01*
X242214401Y-154834482D01*
X242266653Y-154827602D01*
X242371162Y-154813844D01*
X242517241Y-154753336D01*
X242642682Y-154657082D01*
X242738936Y-154531641D01*
X242799444Y-154385562D01*
X242820082Y-154228800D01*
X242799444Y-154072038D01*
X242738936Y-153925959D01*
X242642682Y-153800518D01*
X242517241Y-153704264D01*
X242371162Y-153643756D01*
X242371160Y-153643755D01*
X242214401Y-153623118D01*
X242214399Y-153623118D01*
X242057639Y-153643755D01*
X242057637Y-153643756D01*
X241911560Y-153704263D01*
X241786118Y-153800518D01*
X241689863Y-153925960D01*
X241629356Y-154072037D01*
X241629355Y-154072039D01*
X241608718Y-154228798D01*
X241608718Y-154228801D01*
X219780392Y-154228801D01*
X219758841Y-154212264D01*
X219612762Y-154151756D01*
X219612760Y-154151755D01*
X219456001Y-154131118D01*
X219455999Y-154131118D01*
X219299239Y-154151755D01*
X219299237Y-154151756D01*
X219153160Y-154212263D01*
X219027718Y-154308518D01*
X218931463Y-154433960D01*
X218870956Y-154580037D01*
X218870955Y-154580039D01*
X218850318Y-154736798D01*
X218850318Y-154736801D01*
X218524306Y-154736801D01*
X218537682Y-154635200D01*
X218517044Y-154478438D01*
X218456536Y-154332359D01*
X218360282Y-154206918D01*
X218234841Y-154110664D01*
X218088762Y-154050156D01*
X218088760Y-154050155D01*
X217932001Y-154029518D01*
X217931999Y-154029518D01*
X217775239Y-154050155D01*
X217775237Y-154050156D01*
X217629160Y-154110663D01*
X217503718Y-154206918D01*
X217407463Y-154332360D01*
X217346956Y-154478437D01*
X217346955Y-154478439D01*
X217326318Y-154635198D01*
X217326318Y-154635201D01*
X215024273Y-154635201D01*
X215007482Y-154613318D01*
X214882041Y-154517064D01*
X214735962Y-154456556D01*
X214735960Y-154456555D01*
X214579201Y-154435918D01*
X214579199Y-154435918D01*
X214422439Y-154456555D01*
X214422437Y-154456556D01*
X214276360Y-154517063D01*
X214150918Y-154613318D01*
X214054663Y-154738760D01*
X213994156Y-154884837D01*
X213994155Y-154884839D01*
X213973518Y-155041598D01*
X213973518Y-155041601D01*
X207115681Y-155041601D01*
X207168041Y-155009181D01*
X207318764Y-154871779D01*
X207441673Y-154709021D01*
X207532582Y-154526450D01*
X207588397Y-154330283D01*
X207607215Y-154127200D01*
X207588397Y-153924117D01*
X207532582Y-153727950D01*
X207520787Y-153704263D01*
X207480382Y-153623118D01*
X207441673Y-153545379D01*
X207318764Y-153382621D01*
X207318762Y-153382618D01*
X207168041Y-153245219D01*
X207168039Y-153245217D01*
X207115685Y-153212801D01*
X239424318Y-153212801D01*
X239444955Y-153369560D01*
X239444956Y-153369562D01*
X239505464Y-153515641D01*
X239601718Y-153641082D01*
X239727159Y-153737336D01*
X239873238Y-153797844D01*
X239951619Y-153808162D01*
X240029999Y-153818482D01*
X240030000Y-153818482D01*
X240030001Y-153818482D01*
X240082253Y-153811602D01*
X240186762Y-153797844D01*
X240332841Y-153737336D01*
X240458282Y-153641082D01*
X240554536Y-153515641D01*
X240615044Y-153369562D01*
X240635682Y-153212800D01*
X240615044Y-153056038D01*
X240554536Y-152909959D01*
X240458282Y-152784518D01*
X240332841Y-152688264D01*
X240331479Y-152687700D01*
X240186762Y-152627756D01*
X240186760Y-152627755D01*
X240030001Y-152607118D01*
X240029999Y-152607118D01*
X239873239Y-152627755D01*
X239873237Y-152627756D01*
X239727160Y-152688263D01*
X239601718Y-152784518D01*
X239505463Y-152909960D01*
X239444956Y-153056037D01*
X239444955Y-153056039D01*
X239424318Y-153212798D01*
X239424318Y-153212801D01*
X207115685Y-153212801D01*
X206994642Y-153137855D01*
X206994635Y-153137851D01*
X206899546Y-153101014D01*
X206804456Y-153064176D01*
X206603976Y-153026700D01*
X206400024Y-153026700D01*
X206199544Y-153064176D01*
X206199541Y-153064176D01*
X206199541Y-153064177D01*
X206009364Y-153137851D01*
X206009357Y-153137855D01*
X205835960Y-153245217D01*
X205835958Y-153245219D01*
X205685237Y-153382618D01*
X205562327Y-153545378D01*
X205471422Y-153727939D01*
X205471417Y-153727952D01*
X205415602Y-153924117D01*
X205396785Y-154127199D01*
X205396785Y-154127200D01*
X205067215Y-154127200D01*
X205048397Y-153924117D01*
X204992582Y-153727950D01*
X204980787Y-153704263D01*
X204940382Y-153623118D01*
X204901673Y-153545379D01*
X204778764Y-153382621D01*
X204778762Y-153382618D01*
X204628041Y-153245219D01*
X204628039Y-153245217D01*
X204454642Y-153137855D01*
X204454635Y-153137851D01*
X204359546Y-153101014D01*
X204264456Y-153064176D01*
X204063976Y-153026700D01*
X203860024Y-153026700D01*
X203659544Y-153064176D01*
X203659541Y-153064176D01*
X203659541Y-153064177D01*
X203469364Y-153137851D01*
X203469357Y-153137855D01*
X203295960Y-153245217D01*
X203295958Y-153245219D01*
X203145237Y-153382618D01*
X203022327Y-153545378D01*
X202931422Y-153727939D01*
X202931417Y-153727952D01*
X202875602Y-153924117D01*
X202856785Y-154127199D01*
X202856785Y-154127200D01*
X202875602Y-154330282D01*
X202931417Y-154526447D01*
X202931422Y-154526460D01*
X203022327Y-154709021D01*
X203145237Y-154871781D01*
X203295958Y-155009180D01*
X203295960Y-155009182D01*
X203348319Y-155041601D01*
X203469363Y-155116548D01*
X203550283Y-155147896D01*
X203605685Y-155190469D01*
X203629276Y-155256235D01*
X203613565Y-155324316D01*
X203563542Y-155373095D01*
X203537586Y-155383297D01*
X203498519Y-155393765D01*
X203498507Y-155393770D01*
X203284422Y-155493599D01*
X203284420Y-155493600D01*
X203090926Y-155629086D01*
X203090920Y-155629091D01*
X202923891Y-155796120D01*
X202923886Y-155796126D01*
X202788400Y-155989620D01*
X202788399Y-155989622D01*
X202688570Y-156203707D01*
X202688567Y-156203713D01*
X202631364Y-156417199D01*
X202631364Y-156417200D01*
X203528314Y-156417200D01*
X203502507Y-156457356D01*
X203462000Y-156595311D01*
X203462000Y-156739089D01*
X203502507Y-156877044D01*
X203528314Y-156917200D01*
X202631364Y-156917200D01*
X197528134Y-156917200D01*
X192448134Y-149297200D01*
X202631364Y-149297200D01*
X202688567Y-149510686D01*
X202688570Y-149510692D01*
X202788399Y-149724778D01*
X202923894Y-149918282D01*
X203090917Y-150085305D01*
X203284421Y-150220800D01*
X203498507Y-150320629D01*
X203498516Y-150320633D01*
X203537583Y-150331101D01*
X203597244Y-150367466D01*
X203627773Y-150430313D01*
X203619479Y-150499688D01*
X203574993Y-150553566D01*
X203550284Y-150566502D01*
X203469373Y-150597847D01*
X203469357Y-150597855D01*
X203295960Y-150705217D01*
X203295958Y-150705219D01*
X203145237Y-150842618D01*
X203022327Y-151005378D01*
X202931422Y-151187939D01*
X202931417Y-151187952D01*
X202875602Y-151384117D01*
X202856785Y-151587199D01*
X202856785Y-151587200D01*
X202875602Y-151790282D01*
X202931417Y-151986447D01*
X202931422Y-151986460D01*
X203022327Y-152169021D01*
X203145237Y-152331781D01*
X203295958Y-152469180D01*
X203295960Y-152469182D01*
X203395141Y-152530592D01*
X203469363Y-152576548D01*
X203659544Y-152650224D01*
X203860024Y-152687700D01*
X203860026Y-152687700D01*
X204063974Y-152687700D01*
X204063976Y-152687700D01*
X204264456Y-152650224D01*
X204454637Y-152576548D01*
X204628041Y-152469181D01*
X204778764Y-152331779D01*
X204901673Y-152169021D01*
X204992582Y-151986450D01*
X205048397Y-151790283D01*
X205067215Y-151587200D01*
X205396785Y-151587200D01*
X205415602Y-151790282D01*
X205471417Y-151986447D01*
X205471422Y-151986460D01*
X205562327Y-152169021D01*
X205685237Y-152331781D01*
X205835958Y-152469180D01*
X205835960Y-152469182D01*
X205935141Y-152530592D01*
X206009363Y-152576548D01*
X206199544Y-152650224D01*
X206400024Y-152687700D01*
X206400026Y-152687700D01*
X206603974Y-152687700D01*
X206603976Y-152687700D01*
X206804456Y-152650224D01*
X206994637Y-152576548D01*
X207168041Y-152469181D01*
X207318764Y-152331779D01*
X207441673Y-152169021D01*
X207532582Y-151986450D01*
X207588397Y-151790283D01*
X207607215Y-151587201D01*
X212652718Y-151587201D01*
X212673355Y-151743960D01*
X212673356Y-151743962D01*
X212733864Y-151890041D01*
X212830118Y-152015482D01*
X212955559Y-152111736D01*
X213101638Y-152172244D01*
X213180019Y-152182562D01*
X213258399Y-152192882D01*
X213258400Y-152192882D01*
X213258401Y-152192882D01*
X213310654Y-152186002D01*
X213415162Y-152172244D01*
X213561241Y-152111736D01*
X213686682Y-152015482D01*
X213782936Y-151890041D01*
X213843444Y-151743962D01*
X213864082Y-151587200D01*
X213843444Y-151430438D01*
X213782936Y-151284359D01*
X213742499Y-151231660D01*
X245664391Y-151231660D01*
X245678197Y-151240335D01*
X245678201Y-151240337D01*
X245848358Y-151299877D01*
X245848361Y-151299878D01*
X246027497Y-151320062D01*
X246027503Y-151320062D01*
X246206638Y-151299878D01*
X246376807Y-151240333D01*
X246390607Y-151231661D01*
X246390607Y-151231660D01*
X247189391Y-151231660D01*
X247203197Y-151240335D01*
X247203201Y-151240337D01*
X247373358Y-151299877D01*
X247373361Y-151299878D01*
X247552497Y-151320062D01*
X247552503Y-151320062D01*
X247731638Y-151299878D01*
X247901807Y-151240333D01*
X247915607Y-151231661D01*
X247915607Y-151231660D01*
X247552501Y-150868553D01*
X247552500Y-150868553D01*
X247189391Y-151231660D01*
X246390607Y-151231660D01*
X246027501Y-150868553D01*
X246027500Y-150868553D01*
X245664391Y-151231660D01*
X213742499Y-151231660D01*
X213686682Y-151158918D01*
X213561241Y-151062664D01*
X213415162Y-151002156D01*
X213415160Y-151002155D01*
X213258401Y-150981518D01*
X213258399Y-150981518D01*
X213101639Y-151002155D01*
X213101637Y-151002156D01*
X212955560Y-151062663D01*
X212830118Y-151158918D01*
X212733863Y-151284360D01*
X212673356Y-151430437D01*
X212673355Y-151430439D01*
X212652718Y-151587198D01*
X212652718Y-151587201D01*
X207607215Y-151587201D01*
X207607215Y-151587200D01*
X207588397Y-151384117D01*
X207532582Y-151187950D01*
X207441673Y-151005379D01*
X207335141Y-150864308D01*
X207318762Y-150842618D01*
X207168041Y-150705219D01*
X207168039Y-150705217D01*
X206994642Y-150597855D01*
X206994635Y-150597851D01*
X206880321Y-150553566D01*
X206804456Y-150524176D01*
X206603976Y-150486700D01*
X206400024Y-150486700D01*
X206199544Y-150524176D01*
X206199541Y-150524176D01*
X206199541Y-150524177D01*
X206009364Y-150597851D01*
X206009357Y-150597855D01*
X205835960Y-150705217D01*
X205835958Y-150705219D01*
X205685237Y-150842618D01*
X205562327Y-151005378D01*
X205471422Y-151187939D01*
X205471417Y-151187952D01*
X205415602Y-151384117D01*
X205396785Y-151587199D01*
X205396785Y-151587200D01*
X205067215Y-151587200D01*
X205048397Y-151384117D01*
X204992582Y-151187950D01*
X204901673Y-151005379D01*
X204795141Y-150864308D01*
X204778762Y-150842618D01*
X204628041Y-150705219D01*
X204628039Y-150705217D01*
X204454642Y-150597855D01*
X204454635Y-150597851D01*
X204373715Y-150566503D01*
X204318313Y-150523930D01*
X204298668Y-150469160D01*
X244901891Y-150469160D01*
X244915697Y-150477835D01*
X244915701Y-150477837D01*
X245085859Y-150537377D01*
X245128482Y-150542180D01*
X245192896Y-150569246D01*
X245232451Y-150626840D01*
X245237819Y-150651515D01*
X245242621Y-150694138D01*
X245242622Y-150694141D01*
X245302162Y-150864298D01*
X245302167Y-150864308D01*
X245310838Y-150878108D01*
X245641455Y-150547492D01*
X245927500Y-150547492D01*
X245965697Y-150600065D01*
X246011662Y-150615000D01*
X246043338Y-150615000D01*
X246089303Y-150600065D01*
X246127500Y-150547492D01*
X246127500Y-150514999D01*
X246381053Y-150514999D01*
X246744160Y-150878107D01*
X246776121Y-150874507D01*
X246803887Y-150874508D01*
X246835838Y-150878108D01*
X247166454Y-150547492D01*
X247452500Y-150547492D01*
X247490697Y-150600065D01*
X247536662Y-150615000D01*
X247568338Y-150615000D01*
X247614303Y-150600065D01*
X247652500Y-150547492D01*
X247652500Y-150514998D01*
X247906052Y-150514998D01*
X247906053Y-150514999D01*
X248269160Y-150878107D01*
X248269161Y-150878107D01*
X248277833Y-150864307D01*
X248337378Y-150694138D01*
X248342180Y-150651518D01*
X248369246Y-150587103D01*
X248426840Y-150547548D01*
X248451518Y-150542180D01*
X248494138Y-150537378D01*
X248664307Y-150477833D01*
X248678107Y-150469161D01*
X248678107Y-150469160D01*
X248315001Y-150106053D01*
X248315000Y-150106053D01*
X247906052Y-150514998D01*
X247652500Y-150514998D01*
X247652500Y-150482508D01*
X247614303Y-150429935D01*
X247568338Y-150415000D01*
X247536662Y-150415000D01*
X247490697Y-150429935D01*
X247452500Y-150482508D01*
X247452500Y-150547492D01*
X247166454Y-150547492D01*
X247198946Y-150515000D01*
X247198947Y-150514998D01*
X246790000Y-150106053D01*
X246381053Y-150514998D01*
X246381053Y-150514999D01*
X246127500Y-150514999D01*
X246127500Y-150482508D01*
X246089303Y-150429935D01*
X246043338Y-150415000D01*
X246011662Y-150415000D01*
X245965697Y-150429935D01*
X245927500Y-150482508D01*
X245927500Y-150547492D01*
X245641455Y-150547492D01*
X245673947Y-150515000D01*
X245673947Y-150514999D01*
X245265001Y-150106053D01*
X245265000Y-150106053D01*
X244901891Y-150469160D01*
X204298668Y-150469160D01*
X204294723Y-150458163D01*
X204310434Y-150390083D01*
X204360458Y-150341304D01*
X204386417Y-150331101D01*
X204425481Y-150320634D01*
X204425492Y-150320629D01*
X204639578Y-150220800D01*
X204833082Y-150085305D01*
X205000105Y-149918282D01*
X205135600Y-149724778D01*
X205235429Y-149510692D01*
X205235431Y-149510689D01*
X205244406Y-149477192D01*
X205280770Y-149417531D01*
X205343616Y-149387000D01*
X205412992Y-149395294D01*
X205466871Y-149439778D01*
X205475182Y-149454011D01*
X205562327Y-149629021D01*
X205685237Y-149791781D01*
X205835958Y-149929180D01*
X205835960Y-149929182D01*
X205935141Y-149990592D01*
X206009363Y-150036548D01*
X206199544Y-150110224D01*
X206400024Y-150147700D01*
X206400026Y-150147700D01*
X206603974Y-150147700D01*
X206603976Y-150147700D01*
X206804456Y-150110224D01*
X206994637Y-150036548D01*
X207168041Y-149929181D01*
X207318764Y-149791779D01*
X207348425Y-149752502D01*
X244459938Y-149752502D01*
X244480121Y-149931638D01*
X244480122Y-149931641D01*
X244539662Y-150101798D01*
X244539667Y-150101808D01*
X244548338Y-150115608D01*
X244878955Y-149784992D01*
X245165000Y-149784992D01*
X245203197Y-149837565D01*
X245249162Y-149852500D01*
X245280838Y-149852500D01*
X245326803Y-149837565D01*
X245365000Y-149784992D01*
X245365000Y-149752500D01*
X245618553Y-149752500D01*
X246027499Y-150161447D01*
X246403955Y-149784992D01*
X246690000Y-149784992D01*
X246728197Y-149837565D01*
X246774162Y-149852500D01*
X246805838Y-149852500D01*
X246851803Y-149837565D01*
X246890000Y-149784992D01*
X246890000Y-149752500D01*
X247143553Y-149752500D01*
X247552499Y-150161447D01*
X247928955Y-149784992D01*
X248215000Y-149784992D01*
X248253197Y-149837565D01*
X248299162Y-149852500D01*
X248330838Y-149852500D01*
X248376803Y-149837565D01*
X248415000Y-149784992D01*
X248415000Y-149752500D01*
X248668552Y-149752500D01*
X249031660Y-150115607D01*
X249031661Y-150115607D01*
X249040333Y-150101807D01*
X249099878Y-149931638D01*
X249120062Y-149752502D01*
X249120062Y-149752497D01*
X249099878Y-149573361D01*
X249099877Y-149573358D01*
X249040337Y-149403201D01*
X249040335Y-149403197D01*
X249031660Y-149389391D01*
X248668553Y-149752499D01*
X248668552Y-149752500D01*
X248415000Y-149752500D01*
X248415000Y-149720008D01*
X248376803Y-149667435D01*
X248330838Y-149652500D01*
X248299162Y-149652500D01*
X248253197Y-149667435D01*
X248215000Y-149720008D01*
X248215000Y-149784992D01*
X247928955Y-149784992D01*
X247961447Y-149752500D01*
X247552500Y-149343553D01*
X247143553Y-149752499D01*
X247143553Y-149752500D01*
X246890000Y-149752500D01*
X246890000Y-149720008D01*
X246851803Y-149667435D01*
X246805838Y-149652500D01*
X246774162Y-149652500D01*
X246728197Y-149667435D01*
X246690000Y-149720008D01*
X246690000Y-149784992D01*
X246403955Y-149784992D01*
X246436447Y-149752500D01*
X246027500Y-149343553D01*
X245618553Y-149752500D01*
X245365000Y-149752500D01*
X245365000Y-149720008D01*
X245326803Y-149667435D01*
X245280838Y-149652500D01*
X245249162Y-149652500D01*
X245203197Y-149667435D01*
X245165000Y-149720008D01*
X245165000Y-149784992D01*
X244878955Y-149784992D01*
X244911447Y-149752500D01*
X244911447Y-149752499D01*
X244548338Y-149389390D01*
X244548338Y-149389391D01*
X244539664Y-149403196D01*
X244480122Y-149573358D01*
X244480121Y-149573361D01*
X244459938Y-149752497D01*
X244459938Y-149752502D01*
X207348425Y-149752502D01*
X207441673Y-149629021D01*
X207532582Y-149446450D01*
X207588397Y-149250283D01*
X207607215Y-149047200D01*
X207606162Y-149035838D01*
X244901890Y-149035838D01*
X245264998Y-149398947D01*
X245264999Y-149398947D01*
X245641454Y-149022492D01*
X245927500Y-149022492D01*
X245965697Y-149075065D01*
X246011662Y-149090000D01*
X246043338Y-149090000D01*
X246089303Y-149075065D01*
X246127500Y-149022492D01*
X246127500Y-148990000D01*
X246381053Y-148990000D01*
X246789999Y-149398947D01*
X247166455Y-149022492D01*
X247452500Y-149022492D01*
X247490697Y-149075065D01*
X247536662Y-149090000D01*
X247568338Y-149090000D01*
X247614303Y-149075065D01*
X247652500Y-149022492D01*
X247652500Y-148990000D01*
X247906053Y-148990000D01*
X248315000Y-149398947D01*
X248315001Y-149398947D01*
X248678108Y-149035838D01*
X248674508Y-149003884D01*
X248674507Y-148976119D01*
X248678107Y-148944160D01*
X248315000Y-148581053D01*
X247906053Y-148989999D01*
X247906053Y-148990000D01*
X247652500Y-148990000D01*
X247652500Y-148957508D01*
X247614303Y-148904935D01*
X247568338Y-148890000D01*
X247536662Y-148890000D01*
X247490697Y-148904935D01*
X247452500Y-148957508D01*
X247452500Y-149022492D01*
X247166455Y-149022492D01*
X247198947Y-148990000D01*
X246790000Y-148581053D01*
X246381053Y-148990000D01*
X246127500Y-148990000D01*
X246127500Y-148957508D01*
X246089303Y-148904935D01*
X246043338Y-148890000D01*
X246011662Y-148890000D01*
X245965697Y-148904935D01*
X245927500Y-148957508D01*
X245927500Y-149022492D01*
X245641454Y-149022492D01*
X245673946Y-148990000D01*
X245673946Y-148989999D01*
X245265001Y-148581053D01*
X245265000Y-148581053D01*
X244901890Y-148944161D01*
X244905491Y-148976123D01*
X244905491Y-149003892D01*
X244901890Y-149035838D01*
X207606162Y-149035838D01*
X207594032Y-148904935D01*
X207588397Y-148844117D01*
X207575048Y-148797200D01*
X207532582Y-148647950D01*
X207526854Y-148636447D01*
X207445185Y-148472433D01*
X207441673Y-148465379D01*
X207337552Y-148327500D01*
X207318762Y-148302618D01*
X207168041Y-148165219D01*
X207168039Y-148165217D01*
X207033639Y-148082001D01*
X212601918Y-148082001D01*
X212622555Y-148238760D01*
X212622556Y-148238762D01*
X212659312Y-148327500D01*
X212683064Y-148384841D01*
X212779318Y-148510282D01*
X212904759Y-148606536D01*
X213050838Y-148667044D01*
X213129218Y-148677362D01*
X213207599Y-148687682D01*
X213207600Y-148687682D01*
X213207601Y-148687682D01*
X213259853Y-148680802D01*
X213364362Y-148667044D01*
X213510441Y-148606536D01*
X213635882Y-148510282D01*
X213732136Y-148384841D01*
X213792644Y-148238762D01*
X213794126Y-148227502D01*
X244459938Y-148227502D01*
X244480121Y-148406638D01*
X244480122Y-148406641D01*
X244539662Y-148576798D01*
X244539667Y-148576808D01*
X244548338Y-148590608D01*
X244878955Y-148259992D01*
X245165000Y-148259992D01*
X245203197Y-148312565D01*
X245249162Y-148327500D01*
X245280838Y-148327500D01*
X245326803Y-148312565D01*
X245365000Y-148259992D01*
X245365000Y-148227500D01*
X245618553Y-148227500D01*
X246027499Y-148636447D01*
X246403955Y-148259992D01*
X246690000Y-148259992D01*
X246728197Y-148312565D01*
X246774162Y-148327500D01*
X246805838Y-148327500D01*
X246851803Y-148312565D01*
X246890000Y-148259992D01*
X246890000Y-148227500D01*
X247143553Y-148227500D01*
X247552499Y-148636447D01*
X247928954Y-148259992D01*
X248215000Y-148259992D01*
X248253197Y-148312565D01*
X248299162Y-148327500D01*
X248330838Y-148327500D01*
X248376803Y-148312565D01*
X248415000Y-148259992D01*
X248415000Y-148227500D01*
X248668552Y-148227500D01*
X249031660Y-148590607D01*
X249031661Y-148590607D01*
X249040333Y-148576807D01*
X249099878Y-148406638D01*
X249120062Y-148227502D01*
X249120062Y-148227497D01*
X249099878Y-148048361D01*
X249099877Y-148048358D01*
X249040337Y-147878201D01*
X249040335Y-147878197D01*
X249031660Y-147864391D01*
X248668553Y-148227499D01*
X248668552Y-148227500D01*
X248415000Y-148227500D01*
X248415000Y-148195008D01*
X248376803Y-148142435D01*
X248330838Y-148127500D01*
X248299162Y-148127500D01*
X248253197Y-148142435D01*
X248215000Y-148195008D01*
X248215000Y-148259992D01*
X247928954Y-148259992D01*
X247961446Y-148227500D01*
X247552500Y-147818553D01*
X247143553Y-148227499D01*
X247143553Y-148227500D01*
X246890000Y-148227500D01*
X246890000Y-148195008D01*
X246851803Y-148142435D01*
X246805838Y-148127500D01*
X246774162Y-148127500D01*
X246728197Y-148142435D01*
X246690000Y-148195008D01*
X246690000Y-148259992D01*
X246403955Y-148259992D01*
X246436447Y-148227500D01*
X246027500Y-147818553D01*
X245618553Y-148227500D01*
X245365000Y-148227500D01*
X245365000Y-148195008D01*
X245326803Y-148142435D01*
X245280838Y-148127500D01*
X245249162Y-148127500D01*
X245203197Y-148142435D01*
X245165000Y-148195008D01*
X245165000Y-148259992D01*
X244878955Y-148259992D01*
X244911447Y-148227500D01*
X244911447Y-148227499D01*
X244548338Y-147864390D01*
X244548338Y-147864391D01*
X244539664Y-147878196D01*
X244480122Y-148048358D01*
X244480121Y-148048361D01*
X244459938Y-148227497D01*
X244459938Y-148227502D01*
X213794126Y-148227502D01*
X213813282Y-148082000D01*
X213808853Y-148048361D01*
X213799523Y-147977492D01*
X213792644Y-147925238D01*
X213732136Y-147779159D01*
X213635882Y-147653718D01*
X213510441Y-147557464D01*
X213492578Y-147550065D01*
X213397876Y-147510838D01*
X244901890Y-147510838D01*
X245264999Y-147873947D01*
X245641454Y-147497492D01*
X245927500Y-147497492D01*
X245965697Y-147550065D01*
X246011662Y-147565000D01*
X246043338Y-147565000D01*
X246089303Y-147550065D01*
X246127500Y-147497492D01*
X246127500Y-147465000D01*
X246381053Y-147465000D01*
X246789999Y-147873947D01*
X247166454Y-147497492D01*
X247452500Y-147497492D01*
X247490697Y-147550065D01*
X247536662Y-147565000D01*
X247568338Y-147565000D01*
X247614303Y-147550065D01*
X247652500Y-147497492D01*
X247652500Y-147465000D01*
X247906053Y-147465000D01*
X248315000Y-147873947D01*
X248315001Y-147873947D01*
X248678108Y-147510838D01*
X248678108Y-147510837D01*
X248664308Y-147502167D01*
X248664298Y-147502162D01*
X248494141Y-147442622D01*
X248494138Y-147442621D01*
X248451515Y-147437819D01*
X248387102Y-147410752D01*
X248347547Y-147353157D01*
X248342180Y-147328482D01*
X248337377Y-147285859D01*
X248277837Y-147115701D01*
X248277835Y-147115697D01*
X248269160Y-147101891D01*
X247906053Y-147464999D01*
X247906053Y-147465000D01*
X247652500Y-147465000D01*
X247652500Y-147432508D01*
X247614303Y-147379935D01*
X247568338Y-147365000D01*
X247536662Y-147365000D01*
X247490697Y-147379935D01*
X247452500Y-147432508D01*
X247452500Y-147497492D01*
X247166454Y-147497492D01*
X247198947Y-147464999D01*
X246835838Y-147101890D01*
X246803892Y-147105491D01*
X246776123Y-147105491D01*
X246744161Y-147101890D01*
X246381053Y-147464999D01*
X246381053Y-147465000D01*
X246127500Y-147465000D01*
X246127500Y-147432508D01*
X246089303Y-147379935D01*
X246043338Y-147365000D01*
X246011662Y-147365000D01*
X245965697Y-147379935D01*
X245927500Y-147432508D01*
X245927500Y-147497492D01*
X245641454Y-147497492D01*
X245673947Y-147464999D01*
X245310838Y-147101890D01*
X245310838Y-147101891D01*
X245302165Y-147115695D01*
X245242622Y-147285859D01*
X245237819Y-147328484D01*
X245210752Y-147392898D01*
X245153156Y-147432452D01*
X245128484Y-147437819D01*
X245085859Y-147442622D01*
X244915695Y-147502165D01*
X244901891Y-147510838D01*
X244901890Y-147510838D01*
X213397876Y-147510838D01*
X213364362Y-147496956D01*
X213364360Y-147496955D01*
X213207601Y-147476318D01*
X213207599Y-147476318D01*
X213050839Y-147496955D01*
X213050837Y-147496956D01*
X212904760Y-147557463D01*
X212779318Y-147653718D01*
X212683063Y-147779160D01*
X212622556Y-147925237D01*
X212622555Y-147925239D01*
X212601918Y-148081998D01*
X212601918Y-148082001D01*
X207033639Y-148082001D01*
X206994642Y-148057855D01*
X206994635Y-148057851D01*
X206868769Y-148009091D01*
X206804456Y-147984176D01*
X206603976Y-147946700D01*
X206400024Y-147946700D01*
X206199544Y-147984176D01*
X206199541Y-147984176D01*
X206199541Y-147984177D01*
X206009364Y-148057851D01*
X206009357Y-148057855D01*
X205835960Y-148165217D01*
X205835958Y-148165219D01*
X205685237Y-148302618D01*
X205562327Y-148465378D01*
X205475182Y-148640388D01*
X205427679Y-148691625D01*
X205360016Y-148709046D01*
X205293676Y-148687120D01*
X205249721Y-148632809D01*
X205244407Y-148617208D01*
X205235434Y-148583718D01*
X205235429Y-148583707D01*
X205135600Y-148369622D01*
X205135599Y-148369620D01*
X205000113Y-148176126D01*
X205000108Y-148176120D01*
X204833082Y-148009094D01*
X204639578Y-147873599D01*
X204576277Y-147844082D01*
X204523838Y-147797910D01*
X204504686Y-147730716D01*
X204524902Y-147663835D01*
X204578067Y-147618500D01*
X204628682Y-147607700D01*
X204836676Y-147607700D01*
X204836677Y-147607699D01*
X204909740Y-147593166D01*
X204992601Y-147537801D01*
X205047966Y-147454940D01*
X205062500Y-147381874D01*
X205062500Y-146507200D01*
X205396785Y-146507200D01*
X205415602Y-146710282D01*
X205471417Y-146906447D01*
X205471422Y-146906460D01*
X205562327Y-147089021D01*
X205685237Y-147251781D01*
X205835958Y-147389180D01*
X205835960Y-147389182D01*
X205914512Y-147437819D01*
X206009363Y-147496548D01*
X206199544Y-147570224D01*
X206400024Y-147607700D01*
X206400026Y-147607700D01*
X206603974Y-147607700D01*
X206603976Y-147607700D01*
X206804456Y-147570224D01*
X206994637Y-147496548D01*
X207168041Y-147389181D01*
X207318764Y-147251779D01*
X207441673Y-147089021D01*
X207532582Y-146906450D01*
X207577569Y-146748338D01*
X245664390Y-146748338D01*
X246027500Y-147111447D01*
X246027501Y-147111447D01*
X246390608Y-146748338D01*
X247189390Y-146748338D01*
X247552500Y-147111446D01*
X247552501Y-147111446D01*
X247915608Y-146748338D01*
X247915608Y-146748337D01*
X247901808Y-146739667D01*
X247901798Y-146739662D01*
X247731641Y-146680122D01*
X247731638Y-146680121D01*
X247552503Y-146659938D01*
X247552497Y-146659938D01*
X247373361Y-146680121D01*
X247373358Y-146680122D01*
X247203196Y-146739664D01*
X247189391Y-146748338D01*
X247189390Y-146748338D01*
X246390608Y-146748338D01*
X246390608Y-146748337D01*
X246376808Y-146739667D01*
X246376798Y-146739662D01*
X246206641Y-146680122D01*
X246206638Y-146680121D01*
X246027503Y-146659938D01*
X246027497Y-146659938D01*
X245848361Y-146680121D01*
X245848358Y-146680122D01*
X245678196Y-146739664D01*
X245664391Y-146748338D01*
X245664390Y-146748338D01*
X207577569Y-146748338D01*
X207588397Y-146710283D01*
X207607215Y-146507200D01*
X207588397Y-146304117D01*
X207532582Y-146107950D01*
X207441673Y-145925379D01*
X207318764Y-145762621D01*
X207318762Y-145762618D01*
X207168041Y-145625219D01*
X207168039Y-145625217D01*
X206994642Y-145517855D01*
X206994635Y-145517851D01*
X206860628Y-145465937D01*
X206804456Y-145444176D01*
X206603976Y-145406700D01*
X206400024Y-145406700D01*
X206199544Y-145444176D01*
X206199541Y-145444176D01*
X206199541Y-145444177D01*
X206009364Y-145517851D01*
X206009357Y-145517855D01*
X205835960Y-145625217D01*
X205835958Y-145625219D01*
X205685237Y-145762618D01*
X205562327Y-145925378D01*
X205471422Y-146107939D01*
X205471417Y-146107952D01*
X205415602Y-146304117D01*
X205396785Y-146507199D01*
X205396785Y-146507200D01*
X205062500Y-146507200D01*
X205062500Y-145632526D01*
X205062500Y-145632525D01*
X205062500Y-145632523D01*
X205062499Y-145632521D01*
X205047967Y-145559464D01*
X205047966Y-145559460D01*
X205033682Y-145538082D01*
X204992601Y-145476599D01*
X204909740Y-145421234D01*
X204909739Y-145421233D01*
X204909735Y-145421232D01*
X204836677Y-145406700D01*
X204836674Y-145406700D01*
X203087326Y-145406700D01*
X203087323Y-145406700D01*
X203014264Y-145421232D01*
X203014260Y-145421233D01*
X202931399Y-145476599D01*
X202876033Y-145559460D01*
X202876032Y-145559464D01*
X202861500Y-145632521D01*
X202861499Y-145632523D01*
X202861499Y-147381876D01*
X202861500Y-147381878D01*
X202876032Y-147454935D01*
X202876033Y-147454939D01*
X202876034Y-147454940D01*
X202931399Y-147537801D01*
X203014260Y-147593166D01*
X203014264Y-147593167D01*
X203087321Y-147607699D01*
X203087324Y-147607700D01*
X203295318Y-147607700D01*
X203362357Y-147627385D01*
X203408112Y-147680189D01*
X203418056Y-147749347D01*
X203389031Y-147812903D01*
X203347723Y-147844082D01*
X203284422Y-147873599D01*
X203284420Y-147873600D01*
X203090926Y-148009086D01*
X203090920Y-148009091D01*
X202923891Y-148176120D01*
X202923886Y-148176126D01*
X202788400Y-148369620D01*
X202788399Y-148369622D01*
X202688570Y-148583707D01*
X202688567Y-148583713D01*
X202631364Y-148797199D01*
X202631364Y-148797200D01*
X203528314Y-148797200D01*
X203502507Y-148837356D01*
X203462000Y-148975311D01*
X203462000Y-149119089D01*
X203502507Y-149257044D01*
X203528314Y-149297200D01*
X202631364Y-149297200D01*
X192448134Y-149297200D01*
X189368934Y-144678401D01*
X212551118Y-144678401D01*
X212571755Y-144835160D01*
X212571756Y-144835162D01*
X212612032Y-144932398D01*
X212632264Y-144981241D01*
X212728518Y-145106682D01*
X212853959Y-145202936D01*
X213000038Y-145263444D01*
X213078418Y-145273762D01*
X213156799Y-145284082D01*
X213156800Y-145284082D01*
X213156801Y-145284082D01*
X213209053Y-145277202D01*
X213313562Y-145263444D01*
X213459641Y-145202936D01*
X213585082Y-145106682D01*
X213681336Y-144981241D01*
X213701566Y-144932401D01*
X242929518Y-144932401D01*
X242950155Y-145089160D01*
X242950156Y-145089162D01*
X243010664Y-145235241D01*
X243106918Y-145360682D01*
X243232359Y-145456936D01*
X243378438Y-145517444D01*
X243456819Y-145527762D01*
X243535199Y-145538082D01*
X243535200Y-145538082D01*
X243535201Y-145538082D01*
X243587454Y-145531202D01*
X243691962Y-145517444D01*
X243838041Y-145456936D01*
X243963482Y-145360682D01*
X244059736Y-145235241D01*
X244120244Y-145089162D01*
X244140882Y-144932400D01*
X244120244Y-144775638D01*
X244059736Y-144629559D01*
X243963482Y-144504118D01*
X243838041Y-144407864D01*
X243760052Y-144375560D01*
X243691962Y-144347356D01*
X243691960Y-144347355D01*
X243535201Y-144326718D01*
X243535199Y-144326718D01*
X243378439Y-144347355D01*
X243378437Y-144347356D01*
X243232360Y-144407863D01*
X243106918Y-144504118D01*
X243010663Y-144629560D01*
X242950156Y-144775637D01*
X242950155Y-144775639D01*
X242929518Y-144932398D01*
X242929518Y-144932401D01*
X213701566Y-144932401D01*
X213741844Y-144835162D01*
X213762482Y-144678400D01*
X213741844Y-144521638D01*
X213681336Y-144375559D01*
X213585082Y-144250118D01*
X213459641Y-144153864D01*
X213313562Y-144093356D01*
X213313560Y-144093355D01*
X213156801Y-144072718D01*
X213156799Y-144072718D01*
X213000039Y-144093355D01*
X213000037Y-144093356D01*
X212853960Y-144153863D01*
X212728518Y-144250118D01*
X212632263Y-144375560D01*
X212571756Y-144521637D01*
X212571755Y-144521639D01*
X212551118Y-144678398D01*
X212551118Y-144678401D01*
X189368934Y-144678401D01*
X189250000Y-144500000D01*
X174055519Y-144500000D01*
X173988480Y-144480315D01*
X173963023Y-144458586D01*
X173445128Y-143878544D01*
X171901784Y-142149999D01*
X175044898Y-142149999D01*
X175065274Y-142408912D01*
X175125901Y-142661445D01*
X175125906Y-142661462D01*
X175225290Y-142901397D01*
X175225292Y-142901400D01*
X175360992Y-143122842D01*
X175360993Y-143122843D01*
X175366801Y-143129644D01*
X176216922Y-142279522D01*
X176240507Y-142359844D01*
X176318239Y-142480798D01*
X176426900Y-142574952D01*
X176557685Y-142634680D01*
X176567466Y-142636086D01*
X175720354Y-143483197D01*
X175727157Y-143489007D01*
X175948599Y-143624707D01*
X175948602Y-143624709D01*
X176188537Y-143724093D01*
X176188554Y-143724098D01*
X176441088Y-143784725D01*
X176441087Y-143784725D01*
X176700000Y-143805101D01*
X176958912Y-143784725D01*
X177211445Y-143724098D01*
X177211462Y-143724093D01*
X177451397Y-143624709D01*
X177451400Y-143624707D01*
X177672844Y-143489005D01*
X177679644Y-143483197D01*
X176832533Y-142636086D01*
X176842315Y-142634680D01*
X176973100Y-142574952D01*
X177081761Y-142480798D01*
X177159493Y-142359844D01*
X177183076Y-142279523D01*
X178033197Y-143129644D01*
X178039005Y-143122844D01*
X178174707Y-142901400D01*
X178174709Y-142901397D01*
X178274093Y-142661462D01*
X178274098Y-142661445D01*
X178334725Y-142408912D01*
X178355100Y-142150006D01*
X190694700Y-142150006D01*
X190713864Y-142381297D01*
X190713866Y-142381308D01*
X190770842Y-142606300D01*
X190864075Y-142818848D01*
X190991016Y-143013147D01*
X190991019Y-143013151D01*
X190991021Y-143013153D01*
X191148216Y-143183913D01*
X191148219Y-143183915D01*
X191148222Y-143183918D01*
X191331365Y-143326464D01*
X191331371Y-143326468D01*
X191331374Y-143326470D01*
X191535497Y-143436936D01*
X191649487Y-143476068D01*
X191755015Y-143512297D01*
X191755017Y-143512297D01*
X191755019Y-143512298D01*
X191983951Y-143550500D01*
X191983952Y-143550500D01*
X192216048Y-143550500D01*
X192216049Y-143550500D01*
X192444981Y-143512298D01*
X192664503Y-143436936D01*
X192868626Y-143326470D01*
X192910985Y-143293501D01*
X245904318Y-143293501D01*
X245924955Y-143450260D01*
X245924956Y-143450262D01*
X245985464Y-143596341D01*
X246081718Y-143721782D01*
X246207159Y-143818036D01*
X246353238Y-143878544D01*
X246431619Y-143888862D01*
X246509999Y-143899182D01*
X246510000Y-143899182D01*
X246510001Y-143899182D01*
X246562253Y-143892302D01*
X246666762Y-143878544D01*
X246812841Y-143818036D01*
X246938282Y-143721782D01*
X247034536Y-143596341D01*
X247095044Y-143450262D01*
X247115682Y-143293500D01*
X247095044Y-143136738D01*
X247034536Y-142990659D01*
X246938282Y-142865218D01*
X246812841Y-142768964D01*
X246666762Y-142708456D01*
X246666760Y-142708455D01*
X246510001Y-142687818D01*
X246509999Y-142687818D01*
X246353239Y-142708455D01*
X246353237Y-142708456D01*
X246207160Y-142768963D01*
X246081718Y-142865218D01*
X245985463Y-142990660D01*
X245924956Y-143136737D01*
X245924955Y-143136739D01*
X245904318Y-143293498D01*
X245904318Y-143293501D01*
X192910985Y-143293501D01*
X193051784Y-143183913D01*
X193208979Y-143013153D01*
X193335924Y-142818849D01*
X193429157Y-142606300D01*
X193457595Y-142494001D01*
X250955918Y-142494001D01*
X250976555Y-142650760D01*
X250976556Y-142650762D01*
X251025516Y-142768963D01*
X251037064Y-142796841D01*
X251133318Y-142922282D01*
X251258759Y-143018536D01*
X251404838Y-143079044D01*
X251483218Y-143089362D01*
X251561599Y-143099682D01*
X251561600Y-143099682D01*
X251561601Y-143099682D01*
X251613854Y-143092802D01*
X251718362Y-143079044D01*
X251864441Y-143018536D01*
X251989882Y-142922282D01*
X252086136Y-142796841D01*
X252128481Y-142694610D01*
X252172322Y-142640207D01*
X252238616Y-142618142D01*
X252306315Y-142635421D01*
X252353926Y-142686558D01*
X252357604Y-142694614D01*
X252357862Y-142695238D01*
X252357863Y-142695239D01*
X252357864Y-142695241D01*
X252454118Y-142820682D01*
X252579559Y-142916936D01*
X252725638Y-142977444D01*
X252804019Y-142987762D01*
X252882399Y-142998082D01*
X252882400Y-142998082D01*
X252882401Y-142998082D01*
X252938784Y-142990659D01*
X253039162Y-142977444D01*
X253185241Y-142916936D01*
X253310682Y-142820682D01*
X253406936Y-142695241D01*
X253467444Y-142549162D01*
X253488082Y-142392400D01*
X253486621Y-142381305D01*
X253469463Y-142250977D01*
X253467444Y-142235638D01*
X253406936Y-142089559D01*
X253310682Y-141964118D01*
X253185241Y-141867864D01*
X253039162Y-141807356D01*
X253039160Y-141807355D01*
X252882401Y-141786718D01*
X252882399Y-141786718D01*
X252725639Y-141807355D01*
X252725637Y-141807356D01*
X252579560Y-141867863D01*
X252454118Y-141964118D01*
X252357864Y-142089559D01*
X252315518Y-142191790D01*
X252271676Y-142246193D01*
X252205382Y-142268257D01*
X252137683Y-142250977D01*
X252090073Y-142199840D01*
X252086392Y-142191778D01*
X252086136Y-142191159D01*
X251989882Y-142065718D01*
X251864441Y-141969464D01*
X251793685Y-141940156D01*
X251718362Y-141908956D01*
X251718360Y-141908955D01*
X251561601Y-141888318D01*
X251561599Y-141888318D01*
X251404839Y-141908955D01*
X251404837Y-141908956D01*
X251258760Y-141969463D01*
X251133318Y-142065718D01*
X251037063Y-142191160D01*
X250976556Y-142337237D01*
X250976555Y-142337239D01*
X250955918Y-142493998D01*
X250955918Y-142494001D01*
X193457595Y-142494001D01*
X193486134Y-142381305D01*
X193486135Y-142381297D01*
X193505300Y-142150006D01*
X193505300Y-142149993D01*
X193486135Y-141918702D01*
X193486133Y-141918691D01*
X193429157Y-141693699D01*
X193335924Y-141481151D01*
X193208983Y-141286852D01*
X193208980Y-141286849D01*
X193208979Y-141286847D01*
X193151125Y-141224001D01*
X212551118Y-141224001D01*
X212571755Y-141380760D01*
X212571756Y-141380762D01*
X212631452Y-141524882D01*
X212632264Y-141526841D01*
X212728518Y-141652282D01*
X212853959Y-141748536D01*
X213000038Y-141809044D01*
X213077196Y-141819202D01*
X213156799Y-141829682D01*
X213156800Y-141829682D01*
X213156801Y-141829682D01*
X213209054Y-141822802D01*
X213313562Y-141809044D01*
X213459641Y-141748536D01*
X213585082Y-141652282D01*
X213681336Y-141526841D01*
X213741844Y-141380762D01*
X213762482Y-141224000D01*
X213755419Y-141170354D01*
X213748274Y-141116081D01*
X213741844Y-141067238D01*
X213681336Y-140921159D01*
X213679834Y-140919201D01*
X233988718Y-140919201D01*
X234009355Y-141075960D01*
X234009356Y-141075962D01*
X234051271Y-141177155D01*
X234069864Y-141222041D01*
X234166118Y-141347482D01*
X234291559Y-141443736D01*
X234437638Y-141504244D01*
X234516018Y-141514562D01*
X234594399Y-141524882D01*
X234594400Y-141524882D01*
X234594401Y-141524882D01*
X234646654Y-141518002D01*
X234751162Y-141504244D01*
X234897241Y-141443736D01*
X235022682Y-141347482D01*
X235118936Y-141222041D01*
X235179444Y-141075962D01*
X235200082Y-140919200D01*
X235179444Y-140762438D01*
X235118936Y-140616359D01*
X235022682Y-140490918D01*
X234897241Y-140394664D01*
X234751162Y-140334156D01*
X234751160Y-140334155D01*
X234594401Y-140313518D01*
X234594399Y-140313518D01*
X234437639Y-140334155D01*
X234437637Y-140334156D01*
X234291560Y-140394663D01*
X234166118Y-140490918D01*
X234069863Y-140616360D01*
X234009356Y-140762437D01*
X234009355Y-140762439D01*
X233988718Y-140919198D01*
X233988718Y-140919201D01*
X213679834Y-140919201D01*
X213585082Y-140795718D01*
X213459641Y-140699464D01*
X213313562Y-140638956D01*
X213313560Y-140638955D01*
X213156801Y-140618318D01*
X213156799Y-140618318D01*
X213000039Y-140638955D01*
X213000037Y-140638956D01*
X212853960Y-140699463D01*
X212728518Y-140795718D01*
X212632263Y-140921160D01*
X212571756Y-141067237D01*
X212571755Y-141067239D01*
X212551118Y-141223998D01*
X212551118Y-141224001D01*
X193151125Y-141224001D01*
X193051784Y-141116087D01*
X193051779Y-141116083D01*
X193051777Y-141116081D01*
X192868634Y-140973535D01*
X192868628Y-140973531D01*
X192664504Y-140863064D01*
X192664495Y-140863061D01*
X192444984Y-140787702D01*
X192273281Y-140759050D01*
X192216049Y-140749500D01*
X191983951Y-140749500D01*
X191938164Y-140757140D01*
X191755015Y-140787702D01*
X191535504Y-140863061D01*
X191535495Y-140863064D01*
X191331371Y-140973531D01*
X191331365Y-140973535D01*
X191148222Y-141116081D01*
X191148219Y-141116084D01*
X190991016Y-141286852D01*
X190864075Y-141481151D01*
X190770842Y-141693699D01*
X190713866Y-141918691D01*
X190713864Y-141918702D01*
X190694700Y-142149993D01*
X190694700Y-142150006D01*
X178355100Y-142150006D01*
X178355101Y-142149999D01*
X178334725Y-141891087D01*
X178274098Y-141638554D01*
X178274093Y-141638537D01*
X178174709Y-141398602D01*
X178174707Y-141398599D01*
X178039007Y-141177157D01*
X178033197Y-141170354D01*
X177183076Y-142020475D01*
X177159493Y-141940156D01*
X177081761Y-141819202D01*
X176973100Y-141725048D01*
X176842315Y-141665320D01*
X176832531Y-141663913D01*
X177679644Y-140816801D01*
X177672843Y-140810993D01*
X177672842Y-140810992D01*
X177451400Y-140675292D01*
X177451397Y-140675290D01*
X177211462Y-140575906D01*
X177211445Y-140575901D01*
X176958911Y-140515274D01*
X176958912Y-140515274D01*
X176700000Y-140494898D01*
X176441087Y-140515274D01*
X176188554Y-140575901D01*
X176188537Y-140575906D01*
X175948602Y-140675290D01*
X175948599Y-140675292D01*
X175727155Y-140810993D01*
X175720354Y-140816800D01*
X176567466Y-141663913D01*
X176557685Y-141665320D01*
X176426900Y-141725048D01*
X176318239Y-141819202D01*
X176240507Y-141940156D01*
X176216923Y-142020475D01*
X175366801Y-141170353D01*
X175360993Y-141177155D01*
X175225292Y-141398599D01*
X175225290Y-141398602D01*
X175125906Y-141638537D01*
X175125901Y-141638554D01*
X175065274Y-141891087D01*
X175044898Y-142149999D01*
X171901784Y-142149999D01*
X169442143Y-139395201D01*
X210112718Y-139395201D01*
X210133355Y-139551960D01*
X210133356Y-139551962D01*
X210193864Y-139698041D01*
X210290118Y-139823482D01*
X210415559Y-139919736D01*
X210561638Y-139980244D01*
X210640018Y-139990562D01*
X210718399Y-140000882D01*
X210718400Y-140000882D01*
X210718401Y-140000882D01*
X210770654Y-139994002D01*
X210875162Y-139980244D01*
X211021241Y-139919736D01*
X211146682Y-139823482D01*
X211242936Y-139698041D01*
X211303444Y-139551962D01*
X211324082Y-139395201D01*
X239068718Y-139395201D01*
X239089355Y-139551960D01*
X239089356Y-139551962D01*
X239149864Y-139698041D01*
X239246118Y-139823482D01*
X239371559Y-139919736D01*
X239517638Y-139980244D01*
X239596019Y-139990562D01*
X239674399Y-140000882D01*
X239674400Y-140000882D01*
X239674401Y-140000882D01*
X239726653Y-139994002D01*
X239831162Y-139980244D01*
X239977241Y-139919736D01*
X240102682Y-139823482D01*
X240198936Y-139698041D01*
X240259444Y-139551962D01*
X240280082Y-139395200D01*
X240266706Y-139293601D01*
X245723518Y-139293601D01*
X245744155Y-139450360D01*
X245744156Y-139450362D01*
X245804664Y-139596441D01*
X245900918Y-139721882D01*
X246026359Y-139818136D01*
X246172438Y-139878644D01*
X246250818Y-139888962D01*
X246329199Y-139899282D01*
X246329200Y-139899282D01*
X246329201Y-139899282D01*
X246381453Y-139892402D01*
X246485962Y-139878644D01*
X246632041Y-139818136D01*
X246757482Y-139721882D01*
X246853736Y-139596441D01*
X246914244Y-139450362D01*
X246928194Y-139344401D01*
X247196718Y-139344401D01*
X247217355Y-139501160D01*
X247217356Y-139501162D01*
X247277864Y-139647241D01*
X247374118Y-139772682D01*
X247499559Y-139868936D01*
X247645638Y-139929444D01*
X247724019Y-139939762D01*
X247802399Y-139950082D01*
X247802400Y-139950082D01*
X247802401Y-139950082D01*
X247854653Y-139943202D01*
X247959162Y-139929444D01*
X248105241Y-139868936D01*
X248230682Y-139772682D01*
X248326936Y-139647241D01*
X248387444Y-139501162D01*
X248408082Y-139344400D01*
X248387444Y-139187638D01*
X248326936Y-139041559D01*
X248230682Y-138916118D01*
X248105241Y-138819864D01*
X248081801Y-138810155D01*
X247959162Y-138759356D01*
X247959160Y-138759355D01*
X247802401Y-138738718D01*
X247802399Y-138738718D01*
X247645639Y-138759355D01*
X247645637Y-138759356D01*
X247499560Y-138819863D01*
X247374118Y-138916118D01*
X247277863Y-139041560D01*
X247217356Y-139187637D01*
X247217355Y-139187639D01*
X247196718Y-139344398D01*
X247196718Y-139344401D01*
X246928194Y-139344401D01*
X246934882Y-139293600D01*
X246914244Y-139136838D01*
X246853736Y-138990759D01*
X246757482Y-138865318D01*
X246632041Y-138769064D01*
X246608601Y-138759355D01*
X246485962Y-138708556D01*
X246485960Y-138708555D01*
X246329201Y-138687918D01*
X246329199Y-138687918D01*
X246172439Y-138708555D01*
X246172437Y-138708556D01*
X246026360Y-138769063D01*
X245900918Y-138865318D01*
X245804663Y-138990760D01*
X245744156Y-139136837D01*
X245744155Y-139136839D01*
X245723518Y-139293598D01*
X245723518Y-139293601D01*
X240266706Y-139293601D01*
X240259444Y-139238438D01*
X240198936Y-139092359D01*
X240102682Y-138966918D01*
X239977241Y-138870664D01*
X239831162Y-138810156D01*
X239831160Y-138810155D01*
X239674401Y-138789518D01*
X239674399Y-138789518D01*
X239517639Y-138810155D01*
X239517637Y-138810156D01*
X239371560Y-138870663D01*
X239246118Y-138966918D01*
X239149863Y-139092360D01*
X239089356Y-139238437D01*
X239089355Y-139238439D01*
X239068718Y-139395198D01*
X239068718Y-139395201D01*
X211324082Y-139395201D01*
X211324082Y-139395200D01*
X211303444Y-139238438D01*
X211242936Y-139092359D01*
X211146682Y-138966918D01*
X211021241Y-138870664D01*
X210875162Y-138810156D01*
X210875160Y-138810155D01*
X210718401Y-138789518D01*
X210718399Y-138789518D01*
X210561639Y-138810155D01*
X210561637Y-138810156D01*
X210415560Y-138870663D01*
X210290118Y-138966918D01*
X210193863Y-139092360D01*
X210133356Y-139238437D01*
X210133355Y-139238439D01*
X210112718Y-139395198D01*
X210112718Y-139395201D01*
X169442143Y-139395201D01*
X168625715Y-138480801D01*
X207674318Y-138480801D01*
X207694955Y-138637560D01*
X207694956Y-138637562D01*
X207749425Y-138769063D01*
X207755464Y-138783641D01*
X207851718Y-138909082D01*
X207977159Y-139005336D01*
X208123238Y-139065844D01*
X208201618Y-139076162D01*
X208279999Y-139086482D01*
X208280000Y-139086482D01*
X208280001Y-139086482D01*
X208332253Y-139079602D01*
X208436762Y-139065844D01*
X208582841Y-139005336D01*
X208708282Y-138909082D01*
X208804536Y-138783641D01*
X208865044Y-138637562D01*
X208885682Y-138480800D01*
X208865044Y-138324038D01*
X208804536Y-138177959D01*
X208708282Y-138052518D01*
X208582841Y-137956264D01*
X208436762Y-137895756D01*
X208436760Y-137895755D01*
X208280001Y-137875118D01*
X208279999Y-137875118D01*
X208123239Y-137895755D01*
X208123237Y-137895756D01*
X207977160Y-137956263D01*
X207851718Y-138052518D01*
X207755463Y-138177960D01*
X207694956Y-138324037D01*
X207694955Y-138324039D01*
X207674318Y-138480798D01*
X207674318Y-138480801D01*
X168625715Y-138480801D01*
X166992858Y-136652001D01*
X219307518Y-136652001D01*
X219328155Y-136808760D01*
X219328156Y-136808762D01*
X219388664Y-136954841D01*
X219484918Y-137080282D01*
X219610359Y-137176536D01*
X219756438Y-137237044D01*
X219834818Y-137247362D01*
X219913199Y-137257682D01*
X219913200Y-137257682D01*
X219913201Y-137257682D01*
X219965454Y-137250802D01*
X220069962Y-137237044D01*
X220216041Y-137176536D01*
X220341482Y-137080282D01*
X220437736Y-136954841D01*
X220498244Y-136808762D01*
X220518882Y-136652000D01*
X220498244Y-136495238D01*
X220437736Y-136349159D01*
X220341482Y-136223718D01*
X220216041Y-136127464D01*
X220069962Y-136066956D01*
X220069960Y-136066955D01*
X219913201Y-136046318D01*
X219913199Y-136046318D01*
X219756439Y-136066955D01*
X219756437Y-136066956D01*
X219610360Y-136127463D01*
X219484918Y-136223718D01*
X219388663Y-136349160D01*
X219328156Y-136495237D01*
X219328155Y-136495239D01*
X219307518Y-136651998D01*
X219307518Y-136652001D01*
X166992858Y-136652001D01*
X165028573Y-134452001D01*
X221355118Y-134452001D01*
X221375755Y-134608760D01*
X221375756Y-134608762D01*
X221436264Y-134754841D01*
X221532518Y-134880282D01*
X221657959Y-134976536D01*
X221804038Y-135037044D01*
X221882418Y-135047362D01*
X221960799Y-135057682D01*
X221960800Y-135057682D01*
X221960801Y-135057682D01*
X222013053Y-135050802D01*
X222117562Y-135037044D01*
X222263641Y-134976536D01*
X222331064Y-134924801D01*
X250701918Y-134924801D01*
X250722555Y-135081560D01*
X250722556Y-135081562D01*
X250783064Y-135227641D01*
X250879318Y-135353082D01*
X251004759Y-135449336D01*
X251150838Y-135509844D01*
X251229219Y-135520162D01*
X251307599Y-135530482D01*
X251307600Y-135530482D01*
X251307601Y-135530482D01*
X251359854Y-135523602D01*
X251464362Y-135509844D01*
X251610441Y-135449336D01*
X251735882Y-135353082D01*
X251832136Y-135227641D01*
X251892644Y-135081562D01*
X251913282Y-134924800D01*
X251906594Y-134874001D01*
X252327518Y-134874001D01*
X252348155Y-135030760D01*
X252348156Y-135030762D01*
X252408664Y-135176841D01*
X252504918Y-135302282D01*
X252630359Y-135398536D01*
X252776438Y-135459044D01*
X252854818Y-135469362D01*
X252933199Y-135479682D01*
X252933200Y-135479682D01*
X252933201Y-135479682D01*
X252985454Y-135472802D01*
X253089962Y-135459044D01*
X253236041Y-135398536D01*
X253361482Y-135302282D01*
X253457736Y-135176841D01*
X253518244Y-135030762D01*
X253538882Y-134874000D01*
X253518244Y-134717238D01*
X253457736Y-134571159D01*
X253361482Y-134445718D01*
X253236041Y-134349464D01*
X253212601Y-134339755D01*
X253089962Y-134288956D01*
X253089960Y-134288955D01*
X252933201Y-134268318D01*
X252933199Y-134268318D01*
X252776439Y-134288955D01*
X252776437Y-134288956D01*
X252630360Y-134349463D01*
X252504918Y-134445718D01*
X252408663Y-134571160D01*
X252348156Y-134717237D01*
X252348155Y-134717239D01*
X252327518Y-134873998D01*
X252327518Y-134874001D01*
X251906594Y-134874001D01*
X251892644Y-134768038D01*
X251832136Y-134621959D01*
X251735882Y-134496518D01*
X251610441Y-134400264D01*
X251464362Y-134339756D01*
X251464360Y-134339755D01*
X251307601Y-134319118D01*
X251307599Y-134319118D01*
X251150839Y-134339755D01*
X251150837Y-134339756D01*
X251004760Y-134400263D01*
X250879318Y-134496518D01*
X250783063Y-134621960D01*
X250722556Y-134768037D01*
X250722555Y-134768039D01*
X250701918Y-134924798D01*
X250701918Y-134924801D01*
X222331064Y-134924801D01*
X222389082Y-134880282D01*
X222485336Y-134754841D01*
X222545844Y-134608762D01*
X222566482Y-134452000D01*
X222545844Y-134295238D01*
X222485336Y-134149159D01*
X222389082Y-134023718D01*
X222263641Y-133927464D01*
X222117562Y-133866956D01*
X222117560Y-133866955D01*
X221960801Y-133846318D01*
X221960799Y-133846318D01*
X221804039Y-133866955D01*
X221804037Y-133866956D01*
X221657960Y-133927463D01*
X221532518Y-134023718D01*
X221436263Y-134149160D01*
X221375756Y-134295237D01*
X221375755Y-134295239D01*
X221355118Y-134451998D01*
X221355118Y-134452001D01*
X165028573Y-134452001D01*
X162683930Y-131826001D01*
X194720318Y-131826001D01*
X194740955Y-131982760D01*
X194740956Y-131982762D01*
X194801464Y-132128841D01*
X194897718Y-132254282D01*
X195023159Y-132350536D01*
X195169238Y-132411044D01*
X195247618Y-132421362D01*
X195325999Y-132431682D01*
X195326000Y-132431682D01*
X195326001Y-132431682D01*
X195378253Y-132424802D01*
X195482762Y-132411044D01*
X195628841Y-132350536D01*
X195754282Y-132254282D01*
X195850536Y-132128841D01*
X195911044Y-131982762D01*
X195931682Y-131826000D01*
X195911044Y-131669238D01*
X195850536Y-131523159D01*
X195771073Y-131419601D01*
X220069518Y-131419601D01*
X220090155Y-131576360D01*
X220090156Y-131576362D01*
X220128626Y-131669238D01*
X220150664Y-131722441D01*
X220246918Y-131847882D01*
X220372359Y-131944136D01*
X220518438Y-132004644D01*
X220529741Y-132006132D01*
X220675199Y-132025282D01*
X220675200Y-132025282D01*
X220675201Y-132025282D01*
X220727454Y-132018402D01*
X220831962Y-132004644D01*
X220978041Y-131944136D01*
X221103482Y-131847882D01*
X221132550Y-131810000D01*
X227754659Y-131810000D01*
X227773975Y-132006129D01*
X227831188Y-132194733D01*
X227924086Y-132368532D01*
X227924090Y-132368539D01*
X228049116Y-132520883D01*
X228201460Y-132645909D01*
X228201467Y-132645913D01*
X228375266Y-132738811D01*
X228375269Y-132738811D01*
X228375273Y-132738814D01*
X228563868Y-132796024D01*
X228760000Y-132815341D01*
X228956132Y-132796024D01*
X229144727Y-132738814D01*
X229318538Y-132645910D01*
X229470883Y-132520883D01*
X229595910Y-132368538D01*
X229688814Y-132194727D01*
X229746024Y-132006132D01*
X229765341Y-131810000D01*
X233359659Y-131810000D01*
X233378975Y-132006129D01*
X233436188Y-132194733D01*
X233529086Y-132368532D01*
X233529090Y-132368539D01*
X233654116Y-132520883D01*
X233806460Y-132645909D01*
X233806467Y-132645913D01*
X233980266Y-132738811D01*
X233980269Y-132738811D01*
X233980273Y-132738814D01*
X234168868Y-132796024D01*
X234365000Y-132815341D01*
X234561132Y-132796024D01*
X234749727Y-132738814D01*
X234923538Y-132645910D01*
X235075883Y-132520883D01*
X235200910Y-132368538D01*
X235293814Y-132194727D01*
X235351024Y-132006132D01*
X235370341Y-131810000D01*
X238964659Y-131810000D01*
X238983975Y-132006129D01*
X239041188Y-132194733D01*
X239134086Y-132368532D01*
X239134090Y-132368539D01*
X239259116Y-132520883D01*
X239411460Y-132645909D01*
X239411467Y-132645913D01*
X239585266Y-132738811D01*
X239585269Y-132738811D01*
X239585273Y-132738814D01*
X239773868Y-132796024D01*
X239970000Y-132815341D01*
X240166132Y-132796024D01*
X240354727Y-132738814D01*
X240528538Y-132645910D01*
X240680883Y-132520883D01*
X240805910Y-132368538D01*
X240898814Y-132194727D01*
X240956024Y-132006132D01*
X240975341Y-131810000D01*
X244569659Y-131810000D01*
X244588975Y-132006129D01*
X244646188Y-132194733D01*
X244739086Y-132368532D01*
X244739090Y-132368539D01*
X244864116Y-132520883D01*
X245016460Y-132645909D01*
X245016467Y-132645913D01*
X245190266Y-132738811D01*
X245190269Y-132738811D01*
X245190273Y-132738814D01*
X245378868Y-132796024D01*
X245575000Y-132815341D01*
X245771132Y-132796024D01*
X245959727Y-132738814D01*
X246133538Y-132645910D01*
X246285883Y-132520883D01*
X246410910Y-132368538D01*
X246503814Y-132194727D01*
X246561024Y-132006132D01*
X246580341Y-131810000D01*
X250174659Y-131810000D01*
X250193975Y-132006129D01*
X250251188Y-132194733D01*
X250344086Y-132368532D01*
X250344090Y-132368539D01*
X250469116Y-132520883D01*
X250621460Y-132645909D01*
X250621467Y-132645913D01*
X250795266Y-132738811D01*
X250795269Y-132738811D01*
X250795273Y-132738814D01*
X250983868Y-132796024D01*
X251180000Y-132815341D01*
X251376132Y-132796024D01*
X251564727Y-132738814D01*
X251738538Y-132645910D01*
X251890883Y-132520883D01*
X252015910Y-132368538D01*
X252108814Y-132194727D01*
X252166024Y-132006132D01*
X252185341Y-131810000D01*
X252166024Y-131613868D01*
X252108814Y-131425273D01*
X252108811Y-131425269D01*
X252108811Y-131425266D01*
X252015913Y-131251467D01*
X252015909Y-131251460D01*
X251890883Y-131099116D01*
X251738539Y-130974090D01*
X251738532Y-130974086D01*
X251564733Y-130881188D01*
X251564727Y-130881186D01*
X251438997Y-130843046D01*
X251376129Y-130823975D01*
X251180000Y-130804659D01*
X250983870Y-130823975D01*
X250795266Y-130881188D01*
X250621467Y-130974086D01*
X250621460Y-130974090D01*
X250469116Y-131099116D01*
X250344090Y-131251460D01*
X250344086Y-131251467D01*
X250251188Y-131425266D01*
X250193975Y-131613870D01*
X250174659Y-131810000D01*
X246580341Y-131810000D01*
X246561024Y-131613868D01*
X246503814Y-131425273D01*
X246503811Y-131425269D01*
X246503811Y-131425266D01*
X246410913Y-131251467D01*
X246410909Y-131251460D01*
X246285883Y-131099116D01*
X246133539Y-130974090D01*
X246133532Y-130974086D01*
X245959733Y-130881188D01*
X245959727Y-130881186D01*
X245833996Y-130843046D01*
X245771129Y-130823975D01*
X245575000Y-130804659D01*
X245378870Y-130823975D01*
X245190266Y-130881188D01*
X245016467Y-130974086D01*
X245016460Y-130974090D01*
X244864116Y-131099116D01*
X244739090Y-131251460D01*
X244739086Y-131251467D01*
X244646188Y-131425266D01*
X244588975Y-131613870D01*
X244569659Y-131810000D01*
X240975341Y-131810000D01*
X240956024Y-131613868D01*
X240898814Y-131425273D01*
X240898811Y-131425269D01*
X240898811Y-131425266D01*
X240805913Y-131251467D01*
X240805909Y-131251460D01*
X240680883Y-131099116D01*
X240528539Y-130974090D01*
X240528532Y-130974086D01*
X240354733Y-130881188D01*
X240354727Y-130881186D01*
X240228996Y-130843046D01*
X240166129Y-130823975D01*
X239970000Y-130804659D01*
X239773870Y-130823975D01*
X239585266Y-130881188D01*
X239411467Y-130974086D01*
X239411460Y-130974090D01*
X239259116Y-131099116D01*
X239134090Y-131251460D01*
X239134086Y-131251467D01*
X239041188Y-131425266D01*
X238983975Y-131613870D01*
X238964659Y-131810000D01*
X235370341Y-131810000D01*
X235351024Y-131613868D01*
X235293814Y-131425273D01*
X235293811Y-131425269D01*
X235293811Y-131425266D01*
X235200913Y-131251467D01*
X235200909Y-131251460D01*
X235075883Y-131099116D01*
X234923539Y-130974090D01*
X234923532Y-130974086D01*
X234749733Y-130881188D01*
X234749727Y-130881186D01*
X234623997Y-130843045D01*
X234561129Y-130823975D01*
X234365000Y-130804659D01*
X234168870Y-130823975D01*
X233980266Y-130881188D01*
X233806467Y-130974086D01*
X233806460Y-130974090D01*
X233654116Y-131099116D01*
X233529090Y-131251460D01*
X233529086Y-131251467D01*
X233436188Y-131425266D01*
X233378975Y-131613870D01*
X233359659Y-131810000D01*
X229765341Y-131810000D01*
X229746024Y-131613868D01*
X229688814Y-131425273D01*
X229688811Y-131425269D01*
X229688811Y-131425266D01*
X229595913Y-131251467D01*
X229595909Y-131251460D01*
X229470883Y-131099116D01*
X229318539Y-130974090D01*
X229318532Y-130974086D01*
X229144733Y-130881188D01*
X229144727Y-130881186D01*
X229018997Y-130843045D01*
X228956129Y-130823975D01*
X228760000Y-130804659D01*
X228563870Y-130823975D01*
X228375266Y-130881188D01*
X228201467Y-130974086D01*
X228201460Y-130974090D01*
X228049116Y-131099116D01*
X227924090Y-131251460D01*
X227924086Y-131251467D01*
X227831188Y-131425266D01*
X227773975Y-131613870D01*
X227754659Y-131810000D01*
X221132550Y-131810000D01*
X221199736Y-131722441D01*
X221260244Y-131576362D01*
X221280882Y-131419600D01*
X221260244Y-131262838D01*
X221199736Y-131116759D01*
X221103482Y-130991318D01*
X220978041Y-130895064D01*
X220944541Y-130881188D01*
X220831962Y-130834556D01*
X220831960Y-130834555D01*
X220675201Y-130813918D01*
X220675199Y-130813918D01*
X220518439Y-130834555D01*
X220518437Y-130834556D01*
X220372360Y-130895063D01*
X220246918Y-130991318D01*
X220150663Y-131116760D01*
X220090156Y-131262837D01*
X220090155Y-131262839D01*
X220069518Y-131419598D01*
X220069518Y-131419601D01*
X195771073Y-131419601D01*
X195754282Y-131397718D01*
X195628841Y-131301464D01*
X195482762Y-131240956D01*
X195482760Y-131240955D01*
X195326001Y-131220318D01*
X195325999Y-131220318D01*
X195169239Y-131240955D01*
X195169237Y-131240956D01*
X195023160Y-131301463D01*
X194897718Y-131397718D01*
X194801463Y-131523160D01*
X194740956Y-131669237D01*
X194740955Y-131669239D01*
X194720318Y-131825998D01*
X194720318Y-131826001D01*
X162683930Y-131826001D01*
X161531504Y-130535284D01*
X161501538Y-130472166D01*
X161500000Y-130452698D01*
X161500000Y-129204001D01*
X221726318Y-129204001D01*
X221746955Y-129360760D01*
X221746956Y-129360762D01*
X221790600Y-129466129D01*
X221807464Y-129506841D01*
X221903718Y-129632282D01*
X222029159Y-129728536D01*
X222175238Y-129789044D01*
X222253618Y-129799362D01*
X222331999Y-129809682D01*
X222332000Y-129809682D01*
X222332001Y-129809682D01*
X222384253Y-129802802D01*
X222488762Y-129789044D01*
X222634841Y-129728536D01*
X222760282Y-129632282D01*
X222856536Y-129506841D01*
X222917044Y-129360762D01*
X222928993Y-129270000D01*
X227754659Y-129270000D01*
X227773975Y-129466129D01*
X227831188Y-129654733D01*
X227924086Y-129828532D01*
X227924090Y-129828539D01*
X228049116Y-129980883D01*
X228201460Y-130105909D01*
X228201467Y-130105913D01*
X228375266Y-130198811D01*
X228375269Y-130198811D01*
X228375273Y-130198814D01*
X228563868Y-130256024D01*
X228760000Y-130275341D01*
X228956132Y-130256024D01*
X229144727Y-130198814D01*
X229318538Y-130105910D01*
X229470883Y-129980883D01*
X229595910Y-129828538D01*
X229688814Y-129654727D01*
X229746024Y-129466132D01*
X229765341Y-129270000D01*
X233359659Y-129270000D01*
X233378975Y-129466129D01*
X233436188Y-129654733D01*
X233529086Y-129828532D01*
X233529090Y-129828539D01*
X233654116Y-129980883D01*
X233806460Y-130105909D01*
X233806467Y-130105913D01*
X233980266Y-130198811D01*
X233980269Y-130198811D01*
X233980273Y-130198814D01*
X234168868Y-130256024D01*
X234365000Y-130275341D01*
X234561132Y-130256024D01*
X234749727Y-130198814D01*
X234923538Y-130105910D01*
X235075883Y-129980883D01*
X235200910Y-129828538D01*
X235293814Y-129654727D01*
X235351024Y-129466132D01*
X235370341Y-129270000D01*
X238964659Y-129270000D01*
X238983975Y-129466129D01*
X239041188Y-129654733D01*
X239134086Y-129828532D01*
X239134090Y-129828539D01*
X239259116Y-129980883D01*
X239411460Y-130105909D01*
X239411467Y-130105913D01*
X239585266Y-130198811D01*
X239585269Y-130198811D01*
X239585273Y-130198814D01*
X239773868Y-130256024D01*
X239970000Y-130275341D01*
X240166132Y-130256024D01*
X240354727Y-130198814D01*
X240528538Y-130105910D01*
X240680883Y-129980883D01*
X240805910Y-129828538D01*
X240898814Y-129654727D01*
X240956024Y-129466132D01*
X240975341Y-129270000D01*
X244569659Y-129270000D01*
X244588975Y-129466129D01*
X244646188Y-129654733D01*
X244739086Y-129828532D01*
X244739090Y-129828539D01*
X244864116Y-129980883D01*
X245016460Y-130105909D01*
X245016467Y-130105913D01*
X245190266Y-130198811D01*
X245190269Y-130198811D01*
X245190273Y-130198814D01*
X245378868Y-130256024D01*
X245575000Y-130275341D01*
X245771132Y-130256024D01*
X245959727Y-130198814D01*
X246133538Y-130105910D01*
X246285883Y-129980883D01*
X246410910Y-129828538D01*
X246503814Y-129654727D01*
X246561024Y-129466132D01*
X246580341Y-129270000D01*
X250174659Y-129270000D01*
X250193975Y-129466129D01*
X250251188Y-129654733D01*
X250344086Y-129828532D01*
X250344090Y-129828539D01*
X250469116Y-129980883D01*
X250621460Y-130105909D01*
X250621467Y-130105913D01*
X250795266Y-130198811D01*
X250795269Y-130198811D01*
X250795273Y-130198814D01*
X250983868Y-130256024D01*
X251180000Y-130275341D01*
X251376132Y-130256024D01*
X251564727Y-130198814D01*
X251738538Y-130105910D01*
X251890883Y-129980883D01*
X252015910Y-129828538D01*
X252108814Y-129654727D01*
X252166024Y-129466132D01*
X252185341Y-129270000D01*
X252166024Y-129073868D01*
X252108814Y-128885273D01*
X252108811Y-128885269D01*
X252108811Y-128885266D01*
X252015913Y-128711467D01*
X252015909Y-128711460D01*
X251890883Y-128559116D01*
X251738539Y-128434090D01*
X251738532Y-128434086D01*
X251564733Y-128341188D01*
X251564727Y-128341186D01*
X251376132Y-128283976D01*
X251376129Y-128283975D01*
X251180000Y-128264659D01*
X250983870Y-128283975D01*
X250795266Y-128341188D01*
X250621467Y-128434086D01*
X250621460Y-128434090D01*
X250469116Y-128559116D01*
X250344090Y-128711460D01*
X250344086Y-128711467D01*
X250251188Y-128885266D01*
X250193975Y-129073870D01*
X250174659Y-129270000D01*
X246580341Y-129270000D01*
X246561024Y-129073868D01*
X246503814Y-128885273D01*
X246503811Y-128885269D01*
X246503811Y-128885266D01*
X246410913Y-128711467D01*
X246410909Y-128711460D01*
X246285883Y-128559116D01*
X246133539Y-128434090D01*
X246133532Y-128434086D01*
X245959733Y-128341188D01*
X245959727Y-128341186D01*
X245771132Y-128283976D01*
X245771129Y-128283975D01*
X245575000Y-128264659D01*
X245378870Y-128283975D01*
X245190266Y-128341188D01*
X245016467Y-128434086D01*
X245016460Y-128434090D01*
X244864116Y-128559116D01*
X244739090Y-128711460D01*
X244739086Y-128711467D01*
X244646188Y-128885266D01*
X244588975Y-129073870D01*
X244569659Y-129270000D01*
X240975341Y-129270000D01*
X240956024Y-129073868D01*
X240898814Y-128885273D01*
X240898811Y-128885269D01*
X240898811Y-128885266D01*
X240805913Y-128711467D01*
X240805909Y-128711460D01*
X240680883Y-128559116D01*
X240528539Y-128434090D01*
X240528532Y-128434086D01*
X240354733Y-128341188D01*
X240354727Y-128341186D01*
X240166132Y-128283976D01*
X240166129Y-128283975D01*
X239970000Y-128264659D01*
X239773870Y-128283975D01*
X239585266Y-128341188D01*
X239411467Y-128434086D01*
X239411460Y-128434090D01*
X239259116Y-128559116D01*
X239134090Y-128711460D01*
X239134086Y-128711467D01*
X239041188Y-128885266D01*
X238983975Y-129073870D01*
X238964659Y-129270000D01*
X235370341Y-129270000D01*
X235351024Y-129073868D01*
X235293814Y-128885273D01*
X235293811Y-128885269D01*
X235293811Y-128885266D01*
X235200913Y-128711467D01*
X235200909Y-128711460D01*
X235075883Y-128559116D01*
X234923539Y-128434090D01*
X234923532Y-128434086D01*
X234749733Y-128341188D01*
X234749727Y-128341186D01*
X234561132Y-128283976D01*
X234561129Y-128283975D01*
X234365000Y-128264659D01*
X234168870Y-128283975D01*
X233980266Y-128341188D01*
X233806467Y-128434086D01*
X233806460Y-128434090D01*
X233654116Y-128559116D01*
X233529090Y-128711460D01*
X233529086Y-128711467D01*
X233436188Y-128885266D01*
X233378975Y-129073870D01*
X233359659Y-129270000D01*
X229765341Y-129270000D01*
X229746024Y-129073868D01*
X229688814Y-128885273D01*
X229688811Y-128885269D01*
X229688811Y-128885266D01*
X229595913Y-128711467D01*
X229595909Y-128711460D01*
X229470883Y-128559116D01*
X229318539Y-128434090D01*
X229318532Y-128434086D01*
X229144733Y-128341188D01*
X229144727Y-128341186D01*
X228956132Y-128283976D01*
X228956129Y-128283975D01*
X228760000Y-128264659D01*
X228563870Y-128283975D01*
X228375266Y-128341188D01*
X228201467Y-128434086D01*
X228201460Y-128434090D01*
X228049116Y-128559116D01*
X227924090Y-128711460D01*
X227924086Y-128711467D01*
X227831188Y-128885266D01*
X227773975Y-129073870D01*
X227754659Y-129270000D01*
X222928993Y-129270000D01*
X222937682Y-129204000D01*
X222917044Y-129047238D01*
X222856536Y-128901159D01*
X222760282Y-128775718D01*
X222634841Y-128679464D01*
X222488762Y-128618956D01*
X222488760Y-128618955D01*
X222332001Y-128598318D01*
X222331999Y-128598318D01*
X222175239Y-128618955D01*
X222175237Y-128618956D01*
X222029160Y-128679463D01*
X221903718Y-128775718D01*
X221807463Y-128901160D01*
X221746956Y-129047237D01*
X221746955Y-129047239D01*
X221726318Y-129203998D01*
X221726318Y-129204001D01*
X161500000Y-129204001D01*
X161500000Y-127304801D01*
X194669518Y-127304801D01*
X194690155Y-127461560D01*
X194690156Y-127461562D01*
X194750664Y-127607641D01*
X194846918Y-127733082D01*
X194972359Y-127829336D01*
X195118438Y-127889844D01*
X195196818Y-127900162D01*
X195275199Y-127910482D01*
X195275200Y-127910482D01*
X195275201Y-127910482D01*
X195327453Y-127903602D01*
X195431962Y-127889844D01*
X195578041Y-127829336D01*
X195703482Y-127733082D01*
X195799736Y-127607641D01*
X195860244Y-127461562D01*
X195880882Y-127304800D01*
X195860244Y-127148038D01*
X195799736Y-127001959D01*
X195703482Y-126876518D01*
X195578041Y-126780264D01*
X195431962Y-126719756D01*
X195431960Y-126719755D01*
X195275201Y-126699118D01*
X195275199Y-126699118D01*
X195118439Y-126719755D01*
X195118437Y-126719756D01*
X194972360Y-126780263D01*
X194846918Y-126876518D01*
X194750663Y-127001960D01*
X194690156Y-127148037D01*
X194690155Y-127148039D01*
X194669518Y-127304798D01*
X194669518Y-127304801D01*
X161500000Y-127304801D01*
X161500000Y-125984001D01*
X172520718Y-125984001D01*
X172541355Y-126140760D01*
X172541356Y-126140762D01*
X172601864Y-126286841D01*
X172698118Y-126412282D01*
X172823559Y-126508536D01*
X172969638Y-126569044D01*
X173048018Y-126579362D01*
X173126399Y-126589682D01*
X173126400Y-126589682D01*
X173126401Y-126589682D01*
X173178654Y-126582802D01*
X173283162Y-126569044D01*
X173429241Y-126508536D01*
X173554682Y-126412282D01*
X173650936Y-126286841D01*
X173711444Y-126140762D01*
X173712018Y-126136401D01*
X213313118Y-126136401D01*
X213333755Y-126293160D01*
X213333756Y-126293162D01*
X213394264Y-126439241D01*
X213490518Y-126564682D01*
X213615959Y-126660936D01*
X213762038Y-126721444D01*
X213840418Y-126731762D01*
X213918799Y-126742082D01*
X213918800Y-126742082D01*
X213918801Y-126742082D01*
X213971054Y-126735202D01*
X214075562Y-126721444D01*
X214221641Y-126660936D01*
X214347082Y-126564682D01*
X214402852Y-126492001D01*
X220425118Y-126492001D01*
X220445755Y-126648760D01*
X220445756Y-126648762D01*
X220500225Y-126780263D01*
X220506264Y-126794841D01*
X220602518Y-126920282D01*
X220727959Y-127016536D01*
X220874038Y-127077044D01*
X220952418Y-127087362D01*
X221030799Y-127097682D01*
X221030800Y-127097682D01*
X221030801Y-127097682D01*
X221083053Y-127090802D01*
X221187562Y-127077044D01*
X221333641Y-127016536D01*
X221459082Y-126920282D01*
X221555336Y-126794841D01*
X221615844Y-126648762D01*
X221636482Y-126492000D01*
X221615844Y-126335238D01*
X221555336Y-126189159D01*
X221459082Y-126063718D01*
X221333641Y-125967464D01*
X221187562Y-125906956D01*
X221187560Y-125906955D01*
X221030801Y-125886318D01*
X221030799Y-125886318D01*
X220874039Y-125906955D01*
X220874037Y-125906956D01*
X220727960Y-125967463D01*
X220602518Y-126063718D01*
X220506263Y-126189160D01*
X220445756Y-126335237D01*
X220445755Y-126335239D01*
X220425118Y-126491998D01*
X220425118Y-126492001D01*
X214402852Y-126492001D01*
X214443336Y-126439241D01*
X214503844Y-126293162D01*
X214524482Y-126136400D01*
X214503844Y-125979638D01*
X214443336Y-125833559D01*
X214347082Y-125708118D01*
X214347080Y-125708117D01*
X214347080Y-125708116D01*
X214292009Y-125665859D01*
X214238988Y-125625174D01*
X214197786Y-125568748D01*
X214193631Y-125499002D01*
X214227843Y-125438082D01*
X214238984Y-125428427D01*
X214347082Y-125345482D01*
X214443336Y-125220041D01*
X214503844Y-125073962D01*
X214524482Y-124917200D01*
X214521912Y-124897682D01*
X214503844Y-124760439D01*
X214503844Y-124760438D01*
X214443336Y-124614359D01*
X214347082Y-124488918D01*
X214221641Y-124392664D01*
X214221640Y-124392663D01*
X214221638Y-124392662D01*
X214170211Y-124371361D01*
X214115807Y-124327520D01*
X214093742Y-124261226D01*
X214111021Y-124193527D01*
X214162158Y-124145916D01*
X214170211Y-124142239D01*
X214187113Y-124135238D01*
X214221641Y-124120936D01*
X214347082Y-124024682D01*
X214443336Y-123899241D01*
X214503844Y-123753162D01*
X214524482Y-123596400D01*
X214503844Y-123439638D01*
X214443336Y-123293559D01*
X214347082Y-123168118D01*
X214221641Y-123071864D01*
X214221634Y-123071861D01*
X214216315Y-123068790D01*
X214168098Y-123018225D01*
X214154872Y-122949618D01*
X214180837Y-122884752D01*
X214216315Y-122854010D01*
X214221628Y-122850941D01*
X214221641Y-122850936D01*
X214347082Y-122754682D01*
X214443336Y-122629241D01*
X214503844Y-122483162D01*
X214524482Y-122326400D01*
X214503844Y-122169638D01*
X214443336Y-122023559D01*
X214347082Y-121898118D01*
X214221641Y-121801864D01*
X214221634Y-121801861D01*
X214216315Y-121798790D01*
X214168098Y-121748225D01*
X214154872Y-121679618D01*
X214180837Y-121614752D01*
X214216315Y-121584010D01*
X214221628Y-121580941D01*
X214221641Y-121580936D01*
X214347082Y-121484682D01*
X214443336Y-121359241D01*
X214503844Y-121213162D01*
X214518153Y-121104471D01*
X214524482Y-121056401D01*
X214524482Y-121056398D01*
X214503844Y-120899639D01*
X214503844Y-120899638D01*
X214443336Y-120753559D01*
X214347082Y-120628118D01*
X214221641Y-120531864D01*
X214075562Y-120471356D01*
X214075560Y-120471355D01*
X213918801Y-120450718D01*
X213918799Y-120450718D01*
X213762039Y-120471355D01*
X213762037Y-120471356D01*
X213615960Y-120531863D01*
X213490518Y-120628118D01*
X213394263Y-120753560D01*
X213333756Y-120899637D01*
X213333755Y-120899639D01*
X213313118Y-121056398D01*
X213313118Y-121056401D01*
X213333755Y-121213160D01*
X213333756Y-121213162D01*
X213386011Y-121339318D01*
X213394264Y-121359241D01*
X213490518Y-121484682D01*
X213615959Y-121580936D01*
X213615966Y-121580941D01*
X213621287Y-121584013D01*
X213669503Y-121634579D01*
X213682727Y-121703186D01*
X213656759Y-121768051D01*
X213621287Y-121798787D01*
X213615966Y-121801858D01*
X213490518Y-121898118D01*
X213394263Y-122023560D01*
X213333756Y-122169637D01*
X213333755Y-122169639D01*
X213313118Y-122326398D01*
X213313118Y-122326401D01*
X213333755Y-122483160D01*
X213333756Y-122483162D01*
X213394264Y-122629241D01*
X213490518Y-122754682D01*
X213615959Y-122850936D01*
X213615966Y-122850941D01*
X213621287Y-122854013D01*
X213669503Y-122904579D01*
X213682727Y-122973186D01*
X213656759Y-123038051D01*
X213621287Y-123068787D01*
X213615966Y-123071858D01*
X213490518Y-123168118D01*
X213394263Y-123293560D01*
X213333756Y-123439637D01*
X213333755Y-123439639D01*
X213313118Y-123596398D01*
X213313118Y-123596401D01*
X213333755Y-123753160D01*
X213333756Y-123753162D01*
X213393268Y-123896838D01*
X213394264Y-123899241D01*
X213490518Y-124024682D01*
X213615959Y-124120936D01*
X213650487Y-124135238D01*
X213667389Y-124142239D01*
X213721792Y-124186080D01*
X213743857Y-124252374D01*
X213726578Y-124320074D01*
X213675440Y-124367684D01*
X213667389Y-124371361D01*
X213615960Y-124392663D01*
X213490518Y-124488918D01*
X213394263Y-124614360D01*
X213333756Y-124760437D01*
X213333755Y-124760439D01*
X213313118Y-124917198D01*
X213313118Y-124917201D01*
X213333755Y-125073960D01*
X213333756Y-125073962D01*
X213394264Y-125220041D01*
X213490518Y-125345482D01*
X213598611Y-125428425D01*
X213639813Y-125484852D01*
X213643968Y-125554598D01*
X213609755Y-125615519D01*
X213598615Y-125625172D01*
X213490521Y-125708116D01*
X213490518Y-125708118D01*
X213394263Y-125833560D01*
X213333756Y-125979637D01*
X213333755Y-125979639D01*
X213313118Y-126136398D01*
X213313118Y-126136401D01*
X173712018Y-126136401D01*
X173732082Y-125984000D01*
X173723081Y-125915634D01*
X173711444Y-125827239D01*
X173711444Y-125827238D01*
X173650936Y-125681159D01*
X173554682Y-125555718D01*
X173429241Y-125459464D01*
X173377620Y-125438082D01*
X173283162Y-125398956D01*
X173283160Y-125398955D01*
X173126401Y-125378318D01*
X173126399Y-125378318D01*
X172969639Y-125398955D01*
X172969637Y-125398956D01*
X172823560Y-125459463D01*
X172698118Y-125555718D01*
X172601863Y-125681160D01*
X172541356Y-125827237D01*
X172541355Y-125827239D01*
X172520718Y-125983998D01*
X172520718Y-125984001D01*
X161500000Y-125984001D01*
X161500000Y-124764801D01*
X179124718Y-124764801D01*
X179145355Y-124921560D01*
X179145356Y-124921562D01*
X179205864Y-125067641D01*
X179302118Y-125193082D01*
X179427559Y-125289336D01*
X179573638Y-125349844D01*
X179652018Y-125360162D01*
X179730399Y-125370482D01*
X179730400Y-125370482D01*
X179730401Y-125370482D01*
X179782653Y-125363602D01*
X179887162Y-125349844D01*
X180033241Y-125289336D01*
X180158682Y-125193082D01*
X180254936Y-125067641D01*
X180315444Y-124921562D01*
X180336082Y-124764800D01*
X180315444Y-124608038D01*
X180254936Y-124461959D01*
X180158682Y-124336518D01*
X180033241Y-124240264D01*
X179961051Y-124210362D01*
X179887162Y-124179756D01*
X179887160Y-124179755D01*
X179730401Y-124159118D01*
X179730399Y-124159118D01*
X179573639Y-124179755D01*
X179573637Y-124179756D01*
X179427560Y-124240263D01*
X179302118Y-124336518D01*
X179205863Y-124461960D01*
X179145356Y-124608037D01*
X179145355Y-124608039D01*
X179124718Y-124764798D01*
X179124718Y-124764801D01*
X161500000Y-124764801D01*
X161500000Y-123494801D01*
X185677918Y-123494801D01*
X185698555Y-123651560D01*
X185698556Y-123651562D01*
X185729769Y-123726918D01*
X185759064Y-123797641D01*
X185855318Y-123923082D01*
X185980759Y-124019336D01*
X186126838Y-124079844D01*
X186205218Y-124090162D01*
X186283599Y-124100482D01*
X186283600Y-124100482D01*
X186283601Y-124100482D01*
X186335854Y-124093602D01*
X186440362Y-124079844D01*
X186503718Y-124053601D01*
X188421118Y-124053601D01*
X188441755Y-124210360D01*
X188441756Y-124210362D01*
X188494011Y-124336518D01*
X188502264Y-124356441D01*
X188598518Y-124481882D01*
X188723959Y-124578136D01*
X188870038Y-124638644D01*
X188948418Y-124648962D01*
X189026799Y-124659282D01*
X189026800Y-124659282D01*
X189026801Y-124659282D01*
X189079054Y-124652402D01*
X189183562Y-124638644D01*
X189329641Y-124578136D01*
X189455082Y-124481882D01*
X189551336Y-124356441D01*
X189611844Y-124210362D01*
X189632482Y-124053601D01*
X190656318Y-124053601D01*
X190676955Y-124210360D01*
X190676956Y-124210362D01*
X190729211Y-124336518D01*
X190737464Y-124356441D01*
X190833718Y-124481882D01*
X190959159Y-124578136D01*
X191105238Y-124638644D01*
X191183619Y-124648962D01*
X191261999Y-124659282D01*
X191262000Y-124659282D01*
X191262001Y-124659282D01*
X191314253Y-124652402D01*
X191418762Y-124638644D01*
X191564841Y-124578136D01*
X191690282Y-124481882D01*
X191786536Y-124356441D01*
X191847044Y-124210362D01*
X191854306Y-124155201D01*
X193094718Y-124155201D01*
X193115355Y-124311960D01*
X193115356Y-124311962D01*
X193172020Y-124448762D01*
X193175864Y-124458041D01*
X193272118Y-124583482D01*
X193397559Y-124679736D01*
X193543638Y-124740244D01*
X193622019Y-124750562D01*
X193700399Y-124760882D01*
X193700400Y-124760882D01*
X193700401Y-124760882D01*
X193752654Y-124754002D01*
X193857162Y-124740244D01*
X194003241Y-124679736D01*
X194128682Y-124583482D01*
X194224936Y-124458041D01*
X194285444Y-124311962D01*
X194306082Y-124155200D01*
X194285444Y-123998438D01*
X194224936Y-123852359D01*
X194128682Y-123726918D01*
X194003241Y-123630664D01*
X193857162Y-123570156D01*
X193857160Y-123570155D01*
X193700401Y-123549518D01*
X193700399Y-123549518D01*
X193543639Y-123570155D01*
X193543637Y-123570156D01*
X193397560Y-123630663D01*
X193272118Y-123726918D01*
X193175863Y-123852360D01*
X193115356Y-123998437D01*
X193115355Y-123998439D01*
X193094718Y-124155198D01*
X193094718Y-124155201D01*
X191854306Y-124155201D01*
X191867682Y-124053600D01*
X191847044Y-123896838D01*
X191786536Y-123750759D01*
X191690282Y-123625318D01*
X191564841Y-123529064D01*
X191486473Y-123496603D01*
X191418762Y-123468556D01*
X191418760Y-123468555D01*
X191262001Y-123447918D01*
X191261999Y-123447918D01*
X191105239Y-123468555D01*
X191105237Y-123468556D01*
X190959160Y-123529063D01*
X190833718Y-123625318D01*
X190737463Y-123750760D01*
X190676956Y-123896837D01*
X190676955Y-123896839D01*
X190656318Y-124053598D01*
X190656318Y-124053601D01*
X189632482Y-124053601D01*
X189632482Y-124053600D01*
X189611844Y-123896838D01*
X189551336Y-123750759D01*
X189455082Y-123625318D01*
X189329641Y-123529064D01*
X189251273Y-123496603D01*
X189183562Y-123468556D01*
X189183560Y-123468555D01*
X189026801Y-123447918D01*
X189026799Y-123447918D01*
X188870039Y-123468555D01*
X188870037Y-123468556D01*
X188723960Y-123529063D01*
X188598518Y-123625318D01*
X188502263Y-123750760D01*
X188441756Y-123896837D01*
X188441755Y-123896839D01*
X188421118Y-124053598D01*
X188421118Y-124053601D01*
X186503718Y-124053601D01*
X186586441Y-124019336D01*
X186711882Y-123923082D01*
X186808136Y-123797641D01*
X186868644Y-123651562D01*
X186889282Y-123494800D01*
X186868644Y-123338038D01*
X186808136Y-123191959D01*
X186711882Y-123066518D01*
X186586441Y-122970264D01*
X186440362Y-122909756D01*
X186440360Y-122909755D01*
X186283601Y-122889118D01*
X186283599Y-122889118D01*
X186126839Y-122909755D01*
X186126837Y-122909756D01*
X185980760Y-122970263D01*
X185855318Y-123066518D01*
X185759063Y-123191960D01*
X185698556Y-123338037D01*
X185698555Y-123338039D01*
X185677918Y-123494798D01*
X185677918Y-123494801D01*
X161500000Y-123494801D01*
X161500000Y-121539000D01*
X178423722Y-121539000D01*
X178442762Y-121695818D01*
X178482980Y-121801863D01*
X178498780Y-121843523D01*
X178588517Y-121973530D01*
X178706760Y-122078283D01*
X178706762Y-122078284D01*
X178846634Y-122151696D01*
X179000014Y-122189500D01*
X179000015Y-122189500D01*
X179157985Y-122189500D01*
X179311365Y-122151696D01*
X179311364Y-122151696D01*
X179451240Y-122078283D01*
X179569483Y-121973530D01*
X179606432Y-121920000D01*
X194924722Y-121920000D01*
X194943762Y-122076818D01*
X194988918Y-122195882D01*
X194999780Y-122224523D01*
X195089517Y-122354530D01*
X195207760Y-122459283D01*
X195207762Y-122459284D01*
X195347634Y-122532696D01*
X195501014Y-122570500D01*
X195501015Y-122570500D01*
X195658985Y-122570500D01*
X195812365Y-122532696D01*
X195812364Y-122532695D01*
X195952240Y-122459283D01*
X196070483Y-122354530D01*
X196089899Y-122326401D01*
X204321518Y-122326401D01*
X204342155Y-122483160D01*
X204342156Y-122483162D01*
X204402664Y-122629241D01*
X204498918Y-122754682D01*
X204624359Y-122850936D01*
X204770438Y-122911444D01*
X204848818Y-122921762D01*
X204927199Y-122932082D01*
X204927200Y-122932082D01*
X204927201Y-122932082D01*
X204979453Y-122925202D01*
X205083962Y-122911444D01*
X205230041Y-122850936D01*
X205355482Y-122754682D01*
X205451736Y-122629241D01*
X205512244Y-122483162D01*
X205532882Y-122326400D01*
X205512244Y-122169638D01*
X205451736Y-122023559D01*
X205355482Y-121898118D01*
X205230041Y-121801864D01*
X205222612Y-121798787D01*
X205083962Y-121741356D01*
X205083960Y-121741355D01*
X204927201Y-121720718D01*
X204927199Y-121720718D01*
X204770439Y-121741355D01*
X204770437Y-121741356D01*
X204624360Y-121801863D01*
X204498918Y-121898118D01*
X204402663Y-122023560D01*
X204342156Y-122169637D01*
X204342155Y-122169639D01*
X204321518Y-122326398D01*
X204321518Y-122326401D01*
X196089899Y-122326401D01*
X196160220Y-122224523D01*
X196216237Y-122076818D01*
X196235278Y-121920000D01*
X196216774Y-121767600D01*
X196216237Y-121763181D01*
X196167464Y-121634579D01*
X196160220Y-121615477D01*
X196070483Y-121485470D01*
X195952240Y-121380717D01*
X195952238Y-121380716D01*
X195952237Y-121380715D01*
X195812365Y-121307303D01*
X195695083Y-121278397D01*
X195634702Y-121243241D01*
X195602913Y-121181022D01*
X195609809Y-121111493D01*
X195653200Y-121056730D01*
X195695083Y-121037603D01*
X195812365Y-121008696D01*
X195829477Y-120999715D01*
X195952240Y-120935283D01*
X196070483Y-120830530D01*
X196160220Y-120700523D01*
X196216237Y-120552818D01*
X196235278Y-120396000D01*
X196216237Y-120239182D01*
X196160220Y-120091477D01*
X196070483Y-119961470D01*
X195952240Y-119856717D01*
X195952238Y-119856716D01*
X195952237Y-119856715D01*
X195812365Y-119783303D01*
X195658986Y-119745500D01*
X195658985Y-119745500D01*
X195501015Y-119745500D01*
X195501014Y-119745500D01*
X195347634Y-119783303D01*
X195207762Y-119856715D01*
X195089516Y-119961471D01*
X194999781Y-120091475D01*
X194999780Y-120091476D01*
X194943762Y-120239181D01*
X194924722Y-120395999D01*
X194924722Y-120396000D01*
X194943762Y-120552818D01*
X194972320Y-120628118D01*
X194999780Y-120700523D01*
X195089517Y-120830530D01*
X195207760Y-120935283D01*
X195347635Y-121008696D01*
X195434749Y-121030167D01*
X195464917Y-121037603D01*
X195525297Y-121072759D01*
X195557086Y-121134978D01*
X195550190Y-121204507D01*
X195506799Y-121259270D01*
X195464917Y-121278397D01*
X195347633Y-121307304D01*
X195207762Y-121380715D01*
X195207759Y-121380717D01*
X195207760Y-121380717D01*
X195090407Y-121484682D01*
X195089516Y-121485471D01*
X194999781Y-121615475D01*
X194999780Y-121615476D01*
X194943762Y-121763181D01*
X194924722Y-121919999D01*
X194924722Y-121920000D01*
X179606432Y-121920000D01*
X179659220Y-121843523D01*
X179715237Y-121695818D01*
X179734278Y-121539000D01*
X179727779Y-121485471D01*
X179715237Y-121382181D01*
X179693992Y-121326164D01*
X179659220Y-121234477D01*
X179569483Y-121104470D01*
X179451240Y-120999717D01*
X179451238Y-120999716D01*
X179451237Y-120999715D01*
X179311365Y-120926303D01*
X179157986Y-120888500D01*
X179157985Y-120888500D01*
X179000015Y-120888500D01*
X179000014Y-120888500D01*
X178846634Y-120926303D01*
X178706762Y-120999715D01*
X178588516Y-121104471D01*
X178498781Y-121234475D01*
X178498780Y-121234476D01*
X178442762Y-121382181D01*
X178423722Y-121538999D01*
X178423722Y-121539000D01*
X161500000Y-121539000D01*
X161500000Y-119888000D01*
X182732722Y-119888000D01*
X182751762Y-120044818D01*
X182796918Y-120163882D01*
X182807780Y-120192523D01*
X182897517Y-120322530D01*
X183015760Y-120427283D01*
X183015762Y-120427284D01*
X183155634Y-120500696D01*
X183309014Y-120538500D01*
X183309015Y-120538500D01*
X183466985Y-120538500D01*
X183620365Y-120500696D01*
X183676267Y-120471356D01*
X183760240Y-120427283D01*
X183878483Y-120322530D01*
X183968220Y-120192523D01*
X184024237Y-120044818D01*
X184043278Y-119888000D01*
X184041914Y-119876762D01*
X184024237Y-119731181D01*
X184000479Y-119668538D01*
X183968220Y-119583477D01*
X183878483Y-119453470D01*
X183795553Y-119380001D01*
X196193518Y-119380001D01*
X196214155Y-119536760D01*
X196214156Y-119536762D01*
X196274664Y-119682841D01*
X196370918Y-119808282D01*
X196496359Y-119904536D01*
X196642438Y-119965044D01*
X196720818Y-119975362D01*
X196799199Y-119985682D01*
X196799200Y-119985682D01*
X196799201Y-119985682D01*
X196851453Y-119978802D01*
X196955962Y-119965044D01*
X197102041Y-119904536D01*
X197227482Y-119808282D01*
X197283252Y-119735601D01*
X206556718Y-119735601D01*
X206577355Y-119892360D01*
X206577356Y-119892362D01*
X206607461Y-119965043D01*
X206637864Y-120038441D01*
X206734118Y-120163882D01*
X206859559Y-120260136D01*
X207005638Y-120320644D01*
X207019964Y-120322530D01*
X207162399Y-120341282D01*
X207162400Y-120341282D01*
X207162401Y-120341282D01*
X207214653Y-120334402D01*
X207319162Y-120320644D01*
X207465241Y-120260136D01*
X207590682Y-120163882D01*
X207686936Y-120038441D01*
X207747444Y-119892362D01*
X207768082Y-119735600D01*
X207767500Y-119731182D01*
X207748055Y-119583477D01*
X207747444Y-119578838D01*
X207686936Y-119432759D01*
X207590682Y-119307318D01*
X207465241Y-119211064D01*
X207427579Y-119195464D01*
X207319162Y-119150556D01*
X207319160Y-119150555D01*
X207162401Y-119129918D01*
X207162399Y-119129918D01*
X207005639Y-119150555D01*
X207005637Y-119150556D01*
X206859560Y-119211063D01*
X206734118Y-119307318D01*
X206637863Y-119432760D01*
X206577356Y-119578837D01*
X206577355Y-119578839D01*
X206556718Y-119735598D01*
X206556718Y-119735601D01*
X197283252Y-119735601D01*
X197323736Y-119682841D01*
X197384244Y-119536762D01*
X197404882Y-119380000D01*
X197384244Y-119223238D01*
X197323736Y-119077159D01*
X197227482Y-118951718D01*
X197102041Y-118855464D01*
X196955962Y-118794956D01*
X196955960Y-118794955D01*
X196799201Y-118774318D01*
X196799199Y-118774318D01*
X196642439Y-118794955D01*
X196642437Y-118794956D01*
X196496360Y-118855463D01*
X196370918Y-118951718D01*
X196274663Y-119077160D01*
X196214156Y-119223237D01*
X196214155Y-119223239D01*
X196193518Y-119379998D01*
X196193518Y-119380001D01*
X183795553Y-119380001D01*
X183760240Y-119348717D01*
X183760238Y-119348716D01*
X183760237Y-119348715D01*
X183620365Y-119275303D01*
X183466986Y-119237500D01*
X183466985Y-119237500D01*
X183309015Y-119237500D01*
X183309014Y-119237500D01*
X183155634Y-119275303D01*
X183015762Y-119348715D01*
X182897516Y-119453471D01*
X182807781Y-119583475D01*
X182807780Y-119583476D01*
X182751762Y-119731181D01*
X182732722Y-119887999D01*
X182732722Y-119888000D01*
X161500000Y-119888000D01*
X161500000Y-112624000D01*
X161519685Y-112556961D01*
X161572489Y-112511206D01*
X161624000Y-112500000D01*
X215626000Y-112500000D01*
X215693039Y-112519685D01*
G37*
%TD.AperFunction*%
%TD*%
M02*
