M48
; DRILL file {KiCad 7.0.5} date Fri Jul 28 21:27:58 2023
; FORMAT={3:3/ absolute / metric / suppress leading zeros}
; #@! TF.CreationDate,2023-07-28T21:27:58-04:00
; #@! TF.GenerationSoftware,Kicad,Pcbnew,7.0.5
; #@! TF.FileFunction,MixedPlating,1,4
FMAT,2
METRIC,TZ
; #@! TA.AperFunction,Plated,PTH,ComponentDrill
T1C0.200
; #@! TA.AperFunction,Plated,PTH,ViaDrill
T2C0.300
; #@! TA.AperFunction,Plated,PTH,ViaDrill
T3C0.400
; #@! TA.AperFunction,Plated,PTH,ComponentDrill
T4C1.000
; #@! TA.AperFunction,Plated,PTH,ComponentDrill
T5C1.050
; #@! TA.AperFunction,Plated,PTH,ComponentDrill
T6C1.200
; #@! TA.AperFunction,Plated,PTH,ComponentDrill
T7C1.300
; #@! TA.AperFunction,Plated,PTH,ComponentDrill
T8C1.700
; #@! TA.AperFunction,NonPlated,NPTH,ComponentDrill
T9C2.700
%
G90
G05
T1
X245265Y-148227
X245265Y-149753
X246027Y-147465
X246027Y-148990
X246027Y-150515
X246790Y-148227
X246790Y-149753
X247552Y-147465
X247552Y-148990
X247552Y-150515
X248315Y-148227
X248315Y-149753
T2
X166750Y-116500
X173126Y-125984
X173250Y-134500
X179730Y-124765
X179750Y-135250
X181500Y-113750
X183250Y-134250
X184500Y-123500
X186284Y-123495
X187250Y-121071
X188750Y-125500
X189027Y-124054
X189250Y-133500
X191262Y-124054
X191750Y-119500
X193700Y-124155
X195275Y-127305
X195326Y-131826
X196799Y-119380
X201250Y-149000
X204927Y-122326
X207162Y-119736
X208280Y-138481
X210718Y-139395
X212192Y-161849
X212250Y-178450
X213157Y-141224
X213157Y-144678
X213208Y-148082
X213258Y-151587
X213360Y-158750
X213919Y-121056
X213919Y-122326
X213919Y-123596
X213919Y-124917
X213919Y-126136
X214579Y-155042
X217932Y-154635
X219456Y-154737
X219761Y-121768
X219862Y-117196
X219913Y-136652
X219913Y-157320
X220101Y-115148
X220152Y-119720
X220558Y-124292
X220675Y-131420
X221031Y-126492
X221961Y-134452
X222332Y-129204
X223063Y-169774
X223164Y-171907
X224790Y-178664
X228600Y-183998
X228750Y-174750
X228803Y-158039
X231191Y-170536
X231394Y-178460
X234493Y-155397
X234594Y-140919
X235250Y-174500
X235407Y-183998
X237896Y-170637
X237896Y-178410
X238750Y-144750
X239674Y-139395
X240030Y-153213
X240132Y-160071
X241402Y-161188
X241808Y-183998
X242000Y-174250
X242214Y-154229
X243535Y-144932
X244399Y-170637
X244399Y-178359
X246329Y-139294
X246510Y-143294
X247802Y-139344
X248209Y-183998
X248250Y-174500
X251308Y-134925
X251562Y-142494
X252882Y-142392
X252933Y-134874
X254000Y-156250
X254250Y-142500
X254750Y-134750
X259250Y-174250
X263042Y-175666
T3
X179079Y-121539
X183388Y-119888
X195580Y-120396
X195580Y-121920
T4
X176700Y-142150
X181900Y-171550
X186900Y-171550
X192100Y-142150
X203962Y-146507
X203962Y-149047
X203962Y-151587
X203962Y-154127
X203962Y-156667
X206502Y-146507
X206502Y-149047
X206502Y-151587
X206502Y-154127
X206502Y-156667
X228760Y-129270
X228760Y-131810
X234365Y-129270
X234365Y-131810
X239970Y-129270
X239970Y-131810
X245575Y-129270
X245575Y-131810
X245923Y-161849
X245923Y-164389
X248463Y-161849
X248463Y-164389
X251003Y-161849
X251003Y-164389
X251180Y-129270
X251180Y-131810
X252683Y-180600
X255223Y-180600
X257763Y-180600
X260303Y-180600
T5
X180250Y-178700
X187750Y-180200
T6
X203747Y-173458
X203747Y-175998
X203747Y-178538
X203747Y-181078
X203747Y-183618
X218987Y-175998
X218987Y-178538
X218987Y-181078
X218987Y-183618
X228760Y-114030
X228760Y-119110
X234365Y-114030
X234365Y-119110
X239970Y-114030
X239970Y-119110
X245575Y-114030
X245575Y-119110
X251180Y-114030
X251180Y-119110
T7
X168710Y-147100
X168710Y-169600
T8
X165030Y-110088
X165040Y-188380
X170030Y-110088
X170040Y-188380
X177000Y-110088
X182000Y-110088
X206408Y-188468
X211408Y-188468
X216408Y-188468
X225150Y-110088
X225150Y-188380
X230150Y-110088
X230150Y-188380
X235150Y-110088
X235150Y-188380
X240150Y-110088
X240150Y-188380
X245150Y-110088
X245150Y-188380
X250150Y-110088
X250150Y-188380
X255150Y-110088
X255150Y-188380
X260150Y-110088
X260150Y-188380
T9
X168710Y-158350
T0
M30
