%TF.GenerationSoftware,KiCad,Pcbnew,7.0.5*%
%TF.CreationDate,2023-07-28T21:19:53-04:00*%
%TF.ProjectId,proyecto de cuatrinestre,70726f79-6563-4746-9f20-646520637561,rev?*%
%TF.SameCoordinates,Original*%
%TF.FileFunction,Copper,L4,Bot*%
%TF.FilePolarity,Positive*%
%FSLAX46Y46*%
G04 Gerber Fmt 4.6, Leading zero omitted, Abs format (unit mm)*
G04 Created by KiCad (PCBNEW 7.0.5) date 2023-07-28 21:19:53*
%MOMM*%
%LPD*%
G01*
G04 APERTURE LIST*
%TA.AperFunction,ComponentPad*%
%ADD10R,1.508000X1.508000*%
%TD*%
%TA.AperFunction,ComponentPad*%
%ADD11C,1.508000*%
%TD*%
%TA.AperFunction,ComponentPad*%
%ADD12C,3.000000*%
%TD*%
%TA.AperFunction,HeatsinkPad*%
%ADD13C,0.600000*%
%TD*%
%TA.AperFunction,ComponentPad*%
%ADD14R,2.550000X2.550000*%
%TD*%
%TA.AperFunction,ComponentPad*%
%ADD15C,2.550000*%
%TD*%
%TA.AperFunction,ComponentPad*%
%ADD16R,2.000000X2.300000*%
%TD*%
%TA.AperFunction,ComponentPad*%
%ADD17C,2.300000*%
%TD*%
%TA.AperFunction,ComponentPad*%
%ADD18C,1.500000*%
%TD*%
%TA.AperFunction,ComponentPad*%
%ADD19C,1.750000*%
%TD*%
%TA.AperFunction,ComponentPad*%
%ADD20R,1.700000X1.700000*%
%TD*%
%TA.AperFunction,ComponentPad*%
%ADD21O,1.700000X1.700000*%
%TD*%
%TA.AperFunction,ComponentPad*%
%ADD22C,1.400000*%
%TD*%
%TA.AperFunction,ViaPad*%
%ADD23C,0.700000*%
%TD*%
%TA.AperFunction,ViaPad*%
%ADD24C,0.800000*%
%TD*%
%TA.AperFunction,Conductor*%
%ADD25C,0.800000*%
%TD*%
%TA.AperFunction,Conductor*%
%ADD26C,0.500000*%
%TD*%
%TA.AperFunction,Conductor*%
%ADD27C,0.250000*%
%TD*%
%TA.AperFunction,Conductor*%
%ADD28C,0.850000*%
%TD*%
%TA.AperFunction,Conductor*%
%ADD29C,2.000000*%
%TD*%
G04 APERTURE END LIST*
D10*
%TO.P,U16,1,IN-*%
%TO.N,GND*%
X260302500Y-180600000D03*
D11*
%TO.P,U16,2,IN+*%
%TO.N,VDD*%
X257762500Y-180600000D03*
%TO.P,U16,3,OUT-*%
%TO.N,GNDA*%
X255222500Y-180600000D03*
%TO.P,U16,4,OUT+*%
%TO.N,+3V3*%
X252682500Y-180600000D03*
%TD*%
D12*
%TO.P,F3,1*%
%TO.N,Net-(PS1-AC{slash}N)*%
X168710000Y-147100000D03*
%TO.P,F3,2*%
%TO.N,/ROOMLINK/CON-L1*%
X168710000Y-169600000D03*
%TD*%
D13*
%TO.P,U17,39,GND*%
%TO.N,GND*%
X247552500Y-147465000D03*
X246027500Y-147465000D03*
X248315000Y-148227500D03*
X246790000Y-148227500D03*
X245265000Y-148227500D03*
X247552500Y-148990000D03*
X246027500Y-148990000D03*
X248315000Y-149752500D03*
X246790000Y-149752500D03*
X245265000Y-149752500D03*
X247552500Y-150515000D03*
X246027500Y-150515000D03*
%TD*%
D14*
%TO.P,J4,1,Pin_1*%
%TO.N,/ROOMLINK/RGND*%
X206408000Y-188468000D03*
D15*
%TO.P,J4,2,Pin_2*%
%TO.N,/ROOMLINK/CON-B+*%
X211408000Y-188468000D03*
%TO.P,J4,3,Pin_3*%
%TO.N,/ROOMLINK/CON-A-*%
X216408000Y-188468000D03*
%TD*%
D16*
%TO.P,PS1,1,AC/L*%
%TO.N,/ROOMLINK/CON-NEUT*%
X181900000Y-171550000D03*
D17*
%TO.P,PS1,2,AC/N*%
%TO.N,Net-(PS1-AC{slash}N)*%
X186900000Y-171550000D03*
%TO.P,PS1,3,-Vout*%
%TO.N,GND*%
X176700000Y-142150000D03*
%TO.P,PS1,4,+Vout*%
%TO.N,+12V*%
X192100000Y-142150000D03*
%TD*%
D14*
%TO.P,J1,1,Pin_1*%
%TO.N,/ROOMLINK/CON-L1*%
X165040000Y-188380000D03*
D15*
%TO.P,J1,2,Pin_2*%
%TO.N,/ROOMLINK/CON-NEUT*%
X170040000Y-188380000D03*
%TD*%
D18*
%TO.P,U8,1*%
%TO.N,+12V*%
X251180000Y-131810000D03*
%TO.P,U8,2*%
%TO.N,Net-(D5-K)*%
X251180000Y-129270000D03*
%TO.P,U8,3*%
%TO.N,/ROOMLINK/CON-OUT2A*%
X251180000Y-119110000D03*
%TO.P,U8,4*%
%TO.N,/ROOMLINK/CON-OUT2B*%
X251180000Y-114030000D03*
%TD*%
D14*
%TO.P,J2,1,Pin_1*%
%TO.N,/ROOMLINK/CON-DC+*%
X170030000Y-110087500D03*
D15*
%TO.P,J2,2,Pin_2*%
%TO.N,/ROOMLINK/CON-DC-*%
X165030000Y-110087500D03*
%TD*%
D19*
%TO.P,U1,1,Vcc*%
%TO.N,VDD*%
X203747000Y-183618000D03*
%TO.P,U1,2,GND*%
%TO.N,GND*%
X203747000Y-181078000D03*
%TO.P,U1,3,TXD*%
%TO.N,/ROOMLINK/CONTROL/Tx_RS485_eXT*%
X203747000Y-178538000D03*
%TO.P,U1,4,RXD*%
%TO.N,/ROOMLINK/CONTROL/Rx_RS485_eXT*%
X203747000Y-175998000D03*
%TO.P,U1,5,CON*%
%TO.N,/ROOMLINK/CONTROL/CON_RS485_eXT*%
X203747000Y-173458000D03*
%TO.P,U1,7,Vo*%
%TO.N,Net-(U1-Vo)*%
X218987000Y-175998000D03*
%TO.P,U1,8,B*%
%TO.N,Net-(D11-A1)*%
X218987000Y-178538000D03*
%TO.P,U1,9,A*%
%TO.N,Net-(D11-A2)*%
X218987000Y-181078000D03*
%TO.P,U1,10,RGND*%
%TO.N,/ROOMLINK/RGND*%
X218987000Y-183618000D03*
%TD*%
D18*
%TO.P,U11,1*%
%TO.N,+12V*%
X239970000Y-131810000D03*
%TO.P,U11,2*%
%TO.N,Net-(D7-K)*%
X239970000Y-129270000D03*
%TO.P,U11,3*%
%TO.N,/ROOMLINK/CON-FAN-C*%
X239970000Y-119110000D03*
%TO.P,U11,4*%
%TO.N,/ROOMLINK/CON-FAN3*%
X239970000Y-114030000D03*
%TD*%
D20*
%TO.P,J8,1,VTRef*%
%TO.N,Net-(J8-VTRef)*%
X203962000Y-146507200D03*
D21*
%TO.P,J8,2,TMS*%
%TO.N,TMS*%
X206502000Y-146507200D03*
%TO.P,J8,3,GND*%
%TO.N,GND*%
X203962000Y-149047200D03*
%TO.P,J8,4,TCK*%
%TO.N,TCK*%
X206502000Y-149047200D03*
%TO.P,J8,5*%
%TO.N,unconnected-(J8-Pad5)*%
X203962000Y-151587200D03*
%TO.P,J8,6,TDO*%
%TO.N,TDO*%
X206502000Y-151587200D03*
%TO.P,J8,7*%
%TO.N,unconnected-(J8-Pad7)*%
X203962000Y-154127200D03*
%TO.P,J8,8,TDI*%
%TO.N,TDI*%
X206502000Y-154127200D03*
%TO.P,J8,9,GNDDetect*%
%TO.N,GND*%
X203962000Y-156667200D03*
%TO.P,J8,10,nRESET*%
%TO.N,nRESET*%
X206502000Y-156667200D03*
%TD*%
D18*
%TO.P,U7,1*%
%TO.N,+12V*%
X245575000Y-131810000D03*
%TO.P,U7,2*%
%TO.N,Net-(D6-K)*%
X245575000Y-129270000D03*
%TO.P,U7,3*%
%TO.N,/ROOMLINK/CON-OUT1A*%
X245575000Y-119110000D03*
%TO.P,U7,4*%
%TO.N,/ROOMLINK/CON-OUT1B*%
X245575000Y-114030000D03*
%TD*%
D14*
%TO.P,J5,1,Pin_1*%
%TO.N,/ROOMLINK/CON-OUT2A*%
X260150000Y-110087500D03*
D15*
%TO.P,J5,2,Pin_2*%
%TO.N,/ROOMLINK/CON-OUT2B*%
X255150000Y-110087500D03*
%TO.P,J5,3,Pin_3*%
%TO.N,/ROOMLINK/CON-OUT1A*%
X250150000Y-110087500D03*
%TO.P,J5,4,Pin_4*%
%TO.N,/ROOMLINK/CON-OUT1B*%
X245150000Y-110087500D03*
%TO.P,J5,5,Pin_5*%
%TO.N,/ROOMLINK/CON-FAN3*%
X240150000Y-110087500D03*
%TO.P,J5,6,Pin_6*%
%TO.N,/ROOMLINK/CON-FAN2*%
X235150000Y-110087500D03*
%TO.P,J5,7,Pin_7*%
%TO.N,/ROOMLINK/CON-FAN1*%
X230150000Y-110087500D03*
%TO.P,J5,8,Pin_8*%
%TO.N,/ROOMLINK/CON-FAN-C*%
X225150000Y-110087500D03*
%TD*%
D18*
%TO.P,U9,1*%
%TO.N,+12V*%
X228760000Y-131810000D03*
%TO.P,U9,2*%
%TO.N,Net-(D9-K)*%
X228760000Y-129270000D03*
%TO.P,U9,3*%
%TO.N,/ROOMLINK/CON-FAN-C*%
X228760000Y-119110000D03*
%TO.P,U9,4*%
%TO.N,/ROOMLINK/CON-FAN1*%
X228760000Y-114030000D03*
%TD*%
D20*
%TO.P,J7,1,Pin_1*%
%TO.N,VDD*%
X245922800Y-164388800D03*
D21*
%TO.P,J7,2,Pin_2*%
%TO.N,Net-(J7-Pin_2)*%
X245922800Y-161848800D03*
%TO.P,J7,3,Pin_3*%
%TO.N,Net-(J7-Pin_3)*%
X248462800Y-164388800D03*
%TO.P,J7,4,Pin_4*%
%TO.N,Net-(J7-Pin_4)*%
X248462800Y-161848800D03*
%TO.P,J7,5,Pin_5*%
%TO.N,GND*%
X251002800Y-164388800D03*
%TO.P,J7,6,Pin_6*%
%TO.N,Net-(J7-Pin_6)*%
X251002800Y-161848800D03*
%TD*%
D14*
%TO.P,J6,1,Pin_1*%
%TO.N,/ROOMLINK/CON-IN4-*%
X225150000Y-188380000D03*
D15*
%TO.P,J6,2,Pin_2*%
%TO.N,/ROOMLINK/CON-IN4+*%
X230150000Y-188380000D03*
%TO.P,J6,3,Pin_3*%
%TO.N,/ROOMLINK/CON-IN3-*%
X235150000Y-188380000D03*
%TO.P,J6,4,Pin_4*%
%TO.N,/ROOMLINK/CON-IN3+*%
X240150000Y-188380000D03*
%TO.P,J6,5,Pin_5*%
%TO.N,/ROOMLINK/CON-IN2-*%
X245150000Y-188380000D03*
%TO.P,J6,6,Pin_6*%
%TO.N,/ROOMLINK/CON-IN2+*%
X250150000Y-188380000D03*
%TO.P,J6,7,Pin_7*%
%TO.N,/ROOMLINK/CON-IN1-*%
X255150000Y-188380000D03*
%TO.P,J6,8,Pin_8*%
%TO.N,/ROOMLINK/CON-IN1+*%
X260150000Y-188380000D03*
%TD*%
D22*
%TO.P,RV1,1*%
%TO.N,/ROOMLINK/CON-NEUT*%
X180250000Y-178700000D03*
%TO.P,RV1,2*%
%TO.N,Net-(PS1-AC{slash}N)*%
X187750000Y-180200000D03*
%TD*%
D14*
%TO.P,J3,1,Pin_1*%
%TO.N,/ROOMLINK/CON-LCDA-*%
X182000000Y-110087500D03*
D15*
%TO.P,J3,2,Pin_2*%
%TO.N,/ROOMLINK/CON-LCDB+*%
X177000000Y-110087500D03*
%TD*%
D18*
%TO.P,U10,1*%
%TO.N,+12V*%
X234365000Y-131810000D03*
%TO.P,U10,2*%
%TO.N,Net-(D8-K)*%
X234365000Y-129270000D03*
%TO.P,U10,3*%
%TO.N,/ROOMLINK/CON-FAN-C*%
X234365000Y-119110000D03*
%TO.P,U10,4*%
%TO.N,/ROOMLINK/CON-FAN2*%
X234365000Y-114030000D03*
%TD*%
D23*
%TO.N,GND*%
X184500000Y-123500000D03*
X187250000Y-121070500D03*
X242000000Y-174250000D03*
X173250000Y-134500000D03*
X228750000Y-174750000D03*
X259250000Y-174250000D03*
X191750000Y-119500000D03*
X254750000Y-134750000D03*
X235250000Y-174500000D03*
X248250000Y-174500000D03*
X238750000Y-144750000D03*
X188750000Y-125500000D03*
X189250000Y-133500000D03*
X183250000Y-134250000D03*
X181500000Y-113750000D03*
X254250000Y-142500000D03*
X201250000Y-149000000D03*
X166750000Y-116500000D03*
X179750000Y-135250000D03*
X254000000Y-156250000D03*
%TO.N,nRESET*%
X219456000Y-154736800D03*
X251561600Y-142494000D03*
%TO.N,+12V*%
X221030800Y-126492000D03*
X219760800Y-121767600D03*
X220675200Y-131419600D03*
X219862400Y-117195600D03*
X219913200Y-136652000D03*
X195326000Y-131826000D03*
%TO.N,/ROOMLINK/CONTROL/INPUT_4_MICRO*%
X228803200Y-158038800D03*
X234492800Y-155397200D03*
%TO.N,Net-(D5-K)*%
X213918800Y-121056400D03*
X220100800Y-115148000D03*
%TO.N,Net-(D6-K)*%
X220151600Y-119720000D03*
X213918800Y-122326400D03*
%TO.N,Net-(D7-K)*%
X213918800Y-123596400D03*
X220558000Y-124292000D03*
%TO.N,Net-(D8-K)*%
X213918800Y-124917200D03*
X222332000Y-129204000D03*
%TO.N,Net-(D9-K)*%
X213918800Y-126136400D03*
X221960800Y-134452000D03*
%TO.N,Net-(D11-A2)*%
X212250000Y-178450000D03*
D24*
%TO.N,Net-(D13-A1)*%
X195580000Y-121920000D03*
X179079000Y-121539000D03*
%TO.N,Net-(D13-A2)*%
X195580000Y-120396000D03*
X183388000Y-119888000D03*
D23*
%TO.N,VDD*%
X193700400Y-124155200D03*
X213156800Y-141224000D03*
X213207600Y-148082000D03*
X214579200Y-155041600D03*
X213258400Y-151587200D03*
X252882400Y-142392400D03*
X186283600Y-123494800D03*
X189026800Y-124053600D03*
X179730400Y-124764800D03*
X213156800Y-144678400D03*
X223164400Y-171907200D03*
X173126400Y-125984000D03*
X223062800Y-169773600D03*
X195275200Y-127304800D03*
X252933200Y-134874000D03*
X231190800Y-170535600D03*
X251307600Y-134924800D03*
X244398800Y-170637200D03*
X237896400Y-170637200D03*
X213360000Y-158750000D03*
X263042400Y-175666400D03*
X246329200Y-139293600D03*
X191262000Y-124053600D03*
%TO.N,GNDA*%
X237896400Y-178409600D03*
X244398800Y-178358800D03*
X231394000Y-178460400D03*
X224790000Y-178663600D03*
%TO.N,TDI*%
X234594400Y-140919200D03*
X217932000Y-154635200D03*
%TO.N,+3V3*%
X241808000Y-183997600D03*
X228600000Y-183997600D03*
X248208800Y-183997600D03*
X235407200Y-183997600D03*
%TO.N,/ROOMLINK/CONTROL/RLY_OUT2_MICRO*%
X240030000Y-153212800D03*
X204927200Y-122326400D03*
%TO.N,/ROOMLINK/CONTROL/RLY_OUT1_MICRO*%
X207162400Y-119735600D03*
X242214400Y-154228800D03*
%TO.N,/ROOMLINK/CONTROL/RLY_FAN3_MICRO*%
X210718400Y-139395200D03*
X239674400Y-139395200D03*
%TO.N,/ROOMLINK/CONTROL/CON_RS485_eXT*%
X219913200Y-157319500D03*
X246510000Y-143293500D03*
%TO.N,/ROOMLINK/CONTROL/COM_RS485_LCD*%
X208280000Y-138480800D03*
X247802400Y-139344400D03*
%TO.N,/ROOMLINK/CONTROL/Tx_RS485_LCD*%
X212191600Y-161848800D03*
X241401600Y-161188400D03*
%TO.N,/ROOMLINK/CONTROL/Rx_RS485_lcd*%
X240131600Y-160070800D03*
X196799200Y-119380000D03*
%TO.N,Net-(J7-Pin_3)*%
X243535200Y-144932400D03*
%TD*%
D25*
%TO.N,GND*%
X260302500Y-175302500D02*
X259250000Y-174250000D01*
X203962000Y-149047200D02*
X201297200Y-149047200D01*
X260302500Y-180600000D02*
X260302500Y-175302500D01*
X201297200Y-149047200D02*
X201250000Y-149000000D01*
D26*
%TO.N,nRESET*%
X219456000Y-154736800D02*
X219456000Y-154686000D01*
D27*
X231648000Y-142494000D02*
X251561600Y-142494000D01*
X219456000Y-154686000D02*
X231648000Y-142494000D01*
%TO.N,/ROOMLINK/CONTROL/INPUT_4_MICRO*%
X228803200Y-156921200D02*
X230327200Y-155397200D01*
X230327200Y-155397200D02*
X234492800Y-155397200D01*
X228803200Y-158038800D02*
X228803200Y-156921200D01*
D26*
%TO.N,Net-(D5-K)*%
X214192400Y-121056400D02*
X220100800Y-115148000D01*
X213918800Y-121056400D02*
X214192400Y-121056400D01*
%TO.N,Net-(D6-K)*%
X217545200Y-122326400D02*
X220151600Y-119720000D01*
X213918800Y-122326400D02*
X217545200Y-122326400D01*
%TO.N,Net-(D7-K)*%
X213918800Y-123596400D02*
X219862400Y-123596400D01*
X219862400Y-123596400D02*
X220558000Y-124292000D01*
%TO.N,Net-(D8-K)*%
X218045200Y-124917200D02*
X222332000Y-129204000D01*
X213918800Y-124917200D02*
X218045200Y-124917200D01*
%TO.N,Net-(D9-K)*%
X221960800Y-134178400D02*
X221960800Y-134452000D01*
X213918800Y-126136400D02*
X221960800Y-134178400D01*
D28*
%TO.N,Net-(D11-A2)*%
X212250000Y-178450000D02*
X214878000Y-181078000D01*
X214878000Y-181078000D02*
X218987000Y-181078000D01*
D27*
%TO.N,Net-(D13-A1)*%
X195580000Y-121920000D02*
X179460000Y-121920000D01*
X179460000Y-121920000D02*
X179079000Y-121539000D01*
%TO.N,Net-(D13-A2)*%
X195580000Y-120396000D02*
X183896000Y-120396000D01*
X183896000Y-120396000D02*
X183388000Y-119888000D01*
D29*
%TO.N,Net-(PS1-AC{slash}N)*%
X187750000Y-172400000D02*
X186900000Y-171550000D01*
X168710000Y-147100000D02*
X168710000Y-149406000D01*
X186900000Y-167596000D02*
X186900000Y-171550000D01*
X187750000Y-180200000D02*
X187750000Y-172400000D01*
X168710000Y-149406000D02*
X186900000Y-167596000D01*
%TO.N,/ROOMLINK/CON-L1*%
X165040000Y-188380000D02*
X165040000Y-173270000D01*
X165040000Y-173270000D02*
X168710000Y-169600000D01*
D27*
%TO.N,TDI*%
X231648000Y-140919200D02*
X234594400Y-140919200D01*
X217932000Y-154635200D02*
X231648000Y-140919200D01*
D25*
%TO.N,+3V3*%
X252682500Y-180600000D02*
X252682500Y-182470300D01*
X235407200Y-183997600D02*
X228600000Y-183997600D01*
X252682500Y-182470300D02*
X251155200Y-183997600D01*
X251155200Y-183997600D02*
X248208800Y-183997600D01*
X248208800Y-183997600D02*
X241808000Y-183997600D01*
X241808000Y-183997600D02*
X235407200Y-183997600D01*
D27*
%TO.N,/ROOMLINK/CONTROL/RLY_OUT2_MICRO*%
X201676000Y-136448800D02*
X201676000Y-123494800D01*
X202863532Y-122307268D02*
X204908068Y-122307268D01*
D26*
X204908068Y-122307268D02*
X204927200Y-122326400D01*
X210108800Y-145084800D02*
X210210400Y-144983200D01*
D27*
X210210400Y-144983200D02*
X201676000Y-136448800D01*
X224252100Y-158119500D02*
X216336300Y-158119500D01*
X240030000Y-153212800D02*
X229158800Y-153212800D01*
X216336300Y-158119500D02*
X210108800Y-151892000D01*
X210108800Y-151892000D02*
X210108800Y-145084800D01*
X201676000Y-123494800D02*
X202863532Y-122307268D01*
X229158800Y-153212800D02*
X224252100Y-158119500D01*
%TO.N,/ROOMLINK/CONTROL/RLY_OUT1_MICRO*%
X208737200Y-152806400D02*
X214884000Y-158953200D01*
X229717600Y-154228800D02*
X242214400Y-154228800D01*
X200863200Y-121869200D02*
X200863200Y-136855200D01*
X224993200Y-158953200D02*
X229717600Y-154228800D01*
X207162400Y-119735600D02*
X202996800Y-119735600D01*
X214884000Y-158953200D02*
X224993200Y-158953200D01*
X200863200Y-136855200D02*
X208737200Y-144729200D01*
X208737200Y-144729200D02*
X208737200Y-152806400D01*
X202996800Y-119735600D02*
X200863200Y-121869200D01*
%TO.N,/ROOMLINK/CONTROL/RLY_FAN3_MICRO*%
X210718400Y-139395200D02*
X239674400Y-139395200D01*
%TO.N,/ROOMLINK/CONTROL/CON_RS485_eXT*%
X233367100Y-143865600D02*
X219913200Y-157319500D01*
X245937900Y-143865600D02*
X233367100Y-143865600D01*
X246510000Y-143293500D02*
X245937900Y-143865600D01*
%TO.N,/ROOMLINK/CONTROL/COM_RS485_LCD*%
X208280000Y-138480800D02*
X246938800Y-138480800D01*
X246938800Y-138480800D02*
X247802400Y-139344400D01*
%TO.N,/ROOMLINK/CONTROL/Tx_RS485_LCD*%
X240741200Y-161848800D02*
X241401600Y-161188400D01*
X212191600Y-161848800D02*
X240741200Y-161848800D01*
%TO.N,/ROOMLINK/CONTROL/Rx_RS485_lcd*%
X196799200Y-154432000D02*
X202438000Y-160070800D01*
X196799200Y-119380000D02*
X196799200Y-154432000D01*
X202438000Y-160070800D02*
X240131600Y-160070800D01*
D29*
%TO.N,/ROOMLINK/CON-NEUT*%
X179720000Y-178700000D02*
X170040000Y-188380000D01*
X181900000Y-177050000D02*
X180250000Y-178700000D01*
X180250000Y-178700000D02*
X179720000Y-178700000D01*
X181900000Y-171550000D02*
X181900000Y-177050000D01*
%TO.N,/ROOMLINK/CON-OUT2A*%
X260150000Y-113941200D02*
X260150000Y-110087500D01*
X254981200Y-119110000D02*
X260150000Y-113941200D01*
X251180000Y-119110000D02*
X254981200Y-119110000D01*
%TO.N,/ROOMLINK/CON-OUT2B*%
X253609600Y-114030000D02*
X255150000Y-112489600D01*
X255150000Y-112489600D02*
X255150000Y-110087500D01*
X251180000Y-114030000D02*
X253609600Y-114030000D01*
%TO.N,/ROOMLINK/CON-OUT1A*%
X247107200Y-119110000D02*
X248462800Y-117754400D01*
X245575000Y-119110000D02*
X247107200Y-119110000D01*
X248462800Y-111774700D02*
X250150000Y-110087500D01*
X248462800Y-117754400D02*
X248462800Y-111774700D01*
%TO.N,/ROOMLINK/CON-OUT1B*%
X245150000Y-113605000D02*
X245575000Y-114030000D01*
X245150000Y-110087500D02*
X245150000Y-113605000D01*
%TO.N,/ROOMLINK/CON-FAN3*%
X240150000Y-110087500D02*
X240150000Y-113850000D01*
X240150000Y-113850000D02*
X239970000Y-114030000D01*
%TO.N,/ROOMLINK/CON-FAN2*%
X235150000Y-110087500D02*
X235150000Y-113245000D01*
X235150000Y-113245000D02*
X234365000Y-114030000D01*
%TO.N,/ROOMLINK/CON-FAN1*%
X230150000Y-110087500D02*
X230150000Y-112640000D01*
X230150000Y-112640000D02*
X228760000Y-114030000D01*
%TO.N,/ROOMLINK/CON-FAN-C*%
X239970000Y-119110000D02*
X228760000Y-119110000D01*
X225150000Y-115500000D02*
X228760000Y-119110000D01*
X225150000Y-110087500D02*
X225150000Y-115500000D01*
D27*
%TO.N,Net-(J7-Pin_3)*%
X243535200Y-165150800D02*
X244703600Y-166319200D01*
X243535200Y-144932400D02*
X243535200Y-165150800D01*
X248107200Y-166319200D02*
X248462800Y-165963600D01*
X248462800Y-165963600D02*
X248462800Y-164388800D01*
X244703600Y-166319200D02*
X248107200Y-166319200D01*
%TD*%
%TA.AperFunction,Conductor*%
%TO.N,GNDA*%
G36*
X256737039Y-177464085D02*
G01*
X256782794Y-177516889D01*
X256794000Y-177568400D01*
X256794000Y-180313928D01*
X256788661Y-180349922D01*
X256772535Y-180403082D01*
X256772534Y-180403088D01*
X256753140Y-180599999D01*
X256772534Y-180796914D01*
X256788661Y-180850076D01*
X256794000Y-180886071D01*
X256794000Y-183162400D01*
X256774315Y-183229439D01*
X256721511Y-183275194D01*
X256670000Y-183286400D01*
X253085707Y-183286400D01*
X253018668Y-183266715D01*
X252972913Y-183213911D01*
X252962969Y-183144753D01*
X252991994Y-183081197D01*
X252998010Y-183074734D01*
X253082017Y-182990727D01*
X253094579Y-182980665D01*
X253094425Y-182980478D01*
X253100433Y-182975505D01*
X253100440Y-182975502D01*
X253149032Y-182923756D01*
X253150356Y-182922388D01*
X253171411Y-182901335D01*
X253175901Y-182895545D01*
X253179683Y-182891115D01*
X253212948Y-182855693D01*
X253223174Y-182837090D01*
X253233853Y-182820833D01*
X253246862Y-182804064D01*
X253266156Y-182759475D01*
X253268712Y-182754256D01*
X253292127Y-182711668D01*
X253297405Y-182691106D01*
X253303707Y-182672699D01*
X253312135Y-182653227D01*
X253319733Y-182605253D01*
X253320914Y-182599547D01*
X253333000Y-182552477D01*
X253333000Y-182531248D01*
X253334527Y-182511848D01*
X253337846Y-182490895D01*
X253333273Y-182442528D01*
X253332999Y-182436707D01*
X253332999Y-182149492D01*
X253332999Y-181424255D01*
X253352684Y-181357220D01*
X253378333Y-181328408D01*
X253396225Y-181313725D01*
X253521752Y-181160770D01*
X253615027Y-180986265D01*
X253672465Y-180796916D01*
X253691860Y-180600000D01*
X253963710Y-180600000D01*
X253982833Y-180818582D01*
X253982835Y-180818592D01*
X254039621Y-181030524D01*
X254039624Y-181030533D01*
X254132355Y-181229393D01*
X254132356Y-181229395D01*
X254176502Y-181292442D01*
X254176503Y-181292443D01*
X254739422Y-180729523D01*
X254763007Y-180809844D01*
X254840739Y-180930798D01*
X254949400Y-181024952D01*
X255080185Y-181084680D01*
X255089966Y-181086086D01*
X254530055Y-181645996D01*
X254593104Y-181690143D01*
X254593106Y-181690144D01*
X254791966Y-181782875D01*
X254791975Y-181782878D01*
X255003907Y-181839664D01*
X255003917Y-181839666D01*
X255222499Y-181858790D01*
X255222501Y-181858790D01*
X255441082Y-181839666D01*
X255441092Y-181839664D01*
X255653024Y-181782878D01*
X255653033Y-181782874D01*
X255851892Y-181690145D01*
X255914943Y-181645996D01*
X255355034Y-181086086D01*
X255364815Y-181084680D01*
X255495600Y-181024952D01*
X255604261Y-180930798D01*
X255681993Y-180809844D01*
X255705576Y-180729523D01*
X256268496Y-181292443D01*
X256312645Y-181229392D01*
X256405374Y-181030533D01*
X256405378Y-181030524D01*
X256462164Y-180818592D01*
X256462166Y-180818582D01*
X256481290Y-180600000D01*
X256481290Y-180599999D01*
X256462166Y-180381417D01*
X256462164Y-180381407D01*
X256405378Y-180169475D01*
X256405375Y-180169466D01*
X256312644Y-179970606D01*
X256312643Y-179970604D01*
X256268496Y-179907556D01*
X256268496Y-179907555D01*
X255705576Y-180470475D01*
X255681993Y-180390156D01*
X255604261Y-180269202D01*
X255495600Y-180175048D01*
X255364815Y-180115320D01*
X255355031Y-180113913D01*
X255914943Y-179554002D01*
X255851895Y-179509856D01*
X255851893Y-179509855D01*
X255653033Y-179417124D01*
X255653024Y-179417121D01*
X255441092Y-179360335D01*
X255441082Y-179360333D01*
X255222501Y-179341210D01*
X255222499Y-179341210D01*
X255003917Y-179360333D01*
X255003907Y-179360335D01*
X254791975Y-179417121D01*
X254791966Y-179417124D01*
X254593102Y-179509857D01*
X254530055Y-179554001D01*
X254530055Y-179554002D01*
X255089965Y-180113913D01*
X255080185Y-180115320D01*
X254949400Y-180175048D01*
X254840739Y-180269202D01*
X254763007Y-180390156D01*
X254739422Y-180470476D01*
X254176501Y-179907555D01*
X254132357Y-179970602D01*
X254039624Y-180169466D01*
X254039621Y-180169475D01*
X253982835Y-180381407D01*
X253982833Y-180381417D01*
X253963710Y-180599999D01*
X253963710Y-180600000D01*
X253691860Y-180600000D01*
X253672465Y-180403084D01*
X253615027Y-180213735D01*
X253615025Y-180213732D01*
X253615025Y-180213730D01*
X253521755Y-180039235D01*
X253521751Y-180039228D01*
X253396225Y-179886274D01*
X253243271Y-179760748D01*
X253243264Y-179760744D01*
X253068769Y-179667474D01*
X252974090Y-179638753D01*
X252879416Y-179610035D01*
X252879414Y-179610034D01*
X252879416Y-179610034D01*
X252682500Y-179590640D01*
X252485585Y-179610034D01*
X252296230Y-179667474D01*
X252121735Y-179760744D01*
X252121728Y-179760748D01*
X251968774Y-179886274D01*
X251843248Y-180039228D01*
X251843244Y-180039235D01*
X251749974Y-180213730D01*
X251692534Y-180403085D01*
X251673140Y-180600000D01*
X251692534Y-180796914D01*
X251749974Y-180986269D01*
X251843244Y-181160764D01*
X251843248Y-181160771D01*
X251968773Y-181313723D01*
X251968775Y-181313725D01*
X251986662Y-181328405D01*
X252025998Y-181386149D01*
X252031999Y-181424259D01*
X252031999Y-182149492D01*
X252012314Y-182216531D01*
X251995680Y-182237173D01*
X250982773Y-183250081D01*
X250921450Y-183283566D01*
X250895092Y-183286400D01*
X221864926Y-183286400D01*
X221797887Y-183266715D01*
X221752132Y-183213911D01*
X221740931Y-183163478D01*
X221739296Y-182975500D01*
X221727736Y-181645996D01*
X221692288Y-177569478D01*
X221711389Y-177502270D01*
X221763793Y-177456058D01*
X221816283Y-177444400D01*
X256670000Y-177444400D01*
X256737039Y-177464085D01*
G37*
%TD.AperFunction*%
%TD*%
M02*
