%TF.GenerationSoftware,KiCad,Pcbnew,7.0.5*%
%TF.CreationDate,2023-07-28T21:19:53-04:00*%
%TF.ProjectId,proyecto de cuatrinestre,70726f79-6563-4746-9f20-646520637561,rev?*%
%TF.SameCoordinates,Original*%
%TF.FileFunction,Soldermask,Top*%
%TF.FilePolarity,Negative*%
%FSLAX46Y46*%
G04 Gerber Fmt 4.6, Leading zero omitted, Abs format (unit mm)*
G04 Created by KiCad (PCBNEW 7.0.5) date 2023-07-28 21:19:53*
%MOMM*%
%LPD*%
G01*
G04 APERTURE LIST*
G04 Aperture macros list*
%AMRoundRect*
0 Rectangle with rounded corners*
0 $1 Rounding radius*
0 $2 $3 $4 $5 $6 $7 $8 $9 X,Y pos of 4 corners*
0 Add a 4 corners polygon primitive as box body*
4,1,4,$2,$3,$4,$5,$6,$7,$8,$9,$2,$3,0*
0 Add four circle primitives for the rounded corners*
1,1,$1+$1,$2,$3*
1,1,$1+$1,$4,$5*
1,1,$1+$1,$6,$7*
1,1,$1+$1,$8,$9*
0 Add four rect primitives between the rounded corners*
20,1,$1+$1,$2,$3,$4,$5,0*
20,1,$1+$1,$4,$5,$6,$7,0*
20,1,$1+$1,$6,$7,$8,$9,0*
20,1,$1+$1,$8,$9,$2,$3,0*%
G04 Aperture macros list end*
%ADD10RoundRect,0.150000X-0.150000X0.587500X-0.150000X-0.587500X0.150000X-0.587500X0.150000X0.587500X0*%
%ADD11RoundRect,0.150000X0.150000X-0.587500X0.150000X0.587500X-0.150000X0.587500X-0.150000X-0.587500X0*%
%ADD12RoundRect,0.150000X-0.825000X-0.150000X0.825000X-0.150000X0.825000X0.150000X-0.825000X0.150000X0*%
%ADD13RoundRect,0.243750X0.243750X0.456250X-0.243750X0.456250X-0.243750X-0.456250X0.243750X-0.456250X0*%
%ADD14RoundRect,0.250000X0.450000X-0.262500X0.450000X0.262500X-0.450000X0.262500X-0.450000X-0.262500X0*%
%ADD15R,1.508000X1.508000*%
%ADD16C,1.508000*%
%ADD17RoundRect,0.243750X0.456250X-0.243750X0.456250X0.243750X-0.456250X0.243750X-0.456250X-0.243750X0*%
%ADD18C,2.700000*%
%ADD19C,3.000000*%
%ADD20RoundRect,0.130800X-0.754200X0.414200X-0.754200X-0.414200X0.754200X-0.414200X0.754200X0.414200X0*%
%ADD21RoundRect,0.112800X-0.772200X0.357200X-0.772200X-0.357200X0.772200X-0.357200X0.772200X0.357200X0*%
%ADD22R,0.900000X1.500000*%
%ADD23R,1.500000X0.900000*%
%ADD24C,0.600000*%
%ADD25R,4.200000X4.200000*%
%ADD26RoundRect,0.250000X-0.450000X0.262500X-0.450000X-0.262500X0.450000X-0.262500X0.450000X0.262500X0*%
%ADD27R,1.981200X0.558800*%
%ADD28RoundRect,0.250000X0.262500X0.450000X-0.262500X0.450000X-0.262500X-0.450000X0.262500X-0.450000X0*%
%ADD29RoundRect,0.200000X0.200000X-0.300000X0.200000X0.300000X-0.200000X0.300000X-0.200000X-0.300000X0*%
%ADD30R,2.550000X2.550000*%
%ADD31C,2.550000*%
%ADD32RoundRect,0.250000X-0.250000X-0.475000X0.250000X-0.475000X0.250000X0.475000X-0.250000X0.475000X0*%
%ADD33RoundRect,0.380000X-0.720000X0.380000X-0.720000X-0.380000X0.720000X-0.380000X0.720000X0.380000X0*%
%ADD34R,2.000000X2.300000*%
%ADD35C,2.300000*%
%ADD36RoundRect,0.250000X0.250000X0.475000X-0.250000X0.475000X-0.250000X-0.475000X0.250000X-0.475000X0*%
%ADD37C,1.500000*%
%ADD38C,1.750000*%
%ADD39R,1.700000X1.700000*%
%ADD40O,1.700000X1.700000*%
%ADD41RoundRect,0.250000X-0.262500X-0.450000X0.262500X-0.450000X0.262500X0.450000X-0.262500X0.450000X0*%
%ADD42RoundRect,0.250000X0.475000X-0.250000X0.475000X0.250000X-0.475000X0.250000X-0.475000X-0.250000X0*%
%ADD43RoundRect,0.130800X0.754200X-0.414200X0.754200X0.414200X-0.754200X0.414200X-0.754200X-0.414200X0*%
%ADD44RoundRect,0.112800X0.772200X-0.357200X0.772200X0.357200X-0.772200X0.357200X-0.772200X-0.357200X0*%
%ADD45RoundRect,0.250000X0.850000X0.350000X-0.850000X0.350000X-0.850000X-0.350000X0.850000X-0.350000X0*%
%ADD46RoundRect,0.249997X2.950003X2.650003X-2.950003X2.650003X-2.950003X-2.650003X2.950003X-2.650003X0*%
%ADD47RoundRect,0.243750X-0.456250X0.243750X-0.456250X-0.243750X0.456250X-0.243750X0.456250X0.243750X0*%
%ADD48C,1.400000*%
%ADD49RoundRect,0.250000X-0.550000X1.500000X-0.550000X-1.500000X0.550000X-1.500000X0.550000X1.500000X0*%
%ADD50RoundRect,0.250000X-1.000000X-0.900000X1.000000X-0.900000X1.000000X0.900000X-1.000000X0.900000X0*%
%ADD51RoundRect,0.380000X-0.380000X-0.720000X0.380000X-0.720000X0.380000X0.720000X-0.380000X0.720000X0*%
%ADD52RoundRect,0.243750X-0.243750X-0.456250X0.243750X-0.456250X0.243750X0.456250X-0.243750X0.456250X0*%
%ADD53RoundRect,0.250000X-0.900000X1.000000X-0.900000X-1.000000X0.900000X-1.000000X0.900000X1.000000X0*%
G04 APERTURE END LIST*
D10*
%TO.C,D11*%
X209000000Y-182125000D03*
X207100000Y-182125000D03*
X208050000Y-184000000D03*
%TD*%
D11*
%TO.C,D13*%
X178425000Y-115472500D03*
X180325000Y-115472500D03*
X179375000Y-113597500D03*
%TD*%
D12*
%TO.C,U6*%
X207162000Y-121085000D03*
X207162000Y-122355000D03*
X207162000Y-123625000D03*
X207162000Y-124895000D03*
X207162000Y-126165000D03*
X207162000Y-127435000D03*
X207162000Y-128705000D03*
X207162000Y-129975000D03*
X212112000Y-129975000D03*
X212112000Y-128705000D03*
X212112000Y-127435000D03*
X212112000Y-126165000D03*
X212112000Y-124895000D03*
X212112000Y-123625000D03*
X212112000Y-122355000D03*
X212112000Y-121085000D03*
%TD*%
D13*
%TO.C,D8*%
X218405000Y-129204000D03*
X216530000Y-129204000D03*
%TD*%
D14*
%TO.C,R32*%
X211734400Y-160321000D03*
X211734400Y-158496000D03*
%TD*%
D15*
%TO.C,U16*%
X260302500Y-180600000D03*
D16*
X257762500Y-180600000D03*
X255222500Y-180600000D03*
X252682500Y-180600000D03*
%TD*%
D17*
%TO.C,D12*%
X245550000Y-138073600D03*
X245550000Y-136198600D03*
%TD*%
D18*
%TO.C,F3*%
X168710000Y-158350000D03*
D19*
X168710000Y-147100000D03*
X168710000Y-169600000D03*
%TD*%
D20*
%TO.C,F2*%
X216400000Y-181885000D03*
D21*
X216400000Y-184890000D03*
%TD*%
D22*
%TO.C,U17*%
X254130000Y-140920000D03*
X252860000Y-140920000D03*
X251590000Y-140920000D03*
X250320000Y-140920000D03*
X249050000Y-140920000D03*
X247780000Y-140920000D03*
X246510000Y-140920000D03*
X245240000Y-140920000D03*
X243970000Y-140920000D03*
X242700000Y-140920000D03*
X241430000Y-140920000D03*
X240160000Y-140920000D03*
X238890000Y-140920000D03*
X237620000Y-140920000D03*
D23*
X236370000Y-143960000D03*
X236370000Y-145230000D03*
X236370000Y-146500000D03*
X236370000Y-147770000D03*
X236370000Y-149040000D03*
X236370000Y-150310000D03*
X236370000Y-151580000D03*
X236370000Y-152850000D03*
X236370000Y-154120000D03*
X236370000Y-155390000D03*
D22*
X237620000Y-158420000D03*
X238890000Y-158420000D03*
X240160000Y-158420000D03*
X241430000Y-158420000D03*
X242700000Y-158420000D03*
X243970000Y-158420000D03*
X245240000Y-158420000D03*
X246510000Y-158420000D03*
X247780000Y-158420000D03*
X249050000Y-158420000D03*
X250320000Y-158420000D03*
X251590000Y-158420000D03*
X252860000Y-158420000D03*
X254130000Y-158420000D03*
D24*
X247552500Y-147465000D03*
X246027500Y-147465000D03*
X248315000Y-148227500D03*
X246790000Y-148227500D03*
X245265000Y-148227500D03*
X247552500Y-148990000D03*
D25*
X246790000Y-148990000D03*
D24*
X246027500Y-148990000D03*
X248315000Y-149752500D03*
X246790000Y-149752500D03*
X245265000Y-149752500D03*
X247552500Y-150515000D03*
X246027500Y-150515000D03*
%TD*%
D26*
%TO.C,R47*%
X261680000Y-175662500D03*
X261680000Y-177487500D03*
%TD*%
%TO.C,R39*%
X247650000Y-136198600D03*
X247650000Y-138023600D03*
%TD*%
D14*
%TO.C,R44*%
X175750000Y-115687500D03*
X175750000Y-113862500D03*
%TD*%
D27*
%TO.C,U13*%
X198636200Y-123190000D03*
X198636200Y-121920000D03*
X198636200Y-120650000D03*
X198636200Y-119380000D03*
X193708600Y-119380000D03*
X193708600Y-120650000D03*
X193708600Y-121920000D03*
X193708600Y-123190000D03*
%TD*%
D26*
%TO.C,R12*%
X231400000Y-179775000D03*
X231400000Y-181600000D03*
%TD*%
D13*
%TO.C,D6*%
X218405000Y-119720000D03*
X216530000Y-119720000D03*
%TD*%
D28*
%TO.C,R3*%
X241825000Y-181417500D03*
X240000000Y-181417500D03*
%TD*%
D14*
%TO.C,R23*%
X214000000Y-183700000D03*
X214000000Y-181875000D03*
%TD*%
D26*
%TO.C,R2*%
X244400000Y-179775000D03*
X244400000Y-181600000D03*
%TD*%
D29*
%TO.C,U3*%
X239712500Y-179532500D03*
X242252500Y-179532500D03*
X242252500Y-173032500D03*
X239712500Y-173032500D03*
%TD*%
D14*
%TO.C,R7*%
X244400000Y-169550000D03*
X244400000Y-167725000D03*
%TD*%
D30*
%TO.C,J4*%
X206408000Y-188468000D03*
D31*
X211408000Y-188468000D03*
X216408000Y-188468000D03*
%TD*%
D32*
%TO.C,C1*%
X246450000Y-170492500D03*
X248350000Y-170492500D03*
%TD*%
%TO.C,C12*%
X252930000Y-138400000D03*
X254830000Y-138400000D03*
%TD*%
D14*
%TO.C,R30*%
X211734400Y-153412200D03*
X211734400Y-151587200D03*
%TD*%
D28*
%TO.C,R45*%
X168162500Y-120000000D03*
X166337500Y-120000000D03*
%TD*%
D33*
%TO.C,U12*%
X215350000Y-175880000D03*
X215350000Y-179950000D03*
%TD*%
D34*
%TO.C,PS1*%
X181900000Y-171550000D03*
D35*
X186900000Y-171550000D03*
X176700000Y-142150000D03*
X192100000Y-142150000D03*
%TD*%
D29*
%TO.C,U2*%
X246200000Y-179532500D03*
X248740000Y-179532500D03*
X248740000Y-173032500D03*
X246200000Y-173032500D03*
%TD*%
D30*
%TO.C,J1*%
X165040000Y-188380000D03*
D31*
X170040000Y-188380000D03*
%TD*%
D36*
%TO.C,C9*%
X186295000Y-134099000D03*
X184395000Y-134099000D03*
%TD*%
D37*
%TO.C,U8*%
X251180000Y-131810000D03*
X251180000Y-129270000D03*
X251180000Y-119110000D03*
X251180000Y-114030000D03*
%TD*%
D14*
%TO.C,R29*%
X211734400Y-149957800D03*
X211734400Y-148132800D03*
%TD*%
D30*
%TO.C,J2*%
X170030000Y-110087500D03*
D31*
X165030000Y-110087500D03*
%TD*%
D14*
%TO.C,R28*%
X211734400Y-146503400D03*
X211734400Y-144678400D03*
%TD*%
D32*
%TO.C,C13*%
X252930000Y-136370000D03*
X254830000Y-136370000D03*
%TD*%
D38*
%TO.C,U1*%
X203747000Y-183618000D03*
X203747000Y-181078000D03*
X203747000Y-178538000D03*
X203747000Y-175998000D03*
X203747000Y-173458000D03*
X218987000Y-175998000D03*
X218987000Y-178538000D03*
X218987000Y-181078000D03*
X218987000Y-183618000D03*
%TD*%
D37*
%TO.C,U11*%
X239970000Y-131810000D03*
X239970000Y-129270000D03*
X239970000Y-119110000D03*
X239970000Y-114030000D03*
%TD*%
D29*
%TO.C,U4*%
X226592500Y-179732500D03*
X229132500Y-179732500D03*
X229132500Y-173232500D03*
X226592500Y-173232500D03*
%TD*%
D13*
%TO.C,D3*%
X228800000Y-168152500D03*
X226925000Y-168152500D03*
%TD*%
D32*
%TO.C,C2*%
X239912500Y-170492500D03*
X241812500Y-170492500D03*
%TD*%
D39*
%TO.C,J8*%
X203962000Y-146507200D03*
D40*
X206502000Y-146507200D03*
X203962000Y-149047200D03*
X206502000Y-149047200D03*
X203962000Y-151587200D03*
X206502000Y-151587200D03*
X203962000Y-154127200D03*
X206502000Y-154127200D03*
X203962000Y-156667200D03*
X206502000Y-156667200D03*
%TD*%
D36*
%TO.C,C10*%
X186295000Y-124969000D03*
X184395000Y-124969000D03*
%TD*%
D41*
%TO.C,R33*%
X249495000Y-136410000D03*
X251320000Y-136410000D03*
%TD*%
%TO.C,R17*%
X216555000Y-117180000D03*
X218380000Y-117180000D03*
%TD*%
D17*
%TO.C,D10*%
X200660000Y-189405500D03*
X200660000Y-187530500D03*
%TD*%
D37*
%TO.C,U7*%
X245575000Y-131810000D03*
X245575000Y-129270000D03*
X245575000Y-119110000D03*
X245575000Y-114030000D03*
%TD*%
D14*
%TO.C,R43*%
X183050000Y-115662500D03*
X183050000Y-113837500D03*
%TD*%
D30*
%TO.C,J5*%
X260150000Y-110087500D03*
D31*
X255150000Y-110087500D03*
X250150000Y-110087500D03*
X245150000Y-110087500D03*
X240150000Y-110087500D03*
X235150000Y-110087500D03*
X230150000Y-110087500D03*
X225150000Y-110087500D03*
%TD*%
D28*
%TO.C,R1*%
X248200000Y-181417500D03*
X246375000Y-181417500D03*
%TD*%
D14*
%TO.C,R16*%
X231200000Y-169550000D03*
X231200000Y-167725000D03*
%TD*%
D41*
%TO.C,R20*%
X216555000Y-131404000D03*
X218380000Y-131404000D03*
%TD*%
D42*
%TO.C,C7*%
X189014400Y-122926000D03*
X189014400Y-121026000D03*
%TD*%
D13*
%TO.C,D4*%
X235275000Y-167952500D03*
X233400000Y-167952500D03*
%TD*%
D26*
%TO.C,R6*%
X237912500Y-171762500D03*
X237912500Y-173587500D03*
%TD*%
D37*
%TO.C,U9*%
X228760000Y-131810000D03*
X228760000Y-129270000D03*
X228760000Y-119110000D03*
X228760000Y-114030000D03*
%TD*%
D29*
%TO.C,U5*%
X233187500Y-179532500D03*
X235727500Y-179532500D03*
X235727500Y-173032500D03*
X233187500Y-173032500D03*
%TD*%
D28*
%TO.C,R11*%
X235400000Y-181417500D03*
X233575000Y-181417500D03*
%TD*%
D43*
%TO.C,F5*%
X165000000Y-116465000D03*
D44*
X165000000Y-113460000D03*
%TD*%
D13*
%TO.C,D1*%
X248337500Y-167952500D03*
X246462500Y-167952500D03*
%TD*%
D39*
%TO.C,J7*%
X245922800Y-164388800D03*
D40*
X245922800Y-161848800D03*
X248462800Y-164388800D03*
X248462800Y-161848800D03*
X251002800Y-164388800D03*
X251002800Y-161848800D03*
%TD*%
D28*
%TO.C,R22*%
X216762500Y-173865000D03*
X214937500Y-173865000D03*
%TD*%
D45*
%TO.C,U15*%
X193395000Y-127259000D03*
D46*
X187095000Y-129539000D03*
D45*
X193395000Y-131819000D03*
%TD*%
D47*
%TO.C,D16*%
X259175000Y-175637500D03*
X259175000Y-177512500D03*
%TD*%
D14*
%TO.C,R8*%
X237912500Y-169550000D03*
X237912500Y-167725000D03*
%TD*%
D30*
%TO.C,J6*%
X225150000Y-188380000D03*
D31*
X230150000Y-188380000D03*
X235150000Y-188380000D03*
X240150000Y-188380000D03*
X245150000Y-188380000D03*
X250150000Y-188380000D03*
X255150000Y-188380000D03*
X260150000Y-188380000D03*
%TD*%
D41*
%TO.C,R21*%
X216555000Y-136652000D03*
X218380000Y-136652000D03*
%TD*%
%TO.C,R19*%
X216555000Y-126492000D03*
X218380000Y-126492000D03*
%TD*%
D14*
%TO.C,R27*%
X211734400Y-143049000D03*
X211734400Y-141224000D03*
%TD*%
D48*
%TO.C,RV1*%
X180250000Y-178700000D03*
X187750000Y-180200000D03*
%TD*%
D42*
%TO.C,C8*%
X191244400Y-122936000D03*
X191244400Y-121036000D03*
%TD*%
D26*
%TO.C,R5*%
X244400000Y-171762500D03*
X244400000Y-173587500D03*
%TD*%
D43*
%TO.C,F4*%
X170250000Y-116465000D03*
D44*
X170250000Y-113460000D03*
%TD*%
D30*
%TO.C,J3*%
X182000000Y-110087500D03*
D31*
X177000000Y-110087500D03*
%TD*%
D28*
%TO.C,R9*%
X228600000Y-181617500D03*
X226775000Y-181617500D03*
%TD*%
D49*
%TO.C,C11*%
X179695000Y-127199000D03*
X179695000Y-132599000D03*
%TD*%
D26*
%TO.C,R4*%
X237912500Y-179775000D03*
X237912500Y-181600000D03*
%TD*%
%TO.C,R14*%
X231200000Y-171762500D03*
X231200000Y-173587500D03*
%TD*%
%TO.C,R10*%
X224787500Y-179975000D03*
X224787500Y-181800000D03*
%TD*%
D32*
%TO.C,C4*%
X233450000Y-170492500D03*
X235350000Y-170492500D03*
%TD*%
D41*
%TO.C,R18*%
X216555000Y-121752000D03*
X218380000Y-121752000D03*
%TD*%
D36*
%TO.C,C5*%
X251350000Y-138400000D03*
X249450000Y-138400000D03*
%TD*%
D14*
%TO.C,R31*%
X211734400Y-156866600D03*
X211734400Y-155041600D03*
%TD*%
D26*
%TO.C,R13*%
X224687500Y-171962500D03*
X224687500Y-173787500D03*
%TD*%
D14*
%TO.C,R15*%
X224687500Y-169750000D03*
X224687500Y-167925000D03*
%TD*%
D20*
%TO.C,F1*%
X211400000Y-181885000D03*
D21*
X211400000Y-184890000D03*
%TD*%
D13*
%TO.C,D5*%
X218405000Y-115148000D03*
X216530000Y-115148000D03*
%TD*%
D28*
%TO.C,R42*%
X203103700Y-120610000D03*
X201278700Y-120610000D03*
%TD*%
D37*
%TO.C,U10*%
X234365000Y-131810000D03*
X234365000Y-129270000D03*
X234365000Y-119110000D03*
X234365000Y-114030000D03*
%TD*%
D14*
%TO.C,R24*%
X219000000Y-174062500D03*
X219000000Y-172237500D03*
%TD*%
D50*
%TO.C,D18*%
X251825000Y-176276000D03*
X256125000Y-176276000D03*
%TD*%
D32*
%TO.C,C3*%
X226912500Y-170692500D03*
X228812500Y-170692500D03*
%TD*%
D51*
%TO.C,U14*%
X177340000Y-119800000D03*
X181410000Y-119800000D03*
%TD*%
D13*
%TO.C,D2*%
X241850000Y-167952500D03*
X239975000Y-167952500D03*
%TD*%
%TO.C,D9*%
X218405000Y-134452000D03*
X216530000Y-134452000D03*
%TD*%
%TO.C,D7*%
X218405000Y-124292000D03*
X216530000Y-124292000D03*
%TD*%
D52*
%TO.C,D14*%
X162812500Y-120000000D03*
X164687500Y-120000000D03*
%TD*%
D53*
%TO.C,D17*%
X173095000Y-128149000D03*
X173095000Y-132449000D03*
%TD*%
M02*
