%TF.GenerationSoftware,KiCad,Pcbnew,7.0.5*%
%TF.CreationDate,2023-07-28T21:19:53-04:00*%
%TF.ProjectId,proyecto de cuatrinestre,70726f79-6563-4746-9f20-646520637561,rev?*%
%TF.SameCoordinates,Original*%
%TF.FileFunction,Copper,L3,Inr*%
%TF.FilePolarity,Positive*%
%FSLAX46Y46*%
G04 Gerber Fmt 4.6, Leading zero omitted, Abs format (unit mm)*
G04 Created by KiCad (PCBNEW 7.0.5) date 2023-07-28 21:19:53*
%MOMM*%
%LPD*%
G01*
G04 APERTURE LIST*
%TA.AperFunction,ComponentPad*%
%ADD10R,1.508000X1.508000*%
%TD*%
%TA.AperFunction,ComponentPad*%
%ADD11C,1.508000*%
%TD*%
%TA.AperFunction,ComponentPad*%
%ADD12C,3.000000*%
%TD*%
%TA.AperFunction,HeatsinkPad*%
%ADD13C,0.600000*%
%TD*%
%TA.AperFunction,ComponentPad*%
%ADD14R,2.550000X2.550000*%
%TD*%
%TA.AperFunction,ComponentPad*%
%ADD15C,2.550000*%
%TD*%
%TA.AperFunction,ComponentPad*%
%ADD16R,2.000000X2.300000*%
%TD*%
%TA.AperFunction,ComponentPad*%
%ADD17C,2.300000*%
%TD*%
%TA.AperFunction,ComponentPad*%
%ADD18C,1.500000*%
%TD*%
%TA.AperFunction,ComponentPad*%
%ADD19C,1.750000*%
%TD*%
%TA.AperFunction,ComponentPad*%
%ADD20R,1.700000X1.700000*%
%TD*%
%TA.AperFunction,ComponentPad*%
%ADD21O,1.700000X1.700000*%
%TD*%
%TA.AperFunction,ComponentPad*%
%ADD22C,1.400000*%
%TD*%
%TA.AperFunction,ViaPad*%
%ADD23C,0.700000*%
%TD*%
%TA.AperFunction,ViaPad*%
%ADD24C,0.800000*%
%TD*%
%TA.AperFunction,Conductor*%
%ADD25C,0.800000*%
%TD*%
G04 APERTURE END LIST*
D10*
%TO.N,GND*%
%TO.C,U16*%
X260302500Y-180600000D03*
D11*
%TO.N,VDD*%
X257762500Y-180600000D03*
%TO.N,GNDA*%
X255222500Y-180600000D03*
%TO.N,+3V3*%
X252682500Y-180600000D03*
%TD*%
D12*
%TO.N,Net-(PS1-AC{slash}N)*%
%TO.C,F3*%
X168710000Y-147100000D03*
%TO.N,/ROOMLINK/CON-L1*%
X168710000Y-169600000D03*
%TD*%
D13*
%TO.N,GND*%
%TO.C,U17*%
X247552500Y-147465000D03*
X246027500Y-147465000D03*
X248315000Y-148227500D03*
X246790000Y-148227500D03*
X245265000Y-148227500D03*
X247552500Y-148990000D03*
X246027500Y-148990000D03*
X248315000Y-149752500D03*
X246790000Y-149752500D03*
X245265000Y-149752500D03*
X247552500Y-150515000D03*
X246027500Y-150515000D03*
%TD*%
D14*
%TO.N,/ROOMLINK/RGND*%
%TO.C,J4*%
X206408000Y-188468000D03*
D15*
%TO.N,/ROOMLINK/CON-B+*%
X211408000Y-188468000D03*
%TO.N,/ROOMLINK/CON-A-*%
X216408000Y-188468000D03*
%TD*%
D16*
%TO.N,/ROOMLINK/CON-NEUT*%
%TO.C,PS1*%
X181900000Y-171550000D03*
D17*
%TO.N,Net-(PS1-AC{slash}N)*%
X186900000Y-171550000D03*
%TO.N,GND*%
X176700000Y-142150000D03*
%TO.N,+12V*%
X192100000Y-142150000D03*
%TD*%
D14*
%TO.N,/ROOMLINK/CON-L1*%
%TO.C,J1*%
X165040000Y-188380000D03*
D15*
%TO.N,/ROOMLINK/CON-NEUT*%
X170040000Y-188380000D03*
%TD*%
D18*
%TO.N,+12V*%
%TO.C,U8*%
X251180000Y-131810000D03*
%TO.N,Net-(D5-K)*%
X251180000Y-129270000D03*
%TO.N,/ROOMLINK/CON-OUT2A*%
X251180000Y-119110000D03*
%TO.N,/ROOMLINK/CON-OUT2B*%
X251180000Y-114030000D03*
%TD*%
D14*
%TO.N,/ROOMLINK/CON-DC+*%
%TO.C,J2*%
X170030000Y-110087500D03*
D15*
%TO.N,/ROOMLINK/CON-DC-*%
X165030000Y-110087500D03*
%TD*%
D19*
%TO.N,VDD*%
%TO.C,U1*%
X203747000Y-183618000D03*
%TO.N,GND*%
X203747000Y-181078000D03*
%TO.N,/ROOMLINK/CONTROL/Tx_RS485_eXT*%
X203747000Y-178538000D03*
%TO.N,/ROOMLINK/CONTROL/Rx_RS485_eXT*%
X203747000Y-175998000D03*
%TO.N,/ROOMLINK/CONTROL/CON_RS485_eXT*%
X203747000Y-173458000D03*
%TO.N,Net-(U1-Vo)*%
X218987000Y-175998000D03*
%TO.N,Net-(D11-A1)*%
X218987000Y-178538000D03*
%TO.N,Net-(D11-A2)*%
X218987000Y-181078000D03*
%TO.N,/ROOMLINK/RGND*%
X218987000Y-183618000D03*
%TD*%
D18*
%TO.N,+12V*%
%TO.C,U11*%
X239970000Y-131810000D03*
%TO.N,Net-(D7-K)*%
X239970000Y-129270000D03*
%TO.N,/ROOMLINK/CON-FAN-C*%
X239970000Y-119110000D03*
%TO.N,/ROOMLINK/CON-FAN3*%
X239970000Y-114030000D03*
%TD*%
D20*
%TO.N,Net-(J8-VTRef)*%
%TO.C,J8*%
X203962000Y-146507200D03*
D21*
%TO.N,TMS*%
X206502000Y-146507200D03*
%TO.N,GND*%
X203962000Y-149047200D03*
%TO.N,TCK*%
X206502000Y-149047200D03*
%TO.N,unconnected-(J8-Pad5)*%
X203962000Y-151587200D03*
%TO.N,TDO*%
X206502000Y-151587200D03*
%TO.N,unconnected-(J8-Pad7)*%
X203962000Y-154127200D03*
%TO.N,TDI*%
X206502000Y-154127200D03*
%TO.N,GND*%
X203962000Y-156667200D03*
%TO.N,nRESET*%
X206502000Y-156667200D03*
%TD*%
D18*
%TO.N,+12V*%
%TO.C,U7*%
X245575000Y-131810000D03*
%TO.N,Net-(D6-K)*%
X245575000Y-129270000D03*
%TO.N,/ROOMLINK/CON-OUT1A*%
X245575000Y-119110000D03*
%TO.N,/ROOMLINK/CON-OUT1B*%
X245575000Y-114030000D03*
%TD*%
D14*
%TO.N,/ROOMLINK/CON-OUT2A*%
%TO.C,J5*%
X260150000Y-110087500D03*
D15*
%TO.N,/ROOMLINK/CON-OUT2B*%
X255150000Y-110087500D03*
%TO.N,/ROOMLINK/CON-OUT1A*%
X250150000Y-110087500D03*
%TO.N,/ROOMLINK/CON-OUT1B*%
X245150000Y-110087500D03*
%TO.N,/ROOMLINK/CON-FAN3*%
X240150000Y-110087500D03*
%TO.N,/ROOMLINK/CON-FAN2*%
X235150000Y-110087500D03*
%TO.N,/ROOMLINK/CON-FAN1*%
X230150000Y-110087500D03*
%TO.N,/ROOMLINK/CON-FAN-C*%
X225150000Y-110087500D03*
%TD*%
D18*
%TO.N,+12V*%
%TO.C,U9*%
X228760000Y-131810000D03*
%TO.N,Net-(D9-K)*%
X228760000Y-129270000D03*
%TO.N,/ROOMLINK/CON-FAN-C*%
X228760000Y-119110000D03*
%TO.N,/ROOMLINK/CON-FAN1*%
X228760000Y-114030000D03*
%TD*%
D20*
%TO.N,VDD*%
%TO.C,J7*%
X245922800Y-164388800D03*
D21*
%TO.N,Net-(J7-Pin_2)*%
X245922800Y-161848800D03*
%TO.N,Net-(J7-Pin_3)*%
X248462800Y-164388800D03*
%TO.N,Net-(J7-Pin_4)*%
X248462800Y-161848800D03*
%TO.N,GND*%
X251002800Y-164388800D03*
%TO.N,Net-(J7-Pin_6)*%
X251002800Y-161848800D03*
%TD*%
D14*
%TO.N,/ROOMLINK/CON-IN4-*%
%TO.C,J6*%
X225150000Y-188380000D03*
D15*
%TO.N,/ROOMLINK/CON-IN4+*%
X230150000Y-188380000D03*
%TO.N,/ROOMLINK/CON-IN3-*%
X235150000Y-188380000D03*
%TO.N,/ROOMLINK/CON-IN3+*%
X240150000Y-188380000D03*
%TO.N,/ROOMLINK/CON-IN2-*%
X245150000Y-188380000D03*
%TO.N,/ROOMLINK/CON-IN2+*%
X250150000Y-188380000D03*
%TO.N,/ROOMLINK/CON-IN1-*%
X255150000Y-188380000D03*
%TO.N,/ROOMLINK/CON-IN1+*%
X260150000Y-188380000D03*
%TD*%
D22*
%TO.N,/ROOMLINK/CON-NEUT*%
%TO.C,RV1*%
X180250000Y-178700000D03*
%TO.N,Net-(PS1-AC{slash}N)*%
X187750000Y-180200000D03*
%TD*%
D14*
%TO.N,/ROOMLINK/CON-LCDA-*%
%TO.C,J3*%
X182000000Y-110087500D03*
D15*
%TO.N,/ROOMLINK/CON-LCDB+*%
X177000000Y-110087500D03*
%TD*%
D18*
%TO.N,+12V*%
%TO.C,U10*%
X234365000Y-131810000D03*
%TO.N,Net-(D8-K)*%
X234365000Y-129270000D03*
%TO.N,/ROOMLINK/CON-FAN-C*%
X234365000Y-119110000D03*
%TO.N,/ROOMLINK/CON-FAN2*%
X234365000Y-114030000D03*
%TD*%
D23*
%TO.N,GND*%
X184500000Y-123500000D03*
X187250000Y-121070500D03*
X242000000Y-174250000D03*
X173250000Y-134500000D03*
X228750000Y-174750000D03*
X259250000Y-174250000D03*
X191750000Y-119500000D03*
X254750000Y-134750000D03*
X235250000Y-174500000D03*
X248250000Y-174500000D03*
X238750000Y-144750000D03*
X188750000Y-125500000D03*
X189250000Y-133500000D03*
X183250000Y-134250000D03*
X181500000Y-113750000D03*
X254250000Y-142500000D03*
X201250000Y-149000000D03*
X166750000Y-116500000D03*
X179750000Y-135250000D03*
X254000000Y-156250000D03*
%TO.N,nRESET*%
X219456000Y-154736800D03*
X251561600Y-142494000D03*
%TO.N,+12V*%
X221030800Y-126492000D03*
X219760800Y-121767600D03*
X220675200Y-131419600D03*
X219862400Y-117195600D03*
X219913200Y-136652000D03*
X195326000Y-131826000D03*
%TO.N,/ROOMLINK/CONTROL/INPUT_4_MICRO*%
X228803200Y-158038800D03*
X234492800Y-155397200D03*
%TO.N,Net-(D5-K)*%
X213918800Y-121056400D03*
X220100800Y-115148000D03*
%TO.N,Net-(D6-K)*%
X220151600Y-119720000D03*
X213918800Y-122326400D03*
%TO.N,Net-(D7-K)*%
X213918800Y-123596400D03*
X220558000Y-124292000D03*
%TO.N,Net-(D8-K)*%
X213918800Y-124917200D03*
X222332000Y-129204000D03*
%TO.N,Net-(D9-K)*%
X213918800Y-126136400D03*
X221960800Y-134452000D03*
%TO.N,Net-(D11-A2)*%
X212250000Y-178450000D03*
D24*
%TO.N,Net-(D13-A1)*%
X195580000Y-121920000D03*
X179079000Y-121539000D03*
%TO.N,Net-(D13-A2)*%
X195580000Y-120396000D03*
X183388000Y-119888000D03*
D23*
%TO.N,VDD*%
X193700400Y-124155200D03*
X213156800Y-141224000D03*
X213207600Y-148082000D03*
X214579200Y-155041600D03*
X213258400Y-151587200D03*
X252882400Y-142392400D03*
X186283600Y-123494800D03*
X189026800Y-124053600D03*
X179730400Y-124764800D03*
X213156800Y-144678400D03*
X223164400Y-171907200D03*
X173126400Y-125984000D03*
X223062800Y-169773600D03*
X195275200Y-127304800D03*
X252933200Y-134874000D03*
X231190800Y-170535600D03*
X251307600Y-134924800D03*
X244398800Y-170637200D03*
X237896400Y-170637200D03*
X213360000Y-158750000D03*
X263042400Y-175666400D03*
X246329200Y-139293600D03*
X191262000Y-124053600D03*
%TO.N,GNDA*%
X237896400Y-178409600D03*
X244398800Y-178358800D03*
X231394000Y-178460400D03*
X224790000Y-178663600D03*
%TO.N,TDI*%
X234594400Y-140919200D03*
X217932000Y-154635200D03*
%TO.N,+3V3*%
X241808000Y-183997600D03*
X228600000Y-183997600D03*
X248208800Y-183997600D03*
X235407200Y-183997600D03*
%TO.N,/ROOMLINK/CONTROL/RLY_OUT2_MICRO*%
X240030000Y-153212800D03*
X204927200Y-122326400D03*
%TO.N,/ROOMLINK/CONTROL/RLY_OUT1_MICRO*%
X207162400Y-119735600D03*
X242214400Y-154228800D03*
%TO.N,/ROOMLINK/CONTROL/RLY_FAN3_MICRO*%
X210718400Y-139395200D03*
X239674400Y-139395200D03*
%TO.N,/ROOMLINK/CONTROL/CON_RS485_eXT*%
X219913200Y-157319500D03*
X246510000Y-143293500D03*
%TO.N,/ROOMLINK/CONTROL/COM_RS485_LCD*%
X208280000Y-138480800D03*
X247802400Y-139344400D03*
%TO.N,/ROOMLINK/CONTROL/Tx_RS485_LCD*%
X212191600Y-161848800D03*
X241401600Y-161188400D03*
%TO.N,/ROOMLINK/CONTROL/Rx_RS485_lcd*%
X240131600Y-160070800D03*
X196799200Y-119380000D03*
%TO.N,Net-(J7-Pin_3)*%
X243535200Y-144932400D03*
%TD*%
D25*
%TO.N,+12V*%
X219760800Y-121767600D02*
X221267600Y-121767600D01*
X221267600Y-121767600D02*
X222000000Y-122500000D01*
X220675200Y-126847600D02*
X221030800Y-126492000D01*
X219862400Y-117195600D02*
X220945600Y-117195600D01*
X222000000Y-125522800D02*
X221030800Y-126492000D01*
X195326000Y-131826000D02*
X195342000Y-131810000D01*
X195342000Y-131810000D02*
X251180000Y-131810000D01*
X220675200Y-131419600D02*
X220675200Y-126847600D01*
X222000000Y-122500000D02*
X222000000Y-125522800D01*
X219913200Y-136652000D02*
X219913200Y-132181600D01*
X220945600Y-117195600D02*
X221267600Y-117517600D01*
X219913200Y-132181600D02*
X220675200Y-131419600D01*
X221267600Y-117517600D02*
X221267600Y-121767600D01*
%TD*%
%TA.AperFunction,Conductor*%
%TO.N,VDD*%
G36*
X215693039Y-112519685D02*
G01*
X215738794Y-112572489D01*
X215750000Y-112624000D01*
X215750000Y-125500000D01*
X220803491Y-125500000D01*
X220870530Y-125519685D01*
X220916285Y-125572489D01*
X220926229Y-125641647D01*
X220897204Y-125705203D01*
X220891172Y-125711681D01*
X220570351Y-126032500D01*
X220570347Y-126032506D01*
X220275684Y-126327168D01*
X220263110Y-126337243D01*
X220263265Y-126337430D01*
X220257258Y-126342398D01*
X220208668Y-126394142D01*
X220207314Y-126395538D01*
X220186290Y-126416563D01*
X220186278Y-126416577D01*
X220181787Y-126422365D01*
X220178001Y-126426797D01*
X220144752Y-126462206D01*
X220134522Y-126480813D01*
X220123846Y-126497064D01*
X220110840Y-126513832D01*
X220110836Y-126513838D01*
X220091548Y-126558411D01*
X220088977Y-126563658D01*
X220065572Y-126606230D01*
X220065572Y-126606231D01*
X220060291Y-126626799D01*
X220053991Y-126645201D01*
X220045564Y-126664673D01*
X220037966Y-126712647D01*
X220036781Y-126718370D01*
X220024700Y-126765418D01*
X220024700Y-126786644D01*
X220023173Y-126806044D01*
X220019853Y-126827003D01*
X220019852Y-126827005D01*
X220024424Y-126875369D01*
X220024699Y-126881206D01*
X220024700Y-131035500D01*
X220005015Y-131102539D01*
X219952211Y-131148294D01*
X219900700Y-131159500D01*
X195427504Y-131159500D01*
X195411493Y-131157732D01*
X195411471Y-131157974D01*
X195403704Y-131157239D01*
X195332764Y-131159469D01*
X195330816Y-131159500D01*
X195301075Y-131159500D01*
X195301071Y-131159500D01*
X195301061Y-131159501D01*
X195293793Y-131160419D01*
X195287976Y-131160876D01*
X195239435Y-131162402D01*
X195239424Y-131162404D01*
X195219048Y-131168323D01*
X195200008Y-131172266D01*
X195178947Y-131174927D01*
X195178939Y-131174929D01*
X195133775Y-131192811D01*
X195128247Y-131194703D01*
X195081602Y-131208255D01*
X195063332Y-131219060D01*
X195045863Y-131227618D01*
X195026128Y-131235432D01*
X195026126Y-131235433D01*
X194986839Y-131263977D01*
X194981956Y-131267184D01*
X194940132Y-131291919D01*
X194925126Y-131306926D01*
X194910336Y-131319558D01*
X194893167Y-131332032D01*
X194893161Y-131332038D01*
X194862193Y-131369470D01*
X194858264Y-131373789D01*
X194837091Y-131394962D01*
X194761639Y-131492234D01*
X194696364Y-131643075D01*
X194670653Y-131805401D01*
X194670653Y-131805403D01*
X194670653Y-131805405D01*
X194686121Y-131969029D01*
X194686121Y-131969031D01*
X194686122Y-131969033D01*
X194741792Y-132123665D01*
X194741792Y-132123666D01*
X194834172Y-132259598D01*
X194834177Y-132259604D01*
X194957455Y-132368289D01*
X194957457Y-132368290D01*
X194957459Y-132368292D01*
X194957463Y-132368294D01*
X195103894Y-132442906D01*
X195103897Y-132442906D01*
X195103900Y-132442908D01*
X195264296Y-132478760D01*
X195428569Y-132473597D01*
X195456705Y-132465422D01*
X195491298Y-132460500D01*
X219138700Y-132460500D01*
X219205739Y-132480185D01*
X219251494Y-132532989D01*
X219262700Y-132584500D01*
X219262700Y-136692934D01*
X219278129Y-136815057D01*
X219278129Y-136815060D01*
X219338631Y-136967869D01*
X219338636Y-136967878D01*
X219435234Y-137100835D01*
X219435237Y-137100837D01*
X219561874Y-137205600D01*
X219710587Y-137275579D01*
X219872030Y-137306376D01*
X220036060Y-137296056D01*
X220192371Y-137245268D01*
X220331140Y-137157202D01*
X220443648Y-137037393D01*
X220522827Y-136893368D01*
X220563700Y-136734177D01*
X220563699Y-134452001D01*
X221355118Y-134452001D01*
X221375755Y-134608760D01*
X221375756Y-134608762D01*
X221424095Y-134725464D01*
X221436264Y-134754841D01*
X221532518Y-134880282D01*
X221657959Y-134976536D01*
X221804038Y-135037044D01*
X221882418Y-135047362D01*
X221960799Y-135057682D01*
X221960800Y-135057682D01*
X221960801Y-135057682D01*
X222028144Y-135048816D01*
X222117562Y-135037044D01*
X222263641Y-134976536D01*
X222389082Y-134880282D01*
X222485336Y-134754841D01*
X222545844Y-134608762D01*
X222566482Y-134452000D01*
X222565262Y-134442736D01*
X222545844Y-134295239D01*
X222545844Y-134295238D01*
X222485336Y-134149159D01*
X222389082Y-134023718D01*
X222263641Y-133927464D01*
X222117562Y-133866956D01*
X222117560Y-133866955D01*
X221960801Y-133846318D01*
X221960799Y-133846318D01*
X221804039Y-133866955D01*
X221804037Y-133866956D01*
X221657960Y-133927463D01*
X221532518Y-134023718D01*
X221436263Y-134149160D01*
X221375756Y-134295237D01*
X221375755Y-134295239D01*
X221355118Y-134451998D01*
X221355118Y-134452001D01*
X220563699Y-134452001D01*
X220563699Y-132584499D01*
X220583385Y-132517461D01*
X220636189Y-132471706D01*
X220687700Y-132460500D01*
X227940914Y-132460500D01*
X228007953Y-132480185D01*
X228036768Y-132505836D01*
X228049117Y-132520883D01*
X228201460Y-132645909D01*
X228201467Y-132645913D01*
X228375266Y-132738811D01*
X228375269Y-132738811D01*
X228375273Y-132738814D01*
X228563868Y-132796024D01*
X228760000Y-132815341D01*
X228956132Y-132796024D01*
X229144727Y-132738814D01*
X229318538Y-132645910D01*
X229470883Y-132520883D01*
X229483231Y-132505836D01*
X229540978Y-132466501D01*
X229579086Y-132460500D01*
X233545914Y-132460500D01*
X233612953Y-132480185D01*
X233641768Y-132505836D01*
X233654117Y-132520883D01*
X233806460Y-132645909D01*
X233806467Y-132645913D01*
X233980266Y-132738811D01*
X233980269Y-132738811D01*
X233980273Y-132738814D01*
X234168868Y-132796024D01*
X234365000Y-132815341D01*
X234561132Y-132796024D01*
X234749727Y-132738814D01*
X234923538Y-132645910D01*
X235075883Y-132520883D01*
X235088231Y-132505836D01*
X235145978Y-132466501D01*
X235184086Y-132460500D01*
X239150914Y-132460500D01*
X239217953Y-132480185D01*
X239246768Y-132505836D01*
X239259117Y-132520883D01*
X239411460Y-132645909D01*
X239411467Y-132645913D01*
X239585266Y-132738811D01*
X239585269Y-132738811D01*
X239585273Y-132738814D01*
X239773868Y-132796024D01*
X239970000Y-132815341D01*
X240166132Y-132796024D01*
X240354727Y-132738814D01*
X240528538Y-132645910D01*
X240680883Y-132520883D01*
X240693231Y-132505836D01*
X240750978Y-132466501D01*
X240789086Y-132460500D01*
X244755914Y-132460500D01*
X244822953Y-132480185D01*
X244851768Y-132505836D01*
X244864117Y-132520883D01*
X245016460Y-132645909D01*
X245016467Y-132645913D01*
X245190266Y-132738811D01*
X245190269Y-132738811D01*
X245190273Y-132738814D01*
X245378868Y-132796024D01*
X245575000Y-132815341D01*
X245771132Y-132796024D01*
X245959727Y-132738814D01*
X246133538Y-132645910D01*
X246285883Y-132520883D01*
X246298231Y-132505836D01*
X246355978Y-132466501D01*
X246394086Y-132460500D01*
X250360914Y-132460500D01*
X250427953Y-132480185D01*
X250456768Y-132505836D01*
X250469117Y-132520883D01*
X250621460Y-132645909D01*
X250621467Y-132645913D01*
X250795266Y-132738811D01*
X250795269Y-132738811D01*
X250795273Y-132738814D01*
X250983868Y-132796024D01*
X251180000Y-132815341D01*
X251376132Y-132796024D01*
X251564727Y-132738814D01*
X251738538Y-132645910D01*
X251890883Y-132520883D01*
X252015910Y-132368538D01*
X252062362Y-132281632D01*
X252108811Y-132194733D01*
X252108811Y-132194732D01*
X252108814Y-132194727D01*
X252166024Y-132006132D01*
X252185341Y-131810000D01*
X252166024Y-131613868D01*
X252108814Y-131425273D01*
X252108811Y-131425269D01*
X252108811Y-131425266D01*
X252015913Y-131251467D01*
X252015909Y-131251460D01*
X251890883Y-131099116D01*
X251738539Y-130974090D01*
X251738532Y-130974086D01*
X251564733Y-130881188D01*
X251564727Y-130881186D01*
X251376132Y-130823976D01*
X251376129Y-130823975D01*
X251180000Y-130804659D01*
X250983870Y-130823975D01*
X250795266Y-130881188D01*
X250621467Y-130974086D01*
X250621460Y-130974090D01*
X250469117Y-131099116D01*
X250456768Y-131114164D01*
X250399022Y-131153499D01*
X250360914Y-131159500D01*
X246394086Y-131159500D01*
X246327047Y-131139815D01*
X246298232Y-131114164D01*
X246285882Y-131099116D01*
X246133539Y-130974090D01*
X246133532Y-130974086D01*
X245959733Y-130881188D01*
X245959727Y-130881186D01*
X245771132Y-130823976D01*
X245771129Y-130823975D01*
X245575000Y-130804659D01*
X245378870Y-130823975D01*
X245190266Y-130881188D01*
X245016467Y-130974086D01*
X245016460Y-130974090D01*
X244864117Y-131099116D01*
X244851768Y-131114164D01*
X244794022Y-131153499D01*
X244755914Y-131159500D01*
X240789086Y-131159500D01*
X240722047Y-131139815D01*
X240693232Y-131114164D01*
X240680882Y-131099116D01*
X240528539Y-130974090D01*
X240528532Y-130974086D01*
X240354733Y-130881188D01*
X240354727Y-130881186D01*
X240166132Y-130823976D01*
X240166129Y-130823975D01*
X239970000Y-130804659D01*
X239773870Y-130823975D01*
X239585266Y-130881188D01*
X239411467Y-130974086D01*
X239411460Y-130974090D01*
X239259117Y-131099116D01*
X239246768Y-131114164D01*
X239189022Y-131153499D01*
X239150914Y-131159500D01*
X235184086Y-131159500D01*
X235117047Y-131139815D01*
X235088232Y-131114164D01*
X235075882Y-131099116D01*
X234923539Y-130974090D01*
X234923532Y-130974086D01*
X234749733Y-130881188D01*
X234749727Y-130881186D01*
X234561132Y-130823976D01*
X234561129Y-130823975D01*
X234365000Y-130804659D01*
X234168870Y-130823975D01*
X233980266Y-130881188D01*
X233806467Y-130974086D01*
X233806460Y-130974090D01*
X233654117Y-131099116D01*
X233641768Y-131114164D01*
X233584022Y-131153499D01*
X233545914Y-131159500D01*
X229579086Y-131159500D01*
X229512047Y-131139815D01*
X229483232Y-131114164D01*
X229470882Y-131099116D01*
X229318539Y-130974090D01*
X229318532Y-130974086D01*
X229144733Y-130881188D01*
X229144727Y-130881186D01*
X228956132Y-130823976D01*
X228956129Y-130823975D01*
X228760000Y-130804659D01*
X228563870Y-130823975D01*
X228375266Y-130881188D01*
X228201467Y-130974086D01*
X228201460Y-130974090D01*
X228049117Y-131099116D01*
X228036768Y-131114164D01*
X227979022Y-131153499D01*
X227940914Y-131159500D01*
X221449700Y-131159500D01*
X221382661Y-131139815D01*
X221336906Y-131087011D01*
X221325700Y-131035500D01*
X221325700Y-129204001D01*
X221726318Y-129204001D01*
X221746955Y-129360760D01*
X221746956Y-129360762D01*
X221790600Y-129466129D01*
X221807464Y-129506841D01*
X221903718Y-129632282D01*
X222029159Y-129728536D01*
X222175238Y-129789044D01*
X222253618Y-129799362D01*
X222331999Y-129809682D01*
X222332000Y-129809682D01*
X222332001Y-129809682D01*
X222384253Y-129802802D01*
X222488762Y-129789044D01*
X222634841Y-129728536D01*
X222760282Y-129632282D01*
X222856536Y-129506841D01*
X222917044Y-129360762D01*
X222928993Y-129270000D01*
X227754659Y-129270000D01*
X227773975Y-129466129D01*
X227831188Y-129654733D01*
X227924086Y-129828532D01*
X227924090Y-129828539D01*
X228049116Y-129980883D01*
X228201460Y-130105909D01*
X228201467Y-130105913D01*
X228375266Y-130198811D01*
X228375269Y-130198811D01*
X228375273Y-130198814D01*
X228563868Y-130256024D01*
X228760000Y-130275341D01*
X228956132Y-130256024D01*
X229144727Y-130198814D01*
X229318538Y-130105910D01*
X229470883Y-129980883D01*
X229595910Y-129828538D01*
X229688814Y-129654727D01*
X229746024Y-129466132D01*
X229765341Y-129270000D01*
X233359659Y-129270000D01*
X233378975Y-129466129D01*
X233436188Y-129654733D01*
X233529086Y-129828532D01*
X233529090Y-129828539D01*
X233654116Y-129980883D01*
X233806460Y-130105909D01*
X233806467Y-130105913D01*
X233980266Y-130198811D01*
X233980269Y-130198811D01*
X233980273Y-130198814D01*
X234168868Y-130256024D01*
X234365000Y-130275341D01*
X234561132Y-130256024D01*
X234749727Y-130198814D01*
X234923538Y-130105910D01*
X235075883Y-129980883D01*
X235200910Y-129828538D01*
X235293814Y-129654727D01*
X235351024Y-129466132D01*
X235370341Y-129270000D01*
X238964659Y-129270000D01*
X238983975Y-129466129D01*
X239041188Y-129654733D01*
X239134086Y-129828532D01*
X239134090Y-129828539D01*
X239259116Y-129980883D01*
X239411460Y-130105909D01*
X239411467Y-130105913D01*
X239585266Y-130198811D01*
X239585269Y-130198811D01*
X239585273Y-130198814D01*
X239773868Y-130256024D01*
X239970000Y-130275341D01*
X240166132Y-130256024D01*
X240354727Y-130198814D01*
X240528538Y-130105910D01*
X240680883Y-129980883D01*
X240805910Y-129828538D01*
X240898814Y-129654727D01*
X240956024Y-129466132D01*
X240975341Y-129270000D01*
X244569659Y-129270000D01*
X244588975Y-129466129D01*
X244646188Y-129654733D01*
X244739086Y-129828532D01*
X244739090Y-129828539D01*
X244864116Y-129980883D01*
X245016460Y-130105909D01*
X245016467Y-130105913D01*
X245190266Y-130198811D01*
X245190269Y-130198811D01*
X245190273Y-130198814D01*
X245378868Y-130256024D01*
X245575000Y-130275341D01*
X245771132Y-130256024D01*
X245959727Y-130198814D01*
X246133538Y-130105910D01*
X246285883Y-129980883D01*
X246410910Y-129828538D01*
X246503814Y-129654727D01*
X246561024Y-129466132D01*
X246580341Y-129270000D01*
X250174659Y-129270000D01*
X250193975Y-129466129D01*
X250251188Y-129654733D01*
X250344086Y-129828532D01*
X250344090Y-129828539D01*
X250469116Y-129980883D01*
X250621460Y-130105909D01*
X250621467Y-130105913D01*
X250795266Y-130198811D01*
X250795269Y-130198811D01*
X250795273Y-130198814D01*
X250983868Y-130256024D01*
X251180000Y-130275341D01*
X251376132Y-130256024D01*
X251564727Y-130198814D01*
X251738538Y-130105910D01*
X251890883Y-129980883D01*
X252015910Y-129828538D01*
X252108814Y-129654727D01*
X252166024Y-129466132D01*
X252185341Y-129270000D01*
X252166024Y-129073868D01*
X252108814Y-128885273D01*
X252108811Y-128885269D01*
X252108811Y-128885266D01*
X252015913Y-128711467D01*
X252015909Y-128711460D01*
X251890883Y-128559116D01*
X251738539Y-128434090D01*
X251738532Y-128434086D01*
X251564733Y-128341188D01*
X251564727Y-128341186D01*
X251376132Y-128283976D01*
X251376129Y-128283975D01*
X251180000Y-128264659D01*
X250983870Y-128283975D01*
X250795266Y-128341188D01*
X250621467Y-128434086D01*
X250621460Y-128434090D01*
X250469116Y-128559116D01*
X250344090Y-128711460D01*
X250344086Y-128711467D01*
X250251188Y-128885266D01*
X250193975Y-129073870D01*
X250174659Y-129270000D01*
X246580341Y-129270000D01*
X246561024Y-129073868D01*
X246503814Y-128885273D01*
X246503811Y-128885269D01*
X246503811Y-128885266D01*
X246410913Y-128711467D01*
X246410909Y-128711460D01*
X246285883Y-128559116D01*
X246133539Y-128434090D01*
X246133532Y-128434086D01*
X245959733Y-128341188D01*
X245959727Y-128341186D01*
X245771132Y-128283976D01*
X245771129Y-128283975D01*
X245575000Y-128264659D01*
X245378870Y-128283975D01*
X245190266Y-128341188D01*
X245016467Y-128434086D01*
X245016460Y-128434090D01*
X244864116Y-128559116D01*
X244739090Y-128711460D01*
X244739086Y-128711467D01*
X244646188Y-128885266D01*
X244588975Y-129073870D01*
X244569659Y-129270000D01*
X240975341Y-129270000D01*
X240956024Y-129073868D01*
X240898814Y-128885273D01*
X240898811Y-128885269D01*
X240898811Y-128885266D01*
X240805913Y-128711467D01*
X240805909Y-128711460D01*
X240680883Y-128559116D01*
X240528539Y-128434090D01*
X240528532Y-128434086D01*
X240354733Y-128341188D01*
X240354727Y-128341186D01*
X240166132Y-128283976D01*
X240166129Y-128283975D01*
X239970000Y-128264659D01*
X239773870Y-128283975D01*
X239585266Y-128341188D01*
X239411467Y-128434086D01*
X239411460Y-128434090D01*
X239259116Y-128559116D01*
X239134090Y-128711460D01*
X239134086Y-128711467D01*
X239041188Y-128885266D01*
X238983975Y-129073870D01*
X238964659Y-129270000D01*
X235370341Y-129270000D01*
X235351024Y-129073868D01*
X235293814Y-128885273D01*
X235293811Y-128885269D01*
X235293811Y-128885266D01*
X235200913Y-128711467D01*
X235200909Y-128711460D01*
X235075883Y-128559116D01*
X234923539Y-128434090D01*
X234923532Y-128434086D01*
X234749733Y-128341188D01*
X234749727Y-128341186D01*
X234561132Y-128283976D01*
X234561129Y-128283975D01*
X234365000Y-128264659D01*
X234168870Y-128283975D01*
X233980266Y-128341188D01*
X233806467Y-128434086D01*
X233806460Y-128434090D01*
X233654116Y-128559116D01*
X233529090Y-128711460D01*
X233529086Y-128711467D01*
X233436188Y-128885266D01*
X233378975Y-129073870D01*
X233359659Y-129270000D01*
X229765341Y-129270000D01*
X229746024Y-129073868D01*
X229688814Y-128885273D01*
X229688811Y-128885269D01*
X229688811Y-128885266D01*
X229595913Y-128711467D01*
X229595909Y-128711460D01*
X229470883Y-128559116D01*
X229318539Y-128434090D01*
X229318532Y-128434086D01*
X229144733Y-128341188D01*
X229144727Y-128341186D01*
X228956132Y-128283976D01*
X228956129Y-128283975D01*
X228760000Y-128264659D01*
X228563870Y-128283975D01*
X228375266Y-128341188D01*
X228201467Y-128434086D01*
X228201460Y-128434090D01*
X228049116Y-128559116D01*
X227924090Y-128711460D01*
X227924086Y-128711467D01*
X227831188Y-128885266D01*
X227773975Y-129073870D01*
X227754659Y-129270000D01*
X222928993Y-129270000D01*
X222937682Y-129204000D01*
X222917044Y-129047238D01*
X222856536Y-128901159D01*
X222760282Y-128775718D01*
X222634841Y-128679464D01*
X222488762Y-128618956D01*
X222488760Y-128618955D01*
X222332001Y-128598318D01*
X222331999Y-128598318D01*
X222175239Y-128618955D01*
X222175237Y-128618956D01*
X222029160Y-128679463D01*
X221903718Y-128775718D01*
X221807463Y-128901160D01*
X221746956Y-129047237D01*
X221746955Y-129047239D01*
X221726318Y-129203998D01*
X221726318Y-129204001D01*
X221325700Y-129204001D01*
X221325700Y-127168407D01*
X221345385Y-127101368D01*
X221362014Y-127080731D01*
X221519711Y-126923035D01*
X221519711Y-126923034D01*
X222399511Y-126043232D01*
X222412086Y-126033159D01*
X222411931Y-126032972D01*
X222417933Y-126028005D01*
X222417940Y-126028002D01*
X222466569Y-125976215D01*
X222467841Y-125974902D01*
X222488911Y-125953834D01*
X222493403Y-125948041D01*
X222497193Y-125943605D01*
X222530448Y-125908193D01*
X222540670Y-125889596D01*
X222551355Y-125873331D01*
X222564363Y-125856563D01*
X222583651Y-125811987D01*
X222586224Y-125806736D01*
X222588366Y-125802839D01*
X222609627Y-125764168D01*
X222614904Y-125743608D01*
X222621206Y-125725203D01*
X222629636Y-125705726D01*
X222637235Y-125657745D01*
X222638417Y-125652034D01*
X222650500Y-125604977D01*
X222650500Y-125604974D01*
X222652440Y-125597419D01*
X222654629Y-125597981D01*
X222677991Y-125544416D01*
X222736113Y-125505639D01*
X222773082Y-125500000D01*
X253941028Y-125500000D01*
X254008067Y-125519685D01*
X254021560Y-125529710D01*
X254100961Y-125597525D01*
X254100963Y-125597526D01*
X254100964Y-125597527D01*
X254189889Y-125652020D01*
X254323818Y-125734092D01*
X254323821Y-125734094D01*
X254565282Y-125834110D01*
X254565284Y-125834110D01*
X254565290Y-125834113D01*
X254819437Y-125895128D01*
X255080000Y-125915635D01*
X255340563Y-125895128D01*
X255347047Y-125893571D01*
X255416829Y-125897058D01*
X255473649Y-125937718D01*
X255499466Y-126002643D01*
X255500000Y-126014143D01*
X255500000Y-134375697D01*
X255480315Y-134442736D01*
X255427511Y-134488491D01*
X255358353Y-134498435D01*
X255294797Y-134469410D01*
X255277624Y-134451184D01*
X255243538Y-134406762D01*
X255178282Y-134321718D01*
X255052841Y-134225464D01*
X254906762Y-134164956D01*
X254906760Y-134164955D01*
X254750001Y-134144318D01*
X254749999Y-134144318D01*
X254593239Y-134164955D01*
X254593237Y-134164956D01*
X254447160Y-134225463D01*
X254321718Y-134321718D01*
X254225463Y-134447160D01*
X254164956Y-134593237D01*
X254164955Y-134593239D01*
X254144318Y-134749998D01*
X254144318Y-134750001D01*
X254164955Y-134906760D01*
X254164956Y-134906762D01*
X254225464Y-135052841D01*
X254321718Y-135178282D01*
X254447159Y-135274536D01*
X254593238Y-135335044D01*
X254671618Y-135345362D01*
X254749999Y-135355682D01*
X254750000Y-135355682D01*
X254750001Y-135355682D01*
X254802253Y-135348802D01*
X254906762Y-135335044D01*
X255052841Y-135274536D01*
X255178282Y-135178282D01*
X255274536Y-135052841D01*
X255274536Y-135052839D01*
X255277624Y-135048816D01*
X255334052Y-135007613D01*
X255403798Y-135003458D01*
X255464718Y-135037670D01*
X255497471Y-135099387D01*
X255499999Y-135124302D01*
X255500000Y-173750000D01*
X258625302Y-173750000D01*
X258692341Y-173769685D01*
X258738096Y-173822489D01*
X258748040Y-173891647D01*
X258727996Y-173939234D01*
X258729528Y-173940119D01*
X258725465Y-173947156D01*
X258664956Y-174093237D01*
X258664955Y-174093239D01*
X258644318Y-174249998D01*
X258644318Y-174250001D01*
X258664955Y-174406760D01*
X258664956Y-174406762D01*
X258703576Y-174500000D01*
X258725464Y-174552841D01*
X258821718Y-174678282D01*
X258947159Y-174774536D01*
X259093238Y-174835044D01*
X259171618Y-174845362D01*
X259249999Y-174855682D01*
X259250000Y-174855682D01*
X259250001Y-174855682D01*
X259302253Y-174848802D01*
X259406762Y-174835044D01*
X259552841Y-174774536D01*
X259678282Y-174678282D01*
X259774536Y-174552841D01*
X259835044Y-174406762D01*
X259855682Y-174250000D01*
X259848725Y-174197159D01*
X259835044Y-174093239D01*
X259835044Y-174093238D01*
X259774536Y-173947159D01*
X259774534Y-173947156D01*
X259770472Y-173940119D01*
X259772293Y-173939067D01*
X259751128Y-173884314D01*
X259765168Y-173815870D01*
X259813983Y-173765881D01*
X259874698Y-173750000D01*
X263376000Y-173750000D01*
X263443039Y-173769685D01*
X263488794Y-173822489D01*
X263500000Y-173874000D01*
X263500000Y-185876000D01*
X263480315Y-185943039D01*
X263427511Y-185988794D01*
X263376000Y-186000000D01*
X202374000Y-186000000D01*
X202306961Y-185980315D01*
X202261206Y-185927511D01*
X202250000Y-185876000D01*
X202250000Y-184219556D01*
X202269685Y-184152517D01*
X202322489Y-184106762D01*
X202391647Y-184096818D01*
X202455203Y-184125843D01*
X202487556Y-184169746D01*
X202533577Y-184274664D01*
X202533579Y-184274668D01*
X202613874Y-184397570D01*
X203184226Y-183827218D01*
X203222901Y-183920588D01*
X203319075Y-184045925D01*
X203444412Y-184142099D01*
X203537779Y-184180772D01*
X202966015Y-184752536D01*
X202966016Y-184752537D01*
X202992366Y-184773046D01*
X202992372Y-184773050D01*
X203192769Y-184881499D01*
X203192780Y-184881504D01*
X203408298Y-184955492D01*
X203633065Y-184993000D01*
X203860935Y-184993000D01*
X204085701Y-184955492D01*
X204301219Y-184881504D01*
X204301230Y-184881499D01*
X204501633Y-184773047D01*
X204527982Y-184752537D01*
X204527982Y-184752536D01*
X203956220Y-184180772D01*
X204049588Y-184142099D01*
X204174925Y-184045925D01*
X204271099Y-183920589D01*
X204309773Y-183827219D01*
X204880125Y-184397571D01*
X204960420Y-184274669D01*
X205051954Y-184065993D01*
X205107894Y-183845093D01*
X205107896Y-183845085D01*
X205126712Y-183618006D01*
X205126712Y-183618000D01*
X217856678Y-183618000D01*
X217875923Y-183825691D01*
X217875923Y-183825693D01*
X217875924Y-183825696D01*
X217917424Y-183971553D01*
X217933007Y-184026322D01*
X217995845Y-184152517D01*
X218025981Y-184213038D01*
X218151682Y-184379493D01*
X218305829Y-184520016D01*
X218483172Y-184629823D01*
X218677673Y-184705173D01*
X218882707Y-184743500D01*
X218882710Y-184743500D01*
X219091290Y-184743500D01*
X219091293Y-184743500D01*
X219296327Y-184705173D01*
X219490828Y-184629823D01*
X219668171Y-184520016D01*
X219822318Y-184379493D01*
X219948019Y-184213038D01*
X220040994Y-184026319D01*
X220049165Y-183997601D01*
X227994318Y-183997601D01*
X228014955Y-184154360D01*
X228014956Y-184154362D01*
X228075464Y-184300441D01*
X228171718Y-184425882D01*
X228297159Y-184522136D01*
X228443238Y-184582644D01*
X228521618Y-184592962D01*
X228599999Y-184603282D01*
X228600000Y-184603282D01*
X228600001Y-184603282D01*
X228652254Y-184596402D01*
X228756762Y-184582644D01*
X228902841Y-184522136D01*
X229028282Y-184425882D01*
X229124536Y-184300441D01*
X229185044Y-184154362D01*
X229205682Y-183997601D01*
X234801518Y-183997601D01*
X234822155Y-184154360D01*
X234822156Y-184154362D01*
X234882664Y-184300441D01*
X234978918Y-184425882D01*
X235104359Y-184522136D01*
X235250438Y-184582644D01*
X235328818Y-184592962D01*
X235407199Y-184603282D01*
X235407200Y-184603282D01*
X235407201Y-184603282D01*
X235459453Y-184596402D01*
X235563962Y-184582644D01*
X235710041Y-184522136D01*
X235835482Y-184425882D01*
X235931736Y-184300441D01*
X235992244Y-184154362D01*
X236012882Y-183997601D01*
X241202318Y-183997601D01*
X241222955Y-184154360D01*
X241222956Y-184154362D01*
X241283464Y-184300441D01*
X241379718Y-184425882D01*
X241505159Y-184522136D01*
X241651238Y-184582644D01*
X241729618Y-184592962D01*
X241807999Y-184603282D01*
X241808000Y-184603282D01*
X241808001Y-184603282D01*
X241860253Y-184596402D01*
X241964762Y-184582644D01*
X242110841Y-184522136D01*
X242236282Y-184425882D01*
X242332536Y-184300441D01*
X242393044Y-184154362D01*
X242413682Y-183997601D01*
X247603118Y-183997601D01*
X247623755Y-184154360D01*
X247623756Y-184154362D01*
X247684264Y-184300441D01*
X247780518Y-184425882D01*
X247905959Y-184522136D01*
X248052038Y-184582644D01*
X248130419Y-184592962D01*
X248208799Y-184603282D01*
X248208800Y-184603282D01*
X248208801Y-184603282D01*
X248261053Y-184596402D01*
X248365562Y-184582644D01*
X248511641Y-184522136D01*
X248637082Y-184425882D01*
X248733336Y-184300441D01*
X248793844Y-184154362D01*
X248814482Y-183997600D01*
X248793844Y-183840838D01*
X248733336Y-183694759D01*
X248637082Y-183569318D01*
X248511641Y-183473064D01*
X248365562Y-183412556D01*
X248365560Y-183412555D01*
X248208801Y-183391918D01*
X248208799Y-183391918D01*
X248052039Y-183412555D01*
X248052037Y-183412556D01*
X247905960Y-183473063D01*
X247780518Y-183569318D01*
X247684263Y-183694760D01*
X247623756Y-183840837D01*
X247623755Y-183840839D01*
X247603118Y-183997598D01*
X247603118Y-183997601D01*
X242413682Y-183997601D01*
X242413682Y-183997600D01*
X242393044Y-183840838D01*
X242332536Y-183694759D01*
X242236282Y-183569318D01*
X242110841Y-183473064D01*
X241964762Y-183412556D01*
X241964760Y-183412555D01*
X241808001Y-183391918D01*
X241807999Y-183391918D01*
X241651239Y-183412555D01*
X241651237Y-183412556D01*
X241505160Y-183473063D01*
X241379718Y-183569318D01*
X241283463Y-183694760D01*
X241222956Y-183840837D01*
X241222955Y-183840839D01*
X241202318Y-183997598D01*
X241202318Y-183997601D01*
X236012882Y-183997601D01*
X236012882Y-183997600D01*
X235992244Y-183840838D01*
X235931736Y-183694759D01*
X235835482Y-183569318D01*
X235710041Y-183473064D01*
X235563962Y-183412556D01*
X235563960Y-183412555D01*
X235407201Y-183391918D01*
X235407199Y-183391918D01*
X235250439Y-183412555D01*
X235250437Y-183412556D01*
X235104360Y-183473063D01*
X234978918Y-183569318D01*
X234882663Y-183694760D01*
X234822156Y-183840837D01*
X234822155Y-183840839D01*
X234801518Y-183997598D01*
X234801518Y-183997601D01*
X229205682Y-183997601D01*
X229205682Y-183997600D01*
X229185044Y-183840838D01*
X229124536Y-183694759D01*
X229028282Y-183569318D01*
X228902841Y-183473064D01*
X228756762Y-183412556D01*
X228756760Y-183412555D01*
X228600001Y-183391918D01*
X228599999Y-183391918D01*
X228443239Y-183412555D01*
X228443237Y-183412556D01*
X228297160Y-183473063D01*
X228171718Y-183569318D01*
X228075463Y-183694760D01*
X228014956Y-183840837D01*
X228014955Y-183840839D01*
X227994318Y-183997598D01*
X227994318Y-183997601D01*
X220049165Y-183997601D01*
X220098076Y-183825696D01*
X220117322Y-183618000D01*
X220098076Y-183410304D01*
X220040994Y-183209681D01*
X219948019Y-183022962D01*
X219822318Y-182856507D01*
X219668171Y-182715984D01*
X219490828Y-182606177D01*
X219490827Y-182606176D01*
X219348609Y-182551081D01*
X219296327Y-182530827D01*
X219091293Y-182492500D01*
X218882707Y-182492500D01*
X218677673Y-182530827D01*
X218677670Y-182530827D01*
X218677670Y-182530828D01*
X218483172Y-182606176D01*
X218483171Y-182606177D01*
X218305827Y-182715985D01*
X218151683Y-182856505D01*
X218025981Y-183022961D01*
X217933007Y-183209677D01*
X217875923Y-183410308D01*
X217856678Y-183617999D01*
X217856678Y-183618000D01*
X205126712Y-183618000D01*
X205126712Y-183617993D01*
X205107896Y-183390914D01*
X205107894Y-183390906D01*
X205051954Y-183170006D01*
X204960420Y-182961330D01*
X204880124Y-182838427D01*
X204309772Y-183408779D01*
X204271099Y-183315412D01*
X204174925Y-183190075D01*
X204049588Y-183093901D01*
X203956219Y-183055226D01*
X204527983Y-182483462D01*
X204527983Y-182483461D01*
X204501632Y-182462952D01*
X204501627Y-182462949D01*
X204301230Y-182354500D01*
X204301223Y-182354497D01*
X204233433Y-182331224D01*
X204176418Y-182290838D01*
X204150288Y-182226038D01*
X204163340Y-182157398D01*
X204211429Y-182106711D01*
X204228899Y-182098318D01*
X204250828Y-182089823D01*
X204428171Y-181980016D01*
X204582318Y-181839493D01*
X204708019Y-181673038D01*
X204800994Y-181486319D01*
X204858076Y-181285696D01*
X204877322Y-181078000D01*
X217856678Y-181078000D01*
X217875923Y-181285691D01*
X217875923Y-181285693D01*
X217875924Y-181285696D01*
X217933006Y-181486319D01*
X217933007Y-181486322D01*
X218025981Y-181673038D01*
X218151683Y-181839494D01*
X218151872Y-181839666D01*
X218305829Y-181980016D01*
X218483172Y-182089823D01*
X218677673Y-182165173D01*
X218882707Y-182203500D01*
X218882710Y-182203500D01*
X219091290Y-182203500D01*
X219091293Y-182203500D01*
X219296327Y-182165173D01*
X219490828Y-182089823D01*
X219668171Y-181980016D01*
X219822318Y-181839493D01*
X219948019Y-181673038D01*
X220040994Y-181486319D01*
X220098076Y-181285696D01*
X220117322Y-181078000D01*
X220098076Y-180870304D01*
X220040994Y-180669681D01*
X220006297Y-180600000D01*
X251673140Y-180600000D01*
X251692534Y-180796914D01*
X251749974Y-180986269D01*
X251843244Y-181160764D01*
X251843248Y-181160771D01*
X251968774Y-181313725D01*
X252121728Y-181439251D01*
X252121735Y-181439255D01*
X252296230Y-181532525D01*
X252296232Y-181532525D01*
X252296235Y-181532527D01*
X252485584Y-181589965D01*
X252485583Y-181589965D01*
X252503239Y-181591703D01*
X252682500Y-181609360D01*
X252879416Y-181589965D01*
X253068765Y-181532527D01*
X253243270Y-181439252D01*
X253396225Y-181313725D01*
X253521752Y-181160770D01*
X253615027Y-180986265D01*
X253672465Y-180796916D01*
X253691860Y-180600000D01*
X253691860Y-180599999D01*
X254213140Y-180599999D01*
X254232534Y-180796914D01*
X254289974Y-180986269D01*
X254383244Y-181160764D01*
X254383248Y-181160771D01*
X254508774Y-181313725D01*
X254661728Y-181439251D01*
X254661735Y-181439255D01*
X254836230Y-181532525D01*
X254836232Y-181532525D01*
X254836235Y-181532527D01*
X255025584Y-181589965D01*
X255025583Y-181589965D01*
X255044977Y-181591875D01*
X255222500Y-181609360D01*
X255419416Y-181589965D01*
X255608765Y-181532527D01*
X255783270Y-181439252D01*
X255936225Y-181313725D01*
X256061752Y-181160770D01*
X256155027Y-180986265D01*
X256212465Y-180796916D01*
X256231860Y-180600000D01*
X256503710Y-180600000D01*
X256522833Y-180818582D01*
X256522835Y-180818592D01*
X256579621Y-181030524D01*
X256579624Y-181030533D01*
X256672355Y-181229393D01*
X256672356Y-181229395D01*
X256716502Y-181292442D01*
X256716503Y-181292443D01*
X257279422Y-180729522D01*
X257303007Y-180809844D01*
X257380739Y-180930798D01*
X257489400Y-181024952D01*
X257620185Y-181084680D01*
X257629966Y-181086086D01*
X257070055Y-181645996D01*
X257133104Y-181690143D01*
X257133106Y-181690144D01*
X257331966Y-181782875D01*
X257331975Y-181782878D01*
X257543907Y-181839664D01*
X257543917Y-181839666D01*
X257762499Y-181858790D01*
X257762501Y-181858790D01*
X257981082Y-181839666D01*
X257981092Y-181839664D01*
X258193024Y-181782878D01*
X258193033Y-181782874D01*
X258391892Y-181690145D01*
X258454943Y-181645996D01*
X258187625Y-181378678D01*
X259298000Y-181378678D01*
X259312532Y-181451735D01*
X259312533Y-181451739D01*
X259312534Y-181451740D01*
X259367899Y-181534601D01*
X259450760Y-181589965D01*
X259450760Y-181589966D01*
X259450764Y-181589967D01*
X259523821Y-181604499D01*
X259523824Y-181604500D01*
X259523826Y-181604500D01*
X261081176Y-181604500D01*
X261081177Y-181604499D01*
X261154240Y-181589966D01*
X261237101Y-181534601D01*
X261292466Y-181451740D01*
X261307000Y-181378674D01*
X261307000Y-179821326D01*
X261307000Y-179821323D01*
X261306999Y-179821321D01*
X261292467Y-179748264D01*
X261292466Y-179748260D01*
X261237101Y-179665399D01*
X261176895Y-179625171D01*
X261154239Y-179610033D01*
X261154235Y-179610032D01*
X261081177Y-179595500D01*
X261081174Y-179595500D01*
X259523826Y-179595500D01*
X259523823Y-179595500D01*
X259450764Y-179610032D01*
X259450760Y-179610033D01*
X259367899Y-179665399D01*
X259312533Y-179748260D01*
X259312532Y-179748264D01*
X259298000Y-179821321D01*
X259298000Y-181378678D01*
X258187625Y-181378678D01*
X257895034Y-181086086D01*
X257904815Y-181084680D01*
X258035600Y-181024952D01*
X258144261Y-180930798D01*
X258221993Y-180809844D01*
X258245576Y-180729523D01*
X258808496Y-181292443D01*
X258852645Y-181229392D01*
X258945374Y-181030533D01*
X258945378Y-181030524D01*
X259002164Y-180818592D01*
X259002166Y-180818582D01*
X259021290Y-180600000D01*
X259021290Y-180599999D01*
X259002166Y-180381417D01*
X259002164Y-180381407D01*
X258945378Y-180169475D01*
X258945375Y-180169466D01*
X258852644Y-179970606D01*
X258852643Y-179970604D01*
X258808496Y-179907556D01*
X258808495Y-179907555D01*
X258245576Y-180470474D01*
X258221993Y-180390156D01*
X258144261Y-180269202D01*
X258035600Y-180175048D01*
X257904815Y-180115320D01*
X257895031Y-180113913D01*
X258454943Y-179554002D01*
X258391895Y-179509856D01*
X258391893Y-179509855D01*
X258193033Y-179417124D01*
X258193024Y-179417121D01*
X257981092Y-179360335D01*
X257981082Y-179360333D01*
X257762501Y-179341210D01*
X257762499Y-179341210D01*
X257543917Y-179360333D01*
X257543907Y-179360335D01*
X257331975Y-179417121D01*
X257331966Y-179417124D01*
X257133102Y-179509857D01*
X257070055Y-179554001D01*
X257070055Y-179554002D01*
X257629965Y-180113913D01*
X257620185Y-180115320D01*
X257489400Y-180175048D01*
X257380739Y-180269202D01*
X257303007Y-180390156D01*
X257279422Y-180470476D01*
X256716501Y-179907555D01*
X256672357Y-179970602D01*
X256579624Y-180169466D01*
X256579621Y-180169475D01*
X256522835Y-180381407D01*
X256522833Y-180381417D01*
X256503710Y-180599999D01*
X256503710Y-180600000D01*
X256231860Y-180600000D01*
X256212465Y-180403084D01*
X256155027Y-180213735D01*
X256155025Y-180213732D01*
X256155025Y-180213730D01*
X256061755Y-180039235D01*
X256061751Y-180039228D01*
X255936225Y-179886274D01*
X255783271Y-179760748D01*
X255783264Y-179760744D01*
X255608769Y-179667474D01*
X255507474Y-179636747D01*
X255419416Y-179610035D01*
X255419414Y-179610034D01*
X255419416Y-179610034D01*
X255240155Y-179592378D01*
X255222500Y-179590640D01*
X255222499Y-179590640D01*
X255025585Y-179610034D01*
X254836230Y-179667474D01*
X254661735Y-179760744D01*
X254661728Y-179760748D01*
X254508774Y-179886274D01*
X254383248Y-180039228D01*
X254383244Y-180039235D01*
X254289974Y-180213730D01*
X254232534Y-180403085D01*
X254213140Y-180599999D01*
X253691860Y-180599999D01*
X253672465Y-180403084D01*
X253615027Y-180213735D01*
X253615025Y-180213732D01*
X253615025Y-180213730D01*
X253521755Y-180039235D01*
X253521751Y-180039228D01*
X253396225Y-179886274D01*
X253243271Y-179760748D01*
X253243264Y-179760744D01*
X253068769Y-179667474D01*
X252967474Y-179636747D01*
X252879416Y-179610035D01*
X252879414Y-179610034D01*
X252879416Y-179610034D01*
X252682500Y-179590640D01*
X252485585Y-179610034D01*
X252296230Y-179667474D01*
X252121735Y-179760744D01*
X252121728Y-179760748D01*
X251968774Y-179886274D01*
X251843248Y-180039228D01*
X251843244Y-180039235D01*
X251749974Y-180213730D01*
X251692534Y-180403085D01*
X251673140Y-180600000D01*
X220006297Y-180600000D01*
X219948019Y-180482962D01*
X219822318Y-180316507D01*
X219668171Y-180175984D01*
X219490828Y-180066177D01*
X219490827Y-180066176D01*
X219348609Y-180011081D01*
X219296327Y-179990827D01*
X219091293Y-179952500D01*
X218882707Y-179952500D01*
X218677673Y-179990827D01*
X218677670Y-179990827D01*
X218677670Y-179990828D01*
X218483172Y-180066176D01*
X218483171Y-180066177D01*
X218305827Y-180175985D01*
X218151683Y-180316505D01*
X218025981Y-180482961D01*
X217933007Y-180669677D01*
X217875923Y-180870308D01*
X217856678Y-181077999D01*
X217856678Y-181078000D01*
X204877322Y-181078000D01*
X204858076Y-180870304D01*
X204800994Y-180669681D01*
X204708019Y-180482962D01*
X204582318Y-180316507D01*
X204428171Y-180175984D01*
X204250828Y-180066177D01*
X204250827Y-180066176D01*
X204108609Y-180011081D01*
X204056327Y-179990827D01*
X203851293Y-179952500D01*
X203642707Y-179952500D01*
X203437673Y-179990827D01*
X203437670Y-179990827D01*
X203437670Y-179990828D01*
X203243172Y-180066176D01*
X203243171Y-180066177D01*
X203065827Y-180175985D01*
X202911683Y-180316505D01*
X202785981Y-180482961D01*
X202693007Y-180669677D01*
X202635923Y-180870308D01*
X202616678Y-181077999D01*
X202616678Y-181078000D01*
X202635923Y-181285691D01*
X202635923Y-181285693D01*
X202635924Y-181285696D01*
X202693006Y-181486319D01*
X202693007Y-181486322D01*
X202785981Y-181673038D01*
X202911683Y-181839494D01*
X202911872Y-181839666D01*
X203065829Y-181980016D01*
X203243172Y-182089823D01*
X203243174Y-182089823D01*
X203243178Y-182089826D01*
X203265094Y-182098316D01*
X203320496Y-182140888D01*
X203344088Y-182206654D01*
X203328378Y-182274735D01*
X203278354Y-182323514D01*
X203260566Y-182331224D01*
X203192777Y-182354496D01*
X203192769Y-182354500D01*
X202992373Y-182462948D01*
X202966016Y-182483462D01*
X203537780Y-183055226D01*
X203444412Y-183093901D01*
X203319075Y-183190075D01*
X203222901Y-183315411D01*
X203184226Y-183408780D01*
X202613874Y-182838428D01*
X202533578Y-182961333D01*
X202533577Y-182961335D01*
X202487556Y-183066253D01*
X202442600Y-183119739D01*
X202375864Y-183140429D01*
X202308536Y-183121754D01*
X202261993Y-183069644D01*
X202250000Y-183016443D01*
X202250000Y-178538000D01*
X202616678Y-178538000D01*
X202635923Y-178745691D01*
X202635923Y-178745693D01*
X202635924Y-178745696D01*
X202662153Y-178837881D01*
X202693007Y-178946322D01*
X202752641Y-179066082D01*
X202785981Y-179133038D01*
X202911682Y-179299493D01*
X203065829Y-179440016D01*
X203243172Y-179549823D01*
X203437673Y-179625173D01*
X203642707Y-179663500D01*
X203642710Y-179663500D01*
X203851290Y-179663500D01*
X203851293Y-179663500D01*
X204056327Y-179625173D01*
X204250828Y-179549823D01*
X204428171Y-179440016D01*
X204582318Y-179299493D01*
X204708019Y-179133038D01*
X204800994Y-178946319D01*
X204858076Y-178745696D01*
X204877322Y-178538000D01*
X204874434Y-178506839D01*
X204869168Y-178450001D01*
X211644318Y-178450001D01*
X211664955Y-178606760D01*
X211664956Y-178606762D01*
X211703576Y-178700000D01*
X211725464Y-178752841D01*
X211821718Y-178878282D01*
X211947159Y-178974536D01*
X212093238Y-179035044D01*
X212171618Y-179045362D01*
X212249999Y-179055682D01*
X212250000Y-179055682D01*
X212250001Y-179055682D01*
X212302253Y-179048802D01*
X212406762Y-179035044D01*
X212552841Y-178974536D01*
X212678282Y-178878282D01*
X212774536Y-178752841D01*
X212835044Y-178606762D01*
X212844097Y-178538000D01*
X217856678Y-178538000D01*
X217875923Y-178745691D01*
X217875923Y-178745693D01*
X217875924Y-178745696D01*
X217902153Y-178837881D01*
X217933007Y-178946322D01*
X217992641Y-179066082D01*
X218025981Y-179133038D01*
X218151682Y-179299493D01*
X218305829Y-179440016D01*
X218483172Y-179549823D01*
X218677673Y-179625173D01*
X218882707Y-179663500D01*
X218882710Y-179663500D01*
X219091290Y-179663500D01*
X219091293Y-179663500D01*
X219296327Y-179625173D01*
X219490828Y-179549823D01*
X219668171Y-179440016D01*
X219822318Y-179299493D01*
X219948019Y-179133038D01*
X220040994Y-178946319D01*
X220098076Y-178745696D01*
X220105683Y-178663601D01*
X224184318Y-178663601D01*
X224204955Y-178820360D01*
X224204956Y-178820362D01*
X224264652Y-178964482D01*
X224265464Y-178966441D01*
X224361718Y-179091882D01*
X224487159Y-179188136D01*
X224633238Y-179248644D01*
X224711618Y-179258962D01*
X224789999Y-179269282D01*
X224790000Y-179269282D01*
X224790001Y-179269282D01*
X224842253Y-179262402D01*
X224946762Y-179248644D01*
X225092841Y-179188136D01*
X225218282Y-179091882D01*
X225314536Y-178966441D01*
X225375044Y-178820362D01*
X225395682Y-178663600D01*
X225375044Y-178506838D01*
X225355809Y-178460401D01*
X230788318Y-178460401D01*
X230808955Y-178617160D01*
X230808956Y-178617162D01*
X230862196Y-178745696D01*
X230869464Y-178763241D01*
X230965718Y-178888682D01*
X231091159Y-178984936D01*
X231237238Y-179045444D01*
X231315004Y-179055682D01*
X231393999Y-179066082D01*
X231394000Y-179066082D01*
X231394001Y-179066082D01*
X231472996Y-179055682D01*
X231550762Y-179045444D01*
X231696841Y-178984936D01*
X231822282Y-178888682D01*
X231918536Y-178763241D01*
X231979044Y-178617162D01*
X231999682Y-178460400D01*
X231992994Y-178409601D01*
X237290718Y-178409601D01*
X237311355Y-178566360D01*
X237311356Y-178566362D01*
X237351632Y-178663598D01*
X237371864Y-178712441D01*
X237468118Y-178837882D01*
X237593559Y-178934136D01*
X237739638Y-178994644D01*
X237818019Y-179004962D01*
X237896399Y-179015282D01*
X237896400Y-179015282D01*
X237896401Y-179015282D01*
X237948653Y-179008402D01*
X238053162Y-178994644D01*
X238199241Y-178934136D01*
X238324682Y-178837882D01*
X238420936Y-178712441D01*
X238481444Y-178566362D01*
X238502082Y-178409600D01*
X238495394Y-178358801D01*
X243793118Y-178358801D01*
X243813755Y-178515560D01*
X243813756Y-178515562D01*
X243851531Y-178606760D01*
X243874264Y-178661641D01*
X243970518Y-178787082D01*
X244095959Y-178883336D01*
X244242038Y-178943844D01*
X244320418Y-178954162D01*
X244398799Y-178964482D01*
X244398800Y-178964482D01*
X244398801Y-178964482D01*
X244451054Y-178957602D01*
X244555562Y-178943844D01*
X244701641Y-178883336D01*
X244827082Y-178787082D01*
X244923336Y-178661641D01*
X244983844Y-178515562D01*
X245004482Y-178358800D01*
X245000730Y-178330304D01*
X244983844Y-178202039D01*
X244983844Y-178202038D01*
X244923336Y-178055959D01*
X244827082Y-177930518D01*
X244701641Y-177834264D01*
X244678201Y-177824555D01*
X244555562Y-177773756D01*
X244555560Y-177773755D01*
X244398801Y-177753118D01*
X244398799Y-177753118D01*
X244242039Y-177773755D01*
X244242037Y-177773756D01*
X244095960Y-177834263D01*
X243970518Y-177930518D01*
X243874263Y-178055960D01*
X243813756Y-178202037D01*
X243813755Y-178202039D01*
X243793118Y-178358798D01*
X243793118Y-178358801D01*
X238495394Y-178358801D01*
X238481444Y-178252838D01*
X238420936Y-178106759D01*
X238324682Y-177981318D01*
X238199241Y-177885064D01*
X238175801Y-177875355D01*
X238053162Y-177824556D01*
X238053160Y-177824555D01*
X237896401Y-177803918D01*
X237896399Y-177803918D01*
X237739639Y-177824555D01*
X237739637Y-177824556D01*
X237593560Y-177885063D01*
X237468118Y-177981318D01*
X237371863Y-178106760D01*
X237311356Y-178252837D01*
X237311355Y-178252839D01*
X237290718Y-178409598D01*
X237290718Y-178409601D01*
X231992994Y-178409601D01*
X231979044Y-178303638D01*
X231918536Y-178157559D01*
X231822282Y-178032118D01*
X231696841Y-177935864D01*
X231671733Y-177925464D01*
X231550762Y-177875356D01*
X231550760Y-177875355D01*
X231394001Y-177854718D01*
X231393999Y-177854718D01*
X231237239Y-177875355D01*
X231237237Y-177875356D01*
X231091160Y-177935863D01*
X230965718Y-178032118D01*
X230869463Y-178157560D01*
X230808956Y-178303637D01*
X230808955Y-178303639D01*
X230788318Y-178460398D01*
X230788318Y-178460401D01*
X225355809Y-178460401D01*
X225314536Y-178360759D01*
X225218282Y-178235318D01*
X225092841Y-178139064D01*
X225070188Y-178129681D01*
X224946762Y-178078556D01*
X224946760Y-178078555D01*
X224790001Y-178057918D01*
X224789999Y-178057918D01*
X224633239Y-178078555D01*
X224633237Y-178078556D01*
X224487160Y-178139063D01*
X224361718Y-178235318D01*
X224265463Y-178360760D01*
X224204956Y-178506837D01*
X224204955Y-178506839D01*
X224184318Y-178663598D01*
X224184318Y-178663601D01*
X220105683Y-178663601D01*
X220117322Y-178538000D01*
X220114434Y-178506839D01*
X220109168Y-178450001D01*
X220098076Y-178330304D01*
X220040994Y-178129681D01*
X219948019Y-177942962D01*
X219822318Y-177776507D01*
X219796661Y-177753118D01*
X219668172Y-177635985D01*
X219668171Y-177635984D01*
X219490828Y-177526177D01*
X219490827Y-177526176D01*
X219348609Y-177471081D01*
X219296327Y-177450827D01*
X219091293Y-177412500D01*
X218882707Y-177412500D01*
X218677673Y-177450827D01*
X218677670Y-177450827D01*
X218677670Y-177450828D01*
X218483172Y-177526176D01*
X218483171Y-177526177D01*
X218305827Y-177635985D01*
X218151683Y-177776505D01*
X218025981Y-177942961D01*
X217933007Y-178129677D01*
X217930336Y-178139064D01*
X217886471Y-178293237D01*
X217875923Y-178330308D01*
X217856678Y-178537999D01*
X217856678Y-178538000D01*
X212844097Y-178538000D01*
X212855682Y-178450000D01*
X212850363Y-178409601D01*
X212835044Y-178293239D01*
X212835044Y-178293238D01*
X212774536Y-178147159D01*
X212678282Y-178021718D01*
X212552841Y-177925464D01*
X212505522Y-177905864D01*
X212406762Y-177864956D01*
X212406760Y-177864955D01*
X212250001Y-177844318D01*
X212249999Y-177844318D01*
X212093239Y-177864955D01*
X212093237Y-177864956D01*
X211947160Y-177925463D01*
X211821718Y-178021718D01*
X211725463Y-178147160D01*
X211664956Y-178293237D01*
X211664955Y-178293239D01*
X211644318Y-178449998D01*
X211644318Y-178450001D01*
X204869168Y-178450001D01*
X204858076Y-178330304D01*
X204800994Y-178129681D01*
X204708019Y-177942962D01*
X204582318Y-177776507D01*
X204556661Y-177753118D01*
X204428172Y-177635985D01*
X204428171Y-177635984D01*
X204250828Y-177526177D01*
X204250827Y-177526176D01*
X204108609Y-177471081D01*
X204056327Y-177450827D01*
X203851293Y-177412500D01*
X203642707Y-177412500D01*
X203437673Y-177450827D01*
X203437670Y-177450827D01*
X203437670Y-177450828D01*
X203243172Y-177526176D01*
X203243171Y-177526177D01*
X203065827Y-177635985D01*
X202911683Y-177776505D01*
X202785981Y-177942961D01*
X202693007Y-178129677D01*
X202690336Y-178139064D01*
X202646471Y-178293237D01*
X202635923Y-178330308D01*
X202616678Y-178537999D01*
X202616678Y-178538000D01*
X202250000Y-178538000D01*
X202250000Y-175998000D01*
X202616678Y-175998000D01*
X202635923Y-176205691D01*
X202635923Y-176205693D01*
X202635924Y-176205696D01*
X202693006Y-176406319D01*
X202785981Y-176593038D01*
X202911682Y-176759493D01*
X203065829Y-176900016D01*
X203243172Y-177009823D01*
X203437673Y-177085173D01*
X203642707Y-177123500D01*
X203642710Y-177123500D01*
X203851290Y-177123500D01*
X203851293Y-177123500D01*
X204056327Y-177085173D01*
X204250828Y-177009823D01*
X204428171Y-176900016D01*
X204582318Y-176759493D01*
X204708019Y-176593038D01*
X204800994Y-176406319D01*
X204858076Y-176205696D01*
X204877322Y-175998000D01*
X217856678Y-175998000D01*
X217875923Y-176205691D01*
X217875923Y-176205693D01*
X217875924Y-176205696D01*
X217933006Y-176406319D01*
X218025981Y-176593038D01*
X218151682Y-176759493D01*
X218305829Y-176900016D01*
X218483172Y-177009823D01*
X218677673Y-177085173D01*
X218882707Y-177123500D01*
X218882710Y-177123500D01*
X219091290Y-177123500D01*
X219091293Y-177123500D01*
X219296327Y-177085173D01*
X219490828Y-177009823D01*
X219668171Y-176900016D01*
X219822318Y-176759493D01*
X219948019Y-176593038D01*
X220040994Y-176406319D01*
X220098076Y-176205696D01*
X220117322Y-175998000D01*
X220098076Y-175790304D01*
X220040994Y-175589681D01*
X219948019Y-175402962D01*
X219822318Y-175236507D01*
X219668171Y-175095984D01*
X219490828Y-174986177D01*
X219490827Y-174986176D01*
X219341381Y-174928281D01*
X219296327Y-174910827D01*
X219091293Y-174872500D01*
X218882707Y-174872500D01*
X218677673Y-174910827D01*
X218677670Y-174910827D01*
X218677670Y-174910828D01*
X218483172Y-174986176D01*
X218483171Y-174986177D01*
X218305827Y-175095985D01*
X218151683Y-175236505D01*
X218025981Y-175402961D01*
X217933007Y-175589677D01*
X217875923Y-175790308D01*
X217856678Y-175997999D01*
X217856678Y-175998000D01*
X204877322Y-175998000D01*
X204858076Y-175790304D01*
X204800994Y-175589681D01*
X204708019Y-175402962D01*
X204582318Y-175236507D01*
X204428171Y-175095984D01*
X204250828Y-174986177D01*
X204250827Y-174986176D01*
X204101381Y-174928281D01*
X204056327Y-174910827D01*
X203851293Y-174872500D01*
X203642707Y-174872500D01*
X203437673Y-174910827D01*
X203437670Y-174910827D01*
X203437670Y-174910828D01*
X203243172Y-174986176D01*
X203243171Y-174986177D01*
X203065827Y-175095985D01*
X202911683Y-175236505D01*
X202785981Y-175402961D01*
X202693007Y-175589677D01*
X202635923Y-175790308D01*
X202616678Y-175997999D01*
X202616678Y-175998000D01*
X202250000Y-175998000D01*
X202250000Y-174750001D01*
X228144318Y-174750001D01*
X228164955Y-174906760D01*
X228164956Y-174906762D01*
X228225464Y-175052841D01*
X228321718Y-175178282D01*
X228447159Y-175274536D01*
X228593238Y-175335044D01*
X228671618Y-175345362D01*
X228749999Y-175355682D01*
X228750000Y-175355682D01*
X228750001Y-175355682D01*
X228802253Y-175348802D01*
X228906762Y-175335044D01*
X229052841Y-175274536D01*
X229178282Y-175178282D01*
X229274536Y-175052841D01*
X229335044Y-174906762D01*
X229355682Y-174750000D01*
X229335044Y-174593238D01*
X229296424Y-174500001D01*
X234644318Y-174500001D01*
X234664955Y-174656760D01*
X234664956Y-174656762D01*
X234703576Y-174750000D01*
X234725464Y-174802841D01*
X234821718Y-174928282D01*
X234947159Y-175024536D01*
X235093238Y-175085044D01*
X235171619Y-175095362D01*
X235249999Y-175105682D01*
X235250000Y-175105682D01*
X235250001Y-175105682D01*
X235323664Y-175095984D01*
X235406762Y-175085044D01*
X235552841Y-175024536D01*
X235678282Y-174928282D01*
X235774536Y-174802841D01*
X235835044Y-174656762D01*
X235855682Y-174500000D01*
X235848725Y-174447159D01*
X235835044Y-174343239D01*
X235835044Y-174343238D01*
X235796424Y-174250001D01*
X241394318Y-174250001D01*
X241414955Y-174406760D01*
X241414956Y-174406762D01*
X241453576Y-174500000D01*
X241475464Y-174552841D01*
X241571718Y-174678282D01*
X241697159Y-174774536D01*
X241843238Y-174835044D01*
X241921618Y-174845362D01*
X241999999Y-174855682D01*
X242000000Y-174855682D01*
X242000001Y-174855682D01*
X242052253Y-174848802D01*
X242156762Y-174835044D01*
X242302841Y-174774536D01*
X242428282Y-174678282D01*
X242524536Y-174552841D01*
X242546423Y-174500001D01*
X247644318Y-174500001D01*
X247664955Y-174656760D01*
X247664956Y-174656762D01*
X247703576Y-174750000D01*
X247725464Y-174802841D01*
X247821718Y-174928282D01*
X247947159Y-175024536D01*
X248093238Y-175085044D01*
X248171618Y-175095362D01*
X248249999Y-175105682D01*
X248250000Y-175105682D01*
X248250001Y-175105682D01*
X248323664Y-175095984D01*
X248406762Y-175085044D01*
X248552841Y-175024536D01*
X248678282Y-174928282D01*
X248774536Y-174802841D01*
X248835044Y-174656762D01*
X248855682Y-174500000D01*
X248848725Y-174447159D01*
X248835044Y-174343239D01*
X248835044Y-174343238D01*
X248774536Y-174197159D01*
X248678282Y-174071718D01*
X248552841Y-173975464D01*
X248406762Y-173914956D01*
X248406760Y-173914955D01*
X248250001Y-173894318D01*
X248249999Y-173894318D01*
X248093239Y-173914955D01*
X248093237Y-173914956D01*
X247947160Y-173975463D01*
X247821718Y-174071718D01*
X247725463Y-174197160D01*
X247664956Y-174343237D01*
X247664955Y-174343239D01*
X247644318Y-174499998D01*
X247644318Y-174500001D01*
X242546423Y-174500001D01*
X242585044Y-174406762D01*
X242605682Y-174250000D01*
X242598725Y-174197159D01*
X242585044Y-174093239D01*
X242585044Y-174093238D01*
X242524536Y-173947159D01*
X242428282Y-173821718D01*
X242302841Y-173725464D01*
X242156762Y-173664956D01*
X242156760Y-173664955D01*
X242000001Y-173644318D01*
X241999999Y-173644318D01*
X241843239Y-173664955D01*
X241843237Y-173664956D01*
X241697160Y-173725463D01*
X241571718Y-173821718D01*
X241475463Y-173947160D01*
X241414956Y-174093237D01*
X241414955Y-174093239D01*
X241394318Y-174249998D01*
X241394318Y-174250001D01*
X235796424Y-174250001D01*
X235774536Y-174197159D01*
X235678282Y-174071718D01*
X235552841Y-173975464D01*
X235406762Y-173914956D01*
X235406760Y-173914955D01*
X235250001Y-173894318D01*
X235249999Y-173894318D01*
X235093239Y-173914955D01*
X235093237Y-173914956D01*
X234947160Y-173975463D01*
X234821718Y-174071718D01*
X234725463Y-174197160D01*
X234664956Y-174343237D01*
X234664955Y-174343239D01*
X234644318Y-174499998D01*
X234644318Y-174500001D01*
X229296424Y-174500001D01*
X229274536Y-174447159D01*
X229178282Y-174321718D01*
X229052841Y-174225464D01*
X229038428Y-174219494D01*
X228906762Y-174164956D01*
X228906760Y-174164955D01*
X228750001Y-174144318D01*
X228749999Y-174144318D01*
X228593239Y-174164955D01*
X228593237Y-174164956D01*
X228447160Y-174225463D01*
X228321718Y-174321718D01*
X228225463Y-174447160D01*
X228164956Y-174593237D01*
X228164955Y-174593239D01*
X228144318Y-174749998D01*
X228144318Y-174750001D01*
X202250000Y-174750001D01*
X202250000Y-173458000D01*
X202616678Y-173458000D01*
X202635923Y-173665691D01*
X202635923Y-173665693D01*
X202635924Y-173665696D01*
X202693006Y-173866319D01*
X202693007Y-173866322D01*
X202733260Y-173947160D01*
X202785981Y-174053038D01*
X202854912Y-174144318D01*
X202911683Y-174219494D01*
X202945147Y-174250000D01*
X203065829Y-174360016D01*
X203243172Y-174469823D01*
X203437673Y-174545173D01*
X203642707Y-174583500D01*
X203642710Y-174583500D01*
X203851290Y-174583500D01*
X203851293Y-174583500D01*
X204056327Y-174545173D01*
X204250828Y-174469823D01*
X204428171Y-174360016D01*
X204582318Y-174219493D01*
X204708019Y-174053038D01*
X204800994Y-173866319D01*
X204858076Y-173665696D01*
X204877322Y-173458000D01*
X204858076Y-173250304D01*
X204800994Y-173049681D01*
X204708019Y-172862962D01*
X204582318Y-172696507D01*
X204540550Y-172658431D01*
X204428172Y-172555985D01*
X204428171Y-172555984D01*
X204250828Y-172446177D01*
X204250827Y-172446176D01*
X204108609Y-172391081D01*
X204056327Y-172370827D01*
X203851293Y-172332500D01*
X203642707Y-172332500D01*
X203437673Y-172370827D01*
X203437670Y-172370827D01*
X203437670Y-172370828D01*
X203243172Y-172446176D01*
X203243171Y-172446177D01*
X203065827Y-172555985D01*
X202911683Y-172696505D01*
X202785981Y-172862961D01*
X202693007Y-173049677D01*
X202635923Y-173250308D01*
X202616678Y-173457999D01*
X202616678Y-173458000D01*
X202250000Y-173458000D01*
X202250000Y-165286644D01*
X244572800Y-165286644D01*
X244579201Y-165346172D01*
X244579203Y-165346179D01*
X244629445Y-165480886D01*
X244629449Y-165480893D01*
X244715609Y-165595987D01*
X244715612Y-165595990D01*
X244830706Y-165682150D01*
X244830713Y-165682154D01*
X244965420Y-165732396D01*
X244965427Y-165732398D01*
X245024955Y-165738799D01*
X245024972Y-165738800D01*
X245672800Y-165738800D01*
X245672800Y-164824301D01*
X245780485Y-164873480D01*
X245887037Y-164888800D01*
X245958563Y-164888800D01*
X246065115Y-164873480D01*
X246172799Y-164824301D01*
X246172800Y-165738800D01*
X246820628Y-165738800D01*
X246820644Y-165738799D01*
X246880172Y-165732398D01*
X246880179Y-165732396D01*
X247014886Y-165682154D01*
X247014893Y-165682150D01*
X247129987Y-165595990D01*
X247129990Y-165595987D01*
X247216150Y-165480893D01*
X247216154Y-165480886D01*
X247266396Y-165346179D01*
X247266398Y-165346172D01*
X247272799Y-165286644D01*
X247272799Y-164995112D01*
X247292483Y-164928073D01*
X247345287Y-164882318D01*
X247414446Y-164872374D01*
X247478001Y-164901399D01*
X247507798Y-164939838D01*
X247523127Y-164970621D01*
X247646037Y-165133381D01*
X247796758Y-165270780D01*
X247796760Y-165270782D01*
X247895941Y-165332192D01*
X247970163Y-165378148D01*
X248160344Y-165451824D01*
X248360824Y-165489300D01*
X248360826Y-165489300D01*
X248564774Y-165489300D01*
X248564776Y-165489300D01*
X248765256Y-165451824D01*
X248955437Y-165378148D01*
X249128841Y-165270781D01*
X249279564Y-165133379D01*
X249402473Y-164970621D01*
X249493382Y-164788050D01*
X249549197Y-164591883D01*
X249568015Y-164388800D01*
X249897585Y-164388800D01*
X249916402Y-164591882D01*
X249972217Y-164788047D01*
X249972222Y-164788060D01*
X250063127Y-164970621D01*
X250186037Y-165133381D01*
X250336758Y-165270780D01*
X250336760Y-165270782D01*
X250435941Y-165332192D01*
X250510163Y-165378148D01*
X250700344Y-165451824D01*
X250900824Y-165489300D01*
X250900826Y-165489300D01*
X251104774Y-165489300D01*
X251104776Y-165489300D01*
X251305256Y-165451824D01*
X251495437Y-165378148D01*
X251668841Y-165270781D01*
X251819564Y-165133379D01*
X251942473Y-164970621D01*
X252033382Y-164788050D01*
X252089197Y-164591883D01*
X252108015Y-164388800D01*
X252089197Y-164185717D01*
X252033382Y-163989550D01*
X251942473Y-163806979D01*
X251819564Y-163644221D01*
X251819562Y-163644218D01*
X251668841Y-163506819D01*
X251668839Y-163506817D01*
X251495442Y-163399455D01*
X251495435Y-163399451D01*
X251400346Y-163362614D01*
X251305256Y-163325776D01*
X251104776Y-163288300D01*
X250900824Y-163288300D01*
X250700344Y-163325776D01*
X250700341Y-163325776D01*
X250700341Y-163325777D01*
X250510164Y-163399451D01*
X250510157Y-163399455D01*
X250336760Y-163506817D01*
X250336758Y-163506819D01*
X250186037Y-163644218D01*
X250063127Y-163806978D01*
X249972222Y-163989539D01*
X249972217Y-163989552D01*
X249916402Y-164185717D01*
X249897585Y-164388799D01*
X249897585Y-164388800D01*
X249568015Y-164388800D01*
X249549197Y-164185717D01*
X249493382Y-163989550D01*
X249402473Y-163806979D01*
X249279564Y-163644221D01*
X249279562Y-163644218D01*
X249128841Y-163506819D01*
X249128839Y-163506817D01*
X248955442Y-163399455D01*
X248955435Y-163399451D01*
X248860346Y-163362614D01*
X248765256Y-163325776D01*
X248564776Y-163288300D01*
X248360824Y-163288300D01*
X248160344Y-163325776D01*
X248160341Y-163325776D01*
X248160341Y-163325777D01*
X247970164Y-163399451D01*
X247970157Y-163399455D01*
X247796760Y-163506817D01*
X247796758Y-163506819D01*
X247646037Y-163644218D01*
X247523125Y-163806981D01*
X247507797Y-163837762D01*
X247460293Y-163888998D01*
X247392629Y-163906417D01*
X247326290Y-163884489D01*
X247282336Y-163830177D01*
X247272799Y-163782487D01*
X247272799Y-163490955D01*
X247266398Y-163431427D01*
X247266396Y-163431420D01*
X247216154Y-163296713D01*
X247216150Y-163296706D01*
X247129990Y-163181612D01*
X247129987Y-163181609D01*
X247014893Y-163095449D01*
X247014886Y-163095445D01*
X246880179Y-163045203D01*
X246880172Y-163045201D01*
X246820644Y-163038800D01*
X246527188Y-163038800D01*
X246460149Y-163019115D01*
X246414394Y-162966311D01*
X246404450Y-162897153D01*
X246433475Y-162833597D01*
X246461911Y-162809373D01*
X246588839Y-162730782D01*
X246588838Y-162730782D01*
X246588841Y-162730781D01*
X246739564Y-162593379D01*
X246862473Y-162430621D01*
X246953382Y-162248050D01*
X247009197Y-162051883D01*
X247028015Y-161848800D01*
X247357585Y-161848800D01*
X247376402Y-162051882D01*
X247432217Y-162248047D01*
X247432222Y-162248060D01*
X247523127Y-162430621D01*
X247646037Y-162593381D01*
X247796758Y-162730780D01*
X247796760Y-162730782D01*
X247895941Y-162792192D01*
X247970163Y-162838148D01*
X248160344Y-162911824D01*
X248360824Y-162949300D01*
X248360826Y-162949300D01*
X248564774Y-162949300D01*
X248564776Y-162949300D01*
X248765256Y-162911824D01*
X248955437Y-162838148D01*
X249128841Y-162730781D01*
X249279564Y-162593379D01*
X249402473Y-162430621D01*
X249493382Y-162248050D01*
X249549197Y-162051883D01*
X249568015Y-161848800D01*
X249897585Y-161848800D01*
X249916402Y-162051882D01*
X249972217Y-162248047D01*
X249972222Y-162248060D01*
X250063127Y-162430621D01*
X250186037Y-162593381D01*
X250336758Y-162730780D01*
X250336760Y-162730782D01*
X250435941Y-162792192D01*
X250510163Y-162838148D01*
X250700344Y-162911824D01*
X250900824Y-162949300D01*
X250900826Y-162949300D01*
X251104774Y-162949300D01*
X251104776Y-162949300D01*
X251305256Y-162911824D01*
X251495437Y-162838148D01*
X251668841Y-162730781D01*
X251819564Y-162593379D01*
X251942473Y-162430621D01*
X252033382Y-162248050D01*
X252089197Y-162051883D01*
X252108015Y-161848800D01*
X252089197Y-161645717D01*
X252033382Y-161449550D01*
X251942473Y-161266979D01*
X251819564Y-161104221D01*
X251819562Y-161104218D01*
X251668841Y-160966819D01*
X251668839Y-160966817D01*
X251495442Y-160859455D01*
X251495435Y-160859451D01*
X251400346Y-160822614D01*
X251305256Y-160785776D01*
X251104776Y-160748300D01*
X250900824Y-160748300D01*
X250700344Y-160785776D01*
X250700341Y-160785776D01*
X250700341Y-160785777D01*
X250510164Y-160859451D01*
X250510157Y-160859455D01*
X250336760Y-160966817D01*
X250336758Y-160966819D01*
X250186037Y-161104218D01*
X250063127Y-161266978D01*
X249972222Y-161449539D01*
X249972217Y-161449552D01*
X249916402Y-161645717D01*
X249897585Y-161848799D01*
X249897585Y-161848800D01*
X249568015Y-161848800D01*
X249549197Y-161645717D01*
X249493382Y-161449550D01*
X249402473Y-161266979D01*
X249279564Y-161104221D01*
X249279562Y-161104218D01*
X249128841Y-160966819D01*
X249128839Y-160966817D01*
X248955442Y-160859455D01*
X248955435Y-160859451D01*
X248860346Y-160822614D01*
X248765256Y-160785776D01*
X248564776Y-160748300D01*
X248360824Y-160748300D01*
X248160344Y-160785776D01*
X248160341Y-160785776D01*
X248160341Y-160785777D01*
X247970164Y-160859451D01*
X247970157Y-160859455D01*
X247796760Y-160966817D01*
X247796758Y-160966819D01*
X247646037Y-161104218D01*
X247523127Y-161266978D01*
X247432222Y-161449539D01*
X247432217Y-161449552D01*
X247376402Y-161645717D01*
X247357585Y-161848799D01*
X247357585Y-161848800D01*
X247028015Y-161848800D01*
X247009197Y-161645717D01*
X246953382Y-161449550D01*
X246862473Y-161266979D01*
X246739564Y-161104221D01*
X246739562Y-161104218D01*
X246588841Y-160966819D01*
X246588839Y-160966817D01*
X246415442Y-160859455D01*
X246415435Y-160859451D01*
X246320346Y-160822614D01*
X246225256Y-160785776D01*
X246024776Y-160748300D01*
X245820824Y-160748300D01*
X245620344Y-160785776D01*
X245620341Y-160785776D01*
X245620341Y-160785777D01*
X245430164Y-160859451D01*
X245430157Y-160859455D01*
X245256760Y-160966817D01*
X245256758Y-160966819D01*
X245106037Y-161104218D01*
X244983127Y-161266978D01*
X244892222Y-161449539D01*
X244892217Y-161449552D01*
X244836402Y-161645717D01*
X244817585Y-161848799D01*
X244817585Y-161848800D01*
X244836402Y-162051882D01*
X244892217Y-162248047D01*
X244892222Y-162248060D01*
X244983127Y-162430621D01*
X245106037Y-162593381D01*
X245256758Y-162730780D01*
X245256760Y-162730782D01*
X245383689Y-162809373D01*
X245430325Y-162861401D01*
X245441429Y-162930383D01*
X245413476Y-162994417D01*
X245355341Y-163033173D01*
X245318412Y-163038800D01*
X245024955Y-163038800D01*
X244965427Y-163045201D01*
X244965420Y-163045203D01*
X244830713Y-163095445D01*
X244830706Y-163095449D01*
X244715612Y-163181609D01*
X244715609Y-163181612D01*
X244629449Y-163296706D01*
X244629445Y-163296713D01*
X244579203Y-163431420D01*
X244579201Y-163431427D01*
X244572800Y-163490955D01*
X244572800Y-164138800D01*
X245489114Y-164138800D01*
X245463307Y-164178956D01*
X245422800Y-164316911D01*
X245422800Y-164460689D01*
X245463307Y-164598644D01*
X245489114Y-164638800D01*
X244572800Y-164638800D01*
X244572800Y-165286644D01*
X202250000Y-165286644D01*
X202250000Y-161848801D01*
X211585918Y-161848801D01*
X211606555Y-162005560D01*
X211606556Y-162005562D01*
X211667064Y-162151641D01*
X211763318Y-162277082D01*
X211888759Y-162373336D01*
X212034838Y-162433844D01*
X212113218Y-162444162D01*
X212191599Y-162454482D01*
X212191600Y-162454482D01*
X212191601Y-162454482D01*
X212243853Y-162447602D01*
X212348362Y-162433844D01*
X212494441Y-162373336D01*
X212619882Y-162277082D01*
X212716136Y-162151641D01*
X212776644Y-162005562D01*
X212797282Y-161848800D01*
X212776644Y-161692038D01*
X212716136Y-161545959D01*
X212619882Y-161420518D01*
X212494441Y-161324264D01*
X212348362Y-161263756D01*
X212348360Y-161263755D01*
X212191601Y-161243118D01*
X212191599Y-161243118D01*
X212034839Y-161263755D01*
X212034837Y-161263756D01*
X211888760Y-161324263D01*
X211763318Y-161420518D01*
X211667063Y-161545960D01*
X211606556Y-161692037D01*
X211606555Y-161692039D01*
X211585918Y-161848798D01*
X211585918Y-161848801D01*
X202250000Y-161848801D01*
X202250000Y-161188401D01*
X240795918Y-161188401D01*
X240816555Y-161345160D01*
X240816556Y-161345162D01*
X240847769Y-161420518D01*
X240877064Y-161491241D01*
X240973318Y-161616682D01*
X241098759Y-161712936D01*
X241244838Y-161773444D01*
X241323218Y-161783762D01*
X241401599Y-161794082D01*
X241401600Y-161794082D01*
X241401601Y-161794082D01*
X241453854Y-161787202D01*
X241558362Y-161773444D01*
X241704441Y-161712936D01*
X241829882Y-161616682D01*
X241926136Y-161491241D01*
X241986644Y-161345162D01*
X242007282Y-161188400D01*
X241986644Y-161031638D01*
X241926136Y-160885559D01*
X241829882Y-160760118D01*
X241704441Y-160663864D01*
X241558362Y-160603356D01*
X241558360Y-160603355D01*
X241401601Y-160582718D01*
X241401599Y-160582718D01*
X241244839Y-160603355D01*
X241244837Y-160603356D01*
X241098760Y-160663863D01*
X240973318Y-160760118D01*
X240877063Y-160885560D01*
X240816556Y-161031637D01*
X240816555Y-161031639D01*
X240795918Y-161188398D01*
X240795918Y-161188401D01*
X202250000Y-161188401D01*
X202250000Y-160070801D01*
X239525918Y-160070801D01*
X239546555Y-160227560D01*
X239546556Y-160227562D01*
X239607064Y-160373641D01*
X239703318Y-160499082D01*
X239828759Y-160595336D01*
X239974838Y-160655844D01*
X240035749Y-160663863D01*
X240131599Y-160676482D01*
X240131600Y-160676482D01*
X240131601Y-160676482D01*
X240183853Y-160669602D01*
X240288362Y-160655844D01*
X240434441Y-160595336D01*
X240559882Y-160499082D01*
X240656136Y-160373641D01*
X240716644Y-160227562D01*
X240737282Y-160070800D01*
X240716644Y-159914038D01*
X240656136Y-159767959D01*
X240559882Y-159642518D01*
X240434441Y-159546264D01*
X240288362Y-159485756D01*
X240288360Y-159485755D01*
X240131601Y-159465118D01*
X240131599Y-159465118D01*
X239974839Y-159485755D01*
X239974837Y-159485756D01*
X239828760Y-159546263D01*
X239703318Y-159642518D01*
X239607063Y-159767960D01*
X239546556Y-159914037D01*
X239546555Y-159914039D01*
X239525918Y-160070798D01*
X239525918Y-160070801D01*
X202250000Y-160070801D01*
X202250000Y-159999999D01*
X200473385Y-158038801D01*
X228197518Y-158038801D01*
X228218155Y-158195560D01*
X228218156Y-158195562D01*
X228278664Y-158341641D01*
X228374918Y-158467082D01*
X228500359Y-158563336D01*
X228646438Y-158623844D01*
X228724818Y-158634162D01*
X228803199Y-158644482D01*
X228803200Y-158644482D01*
X228803201Y-158644482D01*
X228855453Y-158637602D01*
X228959962Y-158623844D01*
X229106041Y-158563336D01*
X229231482Y-158467082D01*
X229327736Y-158341641D01*
X229388244Y-158195562D01*
X229408882Y-158038800D01*
X229388244Y-157882038D01*
X229327736Y-157735959D01*
X229231482Y-157610518D01*
X229106041Y-157514264D01*
X229014291Y-157476260D01*
X228959962Y-157453756D01*
X228959960Y-157453755D01*
X228803201Y-157433118D01*
X228803199Y-157433118D01*
X228646439Y-157453755D01*
X228646437Y-157453756D01*
X228500360Y-157514263D01*
X228374918Y-157610518D01*
X228278663Y-157735960D01*
X228218156Y-157882037D01*
X228218155Y-157882039D01*
X228197518Y-158038798D01*
X228197518Y-158038801D01*
X200473385Y-158038801D01*
X199230876Y-156667200D01*
X202856785Y-156667200D01*
X202875602Y-156870282D01*
X202931417Y-157066447D01*
X202931422Y-157066460D01*
X203022327Y-157249021D01*
X203145237Y-157411781D01*
X203295958Y-157549180D01*
X203295960Y-157549182D01*
X203395022Y-157610518D01*
X203469363Y-157656548D01*
X203659544Y-157730224D01*
X203860024Y-157767700D01*
X203860026Y-157767700D01*
X204063974Y-157767700D01*
X204063976Y-157767700D01*
X204264456Y-157730224D01*
X204454637Y-157656548D01*
X204628041Y-157549181D01*
X204778764Y-157411779D01*
X204901673Y-157249021D01*
X204992582Y-157066450D01*
X205048397Y-156870283D01*
X205067215Y-156667200D01*
X205396785Y-156667200D01*
X205415602Y-156870282D01*
X205471417Y-157066447D01*
X205471422Y-157066460D01*
X205562327Y-157249021D01*
X205685237Y-157411781D01*
X205835958Y-157549180D01*
X205835960Y-157549182D01*
X205935022Y-157610518D01*
X206009363Y-157656548D01*
X206199544Y-157730224D01*
X206400024Y-157767700D01*
X206400026Y-157767700D01*
X206603974Y-157767700D01*
X206603976Y-157767700D01*
X206804456Y-157730224D01*
X206994637Y-157656548D01*
X207168041Y-157549181D01*
X207318764Y-157411779D01*
X207388449Y-157319501D01*
X219307518Y-157319501D01*
X219328155Y-157476260D01*
X219328156Y-157476262D01*
X219358360Y-157549182D01*
X219388664Y-157622341D01*
X219484918Y-157747782D01*
X219610359Y-157844036D01*
X219756438Y-157904544D01*
X219834819Y-157914862D01*
X219913199Y-157925182D01*
X219913200Y-157925182D01*
X219913201Y-157925182D01*
X219965454Y-157918302D01*
X220069962Y-157904544D01*
X220216041Y-157844036D01*
X220341482Y-157747782D01*
X220437736Y-157622341D01*
X220498244Y-157476262D01*
X220518882Y-157319500D01*
X220498244Y-157162738D01*
X220437736Y-157016659D01*
X220341482Y-156891218D01*
X220216041Y-156794964D01*
X220069962Y-156734456D01*
X220069960Y-156734455D01*
X219913201Y-156713818D01*
X219913199Y-156713818D01*
X219756439Y-156734455D01*
X219756437Y-156734456D01*
X219610360Y-156794963D01*
X219484918Y-156891218D01*
X219388663Y-157016660D01*
X219328156Y-157162737D01*
X219328155Y-157162739D01*
X219307518Y-157319498D01*
X219307518Y-157319501D01*
X207388449Y-157319501D01*
X207441673Y-157249021D01*
X207532582Y-157066450D01*
X207588397Y-156870283D01*
X207607215Y-156667200D01*
X207588397Y-156464117D01*
X207532582Y-156267950D01*
X207523645Y-156250001D01*
X253394318Y-156250001D01*
X253414955Y-156406760D01*
X253414956Y-156406762D01*
X253475464Y-156552841D01*
X253571718Y-156678282D01*
X253697159Y-156774536D01*
X253843238Y-156835044D01*
X253921618Y-156845362D01*
X253999999Y-156855682D01*
X254000000Y-156855682D01*
X254000001Y-156855682D01*
X254052254Y-156848802D01*
X254156762Y-156835044D01*
X254302841Y-156774536D01*
X254428282Y-156678282D01*
X254524536Y-156552841D01*
X254585044Y-156406762D01*
X254605682Y-156250000D01*
X254585044Y-156093238D01*
X254524536Y-155947159D01*
X254428282Y-155821718D01*
X254302841Y-155725464D01*
X254156762Y-155664956D01*
X254156760Y-155664955D01*
X254000001Y-155644318D01*
X253999999Y-155644318D01*
X253843239Y-155664955D01*
X253843237Y-155664956D01*
X253697160Y-155725463D01*
X253571718Y-155821718D01*
X253475463Y-155947160D01*
X253414956Y-156093237D01*
X253414955Y-156093239D01*
X253394318Y-156249998D01*
X253394318Y-156250001D01*
X207523645Y-156250001D01*
X207441673Y-156085379D01*
X207318764Y-155922621D01*
X207318762Y-155922618D01*
X207168041Y-155785219D01*
X207168039Y-155785217D01*
X206994642Y-155677855D01*
X206994635Y-155677851D01*
X206899546Y-155641014D01*
X206804456Y-155604176D01*
X206603976Y-155566700D01*
X206400024Y-155566700D01*
X206199544Y-155604176D01*
X206199541Y-155604176D01*
X206199541Y-155604177D01*
X206009364Y-155677851D01*
X206009357Y-155677855D01*
X205835960Y-155785217D01*
X205835958Y-155785219D01*
X205685237Y-155922618D01*
X205562327Y-156085378D01*
X205471422Y-156267939D01*
X205471417Y-156267952D01*
X205415602Y-156464117D01*
X205396785Y-156667199D01*
X205396785Y-156667200D01*
X205067215Y-156667200D01*
X205048397Y-156464117D01*
X204992582Y-156267950D01*
X204901673Y-156085379D01*
X204778764Y-155922621D01*
X204778762Y-155922618D01*
X204628041Y-155785219D01*
X204628039Y-155785217D01*
X204454642Y-155677855D01*
X204454635Y-155677851D01*
X204359546Y-155641014D01*
X204264456Y-155604176D01*
X204063976Y-155566700D01*
X203860024Y-155566700D01*
X203659544Y-155604176D01*
X203659541Y-155604176D01*
X203659541Y-155604177D01*
X203469364Y-155677851D01*
X203469357Y-155677855D01*
X203295960Y-155785217D01*
X203295958Y-155785219D01*
X203145237Y-155922618D01*
X203022327Y-156085378D01*
X202931422Y-156267939D01*
X202931417Y-156267952D01*
X202875602Y-156464117D01*
X202856785Y-156667199D01*
X202856785Y-156667200D01*
X199230876Y-156667200D01*
X198080406Y-155397201D01*
X233887118Y-155397201D01*
X233907755Y-155553960D01*
X233907756Y-155553962D01*
X233959072Y-155677851D01*
X233968264Y-155700041D01*
X234064518Y-155825482D01*
X234189959Y-155921736D01*
X234336038Y-155982244D01*
X234414418Y-155992562D01*
X234492799Y-156002882D01*
X234492800Y-156002882D01*
X234492801Y-156002882D01*
X234545053Y-155996002D01*
X234649562Y-155982244D01*
X234795641Y-155921736D01*
X234921082Y-155825482D01*
X235017336Y-155700041D01*
X235077844Y-155553962D01*
X235098482Y-155397200D01*
X235077844Y-155240438D01*
X235017336Y-155094359D01*
X234921082Y-154968918D01*
X234795641Y-154872664D01*
X234793509Y-154871781D01*
X234649562Y-154812156D01*
X234649560Y-154812155D01*
X234492801Y-154791518D01*
X234492799Y-154791518D01*
X234336039Y-154812155D01*
X234336037Y-154812156D01*
X234189960Y-154872663D01*
X234064518Y-154968918D01*
X233968263Y-155094360D01*
X233907756Y-155240437D01*
X233907755Y-155240439D01*
X233887118Y-155397198D01*
X233887118Y-155397201D01*
X198080406Y-155397201D01*
X196929935Y-154127200D01*
X202856785Y-154127200D01*
X202875602Y-154330282D01*
X202931417Y-154526447D01*
X202931422Y-154526460D01*
X203022327Y-154709021D01*
X203145237Y-154871781D01*
X203295958Y-155009180D01*
X203295960Y-155009182D01*
X203383657Y-155063481D01*
X203469363Y-155116548D01*
X203659544Y-155190224D01*
X203860024Y-155227700D01*
X203860026Y-155227700D01*
X204063974Y-155227700D01*
X204063976Y-155227700D01*
X204264456Y-155190224D01*
X204454637Y-155116548D01*
X204628041Y-155009181D01*
X204778764Y-154871779D01*
X204901673Y-154709021D01*
X204992582Y-154526450D01*
X205048397Y-154330283D01*
X205067215Y-154127200D01*
X205396785Y-154127200D01*
X205415602Y-154330282D01*
X205471417Y-154526447D01*
X205471422Y-154526460D01*
X205562327Y-154709021D01*
X205685237Y-154871781D01*
X205835958Y-155009180D01*
X205835960Y-155009182D01*
X205923657Y-155063481D01*
X206009363Y-155116548D01*
X206199544Y-155190224D01*
X206400024Y-155227700D01*
X206400026Y-155227700D01*
X206603974Y-155227700D01*
X206603976Y-155227700D01*
X206804456Y-155190224D01*
X206994637Y-155116548D01*
X207168041Y-155009181D01*
X207318764Y-154871779D01*
X207441673Y-154709021D01*
X207478431Y-154635201D01*
X217326318Y-154635201D01*
X217346955Y-154791960D01*
X217346956Y-154791962D01*
X217400819Y-154922000D01*
X217407464Y-154938041D01*
X217503718Y-155063482D01*
X217629159Y-155159736D01*
X217775238Y-155220244D01*
X217853618Y-155230562D01*
X217931999Y-155240882D01*
X217932000Y-155240882D01*
X217932001Y-155240882D01*
X217984253Y-155234002D01*
X218088762Y-155220244D01*
X218234841Y-155159736D01*
X218360282Y-155063482D01*
X218456536Y-154938041D01*
X218517044Y-154791962D01*
X218524306Y-154736801D01*
X218850318Y-154736801D01*
X218870955Y-154893560D01*
X218870956Y-154893562D01*
X218918846Y-155009180D01*
X218931464Y-155039641D01*
X219027718Y-155165082D01*
X219153159Y-155261336D01*
X219299238Y-155321844D01*
X219377618Y-155332162D01*
X219455999Y-155342482D01*
X219456000Y-155342482D01*
X219456001Y-155342482D01*
X219508254Y-155335602D01*
X219612762Y-155321844D01*
X219758841Y-155261336D01*
X219884282Y-155165082D01*
X219980536Y-155039641D01*
X220041044Y-154893562D01*
X220061682Y-154736800D01*
X220041044Y-154580038D01*
X219980536Y-154433959D01*
X219884282Y-154308518D01*
X219780392Y-154228801D01*
X241608718Y-154228801D01*
X241629355Y-154385560D01*
X241629356Y-154385562D01*
X241687712Y-154526447D01*
X241689864Y-154531641D01*
X241786118Y-154657082D01*
X241911559Y-154753336D01*
X242057638Y-154813844D01*
X242136018Y-154824162D01*
X242214399Y-154834482D01*
X242214400Y-154834482D01*
X242214401Y-154834482D01*
X242266653Y-154827602D01*
X242371162Y-154813844D01*
X242517241Y-154753336D01*
X242642682Y-154657082D01*
X242738936Y-154531641D01*
X242799444Y-154385562D01*
X242820082Y-154228800D01*
X242799444Y-154072038D01*
X242738936Y-153925959D01*
X242642682Y-153800518D01*
X242517241Y-153704264D01*
X242371162Y-153643756D01*
X242371160Y-153643755D01*
X242214401Y-153623118D01*
X242214399Y-153623118D01*
X242057639Y-153643755D01*
X242057637Y-153643756D01*
X241911560Y-153704263D01*
X241786118Y-153800518D01*
X241689863Y-153925960D01*
X241629356Y-154072037D01*
X241629355Y-154072039D01*
X241608718Y-154228798D01*
X241608718Y-154228801D01*
X219780392Y-154228801D01*
X219758841Y-154212264D01*
X219612762Y-154151756D01*
X219612760Y-154151755D01*
X219456001Y-154131118D01*
X219455999Y-154131118D01*
X219299239Y-154151755D01*
X219299237Y-154151756D01*
X219153160Y-154212263D01*
X219027718Y-154308518D01*
X218931463Y-154433960D01*
X218870956Y-154580037D01*
X218870955Y-154580039D01*
X218850318Y-154736798D01*
X218850318Y-154736801D01*
X218524306Y-154736801D01*
X218537682Y-154635200D01*
X218517044Y-154478438D01*
X218456536Y-154332359D01*
X218360282Y-154206918D01*
X218234841Y-154110664D01*
X218088762Y-154050156D01*
X218088760Y-154050155D01*
X217932001Y-154029518D01*
X217931999Y-154029518D01*
X217775239Y-154050155D01*
X217775237Y-154050156D01*
X217629160Y-154110663D01*
X217503718Y-154206918D01*
X217407463Y-154332360D01*
X217346956Y-154478437D01*
X217346955Y-154478439D01*
X217326318Y-154635198D01*
X217326318Y-154635201D01*
X207478431Y-154635201D01*
X207532582Y-154526450D01*
X207588397Y-154330283D01*
X207607215Y-154127200D01*
X207588397Y-153924117D01*
X207532582Y-153727950D01*
X207520787Y-153704263D01*
X207480382Y-153623118D01*
X207441673Y-153545379D01*
X207318764Y-153382621D01*
X207318762Y-153382618D01*
X207168041Y-153245219D01*
X207168039Y-153245217D01*
X207115685Y-153212801D01*
X239424318Y-153212801D01*
X239444955Y-153369560D01*
X239444956Y-153369562D01*
X239505464Y-153515641D01*
X239601718Y-153641082D01*
X239727159Y-153737336D01*
X239873238Y-153797844D01*
X239951619Y-153808162D01*
X240029999Y-153818482D01*
X240030000Y-153818482D01*
X240030001Y-153818482D01*
X240082253Y-153811602D01*
X240186762Y-153797844D01*
X240332841Y-153737336D01*
X240458282Y-153641082D01*
X240554536Y-153515641D01*
X240615044Y-153369562D01*
X240635682Y-153212800D01*
X240615044Y-153056038D01*
X240554536Y-152909959D01*
X240458282Y-152784518D01*
X240332841Y-152688264D01*
X240331479Y-152687700D01*
X240186762Y-152627756D01*
X240186760Y-152627755D01*
X240030001Y-152607118D01*
X240029999Y-152607118D01*
X239873239Y-152627755D01*
X239873237Y-152627756D01*
X239727160Y-152688263D01*
X239601718Y-152784518D01*
X239505463Y-152909960D01*
X239444956Y-153056037D01*
X239444955Y-153056039D01*
X239424318Y-153212798D01*
X239424318Y-153212801D01*
X207115685Y-153212801D01*
X206994642Y-153137855D01*
X206994635Y-153137851D01*
X206899546Y-153101014D01*
X206804456Y-153064176D01*
X206603976Y-153026700D01*
X206400024Y-153026700D01*
X206199544Y-153064176D01*
X206199541Y-153064176D01*
X206199541Y-153064177D01*
X206009364Y-153137851D01*
X206009357Y-153137855D01*
X205835960Y-153245217D01*
X205835958Y-153245219D01*
X205685237Y-153382618D01*
X205562327Y-153545378D01*
X205471422Y-153727939D01*
X205471417Y-153727952D01*
X205415602Y-153924117D01*
X205396785Y-154127199D01*
X205396785Y-154127200D01*
X205067215Y-154127200D01*
X205048397Y-153924117D01*
X204992582Y-153727950D01*
X204980787Y-153704263D01*
X204940382Y-153623118D01*
X204901673Y-153545379D01*
X204778764Y-153382621D01*
X204778762Y-153382618D01*
X204628041Y-153245219D01*
X204628039Y-153245217D01*
X204454642Y-153137855D01*
X204454635Y-153137851D01*
X204359546Y-153101014D01*
X204264456Y-153064176D01*
X204063976Y-153026700D01*
X203860024Y-153026700D01*
X203659544Y-153064176D01*
X203659541Y-153064176D01*
X203659541Y-153064177D01*
X203469364Y-153137851D01*
X203469357Y-153137855D01*
X203295960Y-153245217D01*
X203295958Y-153245219D01*
X203145237Y-153382618D01*
X203022327Y-153545378D01*
X202931422Y-153727939D01*
X202931417Y-153727952D01*
X202875602Y-153924117D01*
X202856785Y-154127199D01*
X202856785Y-154127200D01*
X196929935Y-154127200D01*
X194628994Y-151587200D01*
X202856785Y-151587200D01*
X202875602Y-151790282D01*
X202931417Y-151986447D01*
X202931422Y-151986460D01*
X203022327Y-152169021D01*
X203145237Y-152331781D01*
X203295958Y-152469180D01*
X203295960Y-152469182D01*
X203395141Y-152530592D01*
X203469363Y-152576548D01*
X203659544Y-152650224D01*
X203860024Y-152687700D01*
X203860026Y-152687700D01*
X204063974Y-152687700D01*
X204063976Y-152687700D01*
X204264456Y-152650224D01*
X204454637Y-152576548D01*
X204628041Y-152469181D01*
X204778764Y-152331779D01*
X204901673Y-152169021D01*
X204992582Y-151986450D01*
X205048397Y-151790283D01*
X205067215Y-151587200D01*
X205396785Y-151587200D01*
X205415602Y-151790282D01*
X205471417Y-151986447D01*
X205471422Y-151986460D01*
X205562327Y-152169021D01*
X205685237Y-152331781D01*
X205835958Y-152469180D01*
X205835960Y-152469182D01*
X205935141Y-152530592D01*
X206009363Y-152576548D01*
X206199544Y-152650224D01*
X206400024Y-152687700D01*
X206400026Y-152687700D01*
X206603974Y-152687700D01*
X206603976Y-152687700D01*
X206804456Y-152650224D01*
X206994637Y-152576548D01*
X207168041Y-152469181D01*
X207318764Y-152331779D01*
X207441673Y-152169021D01*
X207532582Y-151986450D01*
X207588397Y-151790283D01*
X207607215Y-151587200D01*
X207588397Y-151384117D01*
X207532582Y-151187950D01*
X207441673Y-151005379D01*
X207318764Y-150842621D01*
X207318762Y-150842618D01*
X207168041Y-150705219D01*
X207168039Y-150705217D01*
X206994642Y-150597855D01*
X206994635Y-150597851D01*
X206899546Y-150561014D01*
X206804456Y-150524176D01*
X206603976Y-150486700D01*
X206400024Y-150486700D01*
X206199544Y-150524176D01*
X206199541Y-150524176D01*
X206199541Y-150524177D01*
X206009364Y-150597851D01*
X206009357Y-150597855D01*
X205835960Y-150705217D01*
X205835958Y-150705219D01*
X205685237Y-150842618D01*
X205562327Y-151005378D01*
X205471422Y-151187939D01*
X205471417Y-151187952D01*
X205415602Y-151384117D01*
X205396785Y-151587199D01*
X205396785Y-151587200D01*
X205067215Y-151587200D01*
X205048397Y-151384117D01*
X204992582Y-151187950D01*
X204901673Y-151005379D01*
X204778764Y-150842621D01*
X204778762Y-150842618D01*
X204628041Y-150705219D01*
X204628039Y-150705217D01*
X204454642Y-150597855D01*
X204454635Y-150597851D01*
X204359546Y-150561014D01*
X204264456Y-150524176D01*
X204063976Y-150486700D01*
X203860024Y-150486700D01*
X203659544Y-150524176D01*
X203659541Y-150524176D01*
X203659541Y-150524177D01*
X203469364Y-150597851D01*
X203469357Y-150597855D01*
X203295960Y-150705217D01*
X203295958Y-150705219D01*
X203145237Y-150842618D01*
X203022327Y-151005378D01*
X202931422Y-151187939D01*
X202931417Y-151187952D01*
X202875602Y-151384117D01*
X202856785Y-151587199D01*
X202856785Y-151587200D01*
X194628994Y-151587200D01*
X192285296Y-149000001D01*
X200644318Y-149000001D01*
X200664955Y-149156760D01*
X200664956Y-149156762D01*
X200718022Y-149284876D01*
X200725464Y-149302841D01*
X200821718Y-149428282D01*
X200947159Y-149524536D01*
X201093238Y-149585044D01*
X201146576Y-149592066D01*
X201249999Y-149605682D01*
X201250000Y-149605682D01*
X201250001Y-149605682D01*
X201302253Y-149598802D01*
X201406762Y-149585044D01*
X201552841Y-149524536D01*
X201678282Y-149428282D01*
X201774536Y-149302841D01*
X201835044Y-149156762D01*
X201849468Y-149047200D01*
X202856785Y-149047200D01*
X202875602Y-149250282D01*
X202931417Y-149446447D01*
X202931422Y-149446460D01*
X203022327Y-149629021D01*
X203145237Y-149791781D01*
X203295958Y-149929180D01*
X203295960Y-149929182D01*
X203362010Y-149970078D01*
X203469363Y-150036548D01*
X203659544Y-150110224D01*
X203860024Y-150147700D01*
X203860026Y-150147700D01*
X204063974Y-150147700D01*
X204063976Y-150147700D01*
X204264456Y-150110224D01*
X204454637Y-150036548D01*
X204628041Y-149929181D01*
X204778764Y-149791779D01*
X204901673Y-149629021D01*
X204992582Y-149446450D01*
X205048397Y-149250283D01*
X205067215Y-149047200D01*
X205396785Y-149047200D01*
X205415602Y-149250282D01*
X205471417Y-149446447D01*
X205471422Y-149446460D01*
X205562327Y-149629021D01*
X205685237Y-149791781D01*
X205835958Y-149929180D01*
X205835960Y-149929182D01*
X205902010Y-149970078D01*
X206009363Y-150036548D01*
X206199544Y-150110224D01*
X206400024Y-150147700D01*
X206400026Y-150147700D01*
X206603974Y-150147700D01*
X206603976Y-150147700D01*
X206804456Y-150110224D01*
X206994637Y-150036548D01*
X207168041Y-149929181D01*
X207318764Y-149791779D01*
X207348426Y-149752500D01*
X244709750Y-149752500D01*
X244728670Y-149896208D01*
X244728671Y-149896212D01*
X244784137Y-150030122D01*
X244784138Y-150030124D01*
X244784139Y-150030125D01*
X244872379Y-150145121D01*
X244987375Y-150233361D01*
X244987376Y-150233361D01*
X244987377Y-150233362D01*
X245032013Y-150251850D01*
X245121291Y-150288830D01*
X245248280Y-150305548D01*
X245264999Y-150307750D01*
X245265000Y-150307750D01*
X245265001Y-150307750D01*
X245290408Y-150304404D01*
X245343453Y-150297421D01*
X245412488Y-150308186D01*
X245464744Y-150354566D01*
X245483630Y-150421835D01*
X245482578Y-150436545D01*
X245472250Y-150514997D01*
X245472250Y-150515000D01*
X245491170Y-150658708D01*
X245491171Y-150658712D01*
X245546637Y-150792622D01*
X245546638Y-150792624D01*
X245546639Y-150792625D01*
X245634879Y-150907621D01*
X245749875Y-150995861D01*
X245883791Y-151051330D01*
X246010780Y-151068048D01*
X246027499Y-151070250D01*
X246027500Y-151070250D01*
X246027501Y-151070250D01*
X246042477Y-151068278D01*
X246171209Y-151051330D01*
X246305125Y-150995861D01*
X246420121Y-150907621D01*
X246508361Y-150792625D01*
X246563830Y-150658709D01*
X246582750Y-150515000D01*
X246572421Y-150436545D01*
X246583186Y-150367511D01*
X246629566Y-150315255D01*
X246696835Y-150296369D01*
X246711543Y-150297420D01*
X246752421Y-150302802D01*
X246789999Y-150307750D01*
X246790000Y-150307750D01*
X246790001Y-150307750D01*
X246815408Y-150304404D01*
X246868453Y-150297421D01*
X246937488Y-150308186D01*
X246989744Y-150354566D01*
X247008630Y-150421835D01*
X247007578Y-150436545D01*
X246997250Y-150514997D01*
X246997250Y-150515000D01*
X247016170Y-150658708D01*
X247016171Y-150658712D01*
X247071637Y-150792622D01*
X247071638Y-150792624D01*
X247071639Y-150792625D01*
X247159879Y-150907621D01*
X247274875Y-150995861D01*
X247408791Y-151051330D01*
X247535780Y-151068048D01*
X247552499Y-151070250D01*
X247552500Y-151070250D01*
X247552501Y-151070250D01*
X247567477Y-151068278D01*
X247696209Y-151051330D01*
X247830125Y-150995861D01*
X247945121Y-150907621D01*
X248033361Y-150792625D01*
X248088830Y-150658709D01*
X248107750Y-150515000D01*
X248097421Y-150436545D01*
X248108186Y-150367511D01*
X248154566Y-150315255D01*
X248221835Y-150296369D01*
X248236543Y-150297420D01*
X248277421Y-150302802D01*
X248314999Y-150307750D01*
X248315000Y-150307750D01*
X248315001Y-150307750D01*
X248329977Y-150305778D01*
X248458709Y-150288830D01*
X248592625Y-150233361D01*
X248707621Y-150145121D01*
X248795861Y-150030125D01*
X248851330Y-149896209D01*
X248870250Y-149752500D01*
X248851330Y-149608791D01*
X248795861Y-149474875D01*
X248707621Y-149359879D01*
X248592625Y-149271639D01*
X248592624Y-149271638D01*
X248592622Y-149271637D01*
X248458712Y-149216171D01*
X248458710Y-149216170D01*
X248458709Y-149216170D01*
X248386854Y-149206709D01*
X248315001Y-149197250D01*
X248314998Y-149197250D01*
X248236545Y-149207578D01*
X248167509Y-149196812D01*
X248115254Y-149150432D01*
X248096369Y-149083163D01*
X248097421Y-149068453D01*
X248107750Y-148990000D01*
X248107750Y-148989999D01*
X248097421Y-148911546D01*
X248108186Y-148842511D01*
X248154566Y-148790255D01*
X248221835Y-148771369D01*
X248236543Y-148772420D01*
X248277421Y-148777802D01*
X248314999Y-148782750D01*
X248315000Y-148782750D01*
X248315001Y-148782750D01*
X248329977Y-148780778D01*
X248458709Y-148763830D01*
X248592625Y-148708361D01*
X248707621Y-148620121D01*
X248795861Y-148505125D01*
X248851330Y-148371209D01*
X248870250Y-148227500D01*
X248851330Y-148083791D01*
X248795861Y-147949875D01*
X248707621Y-147834879D01*
X248592625Y-147746639D01*
X248592624Y-147746638D01*
X248592622Y-147746637D01*
X248458712Y-147691171D01*
X248458710Y-147691170D01*
X248458709Y-147691170D01*
X248386854Y-147681709D01*
X248315001Y-147672250D01*
X248314998Y-147672250D01*
X248236545Y-147682578D01*
X248167509Y-147671812D01*
X248115254Y-147625432D01*
X248096369Y-147558163D01*
X248097421Y-147543453D01*
X248098166Y-147537800D01*
X248107750Y-147465000D01*
X248088830Y-147321291D01*
X248033361Y-147187375D01*
X247945121Y-147072379D01*
X247830125Y-146984139D01*
X247830124Y-146984138D01*
X247830122Y-146984137D01*
X247696212Y-146928671D01*
X247696210Y-146928670D01*
X247696209Y-146928670D01*
X247624354Y-146919210D01*
X247552501Y-146909750D01*
X247552499Y-146909750D01*
X247408791Y-146928670D01*
X247408787Y-146928671D01*
X247274877Y-146984137D01*
X247159879Y-147072379D01*
X247071637Y-147187377D01*
X247016171Y-147321287D01*
X247016170Y-147321291D01*
X246997250Y-147464999D01*
X246997250Y-147465002D01*
X247007578Y-147543454D01*
X246996812Y-147612490D01*
X246950432Y-147664745D01*
X246883163Y-147683630D01*
X246868454Y-147682578D01*
X246790002Y-147672250D01*
X246789998Y-147672250D01*
X246711545Y-147682578D01*
X246642509Y-147671812D01*
X246590254Y-147625432D01*
X246571369Y-147558163D01*
X246572421Y-147543453D01*
X246573166Y-147537800D01*
X246582750Y-147465000D01*
X246563830Y-147321291D01*
X246508361Y-147187375D01*
X246420121Y-147072379D01*
X246305125Y-146984139D01*
X246305124Y-146984138D01*
X246305122Y-146984137D01*
X246171212Y-146928671D01*
X246171210Y-146928670D01*
X246171209Y-146928670D01*
X246099354Y-146919210D01*
X246027501Y-146909750D01*
X246027499Y-146909750D01*
X245883791Y-146928670D01*
X245883787Y-146928671D01*
X245749877Y-146984137D01*
X245634879Y-147072379D01*
X245546637Y-147187377D01*
X245491171Y-147321287D01*
X245491170Y-147321291D01*
X245472250Y-147464999D01*
X245472250Y-147465002D01*
X245482578Y-147543454D01*
X245471812Y-147612490D01*
X245425432Y-147664745D01*
X245358163Y-147683630D01*
X245343454Y-147682578D01*
X245265002Y-147672250D01*
X245264999Y-147672250D01*
X245121291Y-147691170D01*
X245121287Y-147691171D01*
X244987377Y-147746637D01*
X244872379Y-147834879D01*
X244784137Y-147949877D01*
X244728671Y-148083787D01*
X244728670Y-148083791D01*
X244709750Y-148227499D01*
X244709750Y-148227500D01*
X244728670Y-148371208D01*
X244728671Y-148371212D01*
X244784137Y-148505122D01*
X244784138Y-148505124D01*
X244784139Y-148505125D01*
X244872379Y-148620121D01*
X244987375Y-148708361D01*
X244987376Y-148708361D01*
X244987377Y-148708362D01*
X245032013Y-148726850D01*
X245121291Y-148763830D01*
X245248280Y-148780548D01*
X245264999Y-148782750D01*
X245265000Y-148782750D01*
X245265001Y-148782750D01*
X245290408Y-148779404D01*
X245343453Y-148772421D01*
X245412488Y-148783186D01*
X245464744Y-148829566D01*
X245483630Y-148896835D01*
X245482578Y-148911545D01*
X245472250Y-148989997D01*
X245472250Y-148990002D01*
X245482578Y-149068454D01*
X245471812Y-149137490D01*
X245425432Y-149189745D01*
X245358163Y-149208630D01*
X245343454Y-149207578D01*
X245265002Y-149197250D01*
X245264999Y-149197250D01*
X245121291Y-149216170D01*
X245121287Y-149216171D01*
X244987377Y-149271637D01*
X244872379Y-149359879D01*
X244784137Y-149474877D01*
X244728671Y-149608787D01*
X244728670Y-149608791D01*
X244709750Y-149752499D01*
X244709750Y-149752500D01*
X207348426Y-149752500D01*
X207441673Y-149629021D01*
X207532582Y-149446450D01*
X207588397Y-149250283D01*
X207607215Y-149047200D01*
X207602841Y-149000001D01*
X207588397Y-148844117D01*
X207565553Y-148763829D01*
X207532582Y-148647950D01*
X207518724Y-148620120D01*
X207470054Y-148522376D01*
X207441673Y-148465379D01*
X207382704Y-148387292D01*
X207318762Y-148302618D01*
X207168041Y-148165219D01*
X207168039Y-148165217D01*
X206994642Y-148057855D01*
X206994635Y-148057851D01*
X206848736Y-148001330D01*
X206804456Y-147984176D01*
X206603976Y-147946700D01*
X206400024Y-147946700D01*
X206199544Y-147984176D01*
X206199541Y-147984176D01*
X206199541Y-147984177D01*
X206009364Y-148057851D01*
X206009357Y-148057855D01*
X205835960Y-148165217D01*
X205835958Y-148165219D01*
X205685237Y-148302618D01*
X205562327Y-148465378D01*
X205471422Y-148647939D01*
X205471417Y-148647952D01*
X205415602Y-148844117D01*
X205396785Y-149047199D01*
X205396785Y-149047200D01*
X205067215Y-149047200D01*
X205062841Y-149000001D01*
X205048397Y-148844117D01*
X205025553Y-148763829D01*
X204992582Y-148647950D01*
X204978724Y-148620120D01*
X204930054Y-148522376D01*
X204901673Y-148465379D01*
X204842704Y-148387292D01*
X204778762Y-148302618D01*
X204628041Y-148165219D01*
X204628039Y-148165217D01*
X204454642Y-148057855D01*
X204454635Y-148057851D01*
X204308736Y-148001330D01*
X204264456Y-147984176D01*
X204063976Y-147946700D01*
X203860024Y-147946700D01*
X203659544Y-147984176D01*
X203659541Y-147984176D01*
X203659541Y-147984177D01*
X203469364Y-148057851D01*
X203469357Y-148057855D01*
X203295960Y-148165217D01*
X203295958Y-148165219D01*
X203145237Y-148302618D01*
X203022327Y-148465378D01*
X202931422Y-148647939D01*
X202931417Y-148647952D01*
X202875602Y-148844117D01*
X202856785Y-149047199D01*
X202856785Y-149047200D01*
X201849468Y-149047200D01*
X201855682Y-149000000D01*
X201854365Y-148990000D01*
X201835044Y-148843239D01*
X201835044Y-148843238D01*
X201774536Y-148697159D01*
X201678282Y-148571718D01*
X201552841Y-148475464D01*
X201528491Y-148465378D01*
X201406762Y-148414956D01*
X201406760Y-148414955D01*
X201250001Y-148394318D01*
X201249999Y-148394318D01*
X201093239Y-148414955D01*
X201093237Y-148414956D01*
X200947160Y-148475463D01*
X200821718Y-148571718D01*
X200725463Y-148697160D01*
X200664956Y-148843237D01*
X200664955Y-148843239D01*
X200644318Y-148999998D01*
X200644318Y-149000001D01*
X192285296Y-149000001D01*
X190819465Y-147381876D01*
X202861499Y-147381876D01*
X202861500Y-147381878D01*
X202876032Y-147454935D01*
X202876033Y-147454939D01*
X202876034Y-147454940D01*
X202931399Y-147537801D01*
X203014260Y-147593166D01*
X203014264Y-147593167D01*
X203087321Y-147607699D01*
X203087324Y-147607700D01*
X203087326Y-147607700D01*
X204836676Y-147607700D01*
X204836677Y-147607699D01*
X204909740Y-147593166D01*
X204992601Y-147537801D01*
X205047966Y-147454940D01*
X205062500Y-147381874D01*
X205062500Y-146507200D01*
X205396785Y-146507200D01*
X205415602Y-146710282D01*
X205471417Y-146906447D01*
X205471422Y-146906460D01*
X205562327Y-147089021D01*
X205685237Y-147251781D01*
X205835958Y-147389180D01*
X205835960Y-147389182D01*
X205935141Y-147450592D01*
X206009363Y-147496548D01*
X206199544Y-147570224D01*
X206400024Y-147607700D01*
X206400026Y-147607700D01*
X206603974Y-147607700D01*
X206603976Y-147607700D01*
X206804456Y-147570224D01*
X206994637Y-147496548D01*
X207168041Y-147389181D01*
X207318764Y-147251779D01*
X207441673Y-147089021D01*
X207532582Y-146906450D01*
X207588397Y-146710283D01*
X207607215Y-146507200D01*
X207588397Y-146304117D01*
X207532582Y-146107950D01*
X207441673Y-145925379D01*
X207318764Y-145762621D01*
X207318762Y-145762618D01*
X207168041Y-145625219D01*
X207168039Y-145625217D01*
X206994642Y-145517855D01*
X206994635Y-145517851D01*
X206860628Y-145465937D01*
X206804456Y-145444176D01*
X206603976Y-145406700D01*
X206400024Y-145406700D01*
X206199544Y-145444176D01*
X206199541Y-145444176D01*
X206199541Y-145444177D01*
X206009364Y-145517851D01*
X206009357Y-145517855D01*
X205835960Y-145625217D01*
X205835958Y-145625219D01*
X205685237Y-145762618D01*
X205562327Y-145925378D01*
X205471422Y-146107939D01*
X205471417Y-146107952D01*
X205415602Y-146304117D01*
X205396785Y-146507199D01*
X205396785Y-146507200D01*
X205062500Y-146507200D01*
X205062500Y-145632526D01*
X205062500Y-145632525D01*
X205062500Y-145632523D01*
X205062499Y-145632521D01*
X205047967Y-145559464D01*
X205047966Y-145559460D01*
X205033682Y-145538082D01*
X204992601Y-145476599D01*
X204909740Y-145421234D01*
X204909739Y-145421233D01*
X204909735Y-145421232D01*
X204836677Y-145406700D01*
X204836674Y-145406700D01*
X203087326Y-145406700D01*
X203087323Y-145406700D01*
X203014264Y-145421232D01*
X203014260Y-145421233D01*
X202931399Y-145476599D01*
X202876033Y-145559460D01*
X202876032Y-145559464D01*
X202861500Y-145632521D01*
X202861499Y-145632523D01*
X202861499Y-147381876D01*
X190819465Y-147381876D01*
X188435296Y-144750001D01*
X238144318Y-144750001D01*
X238164955Y-144906760D01*
X238164956Y-144906762D01*
X238225464Y-145052841D01*
X238321718Y-145178282D01*
X238447159Y-145274536D01*
X238593238Y-145335044D01*
X238671618Y-145345362D01*
X238749999Y-145355682D01*
X238750000Y-145355682D01*
X238750001Y-145355682D01*
X238802253Y-145348802D01*
X238906762Y-145335044D01*
X239052841Y-145274536D01*
X239178282Y-145178282D01*
X239274536Y-145052841D01*
X239324424Y-144932401D01*
X242929518Y-144932401D01*
X242950155Y-145089160D01*
X242950156Y-145089162D01*
X243010664Y-145235241D01*
X243106918Y-145360682D01*
X243232359Y-145456936D01*
X243378438Y-145517444D01*
X243456819Y-145527762D01*
X243535199Y-145538082D01*
X243535200Y-145538082D01*
X243535201Y-145538082D01*
X243587454Y-145531202D01*
X243691962Y-145517444D01*
X243838041Y-145456936D01*
X243963482Y-145360682D01*
X244059736Y-145235241D01*
X244120244Y-145089162D01*
X244140882Y-144932400D01*
X244137506Y-144906760D01*
X244120244Y-144775639D01*
X244120244Y-144775638D01*
X244059736Y-144629559D01*
X243963482Y-144504118D01*
X243838041Y-144407864D01*
X243691962Y-144347356D01*
X243691960Y-144347355D01*
X243535201Y-144326718D01*
X243535199Y-144326718D01*
X243378439Y-144347355D01*
X243378437Y-144347356D01*
X243232360Y-144407863D01*
X243106918Y-144504118D01*
X243010663Y-144629560D01*
X242950156Y-144775637D01*
X242950155Y-144775639D01*
X242929518Y-144932398D01*
X242929518Y-144932401D01*
X239324424Y-144932401D01*
X239335044Y-144906762D01*
X239355682Y-144750000D01*
X239335044Y-144593238D01*
X239274536Y-144447159D01*
X239178282Y-144321718D01*
X239052841Y-144225464D01*
X238906762Y-144164956D01*
X238906760Y-144164955D01*
X238750001Y-144144318D01*
X238749999Y-144144318D01*
X238593239Y-144164955D01*
X238593237Y-144164956D01*
X238447160Y-144225463D01*
X238321718Y-144321718D01*
X238225463Y-144447160D01*
X238164956Y-144593237D01*
X238164955Y-144593239D01*
X238144318Y-144749998D01*
X238144318Y-144750001D01*
X188435296Y-144750001D01*
X186080006Y-142150006D01*
X190694700Y-142150006D01*
X190713864Y-142381297D01*
X190713866Y-142381308D01*
X190770842Y-142606300D01*
X190864075Y-142818848D01*
X190991016Y-143013147D01*
X190991019Y-143013151D01*
X190991021Y-143013153D01*
X191148216Y-143183913D01*
X191148219Y-143183915D01*
X191148222Y-143183918D01*
X191331365Y-143326464D01*
X191331371Y-143326468D01*
X191331374Y-143326470D01*
X191535497Y-143436936D01*
X191649487Y-143476068D01*
X191755015Y-143512297D01*
X191755017Y-143512297D01*
X191755019Y-143512298D01*
X191983951Y-143550500D01*
X191983952Y-143550500D01*
X192216048Y-143550500D01*
X192216049Y-143550500D01*
X192444981Y-143512298D01*
X192664503Y-143436936D01*
X192868626Y-143326470D01*
X192910985Y-143293501D01*
X245904318Y-143293501D01*
X245924955Y-143450260D01*
X245924956Y-143450262D01*
X245985464Y-143596341D01*
X246081718Y-143721782D01*
X246207159Y-143818036D01*
X246353238Y-143878544D01*
X246431619Y-143888862D01*
X246509999Y-143899182D01*
X246510000Y-143899182D01*
X246510001Y-143899182D01*
X246562253Y-143892302D01*
X246666762Y-143878544D01*
X246812841Y-143818036D01*
X246938282Y-143721782D01*
X247034536Y-143596341D01*
X247095044Y-143450262D01*
X247115682Y-143293500D01*
X247095044Y-143136738D01*
X247034536Y-142990659D01*
X246938282Y-142865218D01*
X246812841Y-142768964D01*
X246666762Y-142708456D01*
X246666760Y-142708455D01*
X246510001Y-142687818D01*
X246509999Y-142687818D01*
X246353239Y-142708455D01*
X246353237Y-142708456D01*
X246207160Y-142768963D01*
X246081718Y-142865218D01*
X245985463Y-142990660D01*
X245924956Y-143136737D01*
X245924955Y-143136739D01*
X245904318Y-143293498D01*
X245904318Y-143293501D01*
X192910985Y-143293501D01*
X193051784Y-143183913D01*
X193208979Y-143013153D01*
X193335924Y-142818849D01*
X193429157Y-142606300D01*
X193457595Y-142494001D01*
X250955918Y-142494001D01*
X250976555Y-142650760D01*
X250976556Y-142650762D01*
X251025516Y-142768963D01*
X251037064Y-142796841D01*
X251133318Y-142922282D01*
X251258759Y-143018536D01*
X251404838Y-143079044D01*
X251450413Y-143085044D01*
X251561599Y-143099682D01*
X251561600Y-143099682D01*
X251561601Y-143099682D01*
X251613854Y-143092802D01*
X251718362Y-143079044D01*
X251864441Y-143018536D01*
X251989882Y-142922282D01*
X252086136Y-142796841D01*
X252146644Y-142650762D01*
X252166492Y-142500001D01*
X253644318Y-142500001D01*
X253664955Y-142656760D01*
X253664956Y-142656762D01*
X253725464Y-142802841D01*
X253821718Y-142928282D01*
X253947159Y-143024536D01*
X254093238Y-143085044D01*
X254171618Y-143095362D01*
X254249999Y-143105682D01*
X254250000Y-143105682D01*
X254250001Y-143105682D01*
X254302254Y-143098802D01*
X254406762Y-143085044D01*
X254552841Y-143024536D01*
X254678282Y-142928282D01*
X254774536Y-142802841D01*
X254835044Y-142656762D01*
X254855682Y-142500000D01*
X254835044Y-142343238D01*
X254774536Y-142197159D01*
X254678282Y-142071718D01*
X254552841Y-141975464D01*
X254538353Y-141969463D01*
X254406762Y-141914956D01*
X254406760Y-141914955D01*
X254250001Y-141894318D01*
X254249999Y-141894318D01*
X254093239Y-141914955D01*
X254093237Y-141914956D01*
X253947160Y-141975463D01*
X253821718Y-142071718D01*
X253725463Y-142197160D01*
X253664956Y-142343237D01*
X253664955Y-142343239D01*
X253644318Y-142499998D01*
X253644318Y-142500001D01*
X252166492Y-142500001D01*
X252167282Y-142494000D01*
X252146644Y-142337238D01*
X252086136Y-142191159D01*
X251989882Y-142065718D01*
X251864441Y-141969464D01*
X251718362Y-141908956D01*
X251718360Y-141908955D01*
X251561601Y-141888318D01*
X251561599Y-141888318D01*
X251404839Y-141908955D01*
X251404837Y-141908956D01*
X251258760Y-141969463D01*
X251133318Y-142065718D01*
X251037063Y-142191160D01*
X250976556Y-142337237D01*
X250976555Y-142337239D01*
X250955918Y-142493998D01*
X250955918Y-142494001D01*
X193457595Y-142494001D01*
X193486134Y-142381305D01*
X193486135Y-142381297D01*
X193505300Y-142150006D01*
X193505300Y-142149993D01*
X193486135Y-141918702D01*
X193486133Y-141918691D01*
X193429157Y-141693699D01*
X193335924Y-141481151D01*
X193208983Y-141286852D01*
X193208980Y-141286849D01*
X193208979Y-141286847D01*
X193051784Y-141116087D01*
X193051779Y-141116083D01*
X193051777Y-141116081D01*
X192868634Y-140973535D01*
X192868628Y-140973531D01*
X192768236Y-140919201D01*
X233988718Y-140919201D01*
X234009355Y-141075960D01*
X234009356Y-141075962D01*
X234069864Y-141222041D01*
X234166118Y-141347482D01*
X234291559Y-141443736D01*
X234437638Y-141504244D01*
X234516018Y-141514562D01*
X234594399Y-141524882D01*
X234594400Y-141524882D01*
X234594401Y-141524882D01*
X234646654Y-141518002D01*
X234751162Y-141504244D01*
X234897241Y-141443736D01*
X235022682Y-141347482D01*
X235118936Y-141222041D01*
X235179444Y-141075962D01*
X235200082Y-140919200D01*
X235179444Y-140762438D01*
X235118936Y-140616359D01*
X235022682Y-140490918D01*
X234897241Y-140394664D01*
X234751162Y-140334156D01*
X234751160Y-140334155D01*
X234594401Y-140313518D01*
X234594399Y-140313518D01*
X234437639Y-140334155D01*
X234437637Y-140334156D01*
X234291560Y-140394663D01*
X234166118Y-140490918D01*
X234069863Y-140616360D01*
X234009356Y-140762437D01*
X234009355Y-140762439D01*
X233988718Y-140919198D01*
X233988718Y-140919201D01*
X192768236Y-140919201D01*
X192664504Y-140863064D01*
X192664495Y-140863061D01*
X192444984Y-140787702D01*
X192273281Y-140759050D01*
X192216049Y-140749500D01*
X191983951Y-140749500D01*
X191938164Y-140757140D01*
X191755015Y-140787702D01*
X191535504Y-140863061D01*
X191535495Y-140863064D01*
X191331371Y-140973531D01*
X191331365Y-140973535D01*
X191148222Y-141116081D01*
X191148219Y-141116084D01*
X190991016Y-141286852D01*
X190864075Y-141481151D01*
X190770842Y-141693699D01*
X190713866Y-141918691D01*
X190713864Y-141918702D01*
X190694700Y-142149993D01*
X190694700Y-142150006D01*
X186080006Y-142150006D01*
X183584477Y-139395201D01*
X210112718Y-139395201D01*
X210133355Y-139551960D01*
X210133356Y-139551962D01*
X210193864Y-139698041D01*
X210290118Y-139823482D01*
X210415559Y-139919736D01*
X210561638Y-139980244D01*
X210640018Y-139990562D01*
X210718399Y-140000882D01*
X210718400Y-140000882D01*
X210718401Y-140000882D01*
X210770654Y-139994002D01*
X210875162Y-139980244D01*
X211021241Y-139919736D01*
X211146682Y-139823482D01*
X211242936Y-139698041D01*
X211303444Y-139551962D01*
X211324082Y-139395201D01*
X239068718Y-139395201D01*
X239089355Y-139551960D01*
X239089356Y-139551962D01*
X239149864Y-139698041D01*
X239246118Y-139823482D01*
X239371559Y-139919736D01*
X239517638Y-139980244D01*
X239596019Y-139990562D01*
X239674399Y-140000882D01*
X239674400Y-140000882D01*
X239674401Y-140000882D01*
X239726653Y-139994002D01*
X239831162Y-139980244D01*
X239977241Y-139919736D01*
X240102682Y-139823482D01*
X240198936Y-139698041D01*
X240259444Y-139551962D01*
X240280082Y-139395200D01*
X240273394Y-139344401D01*
X247196718Y-139344401D01*
X247217355Y-139501160D01*
X247217356Y-139501162D01*
X247277864Y-139647241D01*
X247374118Y-139772682D01*
X247499559Y-139868936D01*
X247645638Y-139929444D01*
X247724019Y-139939762D01*
X247802399Y-139950082D01*
X247802400Y-139950082D01*
X247802401Y-139950082D01*
X247854653Y-139943202D01*
X247959162Y-139929444D01*
X248105241Y-139868936D01*
X248230682Y-139772682D01*
X248326936Y-139647241D01*
X248387444Y-139501162D01*
X248408082Y-139344400D01*
X248387444Y-139187638D01*
X248326936Y-139041559D01*
X248230682Y-138916118D01*
X248105241Y-138819864D01*
X248081801Y-138810155D01*
X247959162Y-138759356D01*
X247959160Y-138759355D01*
X247802401Y-138738718D01*
X247802399Y-138738718D01*
X247645639Y-138759355D01*
X247645637Y-138759356D01*
X247499560Y-138819863D01*
X247374118Y-138916118D01*
X247277863Y-139041560D01*
X247217356Y-139187637D01*
X247217355Y-139187639D01*
X247196718Y-139344398D01*
X247196718Y-139344401D01*
X240273394Y-139344401D01*
X240259444Y-139238438D01*
X240198936Y-139092359D01*
X240102682Y-138966918D01*
X239977241Y-138870664D01*
X239831162Y-138810156D01*
X239831160Y-138810155D01*
X239674401Y-138789518D01*
X239674399Y-138789518D01*
X239517639Y-138810155D01*
X239517637Y-138810156D01*
X239371560Y-138870663D01*
X239246118Y-138966918D01*
X239149863Y-139092360D01*
X239089356Y-139238437D01*
X239089355Y-139238439D01*
X239068718Y-139395198D01*
X239068718Y-139395201D01*
X211324082Y-139395201D01*
X211324082Y-139395200D01*
X211303444Y-139238438D01*
X211242936Y-139092359D01*
X211146682Y-138966918D01*
X211021241Y-138870664D01*
X210875162Y-138810156D01*
X210875160Y-138810155D01*
X210718401Y-138789518D01*
X210718399Y-138789518D01*
X210561639Y-138810155D01*
X210561637Y-138810156D01*
X210415560Y-138870663D01*
X210290118Y-138966918D01*
X210193863Y-139092360D01*
X210133356Y-139238437D01*
X210133355Y-139238439D01*
X210112718Y-139395198D01*
X210112718Y-139395201D01*
X183584477Y-139395201D01*
X183000001Y-138750000D01*
X183000000Y-138750000D01*
X161624000Y-138750000D01*
X161556961Y-138730315D01*
X161511206Y-138677511D01*
X161500000Y-138626000D01*
X161500000Y-138480801D01*
X207674318Y-138480801D01*
X207694955Y-138637560D01*
X207694956Y-138637562D01*
X207755464Y-138783641D01*
X207851718Y-138909082D01*
X207977159Y-139005336D01*
X208123238Y-139065844D01*
X208201618Y-139076162D01*
X208279999Y-139086482D01*
X208280000Y-139086482D01*
X208280001Y-139086482D01*
X208332253Y-139079602D01*
X208436762Y-139065844D01*
X208582841Y-139005336D01*
X208708282Y-138909082D01*
X208804536Y-138783641D01*
X208865044Y-138637562D01*
X208885682Y-138480800D01*
X208865044Y-138324038D01*
X208804536Y-138177959D01*
X208708282Y-138052518D01*
X208582841Y-137956264D01*
X208436762Y-137895756D01*
X208436760Y-137895755D01*
X208280001Y-137875118D01*
X208279999Y-137875118D01*
X208123239Y-137895755D01*
X208123237Y-137895756D01*
X207977160Y-137956263D01*
X207851718Y-138052518D01*
X207755463Y-138177960D01*
X207694956Y-138324037D01*
X207694955Y-138324039D01*
X207674318Y-138480798D01*
X207674318Y-138480801D01*
X161500000Y-138480801D01*
X161500000Y-135250001D01*
X179144318Y-135250001D01*
X179164955Y-135406760D01*
X179164956Y-135406762D01*
X179225464Y-135552841D01*
X179321718Y-135678282D01*
X179447159Y-135774536D01*
X179593238Y-135835044D01*
X179671618Y-135845362D01*
X179749999Y-135855682D01*
X179750000Y-135855682D01*
X179750001Y-135855682D01*
X179802254Y-135848802D01*
X179906762Y-135835044D01*
X180052841Y-135774536D01*
X180178282Y-135678282D01*
X180274536Y-135552841D01*
X180335044Y-135406762D01*
X180355682Y-135250000D01*
X180335044Y-135093238D01*
X180274536Y-134947159D01*
X180178282Y-134821718D01*
X180052841Y-134725464D01*
X179906762Y-134664956D01*
X179906760Y-134664955D01*
X179750001Y-134644318D01*
X179749999Y-134644318D01*
X179593239Y-134664955D01*
X179593237Y-134664956D01*
X179447160Y-134725463D01*
X179321718Y-134821718D01*
X179225463Y-134947160D01*
X179164956Y-135093237D01*
X179164955Y-135093239D01*
X179144318Y-135249998D01*
X179144318Y-135250001D01*
X161500000Y-135250001D01*
X161500000Y-134500001D01*
X172644318Y-134500001D01*
X172664955Y-134656760D01*
X172664956Y-134656762D01*
X172703576Y-134750000D01*
X172725464Y-134802841D01*
X172821718Y-134928282D01*
X172947159Y-135024536D01*
X173093238Y-135085044D01*
X173155478Y-135093238D01*
X173249999Y-135105682D01*
X173250000Y-135105682D01*
X173250001Y-135105682D01*
X173344514Y-135093239D01*
X173406762Y-135085044D01*
X173552841Y-135024536D01*
X173678282Y-134928282D01*
X173774536Y-134802841D01*
X173835044Y-134656762D01*
X173855682Y-134500000D01*
X173849362Y-134451998D01*
X173835044Y-134343239D01*
X173835044Y-134343238D01*
X173796424Y-134250001D01*
X182644318Y-134250001D01*
X182664955Y-134406760D01*
X182664956Y-134406762D01*
X182703576Y-134500000D01*
X182725464Y-134552841D01*
X182821718Y-134678282D01*
X182947159Y-134774536D01*
X183093238Y-134835044D01*
X183171618Y-134845362D01*
X183249999Y-134855682D01*
X183250000Y-134855682D01*
X183250001Y-134855682D01*
X183302254Y-134848802D01*
X183406762Y-134835044D01*
X183552841Y-134774536D01*
X183678282Y-134678282D01*
X183774536Y-134552841D01*
X183835044Y-134406762D01*
X183855682Y-134250000D01*
X183848725Y-134197159D01*
X183835044Y-134093239D01*
X183835044Y-134093238D01*
X183774536Y-133947159D01*
X183678282Y-133821718D01*
X183552841Y-133725464D01*
X183406762Y-133664956D01*
X183406760Y-133664955D01*
X183250001Y-133644318D01*
X183249999Y-133644318D01*
X183093239Y-133664955D01*
X183093237Y-133664956D01*
X182947160Y-133725463D01*
X182821718Y-133821718D01*
X182725463Y-133947160D01*
X182664956Y-134093237D01*
X182664955Y-134093239D01*
X182644318Y-134249998D01*
X182644318Y-134250001D01*
X173796424Y-134250001D01*
X173774536Y-134197159D01*
X173678282Y-134071718D01*
X173552841Y-133975464D01*
X173406762Y-133914956D01*
X173406760Y-133914955D01*
X173250001Y-133894318D01*
X173249999Y-133894318D01*
X173093239Y-133914955D01*
X173093237Y-133914956D01*
X172947160Y-133975463D01*
X172821718Y-134071718D01*
X172725463Y-134197160D01*
X172664956Y-134343237D01*
X172664955Y-134343239D01*
X172644318Y-134499998D01*
X172644318Y-134500001D01*
X161500000Y-134500001D01*
X161500000Y-133500001D01*
X188644318Y-133500001D01*
X188664955Y-133656760D01*
X188664956Y-133656762D01*
X188725464Y-133802841D01*
X188821718Y-133928282D01*
X188947159Y-134024536D01*
X189093238Y-134085044D01*
X189155478Y-134093238D01*
X189249999Y-134105682D01*
X189250000Y-134105682D01*
X189250001Y-134105682D01*
X189344514Y-134093239D01*
X189406762Y-134085044D01*
X189552841Y-134024536D01*
X189678282Y-133928282D01*
X189774536Y-133802841D01*
X189835044Y-133656762D01*
X189855682Y-133500000D01*
X189835044Y-133343238D01*
X189774536Y-133197159D01*
X189678282Y-133071718D01*
X189552841Y-132975464D01*
X189406762Y-132914956D01*
X189406760Y-132914955D01*
X189250001Y-132894318D01*
X189249999Y-132894318D01*
X189093239Y-132914955D01*
X189093237Y-132914956D01*
X188947160Y-132975463D01*
X188821718Y-133071718D01*
X188725463Y-133197160D01*
X188664956Y-133343237D01*
X188664955Y-133343239D01*
X188644318Y-133499998D01*
X188644318Y-133500001D01*
X161500000Y-133500001D01*
X161500000Y-126136401D01*
X213313118Y-126136401D01*
X213333755Y-126293160D01*
X213333756Y-126293162D01*
X213389109Y-126426797D01*
X213394264Y-126439241D01*
X213490518Y-126564682D01*
X213615959Y-126660936D01*
X213762038Y-126721444D01*
X213840418Y-126731762D01*
X213918799Y-126742082D01*
X213918800Y-126742082D01*
X213918801Y-126742082D01*
X213971054Y-126735202D01*
X214075562Y-126721444D01*
X214221641Y-126660936D01*
X214347082Y-126564682D01*
X214443336Y-126439241D01*
X214503844Y-126293162D01*
X214524482Y-126136400D01*
X214503844Y-125979638D01*
X214443336Y-125833559D01*
X214347082Y-125708118D01*
X214347080Y-125708117D01*
X214347080Y-125708116D01*
X214260455Y-125641647D01*
X214238988Y-125625174D01*
X214197786Y-125568748D01*
X214193631Y-125499002D01*
X214227843Y-125438082D01*
X214238984Y-125428427D01*
X214347082Y-125345482D01*
X214443336Y-125220041D01*
X214503844Y-125073962D01*
X214524482Y-124917200D01*
X214524186Y-124914955D01*
X214503844Y-124760439D01*
X214503844Y-124760438D01*
X214443336Y-124614359D01*
X214347082Y-124488918D01*
X214221641Y-124392664D01*
X214221640Y-124392663D01*
X214221638Y-124392662D01*
X214170211Y-124371361D01*
X214115807Y-124327520D01*
X214093742Y-124261226D01*
X214111021Y-124193527D01*
X214162158Y-124145916D01*
X214170211Y-124142239D01*
X214187113Y-124135238D01*
X214221641Y-124120936D01*
X214347082Y-124024682D01*
X214443336Y-123899241D01*
X214503844Y-123753162D01*
X214524482Y-123596400D01*
X214503844Y-123439638D01*
X214443336Y-123293559D01*
X214347082Y-123168118D01*
X214221641Y-123071864D01*
X214221634Y-123071861D01*
X214216315Y-123068790D01*
X214168098Y-123018225D01*
X214154872Y-122949618D01*
X214180837Y-122884752D01*
X214216315Y-122854010D01*
X214221628Y-122850941D01*
X214221641Y-122850936D01*
X214347082Y-122754682D01*
X214443336Y-122629241D01*
X214503844Y-122483162D01*
X214524482Y-122326400D01*
X214520749Y-122298048D01*
X214506459Y-122189500D01*
X214503844Y-122169638D01*
X214443336Y-122023559D01*
X214347082Y-121898118D01*
X214221641Y-121801864D01*
X214221634Y-121801861D01*
X214216315Y-121798790D01*
X214168098Y-121748225D01*
X214154872Y-121679618D01*
X214180837Y-121614752D01*
X214216315Y-121584010D01*
X214221628Y-121580941D01*
X214221641Y-121580936D01*
X214347082Y-121484682D01*
X214443336Y-121359241D01*
X214503844Y-121213162D01*
X214518153Y-121104471D01*
X214524482Y-121056401D01*
X214524482Y-121056398D01*
X214503844Y-120899639D01*
X214503844Y-120899638D01*
X214443336Y-120753559D01*
X214347082Y-120628118D01*
X214221641Y-120531864D01*
X214075562Y-120471356D01*
X214075560Y-120471355D01*
X213918801Y-120450718D01*
X213918799Y-120450718D01*
X213762039Y-120471355D01*
X213762037Y-120471356D01*
X213615960Y-120531863D01*
X213490518Y-120628118D01*
X213394263Y-120753560D01*
X213333756Y-120899637D01*
X213333755Y-120899639D01*
X213313118Y-121056398D01*
X213313118Y-121056401D01*
X213333755Y-121213160D01*
X213333756Y-121213162D01*
X213372750Y-121307303D01*
X213394264Y-121359241D01*
X213490518Y-121484682D01*
X213615959Y-121580936D01*
X213615966Y-121580941D01*
X213621287Y-121584013D01*
X213669503Y-121634579D01*
X213682727Y-121703186D01*
X213656759Y-121768051D01*
X213621287Y-121798787D01*
X213615966Y-121801858D01*
X213490518Y-121898118D01*
X213394263Y-122023560D01*
X213333756Y-122169637D01*
X213333755Y-122169639D01*
X213313118Y-122326398D01*
X213313118Y-122326401D01*
X213333755Y-122483160D01*
X213333756Y-122483162D01*
X213394264Y-122629241D01*
X213490518Y-122754682D01*
X213615959Y-122850936D01*
X213615966Y-122850941D01*
X213621287Y-122854013D01*
X213669503Y-122904579D01*
X213682727Y-122973186D01*
X213656759Y-123038051D01*
X213621287Y-123068787D01*
X213615966Y-123071858D01*
X213490518Y-123168118D01*
X213394263Y-123293560D01*
X213333756Y-123439637D01*
X213333755Y-123439639D01*
X213313118Y-123596398D01*
X213313118Y-123596401D01*
X213333755Y-123753160D01*
X213333756Y-123753162D01*
X213394264Y-123899241D01*
X213490518Y-124024682D01*
X213615959Y-124120936D01*
X213650487Y-124135238D01*
X213667389Y-124142239D01*
X213721792Y-124186080D01*
X213743857Y-124252374D01*
X213726578Y-124320074D01*
X213675440Y-124367684D01*
X213667389Y-124371361D01*
X213615960Y-124392663D01*
X213490518Y-124488918D01*
X213394263Y-124614360D01*
X213333756Y-124760437D01*
X213333755Y-124760439D01*
X213313118Y-124917198D01*
X213313118Y-124917201D01*
X213333755Y-125073960D01*
X213333756Y-125073962D01*
X213394264Y-125220041D01*
X213490518Y-125345482D01*
X213598611Y-125428425D01*
X213639813Y-125484852D01*
X213643968Y-125554598D01*
X213609755Y-125615519D01*
X213598615Y-125625172D01*
X213557447Y-125656762D01*
X213490518Y-125708118D01*
X213394263Y-125833560D01*
X213333756Y-125979637D01*
X213333755Y-125979639D01*
X213313118Y-126136398D01*
X213313118Y-126136401D01*
X161500000Y-126136401D01*
X161500000Y-125500000D01*
X188144318Y-125500000D01*
X188164955Y-125656760D01*
X188164956Y-125656762D01*
X188200932Y-125743617D01*
X188225464Y-125802841D01*
X188321718Y-125928282D01*
X188447159Y-126024536D01*
X188593238Y-126085044D01*
X188671619Y-126095362D01*
X188749999Y-126105682D01*
X188750000Y-126105682D01*
X188750001Y-126105682D01*
X188802254Y-126098802D01*
X188906762Y-126085044D01*
X189052841Y-126024536D01*
X189178282Y-125928282D01*
X189274536Y-125802841D01*
X189335044Y-125656762D01*
X189355682Y-125500000D01*
X189348011Y-125441736D01*
X189341923Y-125395491D01*
X189335044Y-125343238D01*
X189274536Y-125197159D01*
X189178282Y-125071718D01*
X189052841Y-124975464D01*
X188912179Y-124917200D01*
X188906762Y-124914956D01*
X188906760Y-124914955D01*
X188750001Y-124894318D01*
X188749999Y-124894318D01*
X188593239Y-124914955D01*
X188593237Y-124914956D01*
X188447160Y-124975463D01*
X188321718Y-125071718D01*
X188225463Y-125197160D01*
X188164956Y-125343237D01*
X188164955Y-125343239D01*
X188144318Y-125499998D01*
X188144318Y-125500000D01*
X161500000Y-125500000D01*
X161500000Y-123500001D01*
X183894318Y-123500001D01*
X183914955Y-123656760D01*
X183914956Y-123656762D01*
X183927198Y-123686318D01*
X183975464Y-123802841D01*
X184071718Y-123928282D01*
X184197159Y-124024536D01*
X184343238Y-124085044D01*
X184421619Y-124095362D01*
X184499999Y-124105682D01*
X184500000Y-124105682D01*
X184500001Y-124105682D01*
X184552253Y-124098802D01*
X184656762Y-124085044D01*
X184802841Y-124024536D01*
X184928282Y-123928282D01*
X185024536Y-123802841D01*
X185085044Y-123656762D01*
X185105682Y-123500000D01*
X185085044Y-123343238D01*
X185024536Y-123197159D01*
X184928282Y-123071718D01*
X184802841Y-122975464D01*
X184797341Y-122973186D01*
X184656762Y-122914956D01*
X184656760Y-122914955D01*
X184500001Y-122894318D01*
X184499999Y-122894318D01*
X184343239Y-122914955D01*
X184343237Y-122914956D01*
X184197160Y-122975463D01*
X184071718Y-123071718D01*
X183975463Y-123197160D01*
X183914956Y-123343237D01*
X183914955Y-123343239D01*
X183894318Y-123499998D01*
X183894318Y-123500001D01*
X161500000Y-123500001D01*
X161500000Y-121539000D01*
X178423722Y-121539000D01*
X178442762Y-121695818D01*
X178482980Y-121801863D01*
X178498780Y-121843523D01*
X178588517Y-121973530D01*
X178706760Y-122078283D01*
X178706762Y-122078284D01*
X178846634Y-122151696D01*
X179000014Y-122189500D01*
X179000015Y-122189500D01*
X179157985Y-122189500D01*
X179311365Y-122151696D01*
X179328953Y-122142465D01*
X179451240Y-122078283D01*
X179569483Y-121973530D01*
X179606432Y-121920000D01*
X194924722Y-121920000D01*
X194943762Y-122076818D01*
X194995385Y-122212934D01*
X194999780Y-122224523D01*
X195089517Y-122354530D01*
X195207760Y-122459283D01*
X195207762Y-122459284D01*
X195347634Y-122532696D01*
X195501014Y-122570500D01*
X195501015Y-122570500D01*
X195658985Y-122570500D01*
X195812365Y-122532696D01*
X195812364Y-122532695D01*
X195952240Y-122459283D01*
X196070483Y-122354530D01*
X196089899Y-122326401D01*
X204321518Y-122326401D01*
X204342155Y-122483160D01*
X204342156Y-122483162D01*
X204402664Y-122629241D01*
X204498918Y-122754682D01*
X204624359Y-122850936D01*
X204770438Y-122911444D01*
X204848818Y-122921762D01*
X204927199Y-122932082D01*
X204927200Y-122932082D01*
X204927201Y-122932082D01*
X204979453Y-122925202D01*
X205083962Y-122911444D01*
X205230041Y-122850936D01*
X205355482Y-122754682D01*
X205451736Y-122629241D01*
X205512244Y-122483162D01*
X205532882Y-122326400D01*
X205529149Y-122298048D01*
X205514859Y-122189500D01*
X205512244Y-122169638D01*
X205451736Y-122023559D01*
X205355482Y-121898118D01*
X205230041Y-121801864D01*
X205222612Y-121798787D01*
X205083962Y-121741356D01*
X205083960Y-121741355D01*
X204927201Y-121720718D01*
X204927199Y-121720718D01*
X204770439Y-121741355D01*
X204770437Y-121741356D01*
X204624360Y-121801863D01*
X204498918Y-121898118D01*
X204402663Y-122023560D01*
X204342156Y-122169637D01*
X204342155Y-122169639D01*
X204321518Y-122326398D01*
X204321518Y-122326401D01*
X196089899Y-122326401D01*
X196160220Y-122224523D01*
X196216237Y-122076818D01*
X196235278Y-121920000D01*
X196216237Y-121763182D01*
X196160220Y-121615477D01*
X196070483Y-121485470D01*
X195952240Y-121380717D01*
X195952238Y-121380716D01*
X195952237Y-121380715D01*
X195812365Y-121307303D01*
X195695083Y-121278397D01*
X195634702Y-121243241D01*
X195602913Y-121181022D01*
X195609809Y-121111493D01*
X195653200Y-121056730D01*
X195695083Y-121037603D01*
X195812365Y-121008696D01*
X195829477Y-120999715D01*
X195952240Y-120935283D01*
X196070483Y-120830530D01*
X196160220Y-120700523D01*
X196216237Y-120552818D01*
X196235278Y-120396000D01*
X196216237Y-120239182D01*
X196160220Y-120091477D01*
X196070483Y-119961470D01*
X195952240Y-119856717D01*
X195952238Y-119856716D01*
X195952237Y-119856715D01*
X195812365Y-119783303D01*
X195658986Y-119745500D01*
X195658985Y-119745500D01*
X195501015Y-119745500D01*
X195501014Y-119745500D01*
X195347634Y-119783303D01*
X195207762Y-119856715D01*
X195089516Y-119961471D01*
X194999781Y-120091475D01*
X194999780Y-120091476D01*
X194943762Y-120239181D01*
X194924722Y-120395999D01*
X194924722Y-120396000D01*
X194943762Y-120552818D01*
X194999780Y-120700522D01*
X194999780Y-120700523D01*
X195089517Y-120830530D01*
X195207760Y-120935283D01*
X195347635Y-121008696D01*
X195434749Y-121030167D01*
X195464917Y-121037603D01*
X195525297Y-121072759D01*
X195557086Y-121134978D01*
X195550190Y-121204507D01*
X195506799Y-121259270D01*
X195464917Y-121278397D01*
X195347633Y-121307304D01*
X195207762Y-121380715D01*
X195207759Y-121380717D01*
X195207760Y-121380717D01*
X195090407Y-121484682D01*
X195089516Y-121485471D01*
X194999781Y-121615475D01*
X194999780Y-121615476D01*
X194943762Y-121763181D01*
X194924722Y-121919999D01*
X194924722Y-121920000D01*
X179606432Y-121920000D01*
X179659220Y-121843523D01*
X179715237Y-121695818D01*
X179734278Y-121539000D01*
X179727779Y-121485471D01*
X179715237Y-121382181D01*
X179693992Y-121326164D01*
X179659220Y-121234477D01*
X179569483Y-121104470D01*
X179531140Y-121070501D01*
X186644318Y-121070501D01*
X186664955Y-121227260D01*
X186664956Y-121227262D01*
X186719623Y-121359241D01*
X186725464Y-121373341D01*
X186821718Y-121498782D01*
X186947159Y-121595036D01*
X187093238Y-121655544D01*
X187171619Y-121665862D01*
X187249999Y-121676182D01*
X187250000Y-121676182D01*
X187250001Y-121676182D01*
X187302254Y-121669302D01*
X187406762Y-121655544D01*
X187552841Y-121595036D01*
X187678282Y-121498782D01*
X187774536Y-121373341D01*
X187835044Y-121227262D01*
X187855682Y-121070500D01*
X187853825Y-121056398D01*
X187841923Y-120965991D01*
X187835044Y-120913738D01*
X187774536Y-120767659D01*
X187678282Y-120642218D01*
X187552841Y-120545964D01*
X187534821Y-120538500D01*
X187406762Y-120485456D01*
X187406760Y-120485455D01*
X187250001Y-120464818D01*
X187249999Y-120464818D01*
X187093239Y-120485455D01*
X187093237Y-120485456D01*
X186947160Y-120545963D01*
X186821718Y-120642218D01*
X186725463Y-120767660D01*
X186664956Y-120913737D01*
X186664955Y-120913739D01*
X186644318Y-121070498D01*
X186644318Y-121070501D01*
X179531140Y-121070501D01*
X179451240Y-120999717D01*
X179451238Y-120999716D01*
X179451237Y-120999715D01*
X179311365Y-120926303D01*
X179157986Y-120888500D01*
X179157985Y-120888500D01*
X179000015Y-120888500D01*
X179000014Y-120888500D01*
X178846634Y-120926303D01*
X178706762Y-120999715D01*
X178663995Y-121037603D01*
X178626861Y-121070501D01*
X178588516Y-121104471D01*
X178498781Y-121234475D01*
X178498780Y-121234476D01*
X178442762Y-121382181D01*
X178423722Y-121538999D01*
X178423722Y-121539000D01*
X161500000Y-121539000D01*
X161500000Y-119888000D01*
X182732722Y-119888000D01*
X182751762Y-120044818D01*
X182796918Y-120163882D01*
X182807780Y-120192523D01*
X182897517Y-120322530D01*
X183015760Y-120427283D01*
X183015762Y-120427284D01*
X183155634Y-120500696D01*
X183309014Y-120538500D01*
X183309015Y-120538500D01*
X183466985Y-120538500D01*
X183620365Y-120500696D01*
X183676267Y-120471356D01*
X183760240Y-120427283D01*
X183878483Y-120322530D01*
X183968220Y-120192523D01*
X184024237Y-120044818D01*
X184043278Y-119888000D01*
X184041914Y-119876762D01*
X184024237Y-119731181D01*
X183996013Y-119656762D01*
X183968220Y-119583477D01*
X183910601Y-119500001D01*
X191144318Y-119500001D01*
X191164955Y-119656760D01*
X191164956Y-119656762D01*
X191201712Y-119745500D01*
X191225464Y-119802841D01*
X191321718Y-119928282D01*
X191447159Y-120024536D01*
X191593238Y-120085044D01*
X191642102Y-120091477D01*
X191749999Y-120105682D01*
X191750000Y-120105682D01*
X191750001Y-120105682D01*
X191823360Y-120096024D01*
X191906762Y-120085044D01*
X192052841Y-120024536D01*
X192178282Y-119928282D01*
X192274536Y-119802841D01*
X192335044Y-119656762D01*
X192350842Y-119536762D01*
X192355682Y-119500001D01*
X192355682Y-119499998D01*
X192339884Y-119380001D01*
X196193518Y-119380001D01*
X196214155Y-119536760D01*
X196214156Y-119536762D01*
X196274664Y-119682841D01*
X196370918Y-119808282D01*
X196496359Y-119904536D01*
X196642438Y-119965044D01*
X196720818Y-119975362D01*
X196799199Y-119985682D01*
X196799200Y-119985682D01*
X196799201Y-119985682D01*
X196851453Y-119978802D01*
X196955962Y-119965044D01*
X197102041Y-119904536D01*
X197227482Y-119808282D01*
X197283252Y-119735601D01*
X206556718Y-119735601D01*
X206577355Y-119892360D01*
X206577356Y-119892362D01*
X206607461Y-119965043D01*
X206637864Y-120038441D01*
X206734118Y-120163882D01*
X206859559Y-120260136D01*
X207005638Y-120320644D01*
X207019964Y-120322530D01*
X207162399Y-120341282D01*
X207162400Y-120341282D01*
X207162401Y-120341282D01*
X207214653Y-120334402D01*
X207319162Y-120320644D01*
X207465241Y-120260136D01*
X207590682Y-120163882D01*
X207686936Y-120038441D01*
X207747444Y-119892362D01*
X207768082Y-119735600D01*
X207767500Y-119731182D01*
X207748055Y-119583477D01*
X207747444Y-119578838D01*
X207686936Y-119432759D01*
X207590682Y-119307318D01*
X207465241Y-119211064D01*
X207431671Y-119197159D01*
X207319162Y-119150556D01*
X207319160Y-119150555D01*
X207162401Y-119129918D01*
X207162399Y-119129918D01*
X207005639Y-119150555D01*
X207005637Y-119150556D01*
X206859560Y-119211063D01*
X206734118Y-119307318D01*
X206637863Y-119432760D01*
X206577356Y-119578837D01*
X206577355Y-119578839D01*
X206556718Y-119735598D01*
X206556718Y-119735601D01*
X197283252Y-119735601D01*
X197323736Y-119682841D01*
X197384244Y-119536762D01*
X197404882Y-119380000D01*
X197400042Y-119343239D01*
X197384244Y-119223239D01*
X197384244Y-119223238D01*
X197323736Y-119077159D01*
X197227482Y-118951718D01*
X197102041Y-118855464D01*
X196955962Y-118794956D01*
X196955960Y-118794955D01*
X196799201Y-118774318D01*
X196799199Y-118774318D01*
X196642439Y-118794955D01*
X196642437Y-118794956D01*
X196496360Y-118855463D01*
X196370918Y-118951718D01*
X196274663Y-119077160D01*
X196214156Y-119223237D01*
X196214155Y-119223239D01*
X196193518Y-119379998D01*
X196193518Y-119380001D01*
X192339884Y-119380001D01*
X192339884Y-119380000D01*
X192335044Y-119343238D01*
X192274536Y-119197159D01*
X192178282Y-119071718D01*
X192052841Y-118975464D01*
X191906762Y-118914956D01*
X191906760Y-118914955D01*
X191750001Y-118894318D01*
X191749999Y-118894318D01*
X191593239Y-118914955D01*
X191593237Y-118914956D01*
X191447160Y-118975463D01*
X191321718Y-119071718D01*
X191225463Y-119197160D01*
X191164956Y-119343237D01*
X191164955Y-119343239D01*
X191144318Y-119499998D01*
X191144318Y-119500001D01*
X183910601Y-119500001D01*
X183878483Y-119453470D01*
X183760240Y-119348717D01*
X183760238Y-119348716D01*
X183760237Y-119348715D01*
X183620365Y-119275303D01*
X183466986Y-119237500D01*
X183466985Y-119237500D01*
X183309015Y-119237500D01*
X183309014Y-119237500D01*
X183155634Y-119275303D01*
X183015762Y-119348715D01*
X182897516Y-119453471D01*
X182807781Y-119583475D01*
X182807780Y-119583476D01*
X182751762Y-119731181D01*
X182732722Y-119887999D01*
X182732722Y-119888000D01*
X161500000Y-119888000D01*
X161500000Y-116500001D01*
X166144318Y-116500001D01*
X166164955Y-116656760D01*
X166164956Y-116656762D01*
X166225464Y-116802841D01*
X166321718Y-116928282D01*
X166447159Y-117024536D01*
X166593238Y-117085044D01*
X166659944Y-117093826D01*
X166749999Y-117105682D01*
X166750000Y-117105682D01*
X166750001Y-117105682D01*
X166802253Y-117098802D01*
X166906762Y-117085044D01*
X167052841Y-117024536D01*
X167178282Y-116928282D01*
X167274536Y-116802841D01*
X167335044Y-116656762D01*
X167355682Y-116500000D01*
X167335044Y-116343238D01*
X167274536Y-116197159D01*
X167178282Y-116071718D01*
X167052841Y-115975464D01*
X166906762Y-115914956D01*
X166906760Y-115914955D01*
X166750001Y-115894318D01*
X166749999Y-115894318D01*
X166593239Y-115914955D01*
X166593237Y-115914956D01*
X166447160Y-115975463D01*
X166321718Y-116071718D01*
X166225463Y-116197160D01*
X166164956Y-116343237D01*
X166164955Y-116343239D01*
X166144318Y-116499998D01*
X166144318Y-116500001D01*
X161500000Y-116500001D01*
X161500000Y-113750001D01*
X180894318Y-113750001D01*
X180914955Y-113906760D01*
X180914956Y-113906762D01*
X180975464Y-114052841D01*
X181071718Y-114178282D01*
X181197159Y-114274536D01*
X181343238Y-114335044D01*
X181421619Y-114345362D01*
X181499999Y-114355682D01*
X181500000Y-114355682D01*
X181500001Y-114355682D01*
X181552253Y-114348802D01*
X181656762Y-114335044D01*
X181802841Y-114274536D01*
X181928282Y-114178282D01*
X182024536Y-114052841D01*
X182085044Y-113906762D01*
X182105682Y-113750000D01*
X182085044Y-113593238D01*
X182024536Y-113447159D01*
X181928282Y-113321718D01*
X181802841Y-113225464D01*
X181656762Y-113164956D01*
X181656760Y-113164955D01*
X181500001Y-113144318D01*
X181499999Y-113144318D01*
X181343239Y-113164955D01*
X181343237Y-113164956D01*
X181197160Y-113225463D01*
X181071718Y-113321718D01*
X180975463Y-113447160D01*
X180914956Y-113593237D01*
X180914955Y-113593239D01*
X180894318Y-113749998D01*
X180894318Y-113750001D01*
X161500000Y-113750001D01*
X161500000Y-112624000D01*
X161519685Y-112556961D01*
X161572489Y-112511206D01*
X161624000Y-112500000D01*
X215626000Y-112500000D01*
X215693039Y-112519685D01*
G37*
%TD.AperFunction*%
%TD*%
M02*
